G04 Layer_Physical_Order=2*
G04 Layer_Color=16711680*
%FSLAX25Y25*%
%MOIN*%
G70*
G01*
G75*
%ADD12C,0.05000*%
%ADD17C,0.06500*%
%ADD18C,0.25000*%
%ADD19R,0.05905X0.05905*%
%ADD20C,0.05905*%
%ADD21R,0.05905X0.05905*%
G36*
X148980Y1020D02*
X1020D01*
Y148980D01*
X148980D01*
Y1020D01*
D02*
G37*
%LPC*%
G36*
X74000Y26787D02*
X72891Y26641D01*
X71857Y26212D01*
X70969Y25531D01*
X70288Y24643D01*
X69859Y23609D01*
X69713Y22500D01*
X69859Y21391D01*
X70288Y20357D01*
X70969Y19469D01*
X71857Y18788D01*
X72891Y18359D01*
X74000Y18213D01*
X75109Y18359D01*
X76143Y18788D01*
X77031Y19469D01*
X77712Y20357D01*
X78141Y21391D01*
X78287Y22500D01*
X78141Y23609D01*
X77712Y24643D01*
X77031Y25531D01*
X76143Y26212D01*
X75109Y26641D01*
X74000Y26787D01*
D02*
G37*
G36*
X137000Y68987D02*
X135968Y68851D01*
X135007Y68453D01*
X134181Y67819D01*
X133547Y66993D01*
X133149Y66032D01*
X133013Y65000D01*
X133149Y63968D01*
X133547Y63007D01*
X134181Y62181D01*
X135007Y61547D01*
X135968Y61149D01*
X137000Y61013D01*
X138032Y61149D01*
X138993Y61547D01*
X139819Y62181D01*
X140453Y63007D01*
X140851Y63968D01*
X140987Y65000D01*
X140851Y66032D01*
X140453Y66993D01*
X139819Y67819D01*
X138993Y68453D01*
X138032Y68851D01*
X137000Y68987D01*
D02*
G37*
G36*
X22500Y36042D02*
X20382Y35875D01*
X18315Y35379D01*
X16352Y34566D01*
X14540Y33456D01*
X12924Y32076D01*
X11545Y30460D01*
X10434Y28648D01*
X9621Y26685D01*
X9125Y24618D01*
X8958Y22500D01*
X9125Y20382D01*
X9621Y18315D01*
X10434Y16352D01*
X11545Y14540D01*
X12924Y12924D01*
X14540Y11545D01*
X16352Y10434D01*
X18315Y9621D01*
X20382Y9125D01*
X22500Y8958D01*
X24618Y9125D01*
X26685Y9621D01*
X28648Y10434D01*
X30460Y11545D01*
X32076Y12924D01*
X33456Y14540D01*
X34566Y16352D01*
X35379Y18315D01*
X35875Y20382D01*
X36042Y22500D01*
X35875Y24618D01*
X35379Y26685D01*
X34566Y28648D01*
X33456Y30460D01*
X32076Y32076D01*
X30460Y33456D01*
X28648Y34566D01*
X26685Y35379D01*
X24618Y35875D01*
X22500Y36042D01*
D02*
G37*
G36*
X127500D02*
X125382Y35875D01*
X123315Y35379D01*
X121352Y34566D01*
X119540Y33456D01*
X117924Y32076D01*
X116544Y30460D01*
X115434Y28648D01*
X114621Y26685D01*
X114125Y24618D01*
X113958Y22500D01*
X114125Y20382D01*
X114621Y18315D01*
X115434Y16352D01*
X116544Y14540D01*
X117924Y12924D01*
X119540Y11545D01*
X121352Y10434D01*
X123315Y9621D01*
X125382Y9125D01*
X127500Y8958D01*
X129618Y9125D01*
X131685Y9621D01*
X133648Y10434D01*
X135460Y11545D01*
X137075Y12924D01*
X138455Y14540D01*
X139566Y16352D01*
X140379Y18315D01*
X140875Y20382D01*
X141042Y22500D01*
X140875Y24618D01*
X140379Y26685D01*
X139566Y28648D01*
X138455Y30460D01*
X137075Y32076D01*
X135460Y33456D01*
X133648Y34566D01*
X131685Y35379D01*
X129618Y35875D01*
X127500Y36042D01*
D02*
G37*
G36*
X22500Y141042D02*
X20382Y140875D01*
X18315Y140379D01*
X16352Y139566D01*
X14540Y138455D01*
X12924Y137075D01*
X11545Y135460D01*
X10434Y133648D01*
X9621Y131685D01*
X9125Y129618D01*
X8958Y127500D01*
X9125Y125382D01*
X9621Y123315D01*
X10434Y121352D01*
X11545Y119540D01*
X12924Y117924D01*
X14540Y116544D01*
X16352Y115434D01*
X18315Y114621D01*
X20382Y114125D01*
X22500Y113958D01*
X24618Y114125D01*
X26685Y114621D01*
X28648Y115434D01*
X30460Y116544D01*
X32076Y117924D01*
X33456Y119540D01*
X34566Y121352D01*
X35379Y123315D01*
X35875Y125382D01*
X36042Y127500D01*
X35875Y129618D01*
X35379Y131685D01*
X34566Y133648D01*
X33456Y135460D01*
X32076Y137075D01*
X30460Y138455D01*
X28648Y139566D01*
X26685Y140379D01*
X24618Y140875D01*
X22500Y141042D01*
D02*
G37*
G36*
X55453Y140972D02*
X49547D01*
X49157Y140895D01*
X48826Y140674D01*
X48605Y140343D01*
X48528Y139953D01*
Y134047D01*
X48605Y133657D01*
X48826Y133326D01*
X49157Y133105D01*
X49547Y133028D01*
X55453D01*
X55843Y133105D01*
X56174Y133326D01*
X56395Y133657D01*
X56472Y134047D01*
Y139953D01*
X56395Y140343D01*
X56174Y140674D01*
X55843Y140895D01*
X55453Y140972D01*
D02*
G37*
G36*
X92953D02*
X87047D01*
X86657Y140895D01*
X86326Y140674D01*
X86105Y140343D01*
X86028Y139953D01*
Y134047D01*
X86105Y133657D01*
X86326Y133326D01*
X86657Y133105D01*
X87047Y133028D01*
X92953D01*
X93343Y133105D01*
X93674Y133326D01*
X93895Y133657D01*
X93972Y134047D01*
Y139953D01*
X93895Y140343D01*
X93674Y140674D01*
X93343Y140895D01*
X92953Y140972D01*
D02*
G37*
G36*
X100000Y140987D02*
X98968Y140851D01*
X98007Y140453D01*
X97181Y139819D01*
X96547Y138993D01*
X96149Y138032D01*
X96013Y137000D01*
X96149Y135968D01*
X96547Y135007D01*
X97181Y134181D01*
X98007Y133547D01*
X98968Y133149D01*
X100000Y133013D01*
X101032Y133149D01*
X101993Y133547D01*
X102819Y134181D01*
X103453Y135007D01*
X103851Y135968D01*
X103987Y137000D01*
X103851Y138032D01*
X103453Y138993D01*
X102819Y139819D01*
X101993Y140453D01*
X101032Y140851D01*
X100000Y140987D01*
D02*
G37*
G36*
X127500Y141042D02*
X125382Y140875D01*
X123315Y140379D01*
X121352Y139566D01*
X119540Y138455D01*
X117924Y137075D01*
X116544Y135460D01*
X115434Y133648D01*
X114621Y131685D01*
X114125Y129618D01*
X113958Y127500D01*
X114125Y125382D01*
X114621Y123315D01*
X115434Y121352D01*
X116544Y119540D01*
X117924Y117924D01*
X119540Y116544D01*
X121352Y115434D01*
X123315Y114621D01*
X125382Y114125D01*
X127500Y113958D01*
X129618Y114125D01*
X131685Y114621D01*
X133648Y115434D01*
X135460Y116544D01*
X137075Y117924D01*
X138455Y119540D01*
X139566Y121352D01*
X140379Y123315D01*
X140875Y125382D01*
X141042Y127500D01*
X140875Y129618D01*
X140379Y131685D01*
X139566Y133648D01*
X138455Y135460D01*
X137075Y137075D01*
X135460Y138455D01*
X133648Y139566D01*
X131685Y140379D01*
X129618Y140875D01*
X127500Y141042D01*
D02*
G37*
G36*
X62500Y140987D02*
X61468Y140851D01*
X60507Y140453D01*
X59681Y139819D01*
X59047Y138993D01*
X58649Y138032D01*
X58513Y137000D01*
X58649Y135968D01*
X59047Y135007D01*
X59681Y134181D01*
X60507Y133547D01*
X61468Y133149D01*
X62500Y133013D01*
X63532Y133149D01*
X64493Y133547D01*
X65319Y134181D01*
X65953Y135007D01*
X66351Y135968D01*
X66487Y137000D01*
X66351Y138032D01*
X65953Y138993D01*
X65319Y139819D01*
X64493Y140453D01*
X63532Y140851D01*
X62500Y140987D01*
D02*
G37*
%LPD*%
D12*
X22507Y57800D02*
D03*
X27800Y42900D02*
D03*
D17*
X74000Y22500D02*
D03*
X137000Y96232D02*
D03*
D18*
X22500Y127500D02*
D03*
X127500D02*
D03*
X22500Y22500D02*
D03*
X127500D02*
D03*
D19*
X90000Y137000D02*
D03*
X52500D02*
D03*
D20*
X100000D02*
D03*
X137000Y65000D02*
D03*
X62500Y137000D02*
D03*
D21*
X137000Y75000D02*
D03*
M02*
