G04 Layer_Color=32768*
%FSLAX25Y25*%
%MOIN*%
G70*
G01*
G75*
%ADD37C,0.00394*%
D37*
X27632Y94200D02*
X31569D01*
X29600Y92232D02*
Y96169D01*
X34521Y85539D02*
Y102861D01*
X24679Y85539D02*
Y102861D01*
X34521D01*
X24679Y85539D02*
X34521D01*
X48637Y105731D02*
Y109669D01*
X46668Y107700D02*
X50605D01*
X39976Y112621D02*
X57298D01*
X39976Y102779D02*
X57298D01*
X39976D02*
Y112621D01*
X57298Y102779D02*
Y112621D01*
X84237Y105731D02*
Y109669D01*
X82269Y107700D02*
X86206D01*
X75576Y112621D02*
X92898D01*
X75576Y102779D02*
X92898D01*
X75576D02*
Y112621D01*
X92898Y102779D02*
Y112621D01*
X109963Y63043D02*
Y66980D01*
X107994Y65012D02*
X111932D01*
X101302Y60091D02*
X118624D01*
X101302Y69933D02*
X118624D01*
Y60091D02*
Y69933D01*
X101302Y60091D02*
Y69933D01*
X40724Y40931D02*
Y44868D01*
X38756Y42900D02*
X42693D01*
X32063Y47821D02*
X49386D01*
X32063Y37979D02*
X49386D01*
X32063D02*
Y47821D01*
X49386Y37979D02*
Y47821D01*
X35232Y55831D02*
Y59768D01*
X33263Y57800D02*
X37200D01*
X26570Y62721D02*
X43893D01*
X26570Y52879D02*
X43893D01*
X26570D02*
Y62721D01*
X43893Y52879D02*
Y62721D01*
X63968Y38963D02*
X67905D01*
X65937Y36994D02*
Y40931D01*
X70858Y30302D02*
Y47624D01*
X61016Y30302D02*
Y47624D01*
X70858D01*
X61016Y30302D02*
X70858D01*
X61668Y86994D02*
X65605D01*
X63637Y85026D02*
Y88963D01*
X58716Y78333D02*
Y95656D01*
X68558Y78333D02*
Y95656D01*
X58716Y78333D02*
X68558D01*
X58716Y95656D02*
X68558D01*
X109963Y73043D02*
Y76980D01*
X107994Y75012D02*
X111932D01*
X101302Y70091D02*
X118624D01*
X101302Y79933D02*
X118624D01*
Y70091D02*
Y79933D01*
X101302Y70091D02*
Y79933D01*
X97061Y35420D02*
Y50380D01*
X75013Y35420D02*
Y50380D01*
Y35420D02*
X97061D01*
X75013Y50380D02*
X97061D01*
X84069Y42900D02*
X88006D01*
X86037Y40931D02*
Y44868D01*
X93024Y75520D02*
Y90480D01*
X70976Y75520D02*
Y90480D01*
Y75520D02*
X93024D01*
X70976Y90480D02*
X93024D01*
X80032Y83000D02*
X83969D01*
X82000Y81032D02*
Y84969D01*
M02*
