G04 Layer_Color=255*
%FSLAX25Y25*%
%MOIN*%
G70*
G01*
G75*
%ADD10R,0.05905X0.05512*%
%ADD11R,0.05512X0.05905*%
%ADD12C,0.05000*%
%ADD13C,0.07500*%
%ADD14R,0.05905X0.11024*%
%ADD15R,0.05118X0.03543*%
%ADD17C,0.06500*%
%ADD18C,0.25000*%
%ADD19R,0.05905X0.05905*%
%ADD20C,0.05905*%
%ADD21R,0.05905X0.05905*%
D10*
X29600Y98137D02*
D03*
Y90263D02*
D03*
X65937Y42900D02*
D03*
Y35026D02*
D03*
X63637Y83057D02*
D03*
Y90931D02*
D03*
D11*
X44700Y107700D02*
D03*
X52574D02*
D03*
X80300D02*
D03*
X88174D02*
D03*
X113900Y65012D02*
D03*
X106026D02*
D03*
X36787Y42900D02*
D03*
X44661D02*
D03*
X31295Y57800D02*
D03*
X39169D02*
D03*
X113900Y75012D02*
D03*
X106026D02*
D03*
D12*
X5000Y145000D02*
D03*
Y5000D02*
D03*
X145000D02*
D03*
D13*
X12200Y98100D02*
D03*
X104000Y107700D02*
D03*
X66100Y64000D02*
D03*
X66500Y107700D02*
D03*
X17500Y77100D02*
D03*
D14*
X92139Y42900D02*
D03*
X79935D02*
D03*
X88102Y83000D02*
D03*
X75898D02*
D03*
D15*
X50252Y77095D02*
D03*
Y83005D02*
D03*
Y71194D02*
D03*
D17*
X74000Y22500D02*
D03*
X137000Y96232D02*
D03*
D18*
X22500Y127500D02*
D03*
X127500D02*
D03*
X22500Y22500D02*
D03*
X127500D02*
D03*
D19*
X90000Y137000D02*
D03*
X52500D02*
D03*
D20*
X100000D02*
D03*
X137000Y65000D02*
D03*
X62500Y137000D02*
D03*
D21*
X137000Y75000D02*
D03*
M02*
