G04 Layer_Color=2752767*
%FSLAX26Y26*%
%MOIN*%
%TF.FileFunction,Drawing*%
%TF.Part,Single*%
G01*
G75*
%TA.AperFunction,NonConductor*%
%ADD23C,0.010000*%
%ADD46C,0.003333*%
%ADD47C,0.015000*%
%ADD48C,0.025000*%
%ADD49C,0.016000*%
%ADD50C,0.006000*%
D23*
X2443958Y-855167D02*
G03*
X2443958Y-855167I-33333J0D01*
G01*
X2377292Y-438500D02*
X2410625Y-421833D01*
X2443958Y-438500D01*
X2427292Y-405167D02*
X2443958Y-438500D01*
X2427292Y-405167D02*
X2443958Y-371833D01*
X2410625Y-388500D02*
X2443958Y-371833D01*
X2377292D02*
X2410625Y-388500D01*
X2377292Y-371833D02*
X2393958Y-405167D01*
X2377292Y-438500D02*
X2393958Y-405167D01*
X2410625Y-588500D02*
X2443958Y-521833D01*
X2377292D02*
X2443958D01*
X2377292D02*
X2410625Y-588500D01*
X2377292Y-738500D02*
X2443958D01*
Y-671833D01*
X2377292D02*
X2443958D01*
X2377292Y-738500D02*
Y-671833D01*
X1500000Y-400000D02*
Y-15000D01*
X0Y-400000D02*
Y-15000D01*
X939938Y-390000D02*
X1500000D01*
X0D02*
X528061D01*
X1440000Y-370000D02*
X1500000Y-390000D01*
X1440000Y-410000D02*
X1500000Y-390000D01*
X0D02*
X60000Y-410000D01*
X0Y-390000D02*
X60000Y-370000D01*
X-410000Y1500000D02*
X-15000D01*
X-410000Y0D02*
X-15000D01*
X-400000Y939938D02*
Y1500000D01*
Y0D02*
Y528061D01*
X-420000Y1440000D02*
X-400000Y1500000D01*
X-380000Y1440000D01*
X-400000Y0D02*
X-380000Y60000D01*
X-420000D02*
X-400000Y0D01*
X1275000Y-200000D02*
Y86000D01*
X225000Y-200000D02*
Y86000D01*
X939938Y-190000D02*
X1275000D01*
X225000D02*
X528061D01*
X1215000Y-170000D02*
X1275000Y-190000D01*
X1215000Y-210000D02*
X1275000Y-190000D01*
X225000D02*
X285000Y-210000D01*
X225000Y-190000D02*
X285000Y-170000D01*
X-200000Y1275000D02*
X86000D01*
X-200000Y225000D02*
X86000D01*
X-190000Y939938D02*
Y1275000D01*
Y225000D02*
Y528061D01*
X-210000Y1215000D02*
X-190000Y1275000D01*
X-170000Y1215000D01*
X-190000Y225000D02*
X-170000Y285000D01*
X-210000D02*
X-190000Y225000D01*
X7012239Y-378519D02*
Y-418507D01*
X7032232Y-438500D01*
X7052226Y-418507D01*
Y-378519D01*
X7072219Y-438500D02*
X7092213D01*
X7082216D01*
Y-398513D01*
X7072219D01*
X7132200D02*
X7152194D01*
X7162190Y-408510D01*
Y-438500D01*
X7132200D01*
X7122203Y-428503D01*
X7132200Y-418507D01*
X7162190D01*
X7012239Y-588500D02*
Y-528519D01*
X7042229D01*
X7052226Y-538516D01*
Y-558510D01*
X7042229Y-568506D01*
X7012239D01*
X7082216Y-548513D02*
X7102210D01*
X7112207Y-558510D01*
Y-588500D01*
X7082216D01*
X7072219Y-578503D01*
X7082216Y-568506D01*
X7112207D01*
X7172187Y-528519D02*
Y-588500D01*
X7142197D01*
X7132200Y-578503D01*
Y-558510D01*
X7142197Y-548513D01*
X7172187D01*
X7012239Y-738500D02*
Y-678519D01*
X7042229D01*
X7052226Y-688516D01*
Y-708510D01*
X7042229Y-718506D01*
X7012239D01*
X7082216Y-698513D02*
X7102210D01*
X7112207Y-708510D01*
Y-738500D01*
X7082216D01*
X7072219Y-728503D01*
X7082216Y-718506D01*
X7112207D01*
X7172187Y-678519D02*
Y-738500D01*
X7142197D01*
X7132200Y-728503D01*
Y-708510D01*
X7142197Y-698513D01*
X7172187D01*
X7012239Y-888500D02*
Y-828519D01*
X7042229D01*
X7052226Y-838516D01*
Y-858510D01*
X7042229Y-868506D01*
X7012239D01*
X7082216Y-848513D02*
X7102210D01*
X7112207Y-858510D01*
Y-888500D01*
X7082216D01*
X7072219Y-878503D01*
X7082216Y-868506D01*
X7112207D01*
X7172187Y-828519D02*
Y-888500D01*
X7142197D01*
X7132200Y-878503D01*
Y-858510D01*
X7142197Y-848513D01*
X7172187D01*
X5822584Y-378519D02*
X5862571D01*
X5842578D01*
Y-438500D01*
X5912555Y-378519D02*
X5892562D01*
X5882565Y-388516D01*
Y-428503D01*
X5892562Y-438500D01*
X5912555D01*
X5922552Y-428503D01*
Y-388516D01*
X5912555Y-378519D01*
X5942546Y-438500D02*
Y-378519D01*
X5972536D01*
X5982533Y-388516D01*
Y-408510D01*
X5972536Y-418507D01*
X5942546D01*
X6062507Y-408510D02*
X6102494D01*
X6182468Y-378519D02*
Y-438500D01*
X6212458D01*
X6222455Y-428503D01*
Y-418507D01*
X6212458Y-408510D01*
X6182468D01*
X6212458D01*
X6222455Y-398513D01*
Y-388516D01*
X6212458Y-378519D01*
X6182468D01*
X6272439D02*
X6252445D01*
X6242449Y-388516D01*
Y-428503D01*
X6252445Y-438500D01*
X6272439D01*
X6282436Y-428503D01*
Y-388516D01*
X6272439Y-378519D01*
X6302429D02*
X6342416D01*
X6322423D01*
Y-438500D01*
X6362410Y-378519D02*
X6402397D01*
X6382403D01*
Y-438500D01*
X6452381Y-378519D02*
X6432387D01*
X6422390Y-388516D01*
Y-428503D01*
X6432387Y-438500D01*
X6452381D01*
X6462377Y-428503D01*
Y-388516D01*
X6452381Y-378519D01*
X6482371Y-438500D02*
Y-378519D01*
X6502364Y-398513D01*
X6522358Y-378519D01*
Y-438500D01*
X5822584Y-528519D02*
X5862571D01*
X5842578D01*
Y-588500D01*
X5912555Y-528519D02*
X5892562D01*
X5882565Y-538516D01*
Y-578503D01*
X5892562Y-588500D01*
X5912555D01*
X5922552Y-578503D01*
Y-538516D01*
X5912555Y-528519D01*
X5942546Y-588500D02*
Y-528519D01*
X5972536D01*
X5982533Y-538516D01*
Y-558510D01*
X5972536Y-568506D01*
X5942546D01*
X6062507Y-558510D02*
X6102494D01*
X6182468Y-528519D02*
Y-588500D01*
X6212458D01*
X6222455Y-578503D01*
Y-568506D01*
X6212458Y-558510D01*
X6182468D01*
X6212458D01*
X6222455Y-548513D01*
Y-538516D01*
X6212458Y-528519D01*
X6182468D01*
X6272439D02*
X6252445D01*
X6242449Y-538516D01*
Y-578503D01*
X6252445Y-588500D01*
X6272439D01*
X6282436Y-578503D01*
Y-538516D01*
X6272439Y-528519D01*
X6302429D02*
X6342416D01*
X6322423D01*
Y-588500D01*
X6362410Y-528519D02*
X6402397D01*
X6382403D01*
Y-588500D01*
X6452381Y-528519D02*
X6432387D01*
X6422390Y-538516D01*
Y-578503D01*
X6432387Y-588500D01*
X6452381D01*
X6462377Y-578503D01*
Y-538516D01*
X6452381Y-528519D01*
X6482371Y-588500D02*
Y-528519D01*
X6502364Y-548513D01*
X6522358Y-528519D01*
Y-588500D01*
X5822584Y-678519D02*
X5862571D01*
X5842578D01*
Y-738500D01*
X5912555Y-678519D02*
X5892562D01*
X5882565Y-688516D01*
Y-728503D01*
X5892562Y-738500D01*
X5912555D01*
X5922552Y-728503D01*
Y-688516D01*
X5912555Y-678519D01*
X5942546Y-738500D02*
Y-678519D01*
X5972536D01*
X5982533Y-688516D01*
Y-708510D01*
X5972536Y-718506D01*
X5942546D01*
X6062507Y-708510D02*
X6102494D01*
X6182468Y-678519D02*
Y-738500D01*
X6212458D01*
X6222455Y-728503D01*
Y-718506D01*
X6212458Y-708510D01*
X6182468D01*
X6212458D01*
X6222455Y-698513D01*
Y-688516D01*
X6212458Y-678519D01*
X6182468D01*
X6272439D02*
X6252445D01*
X6242449Y-688516D01*
Y-728503D01*
X6252445Y-738500D01*
X6272439D01*
X6282436Y-728503D01*
Y-688516D01*
X6272439Y-678519D01*
X6302429D02*
X6342416D01*
X6322423D01*
Y-738500D01*
X6362410Y-678519D02*
X6402397D01*
X6382403D01*
Y-738500D01*
X6452381Y-678519D02*
X6432387D01*
X6422390Y-688516D01*
Y-728503D01*
X6432387Y-738500D01*
X6452381D01*
X6462377Y-728503D01*
Y-688516D01*
X6452381Y-678519D01*
X6482371Y-738500D02*
Y-678519D01*
X6502364Y-698513D01*
X6522358Y-678519D01*
Y-738500D01*
X5822584Y-828519D02*
X5862571D01*
X5842578D01*
Y-888500D01*
X5912555Y-828519D02*
X5892562D01*
X5882565Y-838516D01*
Y-878503D01*
X5892562Y-888500D01*
X5912555D01*
X5922552Y-878503D01*
Y-838516D01*
X5912555Y-828519D01*
X5942546Y-888500D02*
Y-828519D01*
X5972536D01*
X5982533Y-838516D01*
Y-858510D01*
X5972536Y-868506D01*
X5942546D01*
X6062507Y-858510D02*
X6102494D01*
X6182468Y-828519D02*
Y-888500D01*
X6212458D01*
X6222455Y-878503D01*
Y-868506D01*
X6212458Y-858510D01*
X6182468D01*
X6212458D01*
X6222455Y-848513D01*
Y-838516D01*
X6212458Y-828519D01*
X6182468D01*
X6272439D02*
X6252445D01*
X6242449Y-838516D01*
Y-878503D01*
X6252445Y-888500D01*
X6272439D01*
X6282436Y-878503D01*
Y-838516D01*
X6272439Y-828519D01*
X6302429D02*
X6342416D01*
X6322423D01*
Y-888500D01*
X6362410Y-828519D02*
X6402397D01*
X6382403D01*
Y-888500D01*
X6452381Y-828519D02*
X6432387D01*
X6422390Y-838516D01*
Y-878503D01*
X6432387Y-888500D01*
X6452381D01*
X6462377Y-878503D01*
Y-838516D01*
X6452381Y-828519D01*
X6482371Y-888500D02*
Y-828519D01*
X6502364Y-848513D01*
X6522358Y-828519D01*
Y-888500D01*
X5088782Y-438500D02*
Y-378519D01*
X5118773D01*
X5128769Y-388516D01*
Y-408510D01*
X5118773Y-418507D01*
X5088782D01*
X5108776D02*
X5128769Y-438500D01*
X5158760D02*
X5178753D01*
X5188750Y-428503D01*
Y-408510D01*
X5178753Y-398513D01*
X5158760D01*
X5148763Y-408510D01*
Y-428503D01*
X5158760Y-438500D01*
X5208743Y-398513D02*
Y-428503D01*
X5218740Y-438500D01*
X5248731D01*
Y-398513D01*
X5268724Y-438500D02*
Y-398513D01*
X5298714D01*
X5308711Y-408510D01*
Y-438500D01*
X5368692Y-378519D02*
Y-438500D01*
X5338702D01*
X5328705Y-428503D01*
Y-408510D01*
X5338702Y-398513D01*
X5368692D01*
X5088782Y-588500D02*
Y-528519D01*
X5118773D01*
X5128769Y-538516D01*
Y-558510D01*
X5118773Y-568506D01*
X5088782D01*
X5108776D02*
X5128769Y-588500D01*
X5158760D02*
X5178753D01*
X5188750Y-578503D01*
Y-558510D01*
X5178753Y-548513D01*
X5158760D01*
X5148763Y-558510D01*
Y-578503D01*
X5158760Y-588500D01*
X5208743Y-548513D02*
Y-578503D01*
X5218740Y-588500D01*
X5248731D01*
Y-548513D01*
X5268724Y-588500D02*
Y-548513D01*
X5298714D01*
X5308711Y-558510D01*
Y-588500D01*
X5368692Y-528519D02*
Y-588500D01*
X5338702D01*
X5328705Y-578503D01*
Y-558510D01*
X5338702Y-548513D01*
X5368692D01*
X5088782Y-738500D02*
Y-678519D01*
X5118773D01*
X5128769Y-688516D01*
Y-708510D01*
X5118773Y-718506D01*
X5088782D01*
X5108776D02*
X5128769Y-738500D01*
X5158760D02*
X5178753D01*
X5188750Y-728503D01*
Y-708510D01*
X5178753Y-698513D01*
X5158760D01*
X5148763Y-708510D01*
Y-728503D01*
X5158760Y-738500D01*
X5208743Y-698513D02*
Y-728503D01*
X5218740Y-738500D01*
X5248731D01*
Y-698513D01*
X5268724Y-738500D02*
Y-698513D01*
X5298714D01*
X5308711Y-708510D01*
Y-738500D01*
X5368692Y-678519D02*
Y-738500D01*
X5338702D01*
X5328705Y-728503D01*
Y-708510D01*
X5338702Y-698513D01*
X5368692D01*
X5088782Y-888500D02*
Y-828519D01*
X5118773D01*
X5128769Y-838516D01*
Y-858510D01*
X5118773Y-868506D01*
X5088782D01*
X5108776D02*
X5128769Y-888500D01*
X5158760D02*
X5178753D01*
X5188750Y-878503D01*
Y-858510D01*
X5178753Y-848513D01*
X5158760D01*
X5148763Y-858510D01*
Y-878503D01*
X5158760Y-888500D01*
X5208743Y-848513D02*
Y-878503D01*
X5218740Y-888500D01*
X5248731D01*
Y-848513D01*
X5268724Y-888500D02*
Y-848513D01*
X5298714D01*
X5308711Y-858510D01*
Y-888500D01*
X5368692Y-828519D02*
Y-888500D01*
X5338702D01*
X5328705Y-878503D01*
Y-858510D01*
X5338702Y-848513D01*
X5368692D01*
X4582907Y-438500D02*
Y-378519D01*
X4612897D01*
X4622894Y-388516D01*
Y-408510D01*
X4612897Y-418507D01*
X4582907D01*
X4642887Y-378519D02*
X4682874D01*
X4662881D01*
Y-438500D01*
X4702868Y-378519D02*
Y-438500D01*
Y-408510D01*
X4742855D01*
Y-378519D01*
Y-438500D01*
X4582907Y-588500D02*
Y-528519D01*
X4612897D01*
X4622894Y-538516D01*
Y-558510D01*
X4612897Y-568506D01*
X4582907D01*
X4642887Y-528519D02*
X4682874D01*
X4662881D01*
Y-588500D01*
X4702868Y-528519D02*
Y-588500D01*
Y-558510D01*
X4742855D01*
Y-528519D01*
Y-588500D01*
X4582907Y-738500D02*
Y-678519D01*
X4612897D01*
X4622894Y-688516D01*
Y-708510D01*
X4612897Y-718506D01*
X4582907D01*
X4642887Y-678519D02*
X4682874D01*
X4662881D01*
Y-738500D01*
X4702868Y-678519D02*
Y-738500D01*
Y-708510D01*
X4742855D01*
Y-678519D01*
Y-738500D01*
X4582907Y-888500D02*
Y-828519D01*
X4612897D01*
X4622894Y-838516D01*
Y-858510D01*
X4612897Y-868506D01*
X4582907D01*
X4642887Y-828519D02*
X4682874D01*
X4662881D01*
Y-888500D01*
X4702868Y-828519D02*
Y-888500D01*
Y-858510D01*
X4742855D01*
Y-828519D01*
Y-888500D01*
X3483227Y-438500D02*
X3443240D01*
X3483227Y-398513D01*
Y-388516D01*
X3473230Y-378519D01*
X3453237D01*
X3443240Y-388516D01*
X3503220D02*
X3513217Y-378519D01*
X3533211D01*
X3543207Y-388516D01*
Y-398513D01*
X3533211Y-408510D01*
X3543207Y-418507D01*
Y-428503D01*
X3533211Y-438500D01*
X3513217D01*
X3503220Y-428503D01*
Y-418507D01*
X3513217Y-408510D01*
X3503220Y-398513D01*
Y-388516D01*
X3513217Y-408510D02*
X3533211D01*
X3563201Y-438500D02*
Y-428503D01*
X3573198D01*
Y-438500D01*
X3563201D01*
X3613185Y-388516D02*
X3623182Y-378519D01*
X3643175D01*
X3653172Y-388516D01*
Y-428503D01*
X3643175Y-438500D01*
X3623182D01*
X3613185Y-428503D01*
Y-388516D01*
X3673165D02*
X3683162Y-378519D01*
X3703156D01*
X3713153Y-388516D01*
Y-428503D01*
X3703156Y-438500D01*
X3683162D01*
X3673165Y-428503D01*
Y-388516D01*
X3733146Y-438500D02*
Y-398513D01*
X3743143D01*
X3753140Y-408510D01*
Y-438500D01*
Y-408510D01*
X3763136Y-398513D01*
X3773133Y-408510D01*
Y-438500D01*
X3793127D02*
X3813120D01*
X3803123D01*
Y-398513D01*
X3793127D01*
X3843110Y-438500D02*
X3863104D01*
X3853107D01*
Y-378519D01*
X3843110D01*
X3973068Y-438500D02*
X3953075Y-418507D01*
Y-398513D01*
X3973068Y-378519D01*
X4003059Y-388516D02*
X4013055Y-378519D01*
X4033049D01*
X4043046Y-388516D01*
Y-428503D01*
X4033049Y-438500D01*
X4013055D01*
X4003059Y-428503D01*
Y-388516D01*
X4063039Y-438500D02*
Y-428503D01*
X4073036D01*
Y-438500D01*
X4063039D01*
X4113023Y-378519D02*
X4153010D01*
Y-388516D01*
X4113023Y-428503D01*
Y-438500D01*
X4173004D02*
X4192997D01*
X4183000D01*
Y-378519D01*
X4173004Y-388516D01*
X4222987Y-438500D02*
X4242981D01*
X4232984D01*
Y-378519D01*
X4222987Y-388516D01*
X4272971Y-438500D02*
Y-398513D01*
X4282968D01*
X4292965Y-408510D01*
Y-438500D01*
Y-408510D01*
X4302962Y-398513D01*
X4312958Y-408510D01*
Y-438500D01*
X4332952D02*
Y-398513D01*
X4342949D01*
X4352945Y-408510D01*
Y-438500D01*
Y-408510D01*
X4362942Y-398513D01*
X4372939Y-408510D01*
Y-438500D01*
X4392932D02*
X4412926Y-418507D01*
Y-398513D01*
X4392932Y-378519D01*
X3473230Y-588500D02*
Y-528519D01*
X3443240Y-558510D01*
X3483227D01*
X3503220Y-538516D02*
X3513217Y-528519D01*
X3533211D01*
X3543207Y-538516D01*
Y-578503D01*
X3533211Y-588500D01*
X3513217D01*
X3503220Y-578503D01*
Y-538516D01*
X3563201Y-588500D02*
Y-578503D01*
X3573198D01*
Y-588500D01*
X3563201D01*
X3613185Y-538516D02*
X3623182Y-528519D01*
X3643175D01*
X3653172Y-538516D01*
Y-578503D01*
X3643175Y-588500D01*
X3623182D01*
X3613185Y-578503D01*
Y-538516D01*
X3673165D02*
X3683162Y-528519D01*
X3703156D01*
X3713153Y-538516D01*
Y-578503D01*
X3703156Y-588500D01*
X3683162D01*
X3673165Y-578503D01*
Y-538516D01*
X3733146Y-588500D02*
Y-548513D01*
X3743143D01*
X3753140Y-558510D01*
Y-588500D01*
Y-558510D01*
X3763136Y-548513D01*
X3773133Y-558510D01*
Y-588500D01*
X3793127D02*
X3813120D01*
X3803123D01*
Y-548513D01*
X3793127D01*
X3843110Y-588500D02*
X3863104D01*
X3853107D01*
Y-528519D01*
X3843110D01*
X3973068Y-588500D02*
X3953075Y-568506D01*
Y-548513D01*
X3973068Y-528519D01*
X4003059Y-588500D02*
X4023052D01*
X4013055D01*
Y-528519D01*
X4003059Y-538516D01*
X4053042Y-588500D02*
Y-578503D01*
X4063039D01*
Y-588500D01*
X4053042D01*
X4103026Y-538516D02*
X4113023Y-528519D01*
X4133016D01*
X4143013Y-538516D01*
Y-578503D01*
X4133016Y-588500D01*
X4113023D01*
X4103026Y-578503D01*
Y-538516D01*
X4163007Y-588500D02*
X4183000D01*
X4173004D01*
Y-528519D01*
X4163007Y-538516D01*
X4252978Y-528519D02*
X4232984Y-538516D01*
X4212991Y-558510D01*
Y-578503D01*
X4222987Y-588500D01*
X4242981D01*
X4252978Y-578503D01*
Y-568506D01*
X4242981Y-558510D01*
X4212991D01*
X4272971Y-588500D02*
Y-548513D01*
X4282968D01*
X4292965Y-558510D01*
Y-588500D01*
Y-558510D01*
X4302962Y-548513D01*
X4312958Y-558510D01*
Y-588500D01*
X4332952D02*
Y-548513D01*
X4342949D01*
X4352945Y-558510D01*
Y-588500D01*
Y-558510D01*
X4362942Y-548513D01*
X4372939Y-558510D01*
Y-588500D01*
X4392932D02*
X4412926Y-568506D01*
Y-548513D01*
X4392932Y-528519D01*
X3473230Y-738500D02*
Y-678519D01*
X3443240Y-708510D01*
X3483227D01*
X3543207Y-678519D02*
X3503220D01*
Y-708510D01*
X3523214Y-698513D01*
X3533211D01*
X3543207Y-708510D01*
Y-728503D01*
X3533211Y-738500D01*
X3513217D01*
X3503220Y-728503D01*
X3563201Y-738500D02*
Y-728503D01*
X3573198D01*
Y-738500D01*
X3563201D01*
X3653172D02*
X3613185D01*
X3653172Y-698513D01*
Y-688516D01*
X3643175Y-678519D01*
X3623182D01*
X3613185Y-688516D01*
X3673165D02*
X3683162Y-678519D01*
X3703156D01*
X3713153Y-688516D01*
Y-698513D01*
X3703156Y-708510D01*
X3713153Y-718506D01*
Y-728503D01*
X3703156Y-738500D01*
X3683162D01*
X3673165Y-728503D01*
Y-718506D01*
X3683162Y-708510D01*
X3673165Y-698513D01*
Y-688516D01*
X3683162Y-708510D02*
X3703156D01*
X3733146Y-738500D02*
Y-698513D01*
X3743143D01*
X3753140Y-708510D01*
Y-738500D01*
Y-708510D01*
X3763136Y-698513D01*
X3773133Y-708510D01*
Y-738500D01*
X3793127D02*
X3813120D01*
X3803123D01*
Y-698513D01*
X3793127D01*
X3843110Y-738500D02*
X3863104D01*
X3853107D01*
Y-678519D01*
X3843110D01*
X3973068Y-738500D02*
X3953075Y-718506D01*
Y-698513D01*
X3973068Y-678519D01*
X4003059Y-738500D02*
X4023052D01*
X4013055D01*
Y-678519D01*
X4003059Y-688516D01*
X4053042Y-738500D02*
Y-728503D01*
X4063039D01*
Y-738500D01*
X4053042D01*
X4103026D02*
X4123020D01*
X4113023D01*
Y-678519D01*
X4103026Y-688516D01*
X4192997Y-678519D02*
X4153010D01*
Y-708510D01*
X4173003Y-698513D01*
X4183000D01*
X4192997Y-708510D01*
Y-728503D01*
X4183000Y-738500D01*
X4163007D01*
X4153010Y-728503D01*
X4212991Y-688516D02*
X4222987Y-678519D01*
X4242981D01*
X4252978Y-688516D01*
Y-728503D01*
X4242981Y-738500D01*
X4222987D01*
X4212991Y-728503D01*
Y-688516D01*
X4272971Y-738500D02*
Y-698513D01*
X4282968D01*
X4292965Y-708510D01*
Y-738500D01*
Y-708510D01*
X4302962Y-698513D01*
X4312958Y-708510D01*
Y-738500D01*
X4332952D02*
Y-698513D01*
X4342949D01*
X4352945Y-708510D01*
Y-738500D01*
Y-708510D01*
X4362942Y-698513D01*
X4372939Y-708510D01*
Y-738500D01*
X4392932D02*
X4412926Y-718506D01*
Y-698513D01*
X4392932Y-678519D01*
X3443240Y-888500D02*
X3463233D01*
X3453237D01*
Y-828519D01*
X3443240Y-838516D01*
X3533211Y-828519D02*
X3493224D01*
Y-858510D01*
X3513217Y-848513D01*
X3523214D01*
X3533211Y-858510D01*
Y-878503D01*
X3523214Y-888500D01*
X3503220D01*
X3493224Y-878503D01*
X3553204Y-838516D02*
X3563201Y-828519D01*
X3583195D01*
X3593191Y-838516D01*
Y-878503D01*
X3583195Y-888500D01*
X3563201D01*
X3553204Y-878503D01*
Y-838516D01*
X3613185Y-888500D02*
Y-878503D01*
X3623182D01*
Y-888500D01*
X3613185D01*
X3663169Y-838516D02*
X3673165Y-828519D01*
X3693159D01*
X3703156Y-838516D01*
Y-878503D01*
X3693159Y-888500D01*
X3673165D01*
X3663169Y-878503D01*
Y-838516D01*
X3723149D02*
X3733146Y-828519D01*
X3753140D01*
X3763136Y-838516D01*
Y-878503D01*
X3753140Y-888500D01*
X3733146D01*
X3723149Y-878503D01*
Y-838516D01*
X3783130Y-888500D02*
Y-848513D01*
X3793127D01*
X3803123Y-858510D01*
Y-888500D01*
Y-858510D01*
X3813120Y-848513D01*
X3823117Y-858510D01*
Y-888500D01*
X3843110D02*
X3863104D01*
X3853107D01*
Y-848513D01*
X3843110D01*
X3893094Y-888500D02*
X3913088D01*
X3903091D01*
Y-828519D01*
X3893094D01*
X4023052Y-888500D02*
X4003059Y-868506D01*
Y-848513D01*
X4023052Y-828519D01*
X4053042Y-838516D02*
X4063039Y-828519D01*
X4083033D01*
X4093030Y-838516D01*
Y-848513D01*
X4083033Y-858510D01*
X4073036D01*
X4083033D01*
X4093030Y-868506D01*
Y-878503D01*
X4083033Y-888500D01*
X4063039D01*
X4053042Y-878503D01*
X4113023Y-888500D02*
Y-878503D01*
X4123020D01*
Y-888500D01*
X4113023D01*
X4163007Y-838516D02*
X4173004Y-828519D01*
X4192997D01*
X4202994Y-838516D01*
Y-848513D01*
X4192997Y-858510D01*
X4202994Y-868506D01*
Y-878503D01*
X4192997Y-888500D01*
X4173004D01*
X4163007Y-878503D01*
Y-868506D01*
X4173004Y-858510D01*
X4163007Y-848513D01*
Y-838516D01*
X4173004Y-858510D02*
X4192997D01*
X4222987Y-888500D02*
X4242981D01*
X4232984D01*
Y-828519D01*
X4222987Y-838516D01*
X4272971D02*
X4282968Y-828519D01*
X4302962D01*
X4312958Y-838516D01*
Y-878503D01*
X4302962Y-888500D01*
X4282968D01*
X4272971Y-878503D01*
Y-838516D01*
X4332952Y-888500D02*
Y-848513D01*
X4342949D01*
X4352945Y-858510D01*
Y-888500D01*
Y-858510D01*
X4362942Y-848513D01*
X4372939Y-858510D01*
Y-888500D01*
X4392932D02*
Y-848513D01*
X4402929D01*
X4412926Y-858510D01*
Y-888500D01*
Y-858510D01*
X4422923Y-848513D01*
X4432919Y-858510D01*
Y-888500D01*
X4452913D02*
X4472907Y-868506D01*
Y-848513D01*
X4452913Y-828519D01*
X2913376Y-1038500D02*
X2933369D01*
X2923372D01*
Y-978519D01*
X2913376Y-988516D01*
X2993350Y-1038500D02*
Y-978519D01*
X2963360Y-1008510D01*
X3003347D01*
X3083321Y-978519D02*
X3123308D01*
X3103314D01*
Y-1038500D01*
X3153298D02*
X3173292D01*
X3183288Y-1028503D01*
Y-1008510D01*
X3173292Y-998513D01*
X3153298D01*
X3143301Y-1008510D01*
Y-1028503D01*
X3153298Y-1038500D01*
X3213279Y-988516D02*
Y-998513D01*
X3203282D01*
X3223275D01*
X3213279D01*
Y-1028503D01*
X3223275Y-1038500D01*
X3263262Y-998513D02*
X3283256D01*
X3293253Y-1008510D01*
Y-1038500D01*
X3263262D01*
X3253266Y-1028503D01*
X3263262Y-1018506D01*
X3293253D01*
X3313246Y-1038500D02*
X3333240D01*
X3323243D01*
Y-978519D01*
X3313246D01*
X2953363Y-438500D02*
X2913376D01*
X2953363Y-398513D01*
Y-388516D01*
X2943366Y-378519D01*
X2923372D01*
X2913376Y-388516D01*
X2953363Y-588500D02*
X2913376D01*
X2953363Y-548513D01*
Y-538516D01*
X2943366Y-528519D01*
X2923372D01*
X2913376Y-538516D01*
X2953363Y-678519D02*
X2933369Y-688516D01*
X2913376Y-708510D01*
Y-728503D01*
X2923372Y-738500D01*
X2943366D01*
X2953363Y-728503D01*
Y-718506D01*
X2943366Y-708510D01*
X2913376D01*
X2943366Y-888500D02*
Y-828519D01*
X2913376Y-858510D01*
X2953363D01*
D46*
X1291667Y225000D02*
G03*
X1291667Y225000I-16667J0D01*
G01*
X241667D02*
G03*
X241667Y225000I-16667J0D01*
G01*
X1291667Y1275000D02*
G03*
X1291667Y1275000I-16667J0D01*
G01*
X241667D02*
G03*
X241667Y1275000I-16667J0D01*
G01*
X261333Y412333D02*
X278000Y420667D01*
X294667Y412333D01*
X286333Y429000D02*
X294667Y412333D01*
X286333Y429000D02*
X294667Y445667D01*
X278000Y437333D02*
X294667Y445667D01*
X261333D02*
X278000Y437333D01*
X261333Y445667D02*
X269667Y429000D01*
X261333Y412333D02*
X269667Y429000D01*
X208404Y561333D02*
X225071Y569667D01*
X241737Y561333D01*
X233404Y578000D02*
X241737Y561333D01*
X233404Y578000D02*
X241737Y594667D01*
X225071Y586333D02*
X241737Y594667D01*
X208404D02*
X225071Y586333D01*
X208404Y594667D02*
X216738Y578000D01*
X208404Y561333D02*
X216738Y578000D01*
X608333Y1353333D02*
X641667D01*
Y1386667D01*
X608333D02*
X641667D01*
X608333Y1353333D02*
Y1386667D01*
X508333Y1353333D02*
X541667D01*
Y1386667D01*
X508333D02*
X541667D01*
X508333Y1353333D02*
Y1386667D01*
X1353333Y633333D02*
X1386667D01*
Y666667D01*
X1353333D02*
X1386667D01*
X1353333Y633333D02*
Y666667D01*
Y733333D02*
X1386667D01*
Y766667D01*
X1353333D02*
X1386667D01*
X1353333Y733333D02*
Y766667D01*
X983333Y1353333D02*
X1016667D01*
Y1386667D01*
X983333D02*
X1016667D01*
X983333Y1353333D02*
Y1386667D01*
X883333Y1353333D02*
X916667D01*
Y1386667D01*
X883333D02*
X916667D01*
X883333Y1353333D02*
Y1386667D01*
X1370000Y945653D02*
X1386667Y978987D01*
X1353333D02*
X1386667D01*
X1353333D02*
X1370000Y945653D01*
X740000Y208333D02*
X756667Y241667D01*
X723333D02*
X756667D01*
X723333D02*
X740000Y208333D01*
D47*
X2317500Y-333500D02*
X7602087D01*
X2317500Y-933500D02*
X7602087D01*
X2317500Y-1083500D02*
X7602087D01*
Y-183500D01*
X2317500D02*
X7602087D01*
X2317500Y-1083500D02*
Y-183500D01*
X6967239Y-1083500D02*
Y-183500D01*
X5777584Y-1083500D02*
Y-183500D01*
X5043782Y-1083500D02*
Y-183500D01*
X4537907Y-1083500D02*
Y-183500D01*
X3398240Y-1083500D02*
Y-183500D01*
X2868376Y-1083500D02*
Y-183500D01*
X2396645Y4762982D02*
X2330000D01*
Y4712998D01*
X2363323D01*
X2330000D01*
Y4663014D01*
X2429968D02*
Y4729659D01*
X2463290Y4762982D01*
X2496613Y4729659D01*
Y4663014D01*
Y4712998D01*
X2429968D01*
X2529935Y4762982D02*
Y4663014D01*
X2579919D01*
X2596581Y4679675D01*
Y4696337D01*
X2579919Y4712998D01*
X2529935D01*
X2579919D01*
X2596581Y4729659D01*
Y4746320D01*
X2579919Y4762982D01*
X2529935D01*
X2629903Y4663014D02*
Y4762982D01*
X2679887D01*
X2696548Y4746320D01*
Y4712998D01*
X2679887Y4696337D01*
X2629903D01*
X2663226D02*
X2696548Y4663014D01*
X2729871Y4762982D02*
X2763193D01*
X2746532D01*
Y4663014D01*
X2729871D01*
X2763193D01*
X2879822Y4746320D02*
X2863161Y4762982D01*
X2829838D01*
X2813177Y4746320D01*
Y4679675D01*
X2829838Y4663014D01*
X2863161D01*
X2879822Y4679675D01*
X2913145Y4663014D02*
Y4729659D01*
X2946468Y4762982D01*
X2979790Y4729659D01*
Y4663014D01*
Y4712998D01*
X2913145D01*
X3013113Y4762982D02*
X3079758D01*
X3046435D01*
Y4663014D01*
X3113080Y4762982D02*
X3146403D01*
X3129742D01*
Y4663014D01*
X3113080D01*
X3146403D01*
X3246370Y4762982D02*
X3213048D01*
X3196387Y4746320D01*
Y4679675D01*
X3213048Y4663014D01*
X3246370D01*
X3263032Y4679675D01*
Y4746320D01*
X3246370Y4762982D01*
X3296354Y4663014D02*
Y4762982D01*
X3362999Y4663014D01*
Y4762982D01*
X3496290Y4663014D02*
Y4762982D01*
X3562935Y4663014D01*
Y4762982D01*
X3646241D02*
X3612919D01*
X3596258Y4746320D01*
Y4679675D01*
X3612919Y4663014D01*
X3646241D01*
X3662903Y4679675D01*
Y4746320D01*
X3646241Y4762982D01*
X3696225D02*
X3762870D01*
X3729548D01*
Y4663014D01*
X3862838Y4762982D02*
X3796193D01*
Y4663014D01*
X3862838D01*
X3796193Y4712998D02*
X3829515D01*
X3962806Y4746320D02*
X3946144Y4762982D01*
X3912822D01*
X3896161Y4746320D01*
Y4729659D01*
X3912822Y4712998D01*
X3946144D01*
X3962806Y4696337D01*
Y4679675D01*
X3946144Y4663014D01*
X3912822D01*
X3896161Y4679675D01*
X3996128Y4729659D02*
X4012790D01*
Y4712998D01*
X3996128D01*
Y4729659D01*
Y4679675D02*
X4012790D01*
Y4663014D01*
X3996128D01*
Y4679675D01*
X2330000Y4417737D02*
X2346661Y4434398D01*
X2379984D01*
X2396645Y4417737D01*
Y4351092D01*
X2379984Y4334430D01*
X2346661D01*
X2330000Y4351092D01*
Y4417737D01*
X2429968Y4334430D02*
X2463290D01*
X2446629D01*
Y4434398D01*
X2429968Y4417737D01*
X2513274Y4334430D02*
Y4351092D01*
X2529935D01*
Y4334430D01*
X2513274D01*
X2696548Y4434398D02*
Y4334430D01*
X2746532D01*
X2763193Y4351092D01*
Y4367753D01*
X2746532Y4384414D01*
X2696548D01*
X2746532D01*
X2763193Y4401075D01*
Y4417737D01*
X2746532Y4434398D01*
X2696548D01*
X2846500D02*
X2813177D01*
X2796516Y4417737D01*
Y4351092D01*
X2813177Y4334430D01*
X2846500D01*
X2863161Y4351092D01*
Y4417737D01*
X2846500Y4434398D01*
X2896484Y4334430D02*
Y4401075D01*
X2929806Y4434398D01*
X2963129Y4401075D01*
Y4334430D01*
Y4384414D01*
X2896484D01*
X2996451Y4334430D02*
Y4434398D01*
X3046435D01*
X3063096Y4417737D01*
Y4384414D01*
X3046435Y4367753D01*
X2996451D01*
X3029774D02*
X3063096Y4334430D01*
X3096419Y4434398D02*
Y4334430D01*
X3146403D01*
X3163064Y4351092D01*
Y4417737D01*
X3146403Y4434398D01*
X3096419D01*
X3296354D02*
X3362999D01*
X3329677D01*
Y4334430D01*
X3396322Y4434398D02*
Y4334430D01*
Y4384414D01*
X3462967D01*
Y4434398D01*
Y4334430D01*
X3496290Y4434398D02*
X3529612D01*
X3512951D01*
Y4334430D01*
X3496290D01*
X3529612D01*
X3646241Y4417737D02*
X3629580Y4434398D01*
X3596258D01*
X3579596Y4417737D01*
Y4351092D01*
X3596258Y4334430D01*
X3629580D01*
X3646241Y4351092D01*
X3679564Y4434398D02*
Y4334430D01*
Y4367753D01*
X3746209Y4434398D01*
X3696225Y4384414D01*
X3746209Y4334430D01*
X3779532D02*
Y4434398D01*
X3846177Y4334430D01*
Y4434398D01*
X3946144D02*
X3879499D01*
Y4334430D01*
X3946144D01*
X3879499Y4384414D02*
X3912822D01*
X4046112Y4417737D02*
X4029451Y4434398D01*
X3996128D01*
X3979467Y4417737D01*
Y4401075D01*
X3996128Y4384414D01*
X4029451D01*
X4046112Y4367753D01*
Y4351092D01*
X4029451Y4334430D01*
X3996128D01*
X3979467Y4351092D01*
X4146080Y4417737D02*
X4129418Y4434398D01*
X4096096D01*
X4079435Y4417737D01*
Y4401075D01*
X4096096Y4384414D01*
X4129418D01*
X4146080Y4367753D01*
Y4351092D01*
X4129418Y4334430D01*
X4096096D01*
X4079435Y4351092D01*
X4279370Y4434398D02*
X4312693D01*
X4296031D01*
Y4334430D01*
X4279370D01*
X4312693D01*
X4429322Y4417737D02*
X4412660Y4434398D01*
X4379338D01*
X4362676Y4417737D01*
Y4401075D01*
X4379338Y4384414D01*
X4412660D01*
X4429322Y4367753D01*
Y4351092D01*
X4412660Y4334430D01*
X4379338D01*
X4362676Y4351092D01*
X4562612Y4417737D02*
X4579273Y4434398D01*
X4612596D01*
X4629257Y4417737D01*
Y4351092D01*
X4612596Y4334430D01*
X4579273D01*
X4562612Y4351092D01*
Y4417737D01*
X4662580Y4334430D02*
Y4351092D01*
X4679241D01*
Y4334430D01*
X4662580D01*
X4745886Y4417737D02*
X4762547Y4434398D01*
X4795870D01*
X4812531Y4417737D01*
Y4351092D01*
X4795870Y4334430D01*
X4762547D01*
X4745886Y4351092D01*
Y4417737D01*
X4912499Y4434398D02*
X4879176Y4417737D01*
X4845854Y4384414D01*
Y4351092D01*
X4862515Y4334430D01*
X4895837D01*
X4912499Y4351092D01*
Y4367753D01*
X4895837Y4384414D01*
X4845854D01*
X5012467Y4334430D02*
X4945821D01*
X5012467Y4401075D01*
Y4417737D01*
X4995805Y4434398D01*
X4962483D01*
X4945821Y4417737D01*
X5145757Y4434398D02*
X5179079D01*
X5162418D01*
Y4334430D01*
X5145757D01*
X5179079D01*
X5229063D02*
Y4434398D01*
X5295708Y4334430D01*
Y4434398D01*
X5329031Y4334430D02*
Y4351092D01*
X5345692D01*
Y4334430D01*
X5329031D01*
X5512305Y4384414D02*
X5578950D01*
X5545628Y4417737D02*
Y4351092D01*
X5612273Y4334430D02*
X5678918Y4401075D01*
X5712240Y4384414D02*
X5778886D01*
X5912176Y4334430D02*
X5945498D01*
X5928837D01*
Y4434398D01*
X5912176Y4417737D01*
X5995482D02*
X6012144Y4434398D01*
X6045466D01*
X6062127Y4417737D01*
Y4351092D01*
X6045466Y4334430D01*
X6012144D01*
X5995482Y4351092D01*
Y4417737D01*
X6095450Y4351092D02*
X6178756Y4434398D01*
X6095450D02*
Y4451059D01*
X6112111D01*
Y4434398D01*
X6095450D01*
X6162095Y4334430D02*
Y4351092D01*
X6178756D01*
Y4334430D01*
X6162095D01*
X2330000Y4245114D02*
X2346661Y4261775D01*
X2379984D01*
X2396645Y4245114D01*
Y4178469D01*
X2379984Y4161808D01*
X2346661D01*
X2330000Y4178469D01*
Y4245114D01*
X2496613Y4161808D02*
X2429968D01*
X2496613Y4228453D01*
Y4245114D01*
X2479952Y4261775D01*
X2446629D01*
X2429968Y4245114D01*
X2529935Y4161808D02*
Y4178469D01*
X2546597D01*
Y4161808D01*
X2529935D01*
X2713209Y4261775D02*
Y4161808D01*
X2746532Y4195130D01*
X2779855Y4161808D01*
Y4261775D01*
X2813177Y4161808D02*
Y4228453D01*
X2846500Y4261775D01*
X2879822Y4228453D01*
Y4161808D01*
Y4211792D01*
X2813177D01*
X2913145Y4161808D02*
Y4261775D01*
X2963129D01*
X2979790Y4245114D01*
Y4211792D01*
X2963129Y4195130D01*
X2913145D01*
X2946468D02*
X2979790Y4161808D01*
X3013113D02*
Y4261775D01*
X3063096D01*
X3079758Y4245114D01*
Y4211792D01*
X3063096Y4195130D01*
X3013113D01*
X3279693Y4161808D02*
X3263032Y4178469D01*
X3246371Y4161808D01*
X3229709D01*
X3213048Y4178469D01*
Y4195130D01*
X3229709Y4211792D01*
X3213048Y4228453D01*
Y4245114D01*
X3229709Y4261775D01*
X3246371D01*
X3263032Y4245114D01*
Y4228453D01*
X3246371Y4211792D01*
X3263032Y4195130D01*
Y4178469D01*
X3279693Y4211792D02*
X3263032Y4195130D01*
X3229709Y4211792D02*
X3246371D01*
X3412983Y4261775D02*
X3479628D01*
X3446306D01*
Y4161808D01*
X3512951Y4261775D02*
Y4161808D01*
X3546274Y4195130D01*
X3579596Y4161808D01*
Y4261775D01*
X3612919D02*
X3646241D01*
X3629580D01*
Y4161808D01*
X3612919D01*
X3646241D01*
X3762870Y4245114D02*
X3746209Y4261775D01*
X3712887D01*
X3696225Y4245114D01*
Y4228453D01*
X3712887Y4211792D01*
X3746209D01*
X3762870Y4195130D01*
Y4178469D01*
X3746209Y4161808D01*
X3712887D01*
X3696225Y4178469D01*
X3796193Y4261775D02*
X3862838D01*
X3829515D01*
Y4161808D01*
X4062773Y4245114D02*
X4046112Y4261775D01*
X4012790D01*
X3996128Y4245114D01*
Y4228453D01*
X4012790Y4211792D01*
X4046112D01*
X4062773Y4195130D01*
Y4178469D01*
X4046112Y4161808D01*
X4012790D01*
X3996128Y4178469D01*
X4096096Y4261775D02*
Y4161808D01*
Y4211792D01*
X4162741D01*
Y4261775D01*
Y4161808D01*
X4196064D02*
Y4228453D01*
X4229386Y4261775D01*
X4262709Y4228453D01*
Y4161808D01*
Y4211792D01*
X4196064D01*
X4296031Y4261775D02*
Y4161808D01*
X4362676D01*
X4395999Y4261775D02*
Y4161808D01*
X4462644D01*
X4595935D02*
Y4261775D01*
X4662580Y4161808D01*
Y4261775D01*
X4745886D02*
X4712564D01*
X4695902Y4245114D01*
Y4178469D01*
X4712564Y4161808D01*
X4745886D01*
X4762547Y4178469D01*
Y4245114D01*
X4745886Y4261775D01*
X4795870D02*
X4862515D01*
X4829193D01*
Y4161808D01*
X5062450Y4261775D02*
X4995805D01*
Y4161808D01*
X5062450D01*
X4995805Y4211792D02*
X5029128D01*
X5095773Y4261775D02*
X5162418Y4161808D01*
Y4261775D02*
X5095773Y4161808D01*
X5262386Y4245114D02*
X5245725Y4261775D01*
X5212402D01*
X5195741Y4245114D01*
Y4178469D01*
X5212402Y4161808D01*
X5245725D01*
X5262386Y4178469D01*
X5362354Y4261775D02*
X5295708D01*
Y4161808D01*
X5362354D01*
X5295708Y4211792D02*
X5329031D01*
X5462321Y4261775D02*
X5395676D01*
Y4161808D01*
X5462321D01*
X5395676Y4211792D02*
X5428999D01*
X5495644Y4261775D02*
Y4161808D01*
X5545628D01*
X5562289Y4178469D01*
Y4245114D01*
X5545628Y4261775D01*
X5495644D01*
X5695579Y4161808D02*
X5728902D01*
X5712240D01*
Y4261775D01*
X5695579Y4245114D01*
X5778886Y4178469D02*
X5862192Y4261775D01*
X5778886D02*
Y4278437D01*
X5795547D01*
Y4261775D01*
X5778886D01*
X5845531Y4161808D02*
Y4178469D01*
X5862192D01*
Y4161808D01*
X5845531D01*
X2330000Y4089153D02*
X2346661Y4105814D01*
X2379984D01*
X2396645Y4089153D01*
Y4022508D01*
X2379984Y4005847D01*
X2346661D01*
X2330000Y4022508D01*
Y4089153D01*
X2429968D02*
X2446629Y4105814D01*
X2479952D01*
X2496613Y4089153D01*
Y4072492D01*
X2479952Y4055830D01*
X2463290D01*
X2479952D01*
X2496613Y4039169D01*
Y4022508D01*
X2479952Y4005847D01*
X2446629D01*
X2429968Y4022508D01*
X2529935Y4005847D02*
Y4022508D01*
X2546597D01*
Y4005847D01*
X2529935D01*
X2779855Y4105814D02*
X2713209D01*
Y4005847D01*
X2779855D01*
X2713209Y4055830D02*
X2746532D01*
X2813177Y4005847D02*
Y4105814D01*
X2879822Y4005847D01*
Y4105814D01*
X2913145D02*
X2946468D01*
X2929806D01*
Y4005847D01*
X2913145D01*
X2946468D01*
X3063096Y4089153D02*
X3046435Y4105814D01*
X3013113D01*
X2996451Y4089153D01*
Y4022508D01*
X3013113Y4005847D01*
X3046435D01*
X3063096Y4022508D01*
Y4055830D01*
X3029774D01*
X3263032Y4105814D02*
X3196387D01*
Y4055830D01*
X3229709D01*
X3196387D01*
Y4005847D01*
X3296354Y4105814D02*
X3329677D01*
X3313016D01*
Y4005847D01*
X3296354D01*
X3329677D01*
X3379661D02*
Y4105814D01*
X3446306Y4005847D01*
Y4105814D01*
X3479628D02*
X3512951D01*
X3496290D01*
Y4005847D01*
X3479628D01*
X3512951D01*
X3629580Y4089153D02*
X3612919Y4105814D01*
X3579596D01*
X3562935Y4089153D01*
Y4072492D01*
X3579596Y4055830D01*
X3612919D01*
X3629580Y4039169D01*
Y4022508D01*
X3612919Y4005847D01*
X3579596D01*
X3562935Y4022508D01*
X3662903Y4105814D02*
Y4005847D01*
Y4055830D01*
X3729548D01*
Y4105814D01*
Y4005847D01*
X2330000Y3933192D02*
X2346661Y3949853D01*
X2379984D01*
X2396645Y3933192D01*
Y3866547D01*
X2379984Y3849885D01*
X2346661D01*
X2330000Y3866547D01*
Y3933192D01*
X2479952Y3849885D02*
Y3949853D01*
X2429968Y3899869D01*
X2496613D01*
X2529935Y3849885D02*
Y3866547D01*
X2546597D01*
Y3849885D01*
X2529935D01*
X2779855Y3933192D02*
X2763193Y3949853D01*
X2729871D01*
X2713209Y3933192D01*
Y3916530D01*
X2729871Y3899869D01*
X2763193D01*
X2779855Y3883208D01*
Y3866547D01*
X2763193Y3849885D01*
X2729871D01*
X2713209Y3866547D01*
X2863161Y3949853D02*
X2829838D01*
X2813177Y3933192D01*
Y3866547D01*
X2829838Y3849885D01*
X2863161D01*
X2879822Y3866547D01*
Y3933192D01*
X2863161Y3949853D01*
X2913145D02*
Y3849885D01*
X2979790D01*
X3013113Y3949853D02*
Y3849885D01*
X3063096D01*
X3079758Y3866547D01*
Y3933192D01*
X3063096Y3949853D01*
X3013113D01*
X3179725D02*
X3113080D01*
Y3849885D01*
X3179725D01*
X3113080Y3899869D02*
X3146403D01*
X3213048Y3849885D02*
Y3949853D01*
X3263032D01*
X3279693Y3933192D01*
Y3899869D01*
X3263032Y3883208D01*
X3213048D01*
X3246371D02*
X3279693Y3849885D01*
X3313016D02*
Y3949853D01*
X3346338Y3916530D01*
X3379661Y3949853D01*
Y3849885D01*
X3412983D02*
Y3916530D01*
X3446306Y3949853D01*
X3479628Y3916530D01*
Y3849885D01*
Y3899869D01*
X3412983D01*
X3579596Y3933192D02*
X3562935Y3949853D01*
X3529612D01*
X3512951Y3933192D01*
Y3916530D01*
X3529612Y3899869D01*
X3562935D01*
X3579596Y3883208D01*
Y3866547D01*
X3562935Y3849885D01*
X3529612D01*
X3512951Y3866547D01*
X3612919Y3949853D02*
Y3849885D01*
Y3883208D01*
X3679564Y3949853D01*
X3629580Y3899869D01*
X3679564Y3849885D01*
X3879499Y3933192D02*
X3862838Y3949853D01*
X3829515D01*
X3812854Y3933192D01*
Y3916530D01*
X3829515Y3899869D01*
X3862838D01*
X3879499Y3883208D01*
Y3866547D01*
X3862838Y3849885D01*
X3829515D01*
X3812854Y3866547D01*
X3912822Y3949853D02*
Y3849885D01*
Y3899869D01*
X3979467D01*
Y3949853D01*
Y3849885D01*
X4012790D02*
Y3916530D01*
X4046112Y3949853D01*
X4079435Y3916530D01*
Y3849885D01*
Y3899869D01*
X4012790D01*
X4112757Y3949853D02*
Y3849885D01*
X4179402D01*
X4212725Y3949853D02*
Y3849885D01*
X4279370D01*
X4412660Y3949853D02*
Y3849885D01*
X4462644D01*
X4479306Y3866547D01*
Y3883208D01*
X4462644Y3899869D01*
X4412660D01*
X4462644D01*
X4479306Y3916530D01*
Y3933192D01*
X4462644Y3949853D01*
X4412660D01*
X4579273D02*
X4512628D01*
Y3849885D01*
X4579273D01*
X4512628Y3899869D02*
X4545951D01*
X4712564Y3949853D02*
Y3849885D01*
X4762547D01*
X4779209Y3866547D01*
Y3883208D01*
X4762547Y3899869D01*
X4712564D01*
X4762547D01*
X4779209Y3916530D01*
Y3933192D01*
X4762547Y3949853D01*
X4712564D01*
X4812531D02*
Y3849885D01*
X4879176D01*
X4912499Y3949853D02*
Y3866547D01*
X4929160Y3849885D01*
X4962483D01*
X4979144Y3866547D01*
Y3949853D01*
X5079112D02*
X5012467D01*
Y3849885D01*
X5079112D01*
X5012467Y3899869D02*
X5045789D01*
X5212402Y3949853D02*
Y3849885D01*
X5279047D01*
X5362354Y3949853D02*
X5329031D01*
X5312370Y3933192D01*
Y3866547D01*
X5329031Y3849885D01*
X5362354D01*
X5379015Y3866547D01*
Y3933192D01*
X5362354Y3949853D01*
X5412337D02*
Y3849885D01*
X5445660Y3883208D01*
X5478983Y3849885D01*
Y3949853D01*
X5678918Y3933192D02*
X5662257Y3949853D01*
X5628934D01*
X5612273Y3933192D01*
Y3866547D01*
X5628934Y3849885D01*
X5662257D01*
X5678918Y3866547D01*
Y3899869D01*
X5645595D01*
X5712240Y3949853D02*
Y3849885D01*
X5778886D01*
X5862192Y3949853D02*
X5828869D01*
X5812208Y3933192D01*
Y3866547D01*
X5828869Y3849885D01*
X5862192D01*
X5878853Y3866547D01*
Y3933192D01*
X5862192Y3949853D01*
X5978821Y3933192D02*
X5962160Y3949853D01*
X5928837D01*
X5912176Y3933192D01*
Y3916530D01*
X5928837Y3899869D01*
X5962160D01*
X5978821Y3883208D01*
Y3866547D01*
X5962160Y3849885D01*
X5928837D01*
X5912176Y3866547D01*
X6078789Y3933192D02*
X6062127Y3949853D01*
X6028805D01*
X6012144Y3933192D01*
Y3916530D01*
X6028805Y3899869D01*
X6062127D01*
X6078789Y3883208D01*
Y3866547D01*
X6062127Y3849885D01*
X6028805D01*
X6012144Y3866547D01*
X6212079Y3949853D02*
Y3849885D01*
X6245402Y3883208D01*
X6278724Y3849885D01*
Y3949853D01*
X6312047D02*
X6345369D01*
X6328708D01*
Y3849885D01*
X6312047D01*
X6345369D01*
X6395353Y3949853D02*
X6461998D01*
X6428676D01*
Y3849885D01*
X6495321Y3949853D02*
Y3849885D01*
Y3899869D01*
X6561966D01*
Y3949853D01*
Y3849885D01*
X6695256Y3949853D02*
Y3849885D01*
X6728579Y3883208D01*
X6761901Y3849885D01*
Y3949853D01*
X6795224D02*
Y3849885D01*
Y3899869D01*
X6861869D01*
Y3949853D01*
Y3849885D01*
X6895192Y3949853D02*
X6928514D01*
X6911853D01*
Y3849885D01*
X6895192D01*
X6928514D01*
X6978498Y3949853D02*
X7045143D01*
X7011821D01*
Y3849885D01*
X7145111Y3949853D02*
X7078466D01*
Y3849885D01*
X7145111D01*
X7078466Y3899869D02*
X7111788D01*
X7345046Y3949853D02*
X7278401D01*
Y3849885D01*
X7345046D01*
X7278401Y3899869D02*
X7311724D01*
X7378369Y3849885D02*
Y3949853D01*
X7428353D01*
X7445014Y3933192D01*
Y3899869D01*
X7428353Y3883208D01*
X7378369D01*
X7528320Y3949853D02*
X7494998D01*
X7478337Y3933192D01*
Y3866547D01*
X7494998Y3849885D01*
X7528320D01*
X7544982Y3866547D01*
Y3933192D01*
X7528320Y3949853D01*
X7578304D02*
X7644949Y3849885D01*
Y3949853D02*
X7578304Y3849885D01*
X7678272Y3949853D02*
Y3933192D01*
X7711595Y3899869D01*
X7744917Y3933192D01*
Y3949853D01*
X7711595Y3899869D02*
Y3849885D01*
X7944852Y3933192D02*
X7928191Y3949853D01*
X7894869D01*
X7878207Y3933192D01*
Y3916530D01*
X7894869Y3899869D01*
X7928191D01*
X7944852Y3883208D01*
Y3866547D01*
X7928191Y3849885D01*
X7894869D01*
X7878207Y3866547D01*
X7978175Y3949853D02*
X8011498D01*
X7994836D01*
Y3849885D01*
X7978175D01*
X8011498D01*
X8061481Y3949853D02*
Y3849885D01*
X8128127D01*
X8161449Y3949853D02*
Y3849885D01*
Y3883208D01*
X8228094Y3949853D01*
X8178110Y3899869D01*
X8228094Y3849885D01*
X8328062Y3933192D02*
X8311401Y3949853D01*
X8278078D01*
X8261417Y3933192D01*
Y3916530D01*
X8278078Y3899869D01*
X8311401D01*
X8328062Y3883208D01*
Y3866547D01*
X8311401Y3849885D01*
X8278078D01*
X8261417Y3866547D01*
X8428030Y3933192D02*
X8411368Y3949853D01*
X8378046D01*
X8361385Y3933192D01*
Y3866547D01*
X8378046Y3849885D01*
X8411368D01*
X8428030Y3866547D01*
X8461352Y3849885D02*
Y3949853D01*
X8511336D01*
X8527997Y3933192D01*
Y3899869D01*
X8511336Y3883208D01*
X8461352D01*
X8494675D02*
X8527997Y3849885D01*
X8627965Y3949853D02*
X8561320D01*
Y3849885D01*
X8627965D01*
X8561320Y3899869D02*
X8594642D01*
X8727933Y3949853D02*
X8661288D01*
Y3849885D01*
X8727933D01*
X8661288Y3899869D02*
X8694610D01*
X8761255Y3849885D02*
Y3949853D01*
X8827900Y3849885D01*
Y3949853D01*
X2330000Y3777231D02*
X2346661Y3793892D01*
X2379984D01*
X2396645Y3777231D01*
Y3710585D01*
X2379984Y3693924D01*
X2346661D01*
X2330000Y3710585D01*
Y3777231D01*
X2496613Y3793892D02*
X2429968D01*
Y3743908D01*
X2463290Y3760569D01*
X2479952D01*
X2496613Y3743908D01*
Y3710585D01*
X2479952Y3693924D01*
X2446629D01*
X2429968Y3710585D01*
X2529935Y3693924D02*
Y3710585D01*
X2546597D01*
Y3693924D01*
X2529935D01*
X2713209D02*
Y3793892D01*
X2763193D01*
X2779855Y3777231D01*
Y3743908D01*
X2763193Y3727247D01*
X2713209D01*
X2746532D02*
X2779855Y3693924D01*
X2863161Y3793892D02*
X2829838D01*
X2813177Y3777231D01*
Y3710585D01*
X2829838Y3693924D01*
X2863161D01*
X2879822Y3710585D01*
Y3777231D01*
X2863161Y3793892D01*
X2913145D02*
Y3693924D01*
Y3743908D01*
X2979790D01*
Y3793892D01*
Y3693924D01*
X3079758Y3777231D02*
X3063096Y3793892D01*
X3029774D01*
X3013113Y3777231D01*
Y3760569D01*
X3029774Y3743908D01*
X3063096D01*
X3079758Y3727247D01*
Y3710585D01*
X3063096Y3693924D01*
X3029774D01*
X3013113Y3710585D01*
X3213048Y3793892D02*
Y3693924D01*
X3279693D01*
X3362999Y3793892D02*
X3329677D01*
X3313016Y3777231D01*
Y3710585D01*
X3329677Y3693924D01*
X3362999D01*
X3379661Y3710585D01*
Y3777231D01*
X3362999Y3793892D01*
X3479628Y3777231D02*
X3462967Y3793892D01*
X3429645D01*
X3412983Y3777231D01*
Y3710585D01*
X3429645Y3693924D01*
X3462967D01*
X3479628Y3710585D01*
Y3743908D01*
X3446306D01*
X3562935Y3793892D02*
X3529612D01*
X3512951Y3777231D01*
Y3710585D01*
X3529612Y3693924D01*
X3562935D01*
X3579596Y3710585D01*
Y3777231D01*
X3562935Y3793892D01*
X3779532Y3777231D02*
X3762870Y3793892D01*
X3729548D01*
X3712887Y3777231D01*
Y3760569D01*
X3729548Y3743908D01*
X3762870D01*
X3779532Y3727247D01*
Y3710585D01*
X3762870Y3693924D01*
X3729548D01*
X3712887Y3710585D01*
X3812854Y3793892D02*
Y3693924D01*
Y3743908D01*
X3879499D01*
Y3793892D01*
Y3693924D01*
X3912822D02*
Y3760569D01*
X3946144Y3793892D01*
X3979467Y3760569D01*
Y3693924D01*
Y3743908D01*
X3912822D01*
X4012790Y3793892D02*
Y3693924D01*
X4079435D01*
X4112757Y3793892D02*
Y3693924D01*
X4179402D01*
X4312693Y3793892D02*
Y3693924D01*
X4362676D01*
X4379338Y3710585D01*
Y3727247D01*
X4362676Y3743908D01*
X4312693D01*
X4362676D01*
X4379338Y3760569D01*
Y3777231D01*
X4362676Y3793892D01*
X4312693D01*
X4479306D02*
X4412660D01*
Y3693924D01*
X4479306D01*
X4412660Y3743908D02*
X4445983D01*
X4612596Y3693924D02*
Y3793892D01*
X4662580D01*
X4679241Y3777231D01*
Y3743908D01*
X4662580Y3727247D01*
X4612596D01*
X4712564Y3793892D02*
Y3693924D01*
X4779209D01*
X4812531D02*
Y3760569D01*
X4845854Y3793892D01*
X4879176Y3760569D01*
Y3693924D01*
Y3743908D01*
X4812531D01*
X4979144Y3777231D02*
X4962483Y3793892D01*
X4929160D01*
X4912499Y3777231D01*
Y3710585D01*
X4929160Y3693924D01*
X4962483D01*
X4979144Y3710585D01*
X5079112Y3793892D02*
X5012467D01*
Y3693924D01*
X5079112D01*
X5012467Y3743908D02*
X5045789D01*
X5112434Y3793892D02*
Y3693924D01*
X5162418D01*
X5179079Y3710585D01*
Y3777231D01*
X5162418Y3793892D01*
X5112434D01*
X5312370D02*
X5345692D01*
X5329031D01*
Y3693924D01*
X5312370D01*
X5345692D01*
X5395676D02*
Y3793892D01*
X5462321Y3693924D01*
Y3793892D01*
X5662257Y3777231D02*
X5645595Y3793892D01*
X5612273D01*
X5595611Y3777231D01*
Y3760569D01*
X5612273Y3743908D01*
X5645595D01*
X5662257Y3727247D01*
Y3710585D01*
X5645595Y3693924D01*
X5612273D01*
X5595611Y3710585D01*
X5695579Y3793892D02*
X5728902D01*
X5712240D01*
Y3693924D01*
X5695579D01*
X5728902D01*
X5778886Y3793892D02*
Y3693924D01*
X5845531D01*
X5878853Y3793892D02*
Y3693924D01*
Y3727247D01*
X5945498Y3793892D01*
X5895515Y3743908D01*
X5945498Y3693924D01*
X6128773Y3793892D02*
X6095450D01*
X6078789Y3777231D01*
Y3710585D01*
X6095450Y3693924D01*
X6128773D01*
X6145434Y3710585D01*
Y3777231D01*
X6128773Y3793892D01*
X6178756Y3693924D02*
Y3793892D01*
X6245401Y3693924D01*
Y3793892D01*
X6378692D02*
Y3693924D01*
X6428676D01*
X6445337Y3710585D01*
Y3727247D01*
X6428676Y3743908D01*
X6378692D01*
X6428676D01*
X6445337Y3760569D01*
Y3777231D01*
X6428676Y3793892D01*
X6378692D01*
X6528643D02*
X6495321D01*
X6478659Y3777231D01*
Y3710585D01*
X6495321Y3693924D01*
X6528643D01*
X6545305Y3710585D01*
Y3777231D01*
X6528643Y3793892D01*
X6578627D02*
X6645272D01*
X6611950D01*
Y3693924D01*
X6678595Y3793892D02*
X6745240D01*
X6711917D01*
Y3693924D01*
X6828546Y3793892D02*
X6795224D01*
X6778563Y3777231D01*
Y3710585D01*
X6795224Y3693924D01*
X6828546D01*
X6845208Y3710585D01*
Y3777231D01*
X6828546Y3793892D01*
X6878530Y3693924D02*
Y3793892D01*
X6911853Y3760569D01*
X6945175Y3793892D01*
Y3693924D01*
X2330000Y3621269D02*
X2346661Y3637931D01*
X2379984D01*
X2396645Y3621269D01*
Y3554624D01*
X2379984Y3537963D01*
X2346661D01*
X2330000Y3554624D01*
Y3621269D01*
X2496613Y3637931D02*
X2463290Y3621269D01*
X2429968Y3587947D01*
Y3554624D01*
X2446629Y3537963D01*
X2479952D01*
X2496613Y3554624D01*
Y3571285D01*
X2479952Y3587947D01*
X2429968D01*
X2529935Y3537963D02*
Y3554624D01*
X2546597D01*
Y3537963D01*
X2529935D01*
X2713209Y3637931D02*
Y3537963D01*
X2779855D01*
X2879822Y3637931D02*
X2813177D01*
Y3537963D01*
X2879822D01*
X2813177Y3587947D02*
X2846500D01*
X2913145Y3537963D02*
Y3604608D01*
X2946468Y3637931D01*
X2979790Y3604608D01*
Y3537963D01*
Y3587947D01*
X2913145D01*
X3013113Y3637931D02*
Y3537963D01*
X3063096D01*
X3079758Y3554624D01*
Y3621269D01*
X3063096Y3637931D01*
X3013113D01*
X3279693D02*
X3213048D01*
Y3587947D01*
X3246371D01*
X3213048D01*
Y3537963D01*
X3313016D02*
Y3637931D01*
X3362999D01*
X3379661Y3621269D01*
Y3587947D01*
X3362999Y3571285D01*
X3313016D01*
X3346338D02*
X3379661Y3537963D01*
X3479628Y3637931D02*
X3412983D01*
Y3537963D01*
X3479628D01*
X3412983Y3587947D02*
X3446306D01*
X3579596Y3637931D02*
X3512951D01*
Y3537963D01*
X3579596D01*
X3512951Y3587947D02*
X3546274D01*
X3712887Y3637931D02*
Y3537963D01*
X3779532D01*
X3862838Y3637931D02*
X3829515D01*
X3812854Y3621269D01*
Y3554624D01*
X3829515Y3537963D01*
X3862838D01*
X3879499Y3554624D01*
Y3621269D01*
X3862838Y3637931D01*
X3979467Y3621269D02*
X3962806Y3637931D01*
X3929483D01*
X3912822Y3621269D01*
Y3554624D01*
X3929483Y3537963D01*
X3962806D01*
X3979467Y3554624D01*
Y3587947D01*
X3946144D01*
X4062773Y3637931D02*
X4029451D01*
X4012790Y3621269D01*
Y3554624D01*
X4029451Y3537963D01*
X4062773D01*
X4079435Y3554624D01*
Y3621269D01*
X4062773Y3637931D01*
X4212725D02*
X4279370D01*
X4246048D01*
Y3537963D01*
X4362676Y3637931D02*
X4329354D01*
X4312693Y3621269D01*
Y3554624D01*
X4329354Y3537963D01*
X4362676D01*
X4379338Y3554624D01*
Y3621269D01*
X4362676Y3637931D01*
X4512628D02*
Y3537963D01*
X4562612D01*
X4579273Y3554624D01*
Y3571285D01*
X4562612Y3587947D01*
X4512628D01*
X4562612D01*
X4579273Y3604608D01*
Y3621269D01*
X4562612Y3637931D01*
X4512628D01*
X4679241D02*
X4612596D01*
Y3537963D01*
X4679241D01*
X4612596Y3587947D02*
X4645918D01*
X4812531Y3537963D02*
Y3637931D01*
X4862515D01*
X4879176Y3621269D01*
Y3587947D01*
X4862515Y3571285D01*
X4812531D01*
X4912499Y3637931D02*
Y3537963D01*
X4979144D01*
X5012467D02*
Y3604608D01*
X5045789Y3637931D01*
X5079112Y3604608D01*
Y3537963D01*
Y3587947D01*
X5012467D01*
X5179079Y3621269D02*
X5162418Y3637931D01*
X5129096D01*
X5112434Y3621269D01*
Y3554624D01*
X5129096Y3537963D01*
X5162418D01*
X5179079Y3554624D01*
X5279047Y3637931D02*
X5212402D01*
Y3537963D01*
X5279047D01*
X5212402Y3587947D02*
X5245725D01*
X5312370Y3637931D02*
Y3537963D01*
X5362354D01*
X5379015Y3554624D01*
Y3621269D01*
X5362354Y3637931D01*
X5312370D01*
X5512305D02*
X5545628D01*
X5528966D01*
Y3537963D01*
X5512305D01*
X5545628D01*
X5595611D02*
Y3637931D01*
X5662257Y3537963D01*
Y3637931D01*
X5862192Y3621269D02*
X5845531Y3637931D01*
X5812208D01*
X5795547Y3621269D01*
Y3604608D01*
X5812208Y3587947D01*
X5845531D01*
X5862192Y3571285D01*
Y3554624D01*
X5845531Y3537963D01*
X5812208D01*
X5795547Y3554624D01*
X5895515Y3637931D02*
X5928837D01*
X5912176D01*
Y3537963D01*
X5895515D01*
X5928837D01*
X5978821Y3637931D02*
Y3537963D01*
X6045466D01*
X6078789Y3637931D02*
Y3537963D01*
Y3571285D01*
X6145434Y3637931D01*
X6095450Y3587947D01*
X6145434Y3537963D01*
X6328708Y3637931D02*
X6295385D01*
X6278724Y3621269D01*
Y3554624D01*
X6295385Y3537963D01*
X6328708D01*
X6345369Y3554624D01*
Y3621269D01*
X6328708Y3637931D01*
X6378692Y3537963D02*
Y3637931D01*
X6445337Y3537963D01*
Y3637931D01*
X6578627D02*
Y3537963D01*
X6628611D01*
X6645272Y3554624D01*
Y3571285D01*
X6628611Y3587947D01*
X6578627D01*
X6628611D01*
X6645272Y3604608D01*
Y3621269D01*
X6628611Y3637931D01*
X6578627D01*
X6728579D02*
X6695256D01*
X6678595Y3621269D01*
Y3554624D01*
X6695256Y3537963D01*
X6728579D01*
X6745240Y3554624D01*
Y3621269D01*
X6728579Y3637931D01*
X6778563D02*
X6845208D01*
X6811885D01*
Y3537963D01*
X6878530Y3637931D02*
X6945175D01*
X6911853D01*
Y3537963D01*
X7028482Y3637931D02*
X6995159D01*
X6978498Y3621269D01*
Y3554624D01*
X6995159Y3537963D01*
X7028482D01*
X7045143Y3554624D01*
Y3621269D01*
X7028482Y3637931D01*
X7078466Y3537963D02*
Y3637931D01*
X7111788Y3604608D01*
X7145111Y3637931D01*
Y3537963D01*
X2330000Y3465308D02*
X2346661Y3481969D01*
X2379984D01*
X2396645Y3465308D01*
Y3398663D01*
X2379984Y3382002D01*
X2346661D01*
X2330000Y3398663D01*
Y3465308D01*
X2429968Y3481969D02*
X2496613D01*
Y3465308D01*
X2429968Y3398663D01*
Y3382002D01*
X2529935D02*
Y3398663D01*
X2546597D01*
Y3382002D01*
X2529935D01*
X2779855Y3481969D02*
X2713209D01*
Y3431985D01*
X2746532D01*
X2713209D01*
Y3382002D01*
X2813177D02*
Y3448647D01*
X2846500Y3481969D01*
X2879822Y3448647D01*
Y3382002D01*
Y3431985D01*
X2813177D01*
X2913145Y3481969D02*
Y3382002D01*
X2963129D01*
X2979790Y3398663D01*
Y3415324D01*
X2963129Y3431985D01*
X2913145D01*
X2963129D01*
X2979790Y3448647D01*
Y3465308D01*
X2963129Y3481969D01*
X2913145D01*
X3113080D02*
Y3382002D01*
Y3431985D01*
X3179725D01*
Y3481969D01*
Y3382002D01*
X3263032Y3481969D02*
X3229709D01*
X3213048Y3465308D01*
Y3398663D01*
X3229709Y3382002D01*
X3263032D01*
X3279693Y3398663D01*
Y3465308D01*
X3263032Y3481969D01*
X3313016D02*
Y3398663D01*
X3329677Y3382002D01*
X3362999D01*
X3379661Y3398663D01*
Y3481969D01*
X3479628Y3465308D02*
X3462967Y3481969D01*
X3429645D01*
X3412983Y3465308D01*
Y3448647D01*
X3429645Y3431985D01*
X3462967D01*
X3479628Y3415324D01*
Y3398663D01*
X3462967Y3382002D01*
X3429645D01*
X3412983Y3398663D01*
X3579596Y3481969D02*
X3512951D01*
Y3382002D01*
X3579596D01*
X3512951Y3431985D02*
X3546274D01*
X3712887Y3481969D02*
X3779532D01*
X3746209D01*
Y3382002D01*
X3862838Y3481969D02*
X3829515D01*
X3812854Y3465308D01*
Y3398663D01*
X3829515Y3382002D01*
X3862838D01*
X3879499Y3398663D01*
Y3465308D01*
X3862838Y3481969D01*
X4012790D02*
Y3398663D01*
X4029451Y3382002D01*
X4062773D01*
X4079435Y3398663D01*
Y3481969D01*
X4112757Y3382002D02*
Y3481969D01*
X4162741D01*
X4179402Y3465308D01*
Y3431985D01*
X4162741Y3415324D01*
X4112757D01*
X4212725Y3481969D02*
Y3382002D01*
X4262709D01*
X4279370Y3398663D01*
Y3465308D01*
X4262709Y3481969D01*
X4212725D01*
X4312693Y3382002D02*
Y3448647D01*
X4346015Y3481969D01*
X4379338Y3448647D01*
Y3382002D01*
Y3431985D01*
X4312693D01*
X4412660Y3481969D02*
X4479306D01*
X4445983D01*
Y3382002D01*
X4579273Y3481969D02*
X4512628D01*
Y3382002D01*
X4579273D01*
X4512628Y3431985D02*
X4545951D01*
X4779209Y3465308D02*
X4762547Y3481969D01*
X4729225D01*
X4712564Y3465308D01*
Y3448647D01*
X4729225Y3431985D01*
X4762547D01*
X4779209Y3415324D01*
Y3398663D01*
X4762547Y3382002D01*
X4729225D01*
X4712564Y3398663D01*
X4812531Y3481969D02*
X4845854D01*
X4829193D01*
Y3382002D01*
X4812531D01*
X4845854D01*
X4895838Y3481969D02*
Y3382002D01*
X4962483D01*
X4995805Y3481969D02*
Y3382002D01*
Y3415324D01*
X5062450Y3481969D01*
X5012467Y3431985D01*
X5062450Y3382002D01*
X5162418Y3465308D02*
X5145757Y3481969D01*
X5112434D01*
X5095773Y3465308D01*
Y3448647D01*
X5112434Y3431985D01*
X5145757D01*
X5162418Y3415324D01*
Y3398663D01*
X5145757Y3382002D01*
X5112434D01*
X5095773Y3398663D01*
X5262386Y3465308D02*
X5245725Y3481969D01*
X5212402D01*
X5195741Y3465308D01*
Y3398663D01*
X5212402Y3382002D01*
X5245725D01*
X5262386Y3398663D01*
X5295708Y3382002D02*
Y3481969D01*
X5345692D01*
X5362354Y3465308D01*
Y3431985D01*
X5345692Y3415324D01*
X5295708D01*
X5329031D02*
X5362354Y3382002D01*
X5462321Y3481969D02*
X5395676D01*
Y3382002D01*
X5462321D01*
X5395676Y3431985D02*
X5428999D01*
X5562289Y3481969D02*
X5495644D01*
Y3382002D01*
X5562289D01*
X5495644Y3431985D02*
X5528966D01*
X5595611Y3382002D02*
Y3481969D01*
X5662257Y3382002D01*
Y3481969D01*
X5862192D02*
X5795547D01*
Y3431985D01*
X5828869D01*
X5795547D01*
Y3382002D01*
X5945498Y3481969D02*
X5912176D01*
X5895515Y3465308D01*
Y3398663D01*
X5912176Y3382002D01*
X5945498D01*
X5962160Y3398663D01*
Y3465308D01*
X5945498Y3481969D01*
X5995482Y3382002D02*
Y3481969D01*
X6045466D01*
X6062127Y3465308D01*
Y3431985D01*
X6045466Y3415324D01*
X5995482D01*
X6028805D02*
X6062127Y3382002D01*
X6195418D02*
Y3481969D01*
X6228740Y3448647D01*
X6262063Y3481969D01*
Y3382002D01*
X6295385D02*
Y3448647D01*
X6328708Y3481969D01*
X6362030Y3448647D01*
Y3382002D01*
Y3431985D01*
X6295385D01*
X6395353Y3382002D02*
Y3481969D01*
X6461998Y3382002D01*
Y3481969D01*
X6495321D02*
Y3398663D01*
X6511982Y3382002D01*
X6545305D01*
X6561966Y3398663D01*
Y3481969D01*
X6661934D02*
X6595288D01*
Y3431985D01*
X6628611D01*
X6595288D01*
Y3382002D01*
X6695256D02*
Y3448647D01*
X6728579Y3481969D01*
X6761901Y3448647D01*
Y3382002D01*
Y3431985D01*
X6695256D01*
X6861869Y3465308D02*
X6845208Y3481969D01*
X6811885D01*
X6795224Y3465308D01*
Y3398663D01*
X6811885Y3382002D01*
X6845208D01*
X6861869Y3398663D01*
X6895192Y3481969D02*
X6961837D01*
X6928514D01*
Y3382002D01*
X6995159Y3481969D02*
Y3398663D01*
X7011821Y3382002D01*
X7045143D01*
X7061804Y3398663D01*
Y3481969D01*
X7095127Y3382002D02*
Y3481969D01*
X7145111D01*
X7161772Y3465308D01*
Y3431985D01*
X7145111Y3415324D01*
X7095127D01*
X7128450D02*
X7161772Y3382002D01*
X7261740Y3481969D02*
X7195095D01*
Y3382002D01*
X7261740D01*
X7195095Y3431985D02*
X7228417D01*
X7395030Y3481969D02*
Y3382002D01*
X7445014D01*
X7461675Y3398663D01*
Y3465308D01*
X7445014Y3481969D01*
X7395030D01*
X7494998Y3382002D02*
Y3448647D01*
X7528320Y3481969D01*
X7561643Y3448647D01*
Y3382002D01*
Y3431985D01*
X7494998D01*
X7594966Y3481969D02*
X7661611D01*
X7628288D01*
Y3382002D01*
X7761578Y3481969D02*
X7694933D01*
Y3382002D01*
X7761578D01*
X7694933Y3431985D02*
X7728256D01*
X2330000Y3309347D02*
X2346661Y3326008D01*
X2379984D01*
X2396645Y3309347D01*
Y3242702D01*
X2379984Y3226041D01*
X2346661D01*
X2330000Y3242702D01*
Y3309347D01*
X2429968D02*
X2446629Y3326008D01*
X2479952D01*
X2496613Y3309347D01*
Y3292686D01*
X2479952Y3276024D01*
X2496613Y3259363D01*
Y3242702D01*
X2479952Y3226041D01*
X2446629D01*
X2429968Y3242702D01*
Y3259363D01*
X2446629Y3276024D01*
X2429968Y3292686D01*
Y3309347D01*
X2446629Y3276024D02*
X2479952D01*
X2529935Y3226041D02*
Y3242702D01*
X2546597D01*
Y3226041D01*
X2529935D01*
X2779855Y3326008D02*
X2713209D01*
Y3276024D01*
X2746532D01*
X2713209D01*
Y3226041D01*
X2813177D02*
Y3292686D01*
X2846500Y3326008D01*
X2879822Y3292686D01*
Y3226041D01*
Y3276024D01*
X2813177D01*
X2913145Y3326008D02*
Y3226041D01*
X2963129D01*
X2979790Y3242702D01*
Y3259363D01*
X2963129Y3276024D01*
X2913145D01*
X2963129D01*
X2979790Y3292686D01*
Y3309347D01*
X2963129Y3326008D01*
X2913145D01*
X3113080D02*
Y3226041D01*
Y3276024D01*
X3179725D01*
Y3326008D01*
Y3226041D01*
X3263032Y3326008D02*
X3229709D01*
X3213048Y3309347D01*
Y3242702D01*
X3229709Y3226041D01*
X3263032D01*
X3279693Y3242702D01*
Y3309347D01*
X3263032Y3326008D01*
X3313016D02*
Y3242702D01*
X3329677Y3226041D01*
X3362999D01*
X3379661Y3242702D01*
Y3326008D01*
X3479628Y3309347D02*
X3462967Y3326008D01*
X3429645D01*
X3412983Y3309347D01*
Y3292686D01*
X3429645Y3276024D01*
X3462967D01*
X3479628Y3259363D01*
Y3242702D01*
X3462967Y3226041D01*
X3429645D01*
X3412983Y3242702D01*
X3579596Y3326008D02*
X3512951D01*
Y3226041D01*
X3579596D01*
X3512951Y3276024D02*
X3546274D01*
X3712887Y3326008D02*
X3779532D01*
X3746209D01*
Y3226041D01*
X3862838Y3326008D02*
X3829515D01*
X3812854Y3309347D01*
Y3242702D01*
X3829515Y3226041D01*
X3862838D01*
X3879499Y3242702D01*
Y3309347D01*
X3862838Y3326008D01*
X4012790D02*
X4046112D01*
X4029451D01*
Y3226041D01*
X4012790D01*
X4046112D01*
X4096096D02*
Y3326008D01*
X4162741Y3226041D01*
Y3326008D01*
X4262709Y3309347D02*
X4246047Y3326008D01*
X4212725D01*
X4196064Y3309347D01*
Y3242702D01*
X4212725Y3226041D01*
X4246047D01*
X4262709Y3242702D01*
X4296031Y3226041D02*
Y3326008D01*
X4346015D01*
X4362676Y3309347D01*
Y3276024D01*
X4346015Y3259363D01*
X4296031D01*
X4329354D02*
X4362676Y3226041D01*
X4462644Y3326008D02*
X4395999D01*
Y3226041D01*
X4462644D01*
X4395999Y3276024D02*
X4429322D01*
X4495967Y3226041D02*
Y3326008D01*
X4529289Y3292686D01*
X4562612Y3326008D01*
Y3226041D01*
X4662580Y3326008D02*
X4595935D01*
Y3226041D01*
X4662580D01*
X4595935Y3276024D02*
X4629257D01*
X4695902Y3226041D02*
Y3326008D01*
X4762547Y3226041D01*
Y3326008D01*
X4795870D02*
X4862515D01*
X4829193D01*
Y3226041D01*
X5062450Y3309347D02*
X5045789Y3326008D01*
X5012467D01*
X4995805Y3309347D01*
Y3292686D01*
X5012467Y3276024D01*
X5045789D01*
X5062450Y3259363D01*
Y3242702D01*
X5045789Y3226041D01*
X5012467D01*
X4995805Y3242702D01*
X5162418Y3326008D02*
X5095773D01*
Y3226041D01*
X5162418D01*
X5095773Y3276024D02*
X5129096D01*
X5195741Y3226041D02*
Y3326008D01*
X5245725D01*
X5262386Y3309347D01*
Y3276024D01*
X5245725Y3259363D01*
X5195741D01*
X5229063D02*
X5262386Y3226041D01*
X5295708Y3326008D02*
X5329031D01*
X5312370D01*
Y3226041D01*
X5295708D01*
X5329031D01*
X5379015D02*
Y3292686D01*
X5412337Y3326008D01*
X5445660Y3292686D01*
Y3226041D01*
Y3276024D01*
X5379015D01*
X5478983Y3326008D02*
Y3226041D01*
X5545628D01*
X5678918D02*
Y3326008D01*
X5745563Y3226041D01*
Y3326008D01*
X5778886D02*
Y3242702D01*
X5795547Y3226041D01*
X5828869D01*
X5845531Y3242702D01*
Y3326008D01*
X5878853Y3226041D02*
Y3326008D01*
X5912176Y3292686D01*
X5945498Y3326008D01*
Y3226041D01*
X5978821Y3326008D02*
Y3226041D01*
X6028805D01*
X6045466Y3242702D01*
Y3259363D01*
X6028805Y3276024D01*
X5978821D01*
X6028805D01*
X6045466Y3292686D01*
Y3309347D01*
X6028805Y3326008D01*
X5978821D01*
X6145434D02*
X6078789D01*
Y3226041D01*
X6145434D01*
X6078789Y3276024D02*
X6112111D01*
X6178756Y3226041D02*
Y3326008D01*
X6228740D01*
X6245401Y3309347D01*
Y3276024D01*
X6228740Y3259363D01*
X6178756D01*
X6212079D02*
X6245401Y3226041D01*
X6378692Y3326008D02*
X6412014D01*
X6395353D01*
Y3226041D01*
X6378692D01*
X6412014D01*
X6461998D02*
Y3326008D01*
X6528643Y3226041D01*
Y3326008D01*
X6728579Y3309347D02*
X6711917Y3326008D01*
X6678595D01*
X6661934Y3309347D01*
Y3292686D01*
X6678595Y3276024D01*
X6711917D01*
X6728579Y3259363D01*
Y3242702D01*
X6711917Y3226041D01*
X6678595D01*
X6661934Y3242702D01*
X6761901Y3326008D02*
X6795224D01*
X6778563D01*
Y3226041D01*
X6761901D01*
X6795224D01*
X6845208Y3326008D02*
Y3226041D01*
X6911853D01*
X6945175Y3326008D02*
Y3226041D01*
Y3259363D01*
X7011820Y3326008D01*
X6961837Y3276024D01*
X7011820Y3226041D01*
X7061804Y3209379D02*
X7078466Y3226041D01*
Y3242702D01*
X7061804D01*
Y3226041D01*
X7078466D01*
X7061804Y3209379D01*
X7045143Y3192718D01*
X7311724Y3309347D02*
X7295062Y3326008D01*
X7261740D01*
X7245078Y3309347D01*
Y3292686D01*
X7261740Y3276024D01*
X7295062D01*
X7311724Y3259363D01*
Y3242702D01*
X7295062Y3226041D01*
X7261740D01*
X7245078Y3242702D01*
X7345046Y3326008D02*
X7411691D01*
X7378369D01*
Y3226041D01*
X7445014D02*
Y3292686D01*
X7478337Y3326008D01*
X7511659Y3292686D01*
Y3226041D01*
Y3276024D01*
X7445014D01*
X7544982Y3226041D02*
Y3326008D01*
X7594965D01*
X7611627Y3309347D01*
Y3276024D01*
X7594965Y3259363D01*
X7544982D01*
X7578304D02*
X7611627Y3226041D01*
X7644949Y3326008D02*
X7711594D01*
X7678272D01*
Y3226041D01*
X7744917Y3326008D02*
X7778240D01*
X7761578D01*
Y3226041D01*
X7744917D01*
X7778240D01*
X7828223D02*
Y3326008D01*
X7894868Y3226041D01*
Y3326008D01*
X7994836Y3309347D02*
X7978175Y3326008D01*
X7944852D01*
X7928191Y3309347D01*
Y3242702D01*
X7944852Y3226041D01*
X7978175D01*
X7994836Y3242702D01*
Y3276024D01*
X7961514D01*
X8128127Y3226041D02*
Y3292686D01*
X8161449Y3326008D01*
X8194772Y3292686D01*
Y3226041D01*
Y3276024D01*
X8128127D01*
X8228094Y3326008D02*
X8294739D01*
X8261417D01*
Y3226041D01*
X8428030Y3309347D02*
X8444691Y3326008D01*
X8478013D01*
X8494675Y3309347D01*
Y3242702D01*
X8478013Y3226041D01*
X8444691D01*
X8428030Y3242702D01*
Y3309347D01*
X8527997D02*
X8544659Y3326008D01*
X8577981D01*
X8594642Y3309347D01*
Y3242702D01*
X8577981Y3226041D01*
X8544659D01*
X8527997Y3242702D01*
Y3309347D01*
X8644626Y3209379D02*
X8661288Y3226041D01*
Y3242702D01*
X8644626D01*
Y3226041D01*
X8661288D01*
X8644626Y3209379D01*
X8627965Y3192718D01*
X8894546Y3326008D02*
X8827900D01*
Y3276024D01*
X8861223D01*
X8827900D01*
Y3226041D01*
X8977852Y3326008D02*
X8944529D01*
X8927868Y3309347D01*
Y3242702D01*
X8944529Y3226041D01*
X8977852D01*
X8994513Y3242702D01*
Y3309347D01*
X8977852Y3326008D01*
X9027836Y3226041D02*
Y3326008D01*
X9077820D01*
X9094481Y3309347D01*
Y3276024D01*
X9077820Y3259363D01*
X9027836D01*
X9061158D02*
X9094481Y3226041D01*
X9294416Y3326008D02*
X9227771D01*
Y3226041D01*
X9294416D01*
X9227771Y3276024D02*
X9261094D01*
X9327739Y3226041D02*
Y3292686D01*
X9361061Y3326008D01*
X9394384Y3292686D01*
Y3226041D01*
Y3276024D01*
X9327739D01*
X9494352Y3309347D02*
X9477690Y3326008D01*
X9444368D01*
X9427707Y3309347D01*
Y3242702D01*
X9444368Y3226041D01*
X9477690D01*
X9494352Y3242702D01*
X9527674Y3326008D02*
Y3226041D01*
Y3276024D01*
X9594319D01*
Y3326008D01*
Y3226041D01*
X9727610Y3326008D02*
Y3226041D01*
X9777594D01*
X9794255Y3242702D01*
Y3259363D01*
X9777594Y3276024D01*
X9727610D01*
X9777594D01*
X9794255Y3292686D01*
Y3309347D01*
X9777594Y3326008D01*
X9727610D01*
X9877561D02*
X9844239D01*
X9827577Y3309347D01*
Y3242702D01*
X9844239Y3226041D01*
X9877561D01*
X9894222Y3242702D01*
Y3309347D01*
X9877561Y3326008D01*
X9927545Y3226041D02*
Y3292686D01*
X9960868Y3326008D01*
X9994190Y3292686D01*
Y3226041D01*
Y3276024D01*
X9927545D01*
X10027513Y3226041D02*
Y3326008D01*
X10077497D01*
X10094158Y3309347D01*
Y3276024D01*
X10077497Y3259363D01*
X10027513D01*
X10060835D02*
X10094158Y3226041D01*
X10127480Y3326008D02*
Y3226041D01*
X10177464D01*
X10194126Y3242702D01*
Y3309347D01*
X10177464Y3326008D01*
X10127480D01*
X2330000Y3153386D02*
X2346661Y3170047D01*
X2379984D01*
X2396645Y3153386D01*
Y3086741D01*
X2379984Y3070079D01*
X2346661D01*
X2330000Y3086741D01*
Y3153386D01*
X2429968Y3086741D02*
X2446629Y3070079D01*
X2479952D01*
X2496613Y3086741D01*
Y3153386D01*
X2479952Y3170047D01*
X2446629D01*
X2429968Y3153386D01*
Y3136724D01*
X2446629Y3120063D01*
X2496613D01*
X2529935Y3070079D02*
Y3086741D01*
X2546597D01*
Y3070079D01*
X2529935D01*
X2779855Y3153386D02*
X2763193Y3170047D01*
X2729871D01*
X2713209Y3153386D01*
Y3136724D01*
X2729871Y3120063D01*
X2763193D01*
X2779855Y3103402D01*
Y3086741D01*
X2763193Y3070079D01*
X2729871D01*
X2713209Y3086741D01*
X2813177Y3070079D02*
Y3170047D01*
X2846500Y3136724D01*
X2879822Y3170047D01*
Y3070079D01*
X2913145D02*
Y3136724D01*
X2946468Y3170047D01*
X2979790Y3136724D01*
Y3070079D01*
Y3120063D01*
X2913145D01*
X3013113Y3170047D02*
Y3070079D01*
X3079758D01*
X3113080Y3170047D02*
Y3070079D01*
X3179725D01*
X3279693Y3170047D02*
X3213048D01*
Y3070079D01*
X3279693D01*
X3213048Y3120063D02*
X3246371D01*
X3379661Y3153386D02*
X3362999Y3170047D01*
X3329677D01*
X3313016Y3153386D01*
Y3136724D01*
X3329677Y3120063D01*
X3362999D01*
X3379661Y3103402D01*
Y3086741D01*
X3362999Y3070079D01*
X3329677D01*
X3313016Y3086741D01*
X3412983Y3170047D02*
X3479628D01*
X3446306D01*
Y3070079D01*
X3612919Y3170047D02*
X3679564D01*
X3646241D01*
Y3070079D01*
X3712887D02*
Y3170047D01*
X3762870D01*
X3779532Y3153386D01*
Y3120063D01*
X3762870Y3103402D01*
X3712887D01*
X3746209D02*
X3779532Y3070079D01*
X3812854D02*
Y3136724D01*
X3846177Y3170047D01*
X3879499Y3136724D01*
Y3070079D01*
Y3120063D01*
X3812854D01*
X3979467Y3153386D02*
X3962806Y3170047D01*
X3929483D01*
X3912822Y3153386D01*
Y3086741D01*
X3929483Y3070079D01*
X3962806D01*
X3979467Y3086741D01*
X4079435Y3170047D02*
X4012790D01*
Y3070079D01*
X4079435D01*
X4012790Y3120063D02*
X4046112D01*
X4212725Y3170047D02*
X4246048D01*
X4229386D01*
Y3070079D01*
X4212725D01*
X4246048D01*
X4362676Y3153386D02*
X4346015Y3170047D01*
X4312693D01*
X4296031Y3153386D01*
Y3136724D01*
X4312693Y3120063D01*
X4346015D01*
X4362676Y3103402D01*
Y3086741D01*
X4346015Y3070079D01*
X4312693D01*
X4296031Y3086741D01*
X4562612Y3070079D02*
X4495967D01*
X4562612Y3136724D01*
Y3153386D01*
X4545951Y3170047D01*
X4512628D01*
X4495967Y3153386D01*
X4662580Y3170047D02*
X4595935D01*
Y3120063D01*
X4629257Y3136724D01*
X4645918D01*
X4662580Y3120063D01*
Y3086741D01*
X4645918Y3070079D01*
X4612596D01*
X4595935Y3086741D01*
X4795870Y3070079D02*
Y3170047D01*
X4829193Y3136724D01*
X4862515Y3170047D01*
Y3070079D01*
X4895838Y3170047D02*
X4929160D01*
X4912499D01*
Y3070079D01*
X4895838D01*
X4929160D01*
X4979144Y3170047D02*
Y3070079D01*
X5045789D01*
X2330000Y2914118D02*
X2363323D01*
X2346661D01*
Y3014086D01*
X2330000Y2997425D01*
X2413306D02*
X2429968Y3014086D01*
X2463290D01*
X2479952Y2997425D01*
Y2930779D01*
X2463290Y2914118D01*
X2429968D01*
X2413306Y2930779D01*
Y2997425D01*
X2513274Y2914118D02*
Y2930779D01*
X2529935D01*
Y2914118D01*
X2513274D01*
X2763193Y2997425D02*
X2746532Y3014086D01*
X2713209D01*
X2696548Y2997425D01*
Y2980763D01*
X2713209Y2964102D01*
X2746532D01*
X2763193Y2947441D01*
Y2930779D01*
X2746532Y2914118D01*
X2713209D01*
X2696548Y2930779D01*
X2796516Y2914118D02*
Y3014086D01*
X2829838Y2980763D01*
X2863161Y3014086D01*
Y2914118D01*
X2896484D02*
Y2980763D01*
X2929806Y3014086D01*
X2963129Y2980763D01*
Y2914118D01*
Y2964102D01*
X2896484D01*
X2996451Y3014086D02*
Y2914118D01*
X3063096D01*
X3096419Y3014086D02*
Y2914118D01*
X3163064D01*
X3263032Y3014086D02*
X3196387D01*
Y2914118D01*
X3263032D01*
X3196387Y2964102D02*
X3229709D01*
X3362999Y2997425D02*
X3346338Y3014086D01*
X3313016D01*
X3296354Y2997425D01*
Y2980763D01*
X3313016Y2964102D01*
X3346338D01*
X3362999Y2947441D01*
Y2930779D01*
X3346338Y2914118D01*
X3313016D01*
X3296354Y2930779D01*
X3396322Y3014086D02*
X3462967D01*
X3429645D01*
Y2914118D01*
X3596258Y3014086D02*
Y2914118D01*
X3646241D01*
X3662903Y2930779D01*
Y2997425D01*
X3646241Y3014086D01*
X3596258D01*
X3696225Y2914118D02*
Y3014086D01*
X3746209D01*
X3762870Y2997425D01*
Y2964102D01*
X3746209Y2947441D01*
X3696225D01*
X3729548D02*
X3762870Y2914118D01*
X3796193Y3014086D02*
X3829515D01*
X3812854D01*
Y2914118D01*
X3796193D01*
X3829515D01*
X3879499Y3014086D02*
Y2914118D01*
X3946144D01*
X3979467Y3014086D02*
Y2914118D01*
X4046112D01*
X4179402Y3014086D02*
X4212725D01*
X4196064D01*
Y2914118D01*
X4179402D01*
X4212725D01*
X4329354Y2997425D02*
X4312693Y3014086D01*
X4279370D01*
X4262709Y2997425D01*
Y2980763D01*
X4279370Y2964102D01*
X4312693D01*
X4329354Y2947441D01*
Y2930779D01*
X4312693Y2914118D01*
X4279370D01*
X4262709Y2930779D01*
X4529289Y2914118D02*
X4462644D01*
X4529289Y2980763D01*
Y2997425D01*
X4512628Y3014086D01*
X4479306D01*
X4462644Y2997425D01*
X4562612D02*
X4579273Y3014086D01*
X4612596D01*
X4629257Y2997425D01*
Y2980763D01*
X4612596Y2964102D01*
X4629257Y2947441D01*
Y2930779D01*
X4612596Y2914118D01*
X4579273D01*
X4562612Y2930779D01*
Y2947441D01*
X4579273Y2964102D01*
X4562612Y2980763D01*
Y2997425D01*
X4579273Y2964102D02*
X4612596D01*
X4762547Y2914118D02*
Y3014086D01*
X4795870Y2980763D01*
X4829192Y3014086D01*
Y2914118D01*
X4862515Y3014086D02*
X4895838D01*
X4879176D01*
Y2914118D01*
X4862515D01*
X4895838D01*
X4945821Y3014086D02*
Y2914118D01*
X5012467D01*
X2330000Y2758157D02*
X2363323D01*
X2346661D01*
Y2858125D01*
X2330000Y2841463D01*
X2413306Y2758157D02*
X2446629D01*
X2429968D01*
Y2858125D01*
X2413306Y2841463D01*
X2496613Y2758157D02*
Y2774818D01*
X2513274D01*
Y2758157D01*
X2496613D01*
X2746532Y2841463D02*
X2729871Y2858125D01*
X2696548D01*
X2679887Y2841463D01*
Y2774818D01*
X2696548Y2758157D01*
X2729871D01*
X2746532Y2774818D01*
X2829838Y2858125D02*
X2796516D01*
X2779855Y2841463D01*
Y2774818D01*
X2796516Y2758157D01*
X2829838D01*
X2846500Y2774818D01*
Y2841463D01*
X2829838Y2858125D01*
X2879822Y2758157D02*
Y2858125D01*
X2929806D01*
X2946467Y2841463D01*
Y2808141D01*
X2929806Y2791479D01*
X2879822D01*
X2979790Y2758157D02*
Y2858125D01*
X3029774D01*
X3046435Y2841463D01*
Y2808141D01*
X3029774Y2791479D01*
X2979790D01*
X3146403Y2858125D02*
X3079758D01*
Y2758157D01*
X3146403D01*
X3079758Y2808141D02*
X3113080D01*
X3179725Y2758157D02*
Y2858125D01*
X3229709D01*
X3246370Y2841463D01*
Y2808141D01*
X3229709Y2791479D01*
X3179725D01*
X3213048D02*
X3246370Y2758157D01*
X3379661Y2858125D02*
Y2758157D01*
X3412983Y2791479D01*
X3446306Y2758157D01*
Y2858125D01*
X3546274D02*
X3479628D01*
Y2758157D01*
X3546274D01*
X3479628Y2808141D02*
X3512951D01*
X3579596Y2858125D02*
X3612919D01*
X3596258D01*
Y2758157D01*
X3579596D01*
X3612919D01*
X3729548Y2841463D02*
X3712886Y2858125D01*
X3679564D01*
X3662903Y2841463D01*
Y2774818D01*
X3679564Y2758157D01*
X3712886D01*
X3729548Y2774818D01*
Y2808141D01*
X3696225D01*
X3762870Y2858125D02*
Y2758157D01*
Y2808141D01*
X3829515D01*
Y2858125D01*
Y2758157D01*
X3862838Y2858125D02*
X3929483D01*
X3896161D01*
Y2758157D01*
X4062773Y2858125D02*
X4096096D01*
X4079435D01*
Y2758157D01*
X4062773D01*
X4096096D01*
X4212725Y2841463D02*
X4196064Y2858125D01*
X4162741D01*
X4146080Y2841463D01*
Y2824802D01*
X4162741Y2808141D01*
X4196064D01*
X4212725Y2791479D01*
Y2774818D01*
X4196064Y2758157D01*
X4162741D01*
X4146080Y2774818D01*
X4412660Y2758157D02*
X4346015D01*
X4412660Y2824802D01*
Y2841463D01*
X4395999Y2858125D01*
X4362676D01*
X4346015Y2841463D01*
X4595934Y2858125D02*
X4562612D01*
X4545951Y2841463D01*
Y2774818D01*
X4562612Y2758157D01*
X4595934D01*
X4612596Y2774818D01*
Y2841463D01*
X4595934Y2858125D01*
X4645918D02*
X4712563D01*
Y2841463D01*
X4645918Y2774818D01*
Y2758157D01*
X4712563D01*
X4745886D02*
Y2774818D01*
X4762547D01*
Y2758157D01*
X4745886D01*
X4929160Y2858125D02*
X4962483D01*
X4945821D01*
Y2758157D01*
X4929160D01*
X4962483D01*
X5012467D02*
Y2858125D01*
X5079112Y2758157D01*
Y2858125D01*
X5112434Y2758157D02*
Y2858125D01*
X5179079Y2758157D01*
Y2858125D01*
X5279047D02*
X5212402D01*
Y2758157D01*
X5279047D01*
X5212402Y2808141D02*
X5245725D01*
X5312370Y2758157D02*
Y2858125D01*
X5362353D01*
X5379015Y2841463D01*
Y2808141D01*
X5362353Y2791479D01*
X5312370D01*
X5345692D02*
X5379015Y2758157D01*
X5578950D02*
X5562289Y2774818D01*
X5545628Y2758157D01*
X5528966D01*
X5512305Y2774818D01*
Y2791479D01*
X5528966Y2808141D01*
X5512305Y2824802D01*
Y2841463D01*
X5528966Y2858125D01*
X5545628D01*
X5562289Y2841463D01*
Y2824802D01*
X5545628Y2808141D01*
X5562289Y2791479D01*
Y2774818D01*
X5578950Y2808141D02*
X5562289Y2791479D01*
X5528966Y2808141D02*
X5545628D01*
X5762224Y2858125D02*
X5728902D01*
X5712240Y2841463D01*
Y2774818D01*
X5728902Y2758157D01*
X5762224D01*
X5778886Y2774818D01*
Y2841463D01*
X5762224Y2858125D01*
X5812208D02*
Y2774818D01*
X5828869Y2758157D01*
X5862192D01*
X5878853Y2774818D01*
Y2858125D01*
X5912176D02*
X5978821D01*
X5945498D01*
Y2758157D01*
X6078789Y2858125D02*
X6012144D01*
Y2758157D01*
X6078789D01*
X6012144Y2808141D02*
X6045466D01*
X6112111Y2758157D02*
Y2858125D01*
X6162095D01*
X6178756Y2841463D01*
Y2808141D01*
X6162095Y2791479D01*
X6112111D01*
X6145434D02*
X6178756Y2758157D01*
X2330000Y2585534D02*
X2363323D01*
X2346661D01*
Y2685502D01*
X2330000Y2668841D01*
X2479952Y2585534D02*
X2413306D01*
X2479952Y2652180D01*
Y2668841D01*
X2463290Y2685502D01*
X2429968D01*
X2413306Y2668841D01*
X2513274Y2585534D02*
Y2602196D01*
X2529935D01*
Y2585534D01*
X2513274D01*
X2696548D02*
X2729871D01*
X2713209D01*
Y2685502D01*
X2696548Y2668841D01*
X2779855D02*
X2796516Y2685502D01*
X2829838D01*
X2846500Y2668841D01*
Y2602196D01*
X2829838Y2585534D01*
X2796516D01*
X2779855Y2602196D01*
Y2668841D01*
X2879822D02*
X2896484Y2685502D01*
X2929806D01*
X2946467Y2668841D01*
Y2602196D01*
X2929806Y2585534D01*
X2896484D01*
X2879822Y2602196D01*
Y2668841D01*
X2979790Y2602196D02*
X3063096Y2685502D01*
X2979790D02*
Y2702163D01*
X2996451D01*
Y2685502D01*
X2979790D01*
X3046435Y2585534D02*
Y2602196D01*
X3063096D01*
Y2585534D01*
X3046435D01*
X3263032Y2685502D02*
X3196387D01*
Y2585534D01*
X3263032D01*
X3196387Y2635518D02*
X3229709D01*
X3296354Y2685502D02*
Y2585534D01*
X3362999D01*
X3462967Y2685502D02*
X3396322D01*
Y2585534D01*
X3462967D01*
X3396322Y2635518D02*
X3429645D01*
X3562935Y2668841D02*
X3546274Y2685502D01*
X3512951D01*
X3496290Y2668841D01*
Y2602196D01*
X3512951Y2585534D01*
X3546274D01*
X3562935Y2602196D01*
X3596258Y2685502D02*
X3662903D01*
X3629580D01*
Y2585534D01*
X3696225D02*
Y2685502D01*
X3746209D01*
X3762870Y2668841D01*
Y2635518D01*
X3746209Y2618857D01*
X3696225D01*
X3729548D02*
X3762870Y2585534D01*
X3796193Y2685502D02*
X3829515D01*
X3812854D01*
Y2585534D01*
X3796193D01*
X3829515D01*
X3946144Y2668841D02*
X3929483Y2685502D01*
X3896161D01*
X3879499Y2668841D01*
Y2602196D01*
X3896161Y2585534D01*
X3929483D01*
X3946144Y2602196D01*
X3979467Y2585534D02*
Y2652180D01*
X4012790Y2685502D01*
X4046112Y2652180D01*
Y2585534D01*
Y2635518D01*
X3979467D01*
X4079435Y2685502D02*
Y2585534D01*
X4146080D01*
X4279370Y2685502D02*
X4346015D01*
X4312693D01*
Y2585534D01*
X4445983Y2685502D02*
X4379338D01*
Y2585534D01*
X4445983D01*
X4379338Y2635518D02*
X4412660D01*
X4545951Y2668841D02*
X4529289Y2685502D01*
X4495967D01*
X4479306Y2668841D01*
Y2652180D01*
X4495967Y2635518D01*
X4529289D01*
X4545951Y2618857D01*
Y2602196D01*
X4529289Y2585534D01*
X4495967D01*
X4479306Y2602196D01*
X4579273Y2685502D02*
X4645918D01*
X4612596D01*
Y2585534D01*
X4845854Y2685502D02*
X4779209D01*
Y2635518D01*
X4812531D01*
X4779209D01*
Y2585534D01*
X4929160Y2685502D02*
X4895838D01*
X4879176Y2668841D01*
Y2602196D01*
X4895838Y2585534D01*
X4929160D01*
X4945821Y2602196D01*
Y2668841D01*
X4929160Y2685502D01*
X4979144Y2585534D02*
Y2685502D01*
X5029128D01*
X5045789Y2668841D01*
Y2635518D01*
X5029128Y2618857D01*
X4979144D01*
X5012467D02*
X5045789Y2585534D01*
X5229063Y2685502D02*
X5195741D01*
X5179079Y2668841D01*
Y2602196D01*
X5195741Y2585534D01*
X5229063D01*
X5245725Y2602196D01*
Y2668841D01*
X5229063Y2685502D01*
X5279047Y2585534D02*
Y2685502D01*
X5329031D01*
X5345692Y2668841D01*
Y2635518D01*
X5329031Y2618857D01*
X5279047D01*
X5445660Y2685502D02*
X5379015D01*
Y2585534D01*
X5445660D01*
X5379015Y2635518D02*
X5412337D01*
X5478983Y2585534D02*
Y2685502D01*
X5545628Y2585534D01*
Y2685502D01*
X5645595Y2668841D02*
X5628934Y2685502D01*
X5595611D01*
X5578950Y2668841D01*
Y2652180D01*
X5595611Y2635518D01*
X5628934D01*
X5645595Y2618857D01*
Y2602196D01*
X5628934Y2585534D01*
X5595611D01*
X5578950Y2602196D01*
X5845531Y2585534D02*
X5828869Y2602196D01*
X5812208Y2585534D01*
X5795547D01*
X5778886Y2602196D01*
Y2618857D01*
X5795547Y2635518D01*
X5778886Y2652180D01*
Y2668841D01*
X5795547Y2685502D01*
X5812208D01*
X5828869Y2668841D01*
Y2652180D01*
X5812208Y2635518D01*
X5828869Y2618857D01*
Y2602196D01*
X5845531Y2635518D02*
X5828869Y2618857D01*
X5795547Y2635518D02*
X5812208D01*
X6045466Y2668841D02*
X6028805Y2685502D01*
X5995482D01*
X5978821Y2668841D01*
Y2652180D01*
X5995482Y2635518D01*
X6028805D01*
X6045466Y2618857D01*
Y2602196D01*
X6028805Y2585534D01*
X5995482D01*
X5978821Y2602196D01*
X6078789Y2685502D02*
Y2585534D01*
Y2635518D01*
X6145434D01*
Y2685502D01*
Y2585534D01*
X6228740Y2685502D02*
X6195418D01*
X6178756Y2668841D01*
Y2602196D01*
X6195418Y2585534D01*
X6228740D01*
X6245401Y2602196D01*
Y2668841D01*
X6228740Y2685502D01*
X6278724Y2585534D02*
Y2685502D01*
X6328708D01*
X6345369Y2668841D01*
Y2635518D01*
X6328708Y2618857D01*
X6278724D01*
X6312047D02*
X6345369Y2585534D01*
X6378692Y2685502D02*
X6445337D01*
X6412014D01*
Y2585534D01*
X6545305Y2668841D02*
X6528643Y2685502D01*
X6495321D01*
X6478659Y2668841D01*
Y2652180D01*
X6495321Y2635518D01*
X6528643D01*
X6545305Y2618857D01*
Y2602196D01*
X6528643Y2585534D01*
X6495321D01*
X6478659Y2602196D01*
X2330000Y2429573D02*
X2363323D01*
X2346661D01*
Y2529541D01*
X2330000Y2512880D01*
X2413306D02*
X2429968Y2529541D01*
X2463290D01*
X2479952Y2512880D01*
Y2496218D01*
X2463290Y2479557D01*
X2446629D01*
X2463290D01*
X2479952Y2462896D01*
Y2446235D01*
X2463290Y2429573D01*
X2429968D01*
X2413306Y2446235D01*
X2513274Y2429573D02*
Y2446235D01*
X2529935D01*
Y2429573D01*
X2513274D01*
X2763193Y2529541D02*
X2696548D01*
Y2479557D01*
X2729871D01*
X2696548D01*
Y2429573D01*
X2796516Y2529541D02*
X2829838D01*
X2813177D01*
Y2429573D01*
X2796516D01*
X2829838D01*
X2879822D02*
Y2529541D01*
X2946467Y2429573D01*
Y2529541D01*
X2979790Y2429573D02*
Y2496218D01*
X3013113Y2529541D01*
X3046435Y2496218D01*
Y2429573D01*
Y2479557D01*
X2979790D01*
X3079758Y2529541D02*
Y2429573D01*
X3146403D01*
X3346338Y2529541D02*
X3279693D01*
Y2479557D01*
X3313016D01*
X3279693D01*
Y2429573D01*
X3379661Y2529541D02*
X3412983D01*
X3396322D01*
Y2429573D01*
X3379661D01*
X3412983D01*
X3462967D02*
Y2529541D01*
X3529612Y2429573D01*
Y2529541D01*
X3562935D02*
X3596258D01*
X3579596D01*
Y2429573D01*
X3562935D01*
X3596258D01*
X3712886Y2512880D02*
X3696225Y2529541D01*
X3662903D01*
X3646241Y2512880D01*
Y2496218D01*
X3662903Y2479557D01*
X3696225D01*
X3712886Y2462896D01*
Y2446235D01*
X3696225Y2429573D01*
X3662903D01*
X3646241Y2446235D01*
X3746209Y2529541D02*
Y2429573D01*
Y2479557D01*
X3812854D01*
Y2529541D01*
Y2429573D01*
X3946144Y2529541D02*
Y2429573D01*
X3979467Y2462896D01*
X4012789Y2429573D01*
Y2529541D01*
X4046112D02*
X4079435D01*
X4062773D01*
Y2429573D01*
X4046112D01*
X4079435D01*
X4129418Y2529541D02*
Y2429573D01*
X4196064D01*
X4229386Y2529541D02*
Y2429573D01*
X4296031D01*
X4429322Y2529541D02*
Y2429573D01*
Y2479557D01*
X4495967D01*
Y2529541D01*
Y2429573D01*
X4529289D02*
Y2496218D01*
X4562612Y2529541D01*
X4595934Y2496218D01*
Y2429573D01*
Y2479557D01*
X4529289D01*
X4629257Y2529541D02*
Y2462896D01*
X4662580Y2429573D01*
X4695902Y2462896D01*
Y2529541D01*
X4795870D02*
X4729225D01*
Y2429573D01*
X4795870D01*
X4729225Y2479557D02*
X4762547D01*
X4929160Y2429573D02*
Y2529541D01*
X4995805Y2429573D01*
Y2529541D01*
X5079112D02*
X5045789D01*
X5029128Y2512880D01*
Y2446235D01*
X5045789Y2429573D01*
X5079112D01*
X5095773Y2446235D01*
Y2512880D01*
X5079112Y2529541D01*
X5229063Y2429573D02*
Y2529541D01*
X5295708Y2429573D01*
Y2529541D01*
X5329031D02*
X5362354D01*
X5345692D01*
Y2429573D01*
X5329031D01*
X5362354D01*
X5478982Y2512880D02*
X5462321Y2529541D01*
X5428999D01*
X5412337Y2512880D01*
Y2446235D01*
X5428999Y2429573D01*
X5462321D01*
X5478982Y2446235D01*
X5512305Y2529541D02*
Y2429573D01*
Y2462896D01*
X5578950Y2529541D01*
X5528966Y2479557D01*
X5578950Y2429573D01*
X5678918Y2512880D02*
X5662257Y2529541D01*
X5628934D01*
X5612273Y2512880D01*
Y2496218D01*
X5628934Y2479557D01*
X5662257D01*
X5678918Y2462896D01*
Y2446235D01*
X5662257Y2429573D01*
X5628934D01*
X5612273Y2446235D01*
X5862192Y2529541D02*
X5828869D01*
X5812208Y2512880D01*
Y2446235D01*
X5828869Y2429573D01*
X5862192D01*
X5878853Y2446235D01*
Y2512880D01*
X5862192Y2529541D01*
X5912176Y2429573D02*
Y2529541D01*
X5962160D01*
X5978821Y2512880D01*
Y2479557D01*
X5962160Y2462896D01*
X5912176D01*
X5945498D02*
X5978821Y2429573D01*
X6178756Y2512880D02*
X6162095Y2529541D01*
X6128773D01*
X6112111Y2512880D01*
Y2446235D01*
X6128773Y2429573D01*
X6162095D01*
X6178756Y2446235D01*
X6212079Y2529541D02*
Y2429573D01*
Y2479557D01*
X6278724D01*
Y2529541D01*
Y2429573D01*
X6312047Y2529541D02*
X6345369D01*
X6328708D01*
Y2429573D01*
X6312047D01*
X6345369D01*
X6395353D02*
Y2529541D01*
X6445337D01*
X6461998Y2512880D01*
Y2479557D01*
X6445337Y2462896D01*
X6395353D01*
X6561966Y2512880D02*
X6545305Y2529541D01*
X6511982D01*
X6495321Y2512880D01*
Y2496218D01*
X6511982Y2479557D01*
X6545305D01*
X6561966Y2462896D01*
Y2446235D01*
X6545305Y2429573D01*
X6511982D01*
X6495321Y2446235D01*
X6695256Y2529541D02*
X6728579D01*
X6711917D01*
Y2429573D01*
X6695256D01*
X6728579D01*
X6778562D02*
Y2529541D01*
X6845208Y2429573D01*
Y2529541D01*
X7045143Y2512880D02*
X7028482Y2529541D01*
X6995159D01*
X6978498Y2512880D01*
Y2496218D01*
X6995159Y2479557D01*
X7028482D01*
X7045143Y2462896D01*
Y2446235D01*
X7028482Y2429573D01*
X6995159D01*
X6978498Y2446235D01*
X7128449Y2529541D02*
X7095127D01*
X7078466Y2512880D01*
Y2446235D01*
X7095127Y2429573D01*
X7128449D01*
X7145111Y2446235D01*
Y2512880D01*
X7128449Y2529541D01*
X7178433D02*
Y2429573D01*
X7245078D01*
X7278401Y2529541D02*
Y2429573D01*
X7328385D01*
X7345046Y2446235D01*
Y2512880D01*
X7328385Y2529541D01*
X7278401D01*
X7445014D02*
X7378369D01*
Y2429573D01*
X7445014D01*
X7378369Y2479557D02*
X7411691D01*
X7478336Y2429573D02*
Y2529541D01*
X7528320D01*
X7544981Y2512880D01*
Y2479557D01*
X7528320Y2462896D01*
X7478336D01*
X7511659D02*
X7544981Y2429573D01*
X7578304D02*
Y2529541D01*
X7611627Y2496218D01*
X7644949Y2529541D01*
Y2429573D01*
X7678272D02*
Y2496218D01*
X7711594Y2529541D01*
X7744917Y2496218D01*
Y2429573D01*
Y2479557D01*
X7678272D01*
X7844885Y2512880D02*
X7828223Y2529541D01*
X7794901D01*
X7778239Y2512880D01*
Y2496218D01*
X7794901Y2479557D01*
X7828223D01*
X7844885Y2462896D01*
Y2446235D01*
X7828223Y2429573D01*
X7794901D01*
X7778239Y2446235D01*
X7878207Y2529541D02*
Y2429573D01*
Y2462896D01*
X7944852Y2529541D01*
X7894868Y2479557D01*
X7944852Y2429573D01*
X2484100Y1893340D02*
Y1993308D01*
X2534084D01*
X2550745Y1976646D01*
Y1943324D01*
X2534084Y1926663D01*
X2484100D01*
X2584068Y1959985D02*
Y1893340D01*
Y1926663D01*
X2600729Y1943324D01*
X2617390Y1959985D01*
X2634052D01*
X2700697Y1893340D02*
X2734019D01*
X2750680Y1910001D01*
Y1943324D01*
X2734019Y1959985D01*
X2700697D01*
X2684035Y1943324D01*
Y1910001D01*
X2700697Y1893340D01*
X2784003Y1860017D02*
X2800664D01*
X2817326Y1876679D01*
Y1959985D01*
X2933955Y1893340D02*
X2900632D01*
X2883971Y1910001D01*
Y1943324D01*
X2900632Y1959985D01*
X2933955D01*
X2950616Y1943324D01*
Y1926663D01*
X2883971D01*
X3050584Y1959985D02*
X3000600D01*
X2983939Y1943324D01*
Y1910001D01*
X3000600Y1893340D01*
X3050584D01*
X3100568Y1976646D02*
Y1959985D01*
X3083906D01*
X3117229D01*
X3100568D01*
Y1910001D01*
X3117229Y1893340D01*
X3283842D02*
Y1993308D01*
X3317164D02*
Y1893340D01*
X3267180Y1959985D02*
X3317164D01*
X3333825D01*
X3267180Y1926663D02*
X3333825D01*
X3367148Y1959985D02*
X3383809D01*
Y1943324D01*
X3367148D01*
Y1959985D01*
Y1910001D02*
X3383809D01*
Y1893340D01*
X3367148D01*
Y1910001D01*
X2493040Y1430308D02*
Y1330340D01*
X2543024D01*
X2559685Y1347001D01*
Y1413646D01*
X2543024Y1430308D01*
X2493040D01*
X2642992Y1330340D02*
X2609669D01*
X2593008Y1347001D01*
Y1380324D01*
X2609669Y1396985D01*
X2642992D01*
X2659653Y1380324D01*
Y1363663D01*
X2593008D01*
X2692975Y1330340D02*
X2742959D01*
X2759620Y1347001D01*
X2742959Y1363663D01*
X2709637D01*
X2692975Y1380324D01*
X2709637Y1396985D01*
X2759620D01*
X2792943Y1330340D02*
X2826266D01*
X2809604D01*
Y1396985D01*
X2792943D01*
X2909572Y1297017D02*
X2926233D01*
X2942895Y1313679D01*
Y1396985D01*
X2892911D01*
X2876249Y1380324D01*
Y1347001D01*
X2892911Y1330340D01*
X2942895D01*
X2976217D02*
Y1396985D01*
X3026201D01*
X3042862Y1380324D01*
Y1330340D01*
X3126169D02*
X3092846D01*
X3076185Y1347001D01*
Y1380324D01*
X3092846Y1396985D01*
X3126169D01*
X3142830Y1380324D01*
Y1363663D01*
X3076185D01*
X3176153Y1396985D02*
Y1330340D01*
Y1363663D01*
X3192814Y1380324D01*
X3209475Y1396985D01*
X3226136D01*
X3276120D02*
X3292782D01*
Y1380324D01*
X3276120D01*
Y1396985D01*
Y1347001D02*
X3292782D01*
Y1330340D01*
X3276120D01*
Y1347001D01*
X5048890Y1896010D02*
Y1995978D01*
X5098874D01*
X5115535Y1979316D01*
Y1945994D01*
X5098874Y1929333D01*
X5048890D01*
X5148858Y1962655D02*
Y1896010D01*
Y1929333D01*
X5165519Y1945994D01*
X5182180Y1962655D01*
X5198842D01*
X5265487Y1896010D02*
X5298809D01*
X5315471Y1912671D01*
Y1945994D01*
X5298809Y1962655D01*
X5265487D01*
X5248825Y1945994D01*
Y1912671D01*
X5265487Y1896010D01*
X5348793Y1862687D02*
X5365454D01*
X5382116Y1879349D01*
Y1962655D01*
X5498745Y1896010D02*
X5465422D01*
X5448761Y1912671D01*
Y1945994D01*
X5465422Y1962655D01*
X5498745D01*
X5515406Y1945994D01*
Y1929333D01*
X5448761D01*
X5615374Y1962655D02*
X5565390D01*
X5548729Y1945994D01*
Y1912671D01*
X5565390Y1896010D01*
X5615374D01*
X5665358Y1979316D02*
Y1962655D01*
X5648696D01*
X5682019D01*
X5665358D01*
Y1912671D01*
X5682019Y1896010D01*
X5831970D02*
Y1995978D01*
X5898615Y1896010D01*
Y1995978D01*
X5948599Y1962655D02*
X5981922D01*
X5998583Y1945994D01*
Y1896010D01*
X5948599D01*
X5931938Y1912671D01*
X5948599Y1929333D01*
X5998583D01*
X6031906Y1896010D02*
Y1962655D01*
X6048567D01*
X6065228Y1945994D01*
Y1896010D01*
Y1945994D01*
X6081890Y1962655D01*
X6098551Y1945994D01*
Y1896010D01*
X6181857D02*
X6148535D01*
X6131873Y1912671D01*
Y1945994D01*
X6148535Y1962655D01*
X6181857D01*
X6198519Y1945994D01*
Y1929333D01*
X6131873D01*
X6231841Y1962655D02*
X6248502D01*
Y1945994D01*
X6231841D01*
Y1962655D01*
Y1912671D02*
X6248502D01*
Y1896010D01*
X6231841D01*
Y1912671D01*
X5178430Y846253D02*
Y746285D01*
X5228414D01*
X5245075Y762946D01*
Y829591D01*
X5228414Y846253D01*
X5178430D01*
X5295059Y812930D02*
X5328382D01*
X5345043Y796269D01*
Y746285D01*
X5295059D01*
X5278398Y762946D01*
X5295059Y779608D01*
X5345043D01*
X5395027Y829591D02*
Y812930D01*
X5378365D01*
X5411688D01*
X5395027D01*
Y762946D01*
X5411688Y746285D01*
X5511656D02*
X5478333D01*
X5461672Y762946D01*
Y796269D01*
X5478333Y812930D01*
X5511656D01*
X5528317Y796269D01*
Y779608D01*
X5461672D01*
X5561640Y812930D02*
X5578301D01*
Y796269D01*
X5561640D01*
Y812930D01*
Y762946D02*
X5578301D01*
Y746285D01*
X5561640D01*
Y762946D01*
X2506930Y735870D02*
Y835838D01*
X2556914D01*
X2573575Y819176D01*
Y785854D01*
X2556914Y769193D01*
X2506930D01*
X2540253D02*
X2573575Y735870D01*
X2673543Y835838D02*
X2606898D01*
Y735870D01*
X2673543D01*
X2606898Y785854D02*
X2640220D01*
X2706865Y835838D02*
Y769193D01*
X2740188Y735870D01*
X2773510Y769193D01*
Y835838D01*
X2923462Y735870D02*
Y835838D01*
X2956785D02*
Y735870D01*
X2906801Y802515D02*
X2956785D01*
X2973446D01*
X2906801Y769193D02*
X2973446D01*
X3006769Y802515D02*
X3023430D01*
Y785854D01*
X3006769D01*
Y802515D01*
Y752531D02*
X3023430D01*
Y735870D01*
X3006769D01*
Y752531D01*
X2503230Y257880D02*
Y357848D01*
X2569875Y257880D01*
Y357848D01*
X2619859Y257880D02*
X2653182D01*
X2669843Y274541D01*
Y307864D01*
X2653182Y324525D01*
X2619859D01*
X2603198Y307864D01*
Y274541D01*
X2619859Y257880D01*
X2719827Y341186D02*
Y324525D01*
X2703165D01*
X2736488D01*
X2719827D01*
Y274541D01*
X2736488Y257880D01*
X2836456D02*
X2803133D01*
X2786472Y274541D01*
Y307864D01*
X2803133Y324525D01*
X2836456D01*
X2853117Y307864D01*
Y291203D01*
X2786472D01*
X2886439Y257880D02*
X2936423D01*
X2953085Y274541D01*
X2936423Y291203D01*
X2903101D01*
X2886439Y307864D01*
X2903101Y324525D01*
X2953085D01*
X2986407D02*
X3003068D01*
Y307864D01*
X2986407D01*
Y324525D01*
Y274541D02*
X3003068D01*
Y257880D01*
X2986407D01*
Y274541D01*
X6640000Y1999968D02*
Y1900000D01*
X6689984D01*
X6706645Y1916661D01*
Y1983306D01*
X6689984Y1999968D01*
X6640000D01*
X6789952Y1900000D02*
X6756629D01*
X6739968Y1916661D01*
Y1949984D01*
X6756629Y1966645D01*
X6789952D01*
X6806613Y1949984D01*
Y1933323D01*
X6739968D01*
X6856597Y1983306D02*
Y1966645D01*
X6839935D01*
X6873258D01*
X6856597D01*
Y1916661D01*
X6873258Y1900000D01*
X6973226D02*
X6939903D01*
X6923242Y1916661D01*
Y1949984D01*
X6939903Y1966645D01*
X6973226D01*
X6989887Y1949984D01*
Y1933323D01*
X6923242D01*
X7089855Y1966645D02*
X7039871D01*
X7023209Y1949984D01*
Y1916661D01*
X7039871Y1900000D01*
X7089855D01*
X7139838Y1983306D02*
Y1966645D01*
X7123177D01*
X7156500D01*
X7139838D01*
Y1916661D01*
X7156500Y1900000D01*
X7223145D02*
X7256467D01*
X7273129Y1916661D01*
Y1949984D01*
X7256467Y1966645D01*
X7223145D01*
X7206484Y1949984D01*
Y1916661D01*
X7223145Y1900000D01*
X7306451Y1966645D02*
Y1900000D01*
Y1933323D01*
X7323113Y1949984D01*
X7339774Y1966645D01*
X7356435D01*
X7573032Y1983306D02*
X7556370Y1999968D01*
X7523048D01*
X7506387Y1983306D01*
Y1916661D01*
X7523048Y1900000D01*
X7556370D01*
X7573032Y1916661D01*
X7606354Y1900000D02*
X7639677D01*
X7623016D01*
Y1966645D01*
X7606354D01*
X7689661D02*
Y1900000D01*
Y1933323D01*
X7706322Y1949984D01*
X7722983Y1966645D01*
X7739645D01*
X7856274D02*
X7806290D01*
X7789628Y1949984D01*
Y1916661D01*
X7806290Y1900000D01*
X7856274D01*
X7889596Y1966645D02*
Y1916661D01*
X7906257Y1900000D01*
X7956241D01*
Y1966645D01*
X7989564Y1900000D02*
X8022886D01*
X8006225D01*
Y1966645D01*
X7989564D01*
X8089532Y1983306D02*
Y1966645D01*
X8072870D01*
X8106193D01*
X8089532D01*
Y1916661D01*
X8106193Y1900000D01*
X3710000Y1340000D02*
Y1439968D01*
X3776645Y1340000D01*
Y1439968D01*
X3826629Y1406645D02*
X3859952D01*
X3876613Y1389984D01*
Y1340000D01*
X3826629D01*
X3809968Y1356661D01*
X3826629Y1373323D01*
X3876613D01*
X3926597Y1423306D02*
Y1406645D01*
X3909935D01*
X3943258D01*
X3926597D01*
Y1356661D01*
X3943258Y1340000D01*
X3993242Y1439968D02*
Y1340000D01*
Y1389984D01*
X4009903Y1406645D01*
X4043226D01*
X4059887Y1389984D01*
Y1340000D01*
X4109871Y1406645D02*
X4143193D01*
X4159855Y1389984D01*
Y1340000D01*
X4109871D01*
X4093209Y1356661D01*
X4109871Y1373323D01*
X4159855D01*
X4193177Y1340000D02*
Y1406645D01*
X4243161D01*
X4259822Y1389984D01*
Y1340000D01*
X4393113D02*
Y1406645D01*
X4426435Y1439968D01*
X4459758Y1406645D01*
Y1340000D01*
Y1389984D01*
X4393113D01*
X4493080Y1340000D02*
Y1356661D01*
X4509742D01*
Y1340000D01*
X4493080D01*
X4742999Y1423306D02*
X4726338Y1439968D01*
X4693016D01*
X4676354Y1423306D01*
Y1406645D01*
X4693016Y1389984D01*
X4726338D01*
X4742999Y1373323D01*
Y1356661D01*
X4726338Y1340000D01*
X4693016D01*
X4676354Y1356661D01*
X4842967Y1406645D02*
X4792983D01*
X4776322Y1389984D01*
Y1356661D01*
X4792983Y1340000D01*
X4842967D01*
X4876290Y1439968D02*
Y1340000D01*
Y1389984D01*
X4892951Y1406645D01*
X4926274D01*
X4942935Y1389984D01*
Y1340000D01*
X4976257Y1406645D02*
Y1340000D01*
Y1373323D01*
X4992919Y1389984D01*
X5009580Y1406645D01*
X5026241D01*
X5092886D02*
X5126209D01*
X5142870Y1389984D01*
Y1340000D01*
X5092886D01*
X5076225Y1356661D01*
X5092886Y1373323D01*
X5142870D01*
X5176193Y1340000D02*
Y1406645D01*
X5192854D01*
X5209516Y1389984D01*
Y1340000D01*
Y1389984D01*
X5226177Y1406645D01*
X5242838Y1389984D01*
Y1340000D01*
X5786645Y735870D02*
X5720000D01*
X5786645Y802515D01*
Y819176D01*
X5769984Y835838D01*
X5736661D01*
X5720000Y819176D01*
X5819968D02*
X5836629Y835838D01*
X5869952D01*
X5886613Y819176D01*
Y752531D01*
X5869952Y735870D01*
X5836629D01*
X5819968Y752531D01*
Y819176D01*
X5919935Y735870D02*
X5953258D01*
X5936597D01*
Y835838D01*
X5919935Y819176D01*
X6003242D02*
X6019903Y835838D01*
X6053226D01*
X6069887Y819176D01*
Y802515D01*
X6053226Y785854D01*
X6069887Y769193D01*
Y752531D01*
X6053226Y735870D01*
X6019903D01*
X6003242Y752531D01*
Y769193D01*
X6019903Y785854D01*
X6003242Y802515D01*
Y819176D01*
X6019903Y785854D02*
X6053226D01*
X6103209D02*
X6169855D01*
X6269822Y835838D02*
X6203177D01*
Y785854D01*
X6236500D01*
X6203177D01*
Y735870D01*
X6369790Y835838D02*
X6303145D01*
Y735870D01*
X6369790D01*
X6303145Y785854D02*
X6336467D01*
X6403113Y835838D02*
Y735870D01*
X6453096D01*
X6469758Y752531D01*
Y769193D01*
X6453096Y785854D01*
X6403113D01*
X6453096D01*
X6469758Y802515D01*
Y819176D01*
X6453096Y835838D01*
X6403113D01*
X6503080Y785854D02*
X6569725D01*
X6603048Y819176D02*
X6619709Y835838D01*
X6653032D01*
X6669693Y819176D01*
Y752531D01*
X6653032Y735870D01*
X6619709D01*
X6603048Y752531D01*
Y819176D01*
X6703016D02*
X6719677Y835838D01*
X6752999D01*
X6769661Y819176D01*
Y802515D01*
X6752999Y785854D01*
X6736338D01*
X6752999D01*
X6769661Y769193D01*
Y752531D01*
X6752999Y735870D01*
X6719677D01*
X6703016Y752531D01*
X3218420Y735598D02*
X3251743D01*
X3235081D01*
Y835566D01*
X3218420Y818904D01*
X3301726Y735598D02*
Y752259D01*
X3318388D01*
Y735598D01*
X3301726D01*
X3385033Y818904D02*
X3401694Y835566D01*
X3435017D01*
X3451678Y818904D01*
Y752259D01*
X3435017Y735598D01*
X3401694D01*
X3385033Y752259D01*
Y818904D01*
X7552575Y846640D02*
X7535914Y863301D01*
X7502591D01*
X7485930Y846640D01*
Y779995D01*
X7502591Y763333D01*
X7535914D01*
X7552575Y779995D01*
X7602559Y829979D02*
X7635882D01*
X7652543Y813317D01*
Y763333D01*
X7602559D01*
X7585898Y779995D01*
X7602559Y796656D01*
X7652543D01*
X7719188Y730011D02*
X7735849D01*
X7752511Y746672D01*
Y829979D01*
X7702527D01*
X7685865Y813317D01*
Y779995D01*
X7702527Y763333D01*
X7752511D01*
X7835817D02*
X7802494D01*
X7785833Y779995D01*
Y813317D01*
X7802494Y829979D01*
X7835817D01*
X7852478Y813317D01*
Y796656D01*
X7785833D01*
X8052414Y846640D02*
X8035752Y863301D01*
X8002430D01*
X7985769Y846640D01*
Y779995D01*
X8002430Y763333D01*
X8035752D01*
X8052414Y779995D01*
X8102398Y763333D02*
X8135720D01*
X8152381Y779995D01*
Y813317D01*
X8135720Y829979D01*
X8102398D01*
X8085736Y813317D01*
Y779995D01*
X8102398Y763333D01*
X8252349Y863301D02*
Y763333D01*
X8202365D01*
X8185704Y779995D01*
Y813317D01*
X8202365Y829979D01*
X8252349D01*
X8335655Y763333D02*
X8302333D01*
X8285672Y779995D01*
Y813317D01*
X8302333Y829979D01*
X8335655D01*
X8352317Y813317D01*
Y796656D01*
X8285672D01*
X8385639Y829979D02*
X8402301D01*
Y813317D01*
X8385639D01*
Y829979D01*
Y779995D02*
X8402301D01*
Y763333D01*
X8385639D01*
Y779995D01*
X8617420Y753830D02*
Y853798D01*
X8684065Y753830D01*
Y853798D01*
X8717388Y753830D02*
X8784033Y820475D01*
X8817355Y753830D02*
Y820475D01*
X8850678Y853798D01*
X8884001Y820475D01*
Y753830D01*
Y803814D01*
X8817355D01*
X6273065Y1427096D02*
X6256404Y1443758D01*
X6223081D01*
X6206420Y1427096D01*
Y1360451D01*
X6223081Y1343790D01*
X6256404D01*
X6273065Y1360451D01*
X6323049Y1343790D02*
X6356372D01*
X6373033Y1360451D01*
Y1393774D01*
X6356372Y1410435D01*
X6323049D01*
X6306388Y1393774D01*
Y1360451D01*
X6323049Y1343790D01*
X6406355D02*
Y1410435D01*
X6423017D01*
X6439678Y1393774D01*
Y1343790D01*
Y1393774D01*
X6456339Y1410435D01*
X6473001Y1393774D01*
Y1343790D01*
X6506323Y1310467D02*
Y1410435D01*
X6556307D01*
X6572968Y1393774D01*
Y1360451D01*
X6556307Y1343790D01*
X6506323D01*
X6622952Y1410435D02*
X6656275D01*
X6672936Y1393774D01*
Y1343790D01*
X6622952D01*
X6606291Y1360451D01*
X6622952Y1377113D01*
X6672936D01*
X6706258Y1343790D02*
Y1410435D01*
X6756242D01*
X6772904Y1393774D01*
Y1343790D01*
X6806226Y1410435D02*
Y1360451D01*
X6822887Y1343790D01*
X6872871D01*
Y1327129D01*
X6856210Y1310467D01*
X6839549D01*
X6872871Y1343790D02*
Y1410435D01*
X6906194D02*
X6922855D01*
Y1393774D01*
X6906194D01*
Y1410435D01*
Y1360451D02*
X6922855D01*
Y1343790D01*
X6906194D01*
Y1360451D01*
X7089468Y1343790D02*
Y1443758D01*
X7156113Y1343790D01*
Y1443758D01*
X7189436Y1343790D02*
X7256081Y1410435D01*
X7289403Y1343790D02*
Y1410435D01*
X7322726Y1443758D01*
X7356048Y1410435D01*
Y1343790D01*
Y1393774D01*
X7289403D01*
X3690000Y1890000D02*
Y1989968D01*
X3756645Y1890000D01*
Y1989968D01*
X3789968Y1890000D02*
X3856613Y1956645D01*
X3889935Y1890000D02*
Y1956645D01*
X3923258Y1989968D01*
X3956581Y1956645D01*
Y1890000D01*
Y1939984D01*
X3889935D01*
D48*
X2320000Y0D02*
Y2250000D01*
X2321650Y1691070D02*
X9402790D01*
X2328850Y1129310D02*
X9395740D01*
X2328500Y522680D02*
X9398090D01*
X4938420Y1696790D02*
Y2250000D01*
X5958420Y1136209D02*
Y1689419D01*
X4938420Y536790D02*
Y1129310D01*
X7029420Y527270D02*
Y1119790D01*
X2320000Y2250000D02*
X9403690D01*
X2320000Y0D02*
X9403690D01*
Y2250000D01*
D49*
X7012239Y-216523D02*
Y-264508D01*
X7036231Y-288500D01*
X7060223Y-264508D01*
Y-216523D01*
X7084216Y-288500D02*
X7108208D01*
X7096212D01*
Y-240516D01*
X7084216D01*
X7156192D02*
X7180185D01*
X7192181Y-252512D01*
Y-288500D01*
X7156192D01*
X7144196Y-276504D01*
X7156192Y-264508D01*
X7192181D01*
X7216173Y-288500D02*
X7264157Y-240516D01*
X7288150Y-288500D02*
Y-216523D01*
X7324138D01*
X7336134Y-228519D01*
Y-252512D01*
X7324138Y-264508D01*
X7288150D01*
X7372122Y-240516D02*
X7396115D01*
X7408111Y-252512D01*
Y-288500D01*
X7372122D01*
X7360126Y-276504D01*
X7372122Y-264508D01*
X7408111D01*
X7480087Y-216523D02*
Y-288500D01*
X7444099D01*
X7432103Y-276504D01*
Y-252512D01*
X7444099Y-240516D01*
X7480087D01*
X5822584Y-216523D02*
Y-288500D01*
X5858573D01*
X5870569Y-276504D01*
Y-228519D01*
X5858573Y-216523D01*
X5822584D01*
X5894561Y-240516D02*
Y-288500D01*
Y-264508D01*
X5906557Y-252512D01*
X5918553Y-240516D01*
X5930549D01*
X5966538Y-288500D02*
X5990530D01*
X5978534D01*
Y-240516D01*
X5966538D01*
X6026518Y-288500D02*
X6050511D01*
X6038514D01*
Y-216523D01*
X6026518D01*
X6086499Y-288500D02*
X6110491D01*
X6098495D01*
Y-216523D01*
X6086499D01*
X6218456D02*
Y-288500D01*
X6266441D01*
X6302429Y-240516D02*
X6326421D01*
X6338417Y-252512D01*
Y-288500D01*
X6302429D01*
X6290433Y-276504D01*
X6302429Y-264508D01*
X6338417D01*
X6362410Y-240516D02*
Y-276504D01*
X6374406Y-288500D01*
X6410394D01*
Y-300496D01*
X6398398Y-312492D01*
X6386402D01*
X6410394Y-288500D02*
Y-240516D01*
X6470375Y-288500D02*
X6446382D01*
X6434386Y-276504D01*
Y-252512D01*
X6446382Y-240516D01*
X6470375D01*
X6482371Y-252512D01*
Y-264508D01*
X6434386D01*
X6506363Y-240516D02*
Y-288500D01*
Y-264508D01*
X6518359Y-252512D01*
X6530355Y-240516D01*
X6542351D01*
X6650316Y-288500D02*
Y-216523D01*
X6686305D01*
X6698301Y-228519D01*
Y-252512D01*
X6686305Y-264508D01*
X6650316D01*
X6734289Y-240516D02*
X6758282D01*
X6770278Y-252512D01*
Y-288500D01*
X6734289D01*
X6722293Y-276504D01*
X6734289Y-264508D01*
X6770278D01*
X6794270Y-288500D02*
X6818262D01*
X6806266D01*
Y-240516D01*
X6794270D01*
X6854250D02*
Y-288500D01*
Y-264508D01*
X6866247Y-252512D01*
X6878243Y-240516D01*
X6890239D01*
X5088782Y-216523D02*
Y-288500D01*
Y-252512D01*
X5136767D01*
Y-216523D01*
Y-288500D01*
X5172755D02*
X5196747D01*
X5208743Y-276504D01*
Y-252512D01*
X5196747Y-240516D01*
X5172755D01*
X5160759Y-252512D01*
Y-276504D01*
X5172755Y-288500D01*
X5232736D02*
X5256728D01*
X5244732D01*
Y-216523D01*
X5232736D01*
X5328705Y-288500D02*
X5304712D01*
X5292716Y-276504D01*
Y-252512D01*
X5304712Y-240516D01*
X5328705D01*
X5340701Y-252512D01*
Y-264508D01*
X5292716D01*
X5436670Y-216523D02*
X5484654D01*
X5460662D01*
Y-288500D01*
X5508646Y-240516D02*
Y-276504D01*
X5520642Y-288500D01*
X5556631D01*
Y-300496D01*
X5544635Y-312492D01*
X5532639D01*
X5556631Y-288500D02*
Y-240516D01*
X5580623Y-312492D02*
Y-240516D01*
X5616611D01*
X5628608Y-252512D01*
Y-276504D01*
X5616611Y-288500D01*
X5580623D01*
X5688588D02*
X5664596D01*
X5652600Y-276504D01*
Y-252512D01*
X5664596Y-240516D01*
X5688588D01*
X5700584Y-252512D01*
Y-264508D01*
X5652600D01*
X4582907Y-288500D02*
Y-216523D01*
X4618895D01*
X4630891Y-228519D01*
Y-252512D01*
X4618895Y-264508D01*
X4582907D01*
X4654883Y-288500D02*
X4678875D01*
X4666879D01*
Y-216523D01*
X4654883D01*
X4726860Y-240516D02*
X4750852D01*
X4762848Y-252512D01*
Y-288500D01*
X4726860D01*
X4714864Y-276504D01*
X4726860Y-264508D01*
X4762848D01*
X4798837Y-228519D02*
Y-240516D01*
X4786841D01*
X4810833D01*
X4798837D01*
Y-276504D01*
X4810833Y-288500D01*
X4882810D02*
X4858817D01*
X4846821Y-276504D01*
Y-252512D01*
X4858817Y-240516D01*
X4882810D01*
X4894806Y-252512D01*
Y-264508D01*
X4846821D01*
X4966782Y-216523D02*
Y-288500D01*
X4930794D01*
X4918798Y-276504D01*
Y-252512D01*
X4930794Y-240516D01*
X4966782D01*
X3443240Y-216523D02*
Y-288500D01*
Y-252512D01*
X3491224D01*
Y-216523D01*
Y-288500D01*
X3527213D02*
X3551205D01*
X3563201Y-276504D01*
Y-252512D01*
X3551205Y-240516D01*
X3527213D01*
X3515216Y-252512D01*
Y-276504D01*
X3527213Y-288500D01*
X3587193D02*
X3611185D01*
X3599189D01*
Y-216523D01*
X3587193D01*
X3683162Y-288500D02*
X3659170D01*
X3647174Y-276504D01*
Y-252512D01*
X3659170Y-240516D01*
X3683162D01*
X3695158Y-252512D01*
Y-264508D01*
X3647174D01*
X3839112Y-228519D02*
X3827116Y-216523D01*
X3803123D01*
X3791127Y-228519D01*
Y-240516D01*
X3803123Y-252512D01*
X3827116D01*
X3839112Y-264508D01*
Y-276504D01*
X3827116Y-288500D01*
X3803123D01*
X3791127Y-276504D01*
X3863104Y-288500D02*
X3887096D01*
X3875100D01*
Y-240516D01*
X3863104D01*
X3923084D02*
X3971069D01*
X3923084Y-288500D01*
X3971069D01*
X4031050D02*
X4007057D01*
X3995061Y-276504D01*
Y-252512D01*
X4007057Y-240516D01*
X4031050D01*
X4043046Y-252512D01*
Y-264508D01*
X3995061D01*
X2961360Y-228519D02*
X2949364Y-216523D01*
X2925372D01*
X2913376Y-228519D01*
Y-276504D01*
X2925372Y-288500D01*
X2949364D01*
X2961360Y-276504D01*
X2997349Y-288500D02*
X3021341D01*
X3033337Y-276504D01*
Y-252512D01*
X3021341Y-240516D01*
X2997349D01*
X2985352Y-252512D01*
Y-276504D01*
X2997349Y-288500D01*
X3057329Y-240516D02*
Y-276504D01*
X3069325Y-288500D01*
X3105314D01*
Y-240516D01*
X3129306Y-288500D02*
Y-240516D01*
X3165294D01*
X3177290Y-252512D01*
Y-288500D01*
X3213279Y-228519D02*
Y-240516D01*
X3201282D01*
X3225275D01*
X3213279D01*
Y-276504D01*
X3225275Y-288500D01*
X2455485Y-228519D02*
X2443488Y-216523D01*
X2419496D01*
X2407500Y-228519D01*
Y-240516D01*
X2419496Y-252512D01*
X2443488D01*
X2455485Y-264508D01*
Y-276504D01*
X2443488Y-288500D01*
X2419496D01*
X2407500Y-276504D01*
X2479477Y-240516D02*
Y-276504D01*
X2491473Y-288500D01*
X2527461D01*
Y-300496D01*
X2515465Y-312492D01*
X2503469D01*
X2527461Y-288500D02*
Y-240516D01*
X2551453Y-288500D02*
Y-240516D01*
X2563450D01*
X2575446Y-252512D01*
Y-288500D01*
Y-252512D01*
X2587442Y-240516D01*
X2599438Y-252512D01*
Y-288500D01*
X2623430Y-216523D02*
Y-288500D01*
X2659419D01*
X2671415Y-276504D01*
Y-264508D01*
Y-252512D01*
X2659419Y-240516D01*
X2623430D01*
X2707403Y-288500D02*
X2731395D01*
X2743391Y-276504D01*
Y-252512D01*
X2731395Y-240516D01*
X2707403D01*
X2695407Y-252512D01*
Y-276504D01*
X2707403Y-288500D01*
X2767383D02*
X2791376D01*
X2779380D01*
Y-216523D01*
X2767383D01*
D50*
X544061Y-425990D02*
X564055D01*
X554058D01*
Y-366010D01*
X544061Y-376007D01*
X634032Y-366010D02*
X594045D01*
Y-396000D01*
X614039Y-386003D01*
X624035D01*
X634032Y-396000D01*
Y-415993D01*
X624035Y-425990D01*
X604042D01*
X594045Y-415993D01*
X654026Y-376007D02*
X664023Y-366010D01*
X684016D01*
X694013Y-376007D01*
Y-415993D01*
X684016Y-425990D01*
X664023D01*
X654026Y-415993D01*
Y-376007D01*
X714006D02*
X724003Y-366010D01*
X743997D01*
X753994Y-376007D01*
Y-415993D01*
X743997Y-425990D01*
X724003D01*
X714006Y-415993D01*
Y-376007D01*
X773987Y-425990D02*
Y-415993D01*
X783984D01*
Y-425990D01*
X773987D01*
X823971Y-376007D02*
X833968Y-366010D01*
X853961D01*
X863958Y-376007D01*
Y-415993D01*
X853961Y-425990D01*
X833968D01*
X823971Y-415993D01*
Y-376007D01*
X883951D02*
X893948Y-366010D01*
X913942D01*
X923938Y-376007D01*
Y-415993D01*
X913942Y-425990D01*
X893948D01*
X883951Y-415993D01*
Y-376007D01*
X-364010Y544061D02*
Y564055D01*
Y554058D01*
X-423990D01*
X-413993Y544061D01*
X-423990Y634032D02*
Y594045D01*
X-394000D01*
X-403997Y614039D01*
Y624035D01*
X-394000Y634032D01*
X-374007D01*
X-364010Y624035D01*
Y604042D01*
X-374007Y594045D01*
X-413993Y654026D02*
X-423990Y664023D01*
Y684016D01*
X-413993Y694013D01*
X-374007D01*
X-364010Y684016D01*
Y664023D01*
X-374007Y654026D01*
X-413993D01*
Y714006D02*
X-423990Y724003D01*
Y743997D01*
X-413993Y753994D01*
X-374007D01*
X-364010Y743997D01*
Y724003D01*
X-374007Y714006D01*
X-413993D01*
X-364010Y773987D02*
X-374007D01*
Y783984D01*
X-364010D01*
Y773987D01*
X-413993Y823971D02*
X-423990Y833968D01*
Y853961D01*
X-413993Y863958D01*
X-374007D01*
X-364010Y853961D01*
Y833968D01*
X-374007Y823971D01*
X-413993D01*
Y883951D02*
X-423990Y893948D01*
Y913942D01*
X-413993Y923938D01*
X-374007D01*
X-364010Y913942D01*
Y893948D01*
X-374007Y883951D01*
X-413993D01*
X544061Y-225990D02*
X564055D01*
X554058D01*
Y-166010D01*
X544061Y-176006D01*
X594045D02*
X604042Y-166010D01*
X624035D01*
X634032Y-176006D01*
Y-215994D01*
X624035Y-225990D01*
X604042D01*
X594045Y-215994D01*
Y-176006D01*
X694013Y-166010D02*
X654026D01*
Y-196000D01*
X674019Y-186003D01*
X684016D01*
X694013Y-196000D01*
Y-215994D01*
X684016Y-225990D01*
X664023D01*
X654026Y-215994D01*
X714006Y-176006D02*
X724003Y-166010D01*
X743997D01*
X753994Y-176006D01*
Y-215994D01*
X743997Y-225990D01*
X724003D01*
X714006Y-215994D01*
Y-176006D01*
X773987Y-225990D02*
Y-215994D01*
X783984D01*
Y-225990D01*
X773987D01*
X823971Y-176006D02*
X833968Y-166010D01*
X853961D01*
X863958Y-176006D01*
Y-215994D01*
X853961Y-225990D01*
X833968D01*
X823971Y-215994D01*
Y-176006D01*
X883951D02*
X893948Y-166010D01*
X913942D01*
X923938Y-176006D01*
Y-215994D01*
X913942Y-225990D01*
X893948D01*
X883951Y-215994D01*
Y-176006D01*
X-154010Y544061D02*
Y564055D01*
Y554058D01*
X-213990D01*
X-203994Y544061D01*
Y594045D02*
X-213990Y604042D01*
Y624035D01*
X-203994Y634032D01*
X-164006D01*
X-154010Y624035D01*
Y604042D01*
X-164006Y594045D01*
X-203994D01*
X-213990Y694013D02*
Y654026D01*
X-184000D01*
X-193997Y674019D01*
Y684016D01*
X-184000Y694013D01*
X-164006D01*
X-154010Y684016D01*
Y664023D01*
X-164006Y654026D01*
X-203994Y714006D02*
X-213990Y724003D01*
Y743997D01*
X-203994Y753994D01*
X-164006D01*
X-154010Y743997D01*
Y724003D01*
X-164006Y714006D01*
X-203994D01*
X-154010Y773987D02*
X-164006D01*
Y783984D01*
X-154010D01*
Y773987D01*
X-203994Y823971D02*
X-213990Y833968D01*
Y853961D01*
X-203994Y863958D01*
X-164006D01*
X-154010Y853961D01*
Y833968D01*
X-164006Y823971D01*
X-203994D01*
Y883951D02*
X-213990Y893948D01*
Y913942D01*
X-203994Y923938D01*
X-164006D01*
X-154010Y913942D01*
Y893948D01*
X-164006Y883951D01*
X-203994D01*
%TF.MD5,3d485015472219333d9061b5c499dc31*%
M02*
