G04 Layer_Color=32768*
%FSLAX26Y26*%
%MOIN*%
%TF.FileFunction,Other,Mechanical_15*%
%TF.Part,Single*%
G01*
G75*
%TA.AperFunction,NonConductor*%
%ADD38C,0.003937*%
D38*
X276315Y942000D02*
X315685D01*
X296000Y922315D02*
Y961685D01*
X345213Y855386D02*
Y1028614D01*
X246787Y855386D02*
Y1028614D01*
X345213D01*
X246787Y855386D02*
X345213D01*
X486370Y1057315D02*
Y1096685D01*
X466685Y1077000D02*
X506055D01*
X399756Y1126213D02*
X572984D01*
X399756Y1027787D02*
X572984D01*
X399756D02*
Y1126213D01*
X572984Y1027787D02*
Y1126213D01*
X842370Y1057315D02*
Y1096685D01*
X822685Y1077000D02*
X862055D01*
X755756Y1126213D02*
X928984D01*
X755756Y1027787D02*
X928984D01*
X755756D02*
Y1126213D01*
X928984Y1027787D02*
Y1126213D01*
X1099630Y630433D02*
Y669803D01*
X1079945Y650118D02*
X1119315D01*
X1013016Y600905D02*
X1186244D01*
X1013016Y699331D02*
X1186244D01*
Y600905D02*
Y699331D01*
X1013016Y600905D02*
Y699331D01*
X407244Y409315D02*
Y448685D01*
X387559Y429000D02*
X426929D01*
X320630Y478213D02*
X493858D01*
X320630Y379787D02*
X493858D01*
X320630D02*
Y478213D01*
X493858Y379787D02*
Y478213D01*
X352315Y558315D02*
Y597685D01*
X332630Y578000D02*
X372000D01*
X265701Y627213D02*
X438929D01*
X265701Y528787D02*
X438929D01*
X265701D02*
Y627213D01*
X438929Y528787D02*
Y627213D01*
X639685Y389630D02*
X679055D01*
X659370Y369945D02*
Y409315D01*
X708583Y303016D02*
Y476244D01*
X610158Y303016D02*
Y476244D01*
X708583D01*
X610158Y303016D02*
X708583D01*
X616685Y869945D02*
X656055D01*
X636370Y850260D02*
Y889630D01*
X587158Y783331D02*
Y956559D01*
X685583Y783331D02*
Y956559D01*
X587158Y783331D02*
X685583D01*
X587158Y956559D02*
X685583D01*
X1099630Y730433D02*
Y769803D01*
X1079945Y750118D02*
X1119315D01*
X1013016Y700905D02*
X1186244D01*
X1013016Y799331D02*
X1186244D01*
Y700905D02*
Y799331D01*
X1013016Y700905D02*
Y799331D01*
X970606Y354197D02*
Y503803D01*
X750134Y354197D02*
Y503803D01*
Y354197D02*
X970606D01*
X750134Y503803D02*
X970606D01*
X840685Y429000D02*
X880055D01*
X860370Y409315D02*
Y448685D01*
X930236Y755197D02*
Y904803D01*
X709764Y755197D02*
Y904803D01*
Y755197D02*
X930236D01*
X709764Y904803D02*
X930236D01*
X800315Y830000D02*
X839685D01*
X820000Y810315D02*
Y849685D01*
%TF.MD5,c67e58a539db6d12df776705ec24e74c*%
M02*
