G04 Layer_Color=8421504*
%FSLAX26Y26*%
%MOIN*%
%TF.FileFunction,Paste,Top*%
%TF.Part,Single*%
G01*
G75*
%TA.AperFunction,SMDPad,CuDef*%
%ADD10R,0.059055X0.055118*%
%ADD11R,0.055118X0.059055*%
%TA.AperFunction,FiducialPad,Global*%
%ADD12C,0.050000*%
%TA.AperFunction,SMDPad,CuDef*%
%ADD13C,0.075000*%
%ADD14R,0.059055X0.110236*%
%ADD15R,0.051181X0.035433*%
G36*
X464331Y788717D02*
X528110D01*
Y753284D01*
X464331D01*
Y736906D01*
X347008D01*
Y805095D01*
X464331D01*
Y788717D01*
D02*
G37*
D10*
X296000Y981370D02*
D03*
Y902630D02*
D03*
X659370Y429000D02*
D03*
Y350260D02*
D03*
X636370Y830575D02*
D03*
Y909315D02*
D03*
D11*
X447000Y1077000D02*
D03*
X525740D02*
D03*
X803000D02*
D03*
X881740D02*
D03*
X1139000Y650118D02*
D03*
X1060260D02*
D03*
X367874Y429000D02*
D03*
X446614D02*
D03*
X312945Y578000D02*
D03*
X391685D02*
D03*
X1139000Y750118D02*
D03*
X1060260D02*
D03*
D12*
X50000Y1450000D02*
D03*
Y50000D02*
D03*
X1450000D02*
D03*
D13*
X122000Y981000D02*
D03*
X1040000Y1077000D02*
D03*
X661000Y640000D02*
D03*
X665000Y1077000D02*
D03*
X175000Y771000D02*
D03*
D14*
X921394Y429000D02*
D03*
X799346D02*
D03*
X881024Y830000D02*
D03*
X758976D02*
D03*
D15*
X502520Y770945D02*
D03*
Y830055D02*
D03*
Y711945D02*
D03*
%TF.MD5,c0335301b7d3f8420090d21e5cbd2837*%
M02*
