G04 Layer_Color=128*
%FSLAX26Y26*%
%MOIN*%
%TF.FileFunction,Drillmap*%
%TF.Part,Single*%
G01*
G75*
%TA.AperFunction,NonConductor*%
%ADD24C,0.005000*%
D24*
X720000Y225000D02*
X760000D01*
X740000Y205000D02*
Y245000D01*
X1350000Y962320D02*
X1390000D01*
X1370000Y942320D02*
Y982320D01*
X150000Y1275000D02*
X300000D01*
X225000Y1200000D02*
Y1350000D01*
X1200000Y1275000D02*
X1350000D01*
X1275000Y1200000D02*
Y1350000D01*
X150000Y225000D02*
X300000D01*
X225000Y150000D02*
Y300000D01*
X1200000Y225000D02*
X1350000D01*
X1275000Y150000D02*
Y300000D01*
X877362Y1370000D02*
X922638D01*
X900000Y1347362D02*
Y1392638D01*
X977362Y1370000D02*
X1022638D01*
X1000000Y1347362D02*
Y1392638D01*
X1347362Y750000D02*
X1392638D01*
X1370000Y727362D02*
Y772638D01*
X1347362Y650000D02*
X1392638D01*
X1370000Y627362D02*
Y672638D01*
X502362Y1370000D02*
X547638D01*
X525000Y1347362D02*
Y1392638D01*
X602362Y1370000D02*
X647638D01*
X625000Y1347362D02*
Y1392638D01*
X211071Y578000D02*
X239071D01*
X225071Y564000D02*
Y592000D01*
X264000Y429000D02*
X292000D01*
X278000Y415000D02*
Y443000D01*
%TF.MD5,809d766edb4739aa9356ed517d6ec9f0*%
M02*
