G04 Layer_Color=16711935*
%FSLAX26Y26*%
%MOIN*%
%TF.FileFunction,Other,Mechanical_13*%
%TF.Part,Single*%
G01*
G75*
%TA.AperFunction,NonConductor*%
%ADD38C,0.003937*%
D38*
X323559Y899677D02*
Y984323D01*
X268441Y899677D02*
Y984323D01*
X323559D01*
X268441Y899677D02*
X323559D01*
X444047Y1104559D02*
X528693D01*
X444047Y1049441D02*
X528693D01*
X444047D02*
Y1104559D01*
X528693Y1049441D02*
Y1104559D01*
X800047D02*
X884693D01*
X800047Y1049441D02*
X884693D01*
X800047D02*
Y1104559D01*
X884693Y1049441D02*
Y1104559D01*
X1057307Y622559D02*
X1141953D01*
X1057307Y677677D02*
X1141953D01*
Y622559D02*
Y677677D01*
X1057307Y622559D02*
Y677677D01*
X364921Y456559D02*
X449567D01*
X364921Y401441D02*
X449567D01*
X364921D02*
Y456559D01*
X449567Y401441D02*
Y456559D01*
X309992Y605559D02*
X394638D01*
X309992Y550441D02*
X394638D01*
X309992D02*
Y605559D01*
X394638Y550441D02*
Y605559D01*
X686929Y347307D02*
Y431953D01*
X631811Y347307D02*
Y431953D01*
X686929D01*
X631811Y347307D02*
X686929D01*
X608811Y827622D02*
Y912268D01*
X663929Y827622D02*
Y912268D01*
X608811Y827622D02*
X663929D01*
X608811Y912268D02*
X663929D01*
X1057307Y722559D02*
X1141953D01*
X1057307Y777677D02*
X1141953D01*
Y722559D02*
Y777677D01*
X1057307Y722559D02*
Y777677D01*
X927299Y375850D02*
Y482149D01*
X793441Y375850D02*
Y482149D01*
Y375850D02*
X927299D01*
X793441Y482149D02*
X927299D01*
X886929Y776850D02*
Y883149D01*
X753071Y776850D02*
Y883149D01*
Y776850D02*
X886929D01*
X753071Y883149D02*
X886929D01*
%TF.MD5,a45e7359d190999f5a72ec9f48cfbf06*%
M02*
