G04 Layer_Color=255*
%FSLAX26Y26*%
%MOIN*%
%TF.FileFunction,Pads,Top*%
%TF.Part,Single*%
G01*
G75*
%TA.AperFunction,SMDPad,CuDef*%
%ADD10R,0.059055X0.055118*%
%ADD11R,0.055118X0.059055*%
%TA.AperFunction,FiducialPad,Global*%
%ADD12C,0.050000*%
%TA.AperFunction,SMDPad,CuDef*%
%ADD13C,0.075000*%
%ADD14R,0.059055X0.110236*%
%ADD15R,0.051181X0.035433*%
%TA.AperFunction,ComponentPad*%
%ADD17C,0.065000*%
%ADD18C,0.250000*%
%ADD19R,0.059055X0.059055*%
%ADD20C,0.059055*%
%ADD21R,0.059055X0.059055*%
D10*
X296000Y981370D02*
D03*
Y902630D02*
D03*
X659370Y429000D02*
D03*
Y350260D02*
D03*
X636370Y830575D02*
D03*
Y909315D02*
D03*
D11*
X447000Y1077000D02*
D03*
X525740D02*
D03*
X803000D02*
D03*
X881740D02*
D03*
X1139000Y650118D02*
D03*
X1060260D02*
D03*
X367874Y429000D02*
D03*
X446614D02*
D03*
X312945Y578000D02*
D03*
X391685D02*
D03*
X1139000Y750118D02*
D03*
X1060260D02*
D03*
D12*
X50000Y1450000D02*
D03*
Y50000D02*
D03*
X1450000D02*
D03*
D13*
X122000Y981000D02*
D03*
X1040000Y1077000D02*
D03*
X661000Y640000D02*
D03*
X665000Y1077000D02*
D03*
X175000Y771000D02*
D03*
D14*
X921394Y429000D02*
D03*
X799346D02*
D03*
X881024Y830000D02*
D03*
X758976D02*
D03*
D15*
X502520Y770945D02*
D03*
Y830055D02*
D03*
Y711945D02*
D03*
D17*
X740000Y225000D02*
D03*
X1370000Y962320D02*
D03*
D18*
X225000Y1275000D02*
D03*
X1275000D02*
D03*
X225000Y225000D02*
D03*
X1275000D02*
D03*
D19*
X900000Y1370000D02*
D03*
X525000D02*
D03*
D20*
X1000000D02*
D03*
X1370000Y650000D02*
D03*
X625000Y1370000D02*
D03*
D21*
X1370000Y750000D02*
D03*
%TF.MD5,411040696853480f0db3549453dbe52b*%
M02*
