G04 Layer_Color=32896*
%FSLAX25Y25*%
%MOIN*%
G70*
G01*
G75*
%ADD22C,0.01000*%
%ADD24C,0.00500*%
D22*
X142205Y22500D02*
G03*
X142205Y22500I-14705J0D01*
G01*
X37205D02*
G03*
X37205Y22500I-14705J0D01*
G01*
Y127500D02*
G03*
X37205Y127500I-14705J0D01*
G01*
X142205D02*
G03*
X142205Y127500I-14705J0D01*
G01*
D24*
X110087Y19396D02*
Y24395D01*
X107588D01*
X106755Y23561D01*
Y21895D01*
X107588Y21062D01*
X110087D01*
X104256Y19396D02*
X102589D01*
X101756Y20229D01*
Y21895D01*
X102589Y22728D01*
X104256D01*
X105089Y21895D01*
Y20229D01*
X104256Y19396D01*
X100090Y22728D02*
Y20229D01*
X99257Y19396D01*
X96758D01*
Y22728D01*
X95092D02*
Y19396D01*
Y21062D01*
X94259Y21895D01*
X93426Y22728D01*
X92593D01*
X90093Y19396D02*
X87594D01*
X86761Y20229D01*
X87594Y21062D01*
X89260D01*
X90093Y21895D01*
X89260Y22728D01*
X86761D01*
X85095D02*
X84262D01*
Y21895D01*
X85095D01*
Y22728D01*
Y20229D02*
X84262D01*
Y19396D01*
X85095D01*
Y20229D01*
X110087Y17196D02*
X106755D01*
X108421D01*
Y12198D01*
X102589Y17196D02*
X104256D01*
X105089Y16363D01*
Y13031D01*
X104256Y12198D01*
X102589D01*
X101756Y13031D01*
Y16363D01*
X102589Y17196D01*
X100090Y12198D02*
Y17196D01*
X97591D01*
X96758Y16363D01*
Y14697D01*
X97591Y13864D01*
X100090D01*
X90093Y14697D02*
X86761D01*
X76765Y16363D02*
X77597Y17196D01*
X79264D01*
X80097Y16363D01*
Y13031D01*
X79264Y12198D01*
X77597D01*
X76765Y13031D01*
Y14697D01*
X78431D01*
X75098Y12198D02*
Y17196D01*
X71766Y12198D01*
Y17196D01*
X70100D02*
Y12198D01*
X67601D01*
X66768Y13031D01*
Y16363D01*
X67601Y17196D01*
X70100D01*
X110087Y9998D02*
Y5000D01*
X107588D01*
X106755Y5833D01*
Y6666D01*
X107588Y7499D01*
X110087D01*
X107588D01*
X106755Y8332D01*
Y9165D01*
X107588Y9998D01*
X110087D01*
X102589D02*
X104256D01*
X105089Y9165D01*
Y5833D01*
X104256Y5000D01*
X102589D01*
X101756Y5833D01*
Y9165D01*
X102589Y9998D01*
X100090D02*
X96758D01*
X98424D01*
Y5000D01*
X95092Y9998D02*
X91760D01*
X93426D01*
Y5000D01*
X87594Y9998D02*
X89260D01*
X90093Y9165D01*
Y5833D01*
X89260Y5000D01*
X87594D01*
X86761Y5833D01*
Y9165D01*
X87594Y9998D01*
X85095Y5000D02*
Y9998D01*
X83429Y8332D01*
X81763Y9998D01*
Y5000D01*
X75098Y7499D02*
X71766D01*
X65102Y9998D02*
Y6666D01*
X63436Y5000D01*
X61769Y6666D01*
Y9998D01*
X56771Y9165D02*
X57604Y9998D01*
X59270D01*
X60103Y9165D01*
Y5833D01*
X59270Y5000D01*
X57604D01*
X56771Y5833D01*
X51773Y9165D02*
X52606Y9998D01*
X54272D01*
X55105Y9165D01*
Y5833D01*
X54272Y5000D01*
X52606D01*
X51773Y5833D01*
X126710Y109185D02*
X130042D01*
Y104187D01*
X126710D01*
X130042Y106686D02*
X128376D01*
X125044Y109185D02*
Y104187D01*
X121711D01*
X116713Y109185D02*
X120045D01*
Y104187D01*
X116713D01*
X120045Y106686D02*
X118379D01*
X111715Y108352D02*
X112548Y109185D01*
X114214D01*
X115047Y108352D01*
Y105020D01*
X114214Y104187D01*
X112548D01*
X111715Y105020D01*
X102551Y104187D02*
Y109185D01*
X105050Y106686D01*
X101718D01*
X100052Y108352D02*
X99219Y109185D01*
X97553D01*
X96719Y108352D01*
Y107519D01*
X97553Y106686D01*
X98386D01*
X97553D01*
X96719Y105853D01*
Y105020D01*
X97553Y104187D01*
X99219D01*
X100052Y105020D01*
X95053Y104187D02*
X93387D01*
X94220D01*
Y109185D01*
X95053Y108352D01*
X90888Y105020D02*
X90055Y104187D01*
X88389D01*
X87556Y105020D01*
Y108352D01*
X88389Y109185D01*
X90055D01*
X90888Y108352D01*
Y107519D01*
X90055Y106686D01*
X87556D01*
X126710Y101154D02*
X127543Y101987D01*
X129209D01*
X130042Y101154D01*
Y100321D01*
X129209Y99488D01*
X127543D01*
X126710Y98655D01*
Y97822D01*
X127543Y96989D01*
X129209D01*
X130042Y97822D01*
X122544Y96989D02*
X124211D01*
X125044Y97822D01*
Y99488D01*
X124211Y100321D01*
X122544D01*
X121711Y99488D01*
Y98655D01*
X125044D01*
X120045Y96989D02*
Y100321D01*
X117546D01*
X116713Y99488D01*
Y96989D01*
X115047D02*
X113381D01*
X114214D01*
Y100321D01*
X115047D01*
X110048Y96989D02*
X108382D01*
X107549Y97822D01*
Y99488D01*
X108382Y100321D01*
X110048D01*
X110881Y99488D01*
Y97822D01*
X110048Y96989D01*
X105883Y100321D02*
Y96989D01*
Y98655D01*
X105050Y99488D01*
X104217Y100321D01*
X103384D01*
X95886Y101987D02*
Y96989D01*
X93387D01*
X92554Y97822D01*
Y101154D01*
X93387Y101987D01*
X95886D01*
X88389Y96989D02*
X90055D01*
X90888Y97822D01*
Y99488D01*
X90055Y100321D01*
X88389D01*
X87556Y99488D01*
Y98655D01*
X90888D01*
X85890Y96989D02*
X83390D01*
X82557Y97822D01*
X83390Y98655D01*
X85057D01*
X85890Y99488D01*
X85057Y100321D01*
X82557D01*
X80891Y96989D02*
X79225D01*
X80058D01*
Y100321D01*
X80891D01*
X75060Y95323D02*
X74227D01*
X73394Y96156D01*
Y100321D01*
X75893D01*
X76726Y99488D01*
Y97822D01*
X75893Y96989D01*
X73394D01*
X71728D02*
Y100321D01*
X69228D01*
X68395Y99488D01*
Y96989D01*
X61731Y101987D02*
X60065D01*
X60898D01*
Y96989D01*
X61731D01*
X60065D01*
X57565Y101987D02*
X55899D01*
X56732D01*
Y96989D01*
X57565D01*
X55899D01*
X130042Y88125D02*
Y91457D01*
X128376Y93123D01*
X126710Y91457D01*
Y88125D01*
Y90624D01*
X130042D01*
X125044Y91457D02*
Y88958D01*
X124211Y88125D01*
X121711D01*
Y91457D01*
X118379Y86458D02*
X117546D01*
X116713Y87291D01*
Y91457D01*
X119212D01*
X120045Y90624D01*
Y88958D01*
X119212Y88125D01*
X116713D01*
X115047D02*
Y91457D01*
X114214D01*
X113381Y90624D01*
Y88125D01*
Y90624D01*
X112548Y91457D01*
X111715Y90624D01*
Y88125D01*
X107549D02*
X109215D01*
X110048Y88958D01*
Y90624D01*
X109215Y91457D01*
X107549D01*
X106716Y90624D01*
Y89791D01*
X110048D01*
X105050Y88125D02*
Y91457D01*
X102551D01*
X101718Y90624D01*
Y88125D01*
X99219Y92290D02*
Y91457D01*
X100052D01*
X98386D01*
X99219D01*
Y88958D01*
X98386Y88125D01*
X93387D02*
X95053D01*
X95886Y88958D01*
Y90624D01*
X95053Y91457D01*
X93387D01*
X92554Y90624D01*
Y89791D01*
X95886D01*
X87556Y93123D02*
Y88125D01*
X90055D01*
X90888Y88958D01*
Y90624D01*
X90055Y91457D01*
X87556D01*
X80891Y88125D02*
Y93123D01*
X78392D01*
X77559Y92290D01*
Y90624D01*
X78392Y89791D01*
X80891D01*
X79225D02*
X77559Y88125D01*
X73394D02*
X75060D01*
X75893Y88958D01*
Y90624D01*
X75060Y91457D01*
X73394D01*
X72561Y90624D01*
Y89791D01*
X75893D01*
X70061Y91457D02*
X68395D01*
X67562Y90624D01*
Y88125D01*
X70061D01*
X70894Y88958D01*
X70061Y89791D01*
X67562D01*
X65896Y88125D02*
X64230D01*
X65063D01*
Y93123D01*
X65896D01*
X61731Y88125D02*
X60065D01*
X60898D01*
Y91457D01*
X61731D01*
X56732Y92290D02*
Y91457D01*
X57565D01*
X55899D01*
X56732D01*
Y88958D01*
X55899Y88125D01*
X53400Y91457D02*
Y88958D01*
X52567Y88125D01*
X50068D01*
Y87291D01*
X50901Y86458D01*
X51734D01*
X50068Y88125D02*
Y91457D01*
X43403Y88125D02*
Y93123D01*
X40904D01*
X40071Y92290D01*
Y90624D01*
X40904Y89791D01*
X43403D01*
X38405Y91457D02*
Y88125D01*
Y89791D01*
X37572Y90624D01*
X36739Y91457D01*
X35906D01*
X32574Y88125D02*
X30907D01*
X30074Y88958D01*
Y90624D01*
X30907Y91457D01*
X32574D01*
X33407Y90624D01*
Y88958D01*
X32574Y88125D01*
X28408Y86458D02*
X27575D01*
X26742Y87291D01*
Y91457D01*
X20911Y88125D02*
X22577D01*
X23410Y88958D01*
Y90624D01*
X22577Y91457D01*
X20911D01*
X20078Y90624D01*
Y89791D01*
X23410D01*
X15079Y91457D02*
X17578D01*
X18411Y90624D01*
Y88958D01*
X17578Y88125D01*
X15079D01*
X12580Y92290D02*
Y91457D01*
X13413D01*
X11747D01*
X12580D01*
Y88958D01*
X11747Y88125D01*
X127543Y84259D02*
X129209D01*
X130042Y83426D01*
Y80093D01*
X129209Y79260D01*
X127543D01*
X126710Y80093D01*
Y83426D01*
X127543Y84259D01*
X125044D02*
Y79260D01*
X122544D01*
X121711Y80093D01*
Y80926D01*
Y81760D01*
X122544Y82593D01*
X125044D01*
X120045Y77594D02*
X119212D01*
X118379Y78427D01*
Y82593D01*
X112548Y79260D02*
X114214D01*
X115047Y80093D01*
Y81760D01*
X114214Y82593D01*
X112548D01*
X111715Y81760D01*
Y80926D01*
X115047D01*
X106716Y82593D02*
X109215D01*
X110048Y81760D01*
Y80093D01*
X109215Y79260D01*
X106716D01*
X104217Y83426D02*
Y82593D01*
X105050D01*
X103384D01*
X104217D01*
Y80093D01*
X103384Y79260D01*
X95886Y84259D02*
Y79260D01*
X93387D01*
X92554Y80093D01*
Y83426D01*
X93387Y84259D01*
X95886D01*
X88389Y79260D02*
X90055D01*
X90888Y80093D01*
Y81760D01*
X90055Y82593D01*
X88389D01*
X87556Y81760D01*
Y80926D01*
X90888D01*
X85057Y83426D02*
Y82593D01*
X85890D01*
X84224D01*
X85057D01*
Y80093D01*
X84224Y79260D01*
X79225D02*
X80891D01*
X81724Y80093D01*
Y81760D01*
X80891Y82593D01*
X79225D01*
X78392Y81760D01*
Y80926D01*
X81724D01*
X73394Y82593D02*
X75893D01*
X76726Y81760D01*
Y80093D01*
X75893Y79260D01*
X73394D01*
X70894Y83426D02*
Y82593D01*
X71728D01*
X70061D01*
X70894D01*
Y80093D01*
X70061Y79260D01*
X67562D02*
X65896D01*
X66729D01*
Y82593D01*
X67562D01*
X62564Y79260D02*
X60898D01*
X60065Y80093D01*
Y81760D01*
X60898Y82593D01*
X62564D01*
X63397Y81760D01*
Y80093D01*
X62564Y79260D01*
X58398D02*
Y82593D01*
X55899D01*
X55066Y81760D01*
Y79260D01*
X48402D02*
Y84259D01*
X45903D01*
X45070Y83426D01*
Y81760D01*
X45903Y80926D01*
X48402D01*
X40071Y83426D02*
X40904Y84259D01*
X42570D01*
X43403Y83426D01*
Y80093D01*
X42570Y79260D01*
X40904D01*
X40071Y80093D01*
X38405Y84259D02*
Y79260D01*
X35906D01*
X35073Y80093D01*
Y80926D01*
X35906Y81760D01*
X38405D01*
X35906D01*
X35073Y82593D01*
Y83426D01*
X35906Y84259D01*
X38405D01*
X130042Y70396D02*
Y75394D01*
X127543D01*
X126710Y74561D01*
Y72895D01*
X127543Y72062D01*
X130042D01*
X128376D02*
X126710Y70396D01*
X122544D02*
X124211D01*
X125044Y71229D01*
Y72895D01*
X124211Y73728D01*
X122544D01*
X121711Y72895D01*
Y72062D01*
X125044D01*
X120045Y73728D02*
X118379Y70396D01*
X116713Y73728D01*
X115047Y70396D02*
X113381D01*
X114214D01*
Y73728D01*
X115047D01*
X110881Y70396D02*
X108382D01*
X107549Y71229D01*
X108382Y72062D01*
X110048D01*
X110881Y72895D01*
X110048Y73728D01*
X107549D01*
X105883Y70396D02*
X104217D01*
X105050D01*
Y73728D01*
X105883D01*
X100885Y70396D02*
X99219D01*
X98386Y71229D01*
Y72895D01*
X99219Y73728D01*
X100885D01*
X101718Y72895D01*
Y71229D01*
X100885Y70396D01*
X96719D02*
Y73728D01*
X94220D01*
X93387Y72895D01*
Y70396D01*
X91721Y73728D02*
X90888D01*
Y72895D01*
X91721D01*
Y73728D01*
Y71229D02*
X90888D01*
Y70396D01*
X91721D01*
Y71229D01*
X82557Y70396D02*
X80891D01*
X81724D01*
Y75394D01*
X82557Y74561D01*
X78392Y70396D02*
Y71229D01*
X77559D01*
Y70396D01*
X78392D01*
X74227Y74561D02*
X73394Y75394D01*
X71728D01*
X70894Y74561D01*
Y71229D01*
X71728Y70396D01*
X73394D01*
X74227Y71229D01*
Y74561D01*
X126710Y67363D02*
X127543Y68196D01*
X129209D01*
X130042Y67363D01*
Y66530D01*
X129209Y65697D01*
X127543D01*
X126710Y64864D01*
Y64031D01*
X127543Y63198D01*
X129209D01*
X130042Y64031D01*
X125044Y63198D02*
Y68196D01*
X121711Y63198D01*
Y68196D01*
X120045Y66530D02*
X119212D01*
Y65697D01*
X120045D01*
Y66530D01*
Y64031D02*
X119212D01*
Y63198D01*
X120045D01*
Y64031D01*
X110881Y68196D02*
X107549Y63198D01*
Y68196D02*
X110881Y63198D01*
X105883Y68196D02*
X102551Y63198D01*
Y68196D02*
X105883Y63198D01*
X130042Y56000D02*
Y60998D01*
X128376Y59332D01*
X126710Y60998D01*
Y56000D01*
X121711Y60998D02*
X125044D01*
Y58499D01*
X123378D01*
X125044D01*
Y56000D01*
X116713Y60165D02*
X117546Y60998D01*
X119212D01*
X120045Y60165D01*
Y56833D01*
X119212Y56000D01*
X117546D01*
X116713Y56833D01*
Y58499D01*
X118379D01*
X110048Y60998D02*
Y56000D01*
X107549D01*
X106716Y56833D01*
Y60165D01*
X107549Y60998D01*
X110048D01*
X104217Y59332D02*
X102551D01*
X101718Y58499D01*
Y56000D01*
X104217D01*
X105050Y56833D01*
X104217Y57666D01*
X101718D01*
X99219Y60165D02*
Y59332D01*
X100052D01*
X98386D01*
X99219D01*
Y56833D01*
X98386Y56000D01*
X93387D02*
X95053D01*
X95886Y56833D01*
Y58499D01*
X95053Y59332D01*
X93387D01*
X92554Y58499D01*
Y57666D01*
X95886D01*
X90888Y59332D02*
X90055D01*
Y58499D01*
X90888D01*
Y59332D01*
Y56833D02*
X90055D01*
Y56000D01*
X90888D01*
Y56833D01*
X81724Y60998D02*
Y60165D01*
X80058Y58499D01*
X78392Y60165D01*
Y60998D01*
X80058Y58499D02*
Y56000D01*
X76726Y60998D02*
Y60165D01*
X75060Y58499D01*
X73394Y60165D01*
Y60998D01*
X75060Y58499D02*
Y56000D01*
X71728Y60998D02*
Y60165D01*
X70061Y58499D01*
X68395Y60165D01*
Y60998D01*
X70061Y58499D02*
Y56000D01*
X66729Y60998D02*
Y60165D01*
X65063Y58499D01*
X63397Y60165D01*
Y60998D01*
X65063Y58499D02*
Y56000D01*
X61731Y58499D02*
X58398D01*
X56732Y56000D02*
Y60998D01*
X55066Y59332D01*
X53400Y60998D01*
Y56000D01*
X51734D02*
Y60998D01*
X50068Y59332D01*
X48402Y60998D01*
Y56000D01*
X46736Y58499D02*
X43403D01*
X41737Y60998D02*
Y56000D01*
X39238D01*
X38405Y56833D01*
Y60165D01*
X39238Y60998D01*
X41737D01*
X36739D02*
Y56000D01*
X34240D01*
X33407Y56833D01*
Y60165D01*
X34240Y60998D01*
X36739D01*
X106868Y48363D02*
X108534D01*
X107701D01*
Y44197D01*
X108534Y43364D01*
X109367D01*
X110200Y44197D01*
X105202Y46696D02*
Y44197D01*
X104369Y43364D01*
X101869D01*
Y46696D01*
X100203Y43364D02*
Y46696D01*
X99370D01*
X98537Y45863D01*
Y43364D01*
Y45863D01*
X97704Y46696D01*
X96871Y45863D01*
Y43364D01*
X95205Y41698D02*
Y46696D01*
X92706D01*
X91873Y45863D01*
Y44197D01*
X92706Y43364D01*
X95205D01*
X87707D02*
X89373D01*
X90206Y44197D01*
Y45863D01*
X89373Y46696D01*
X87707D01*
X86874Y45863D01*
Y45030D01*
X90206D01*
X85208Y46696D02*
Y43364D01*
Y45030D01*
X84375Y45863D01*
X83542Y46696D01*
X82709D01*
X80210D02*
X79377D01*
Y45863D01*
X80210D01*
Y46696D01*
Y44197D02*
X79377D01*
Y43364D01*
X80210D01*
Y44197D01*
X110200Y34500D02*
Y39498D01*
X107701D01*
X106868Y38665D01*
Y36999D01*
X107701Y36166D01*
X110200D01*
X108534D02*
X106868Y34500D01*
X105202Y38665D02*
X101869Y35333D01*
X105202D02*
X101869Y38665D01*
X105202Y36999D02*
X101869D01*
X103535Y35333D02*
Y38665D01*
X92706Y34500D02*
X95205Y36999D01*
X92706Y39498D01*
X90206Y36166D02*
X86874D01*
X90206Y37832D02*
X86874D01*
X85208Y34500D02*
X82709Y36999D01*
X85208Y39498D01*
X72712Y38665D02*
X73545Y39498D01*
X75211D01*
X76044Y38665D01*
Y35333D01*
X75211Y34500D01*
X73545D01*
X72712Y35333D01*
X67714Y34500D02*
X71046D01*
X67714Y37832D01*
Y38665D01*
X68547Y39498D01*
X70213D01*
X71046Y38665D01*
M02*
