G04 Layer_Physical_Order=1*
G04 Layer_Color=255*
%FSLAX25Y25*%
%MOIN*%
G70*
G01*
G75*
%ADD10R,0.05905X0.05512*%
%ADD11R,0.05512X0.05905*%
%ADD12C,0.05000*%
%ADD13C,0.07500*%
%ADD14R,0.05905X0.11024*%
%ADD15R,0.05118X0.03543*%
%ADD16C,0.02500*%
%ADD17C,0.06500*%
%ADD18C,0.25000*%
%ADD19R,0.05905X0.05905*%
%ADD20C,0.05905*%
%ADD21R,0.05905X0.05905*%
G36*
X148980Y1020D02*
X1020D01*
Y148980D01*
X148980D01*
Y1020D01*
D02*
G37*
%LPC*%
G36*
X34050Y61772D02*
X28539D01*
X28148Y61695D01*
X27818Y61474D01*
X27597Y61143D01*
X27519Y60753D01*
Y60094D01*
X25158D01*
X25003Y60296D01*
X24272Y60857D01*
X23421Y61210D01*
X22507Y61330D01*
X21593Y61210D01*
X20742Y60857D01*
X20011Y60296D01*
X19450Y59565D01*
X19097Y58714D01*
X18977Y57800D01*
X19097Y56886D01*
X19450Y56035D01*
X20011Y55304D01*
X20742Y54743D01*
X21593Y54390D01*
X22507Y54270D01*
X23421Y54390D01*
X24272Y54743D01*
X25003Y55304D01*
X25158Y55506D01*
X27519D01*
Y54847D01*
X27597Y54457D01*
X27818Y54126D01*
X28148Y53905D01*
X28539Y53828D01*
X34050D01*
X34441Y53905D01*
X34771Y54126D01*
X34992Y54457D01*
X35070Y54847D01*
Y60753D01*
X34992Y61143D01*
X34771Y61474D01*
X34441Y61695D01*
X34050Y61772D01*
D02*
G37*
G36*
X108782Y78984D02*
X103270D01*
X102880Y78907D01*
X102549Y78685D01*
X102328Y78355D01*
X102251Y77965D01*
Y72059D01*
X102328Y71669D01*
X102549Y71338D01*
X102880Y71117D01*
X103270Y71039D01*
X103732D01*
Y68984D01*
X103270D01*
X102880Y68906D01*
X102549Y68686D01*
X102328Y68355D01*
X102251Y67965D01*
Y62059D01*
X102328Y61669D01*
X102549Y61338D01*
X102880Y61117D01*
X103270Y61040D01*
X108782D01*
X109172Y61117D01*
X109503Y61338D01*
X109724Y61669D01*
X109801Y62059D01*
Y67965D01*
X109724Y68355D01*
X109503Y68686D01*
X109172Y68906D01*
X108782Y68984D01*
X108320D01*
Y71039D01*
X108782D01*
X109172Y71117D01*
X109503Y71338D01*
X109724Y71669D01*
X109801Y72059D01*
Y77965D01*
X109724Y78355D01*
X109503Y78685D01*
X109172Y78907D01*
X108782Y78984D01*
D02*
G37*
G36*
X39543Y46872D02*
X34032D01*
X33641Y46795D01*
X33310Y46574D01*
X33090Y46243D01*
X33012Y45853D01*
Y45194D01*
X30451D01*
X30296Y45396D01*
X29565Y45957D01*
X28714Y46310D01*
X27800Y46430D01*
X26886Y46310D01*
X26035Y45957D01*
X25304Y45396D01*
X24743Y44665D01*
X24390Y43814D01*
X24270Y42900D01*
X24390Y41986D01*
X24743Y41135D01*
X25304Y40404D01*
X26035Y39843D01*
X26886Y39490D01*
X27800Y39370D01*
X28714Y39490D01*
X29565Y39843D01*
X30296Y40404D01*
X30451Y40606D01*
X33012D01*
Y39947D01*
X33090Y39557D01*
X33310Y39226D01*
X33641Y39005D01*
X34032Y38928D01*
X39543D01*
X39933Y39005D01*
X40264Y39226D01*
X40485Y39557D01*
X40563Y39947D01*
Y45853D01*
X40485Y46243D01*
X40264Y46574D01*
X39933Y46795D01*
X39543Y46872D01*
D02*
G37*
G36*
X5000Y8530D02*
X4086Y8410D01*
X3235Y8057D01*
X2504Y7496D01*
X1943Y6765D01*
X1590Y5914D01*
X1470Y5000D01*
X1590Y4086D01*
X1943Y3235D01*
X2504Y2504D01*
X3235Y1943D01*
X4086Y1590D01*
X5000Y1470D01*
X5914Y1590D01*
X6765Y1943D01*
X7496Y2504D01*
X8057Y3235D01*
X8410Y4086D01*
X8530Y5000D01*
X8410Y5914D01*
X8057Y6765D01*
X7496Y7496D01*
X6765Y8057D01*
X5914Y8410D01*
X5000Y8530D01*
D02*
G37*
G36*
X145000D02*
X144086Y8410D01*
X143235Y8057D01*
X142504Y7496D01*
X141943Y6765D01*
X141590Y5914D01*
X141470Y5000D01*
X141590Y4086D01*
X141943Y3235D01*
X142504Y2504D01*
X143235Y1943D01*
X144086Y1590D01*
X145000Y1470D01*
X145914Y1590D01*
X146765Y1943D01*
X147496Y2504D01*
X148057Y3235D01*
X148410Y4086D01*
X148530Y5000D01*
X148410Y5914D01*
X148057Y6765D01*
X147496Y7496D01*
X146765Y8057D01*
X145914Y8410D01*
X145000Y8530D01*
D02*
G37*
G36*
X100000Y140987D02*
X98968Y140851D01*
X98007Y140453D01*
X97181Y139819D01*
X96547Y138993D01*
X96149Y138032D01*
X96013Y137000D01*
X96149Y135968D01*
X96547Y135007D01*
X97181Y134181D01*
X98007Y133547D01*
X98968Y133149D01*
X100000Y133013D01*
X100656Y133099D01*
X101706Y132050D01*
Y111891D01*
X101604Y111849D01*
X100612Y111088D01*
X99851Y110096D01*
X99809Y109994D01*
X91949D01*
Y110653D01*
X91872Y111043D01*
X91651Y111374D01*
X91320Y111595D01*
X90930Y111672D01*
X85418D01*
X85028Y111595D01*
X84697Y111374D01*
X84476Y111043D01*
X84399Y110653D01*
Y104747D01*
X84476Y104357D01*
X84697Y104026D01*
X85028Y103805D01*
X85418Y103728D01*
X90930D01*
X91320Y103805D01*
X91651Y104026D01*
X91872Y104357D01*
X91949Y104747D01*
Y105406D01*
X99809D01*
X99851Y105305D01*
X100612Y104312D01*
X101604Y103551D01*
X101706Y103509D01*
Y89282D01*
X95078Y82654D01*
X94581Y81909D01*
X94406Y81032D01*
Y70650D01*
X90517Y66761D01*
X90020Y66017D01*
X89845Y65139D01*
Y49431D01*
X89187D01*
X88796Y49354D01*
X88466Y49133D01*
X88245Y48802D01*
X88167Y48412D01*
Y37388D01*
X88245Y36998D01*
X88466Y36667D01*
X88796Y36446D01*
X89187Y36369D01*
X95092D01*
X95482Y36446D01*
X95813Y36667D01*
X96034Y36998D01*
X96112Y37388D01*
Y48412D01*
X96034Y48802D01*
X95813Y49133D01*
X95482Y49354D01*
X95092Y49431D01*
X94433D01*
Y64189D01*
X98322Y68078D01*
X98819Y68822D01*
X98994Y69700D01*
Y80081D01*
X105622Y86709D01*
X106120Y87454D01*
X106294Y88332D01*
Y103509D01*
X106395Y103551D01*
X107388Y104312D01*
X108149Y105305D01*
X108628Y106460D01*
X108791Y107700D01*
X108628Y108940D01*
X108149Y110096D01*
X107388Y111088D01*
X106395Y111849D01*
X106294Y111891D01*
Y133000D01*
X106120Y133878D01*
X105622Y134622D01*
X103901Y136344D01*
X103987Y137000D01*
X103851Y138032D01*
X103453Y138993D01*
X102819Y139819D01*
X101993Y140453D01*
X101032Y140851D01*
X100000Y140987D01*
D02*
G37*
G36*
X82745Y146549D02*
X59755D01*
X58877Y146374D01*
X58133Y145877D01*
X53228Y140972D01*
X49547D01*
X49157Y140895D01*
X48826Y140674D01*
X48605Y140343D01*
X48528Y139953D01*
Y136272D01*
X43078Y130822D01*
X42581Y130078D01*
X42406Y129200D01*
Y111672D01*
X41944D01*
X41554Y111595D01*
X41223Y111374D01*
X41002Y111043D01*
X40925Y110653D01*
Y109994D01*
X33300D01*
X32422Y109819D01*
X31678Y109322D01*
X27978Y105622D01*
X27481Y104878D01*
X27306Y104000D01*
Y101912D01*
X26647D01*
X26257Y101835D01*
X25926Y101614D01*
X25705Y101283D01*
X25628Y100893D01*
Y100431D01*
X16376D01*
X16349Y100496D01*
X15588Y101488D01*
X14595Y102249D01*
X13440Y102728D01*
X12200Y102891D01*
X10960Y102728D01*
X9804Y102249D01*
X8812Y101488D01*
X8051Y100496D01*
X7572Y99340D01*
X7409Y98100D01*
X7572Y96860D01*
X8051Y95705D01*
X8812Y94712D01*
X9804Y93951D01*
X10960Y93472D01*
X12200Y93309D01*
X13440Y93472D01*
X14595Y93951D01*
X15588Y94712D01*
X16349Y95705D01*
X16407Y95843D01*
X25628D01*
Y95381D01*
X25705Y94991D01*
X25926Y94660D01*
X26257Y94439D01*
X26647Y94362D01*
X32553D01*
X32943Y94439D01*
X33274Y94660D01*
X33495Y94991D01*
X33572Y95381D01*
Y100893D01*
X33495Y101283D01*
X33274Y101614D01*
X32943Y101835D01*
X32553Y101912D01*
X31894D01*
Y103050D01*
X34250Y105406D01*
X40925D01*
Y104747D01*
X41002Y104357D01*
X41223Y104026D01*
X41554Y103805D01*
X41944Y103728D01*
X47456D01*
X47846Y103805D01*
X48177Y104026D01*
X48398Y104357D01*
X48476Y104747D01*
Y110653D01*
X48398Y111043D01*
X48177Y111374D01*
X47846Y111595D01*
X47456Y111672D01*
X46994D01*
Y128250D01*
X51772Y133028D01*
X55453D01*
X55843Y133105D01*
X56174Y133326D01*
X56395Y133657D01*
X56472Y134047D01*
Y137728D01*
X60705Y141961D01*
X81795D01*
X86028Y137728D01*
Y134047D01*
X86105Y133657D01*
X86326Y133326D01*
X86657Y133105D01*
X87047Y133028D01*
X92953D01*
X93343Y133105D01*
X93674Y133326D01*
X93895Y133657D01*
X93972Y134047D01*
Y139953D01*
X93895Y140343D01*
X93674Y140674D01*
X93343Y140895D01*
X92953Y140972D01*
X89272D01*
X84367Y145877D01*
X83623Y146374D01*
X82745Y146549D01*
D02*
G37*
G36*
X66500Y112491D02*
X65260Y112328D01*
X64104Y111849D01*
X63112Y111088D01*
X62351Y110096D01*
X62309Y109994D01*
X56349D01*
Y110653D01*
X56272Y111043D01*
X56051Y111374D01*
X55720Y111595D01*
X55330Y111672D01*
X49818D01*
X49428Y111595D01*
X49097Y111374D01*
X48876Y111043D01*
X48798Y110653D01*
Y104747D01*
X48876Y104357D01*
X49097Y104026D01*
X49428Y103805D01*
X49818Y103728D01*
X50280D01*
Y98724D01*
X48630Y97074D01*
X48133Y96330D01*
X47958Y95452D01*
Y85797D01*
X47693D01*
X47303Y85719D01*
X46972Y85498D01*
X46751Y85167D01*
X46673Y84777D01*
Y81481D01*
X46433Y81529D01*
X41463D01*
Y86231D01*
X41288Y87109D01*
X40791Y87854D01*
X36759Y91885D01*
X36015Y92382D01*
X35137Y92557D01*
X33572D01*
Y93019D01*
X33495Y93409D01*
X33274Y93740D01*
X32943Y93961D01*
X32553Y94038D01*
X26647D01*
X26257Y93961D01*
X25926Y93740D01*
X25705Y93409D01*
X25628Y93019D01*
Y87507D01*
X25705Y87117D01*
X25926Y86786D01*
X26257Y86565D01*
X26647Y86488D01*
X32553D01*
X32943Y86565D01*
X33274Y86786D01*
X33495Y87117D01*
X33572Y87507D01*
Y87969D01*
X34187D01*
X36874Y85281D01*
Y81529D01*
X34701D01*
X34311Y81451D01*
X33980Y81230D01*
X33759Y80900D01*
X33681Y80510D01*
Y79394D01*
X21691D01*
X21649Y79496D01*
X20888Y80488D01*
X19895Y81249D01*
X18740Y81728D01*
X17500Y81891D01*
X16260Y81728D01*
X15104Y81249D01*
X14112Y80488D01*
X13351Y79496D01*
X12872Y78340D01*
X12709Y77100D01*
X12872Y75860D01*
X13351Y74704D01*
X14112Y73712D01*
X15104Y72951D01*
X16260Y72472D01*
X17500Y72309D01*
X18740Y72472D01*
X19895Y72951D01*
X20888Y73712D01*
X21649Y74704D01*
X21691Y74806D01*
X33681D01*
Y73691D01*
X33759Y73300D01*
X33980Y72970D01*
X34311Y72749D01*
X34701Y72671D01*
X36874D01*
Y61772D01*
X36413D01*
X36022Y61695D01*
X35692Y61474D01*
X35471Y61143D01*
X35393Y60753D01*
Y54847D01*
X35471Y54457D01*
X35692Y54126D01*
X36022Y53905D01*
X36413Y53828D01*
X41924D01*
X42315Y53905D01*
X42645Y54126D01*
X42866Y54457D01*
X42944Y54847D01*
Y60753D01*
X42866Y61143D01*
X42645Y61474D01*
X42315Y61695D01*
X41924Y61772D01*
X41463D01*
Y72671D01*
X46433D01*
X46673Y72719D01*
Y69423D01*
X46751Y69033D01*
X46972Y68702D01*
X47303Y68481D01*
X47693Y68403D01*
X47958D01*
Y55902D01*
X43039Y50984D01*
X42542Y50239D01*
X42367Y49361D01*
Y46872D01*
X41906D01*
X41515Y46795D01*
X41185Y46574D01*
X40964Y46243D01*
X40886Y45853D01*
Y39947D01*
X40964Y39557D01*
X41185Y39226D01*
X41515Y39005D01*
X41906Y38928D01*
X47417D01*
X47807Y39005D01*
X48138Y39226D01*
X48359Y39557D01*
X48437Y39947D01*
Y40606D01*
X61965D01*
Y40144D01*
X62042Y39754D01*
X62263Y39423D01*
X62594Y39202D01*
X62984Y39125D01*
X68890D01*
X69280Y39202D01*
X69611Y39423D01*
X69832Y39754D01*
X69909Y40144D01*
Y40606D01*
X75962D01*
Y37388D01*
X76040Y36998D01*
X76261Y36667D01*
X76592Y36446D01*
X76982Y36369D01*
X82887D01*
X83278Y36446D01*
X83608Y36667D01*
X83829Y36998D01*
X83907Y37388D01*
Y48412D01*
X83829Y48802D01*
X83608Y49133D01*
X83278Y49354D01*
X82887Y49431D01*
X76982D01*
X76592Y49354D01*
X76261Y49133D01*
X76040Y48802D01*
X75962Y48412D01*
Y45194D01*
X69909D01*
Y45656D01*
X69832Y46046D01*
X69611Y46377D01*
X69280Y46598D01*
X68890Y46676D01*
X62984D01*
X62594Y46598D01*
X62263Y46377D01*
X62042Y46046D01*
X61965Y45656D01*
Y45194D01*
X48437D01*
Y45853D01*
X48359Y46243D01*
X48138Y46574D01*
X47807Y46795D01*
X47417Y46872D01*
X46955D01*
Y48411D01*
X51874Y53330D01*
X52371Y54074D01*
X52546Y54952D01*
Y68403D01*
X52811D01*
X53201Y68481D01*
X53532Y68702D01*
X53665Y68900D01*
X57955D01*
X61514Y65341D01*
X61472Y65240D01*
X61309Y64000D01*
X61472Y62760D01*
X61951Y61604D01*
X62712Y60612D01*
X63705Y59851D01*
X64860Y59372D01*
X66100Y59209D01*
X67340Y59372D01*
X68496Y59851D01*
X69488Y60612D01*
X70249Y61604D01*
X70728Y62760D01*
X70891Y64000D01*
X70728Y65240D01*
X70249Y66395D01*
X69488Y67388D01*
X68496Y68149D01*
X67340Y68628D01*
X66100Y68791D01*
X64860Y68628D01*
X64759Y68586D01*
X60528Y72817D01*
X59783Y73314D01*
X58906Y73489D01*
X53665D01*
X53532Y73687D01*
X53201Y73908D01*
X52811Y73986D01*
X47693D01*
X47453Y73938D01*
Y74309D01*
X47665D01*
X47693Y74303D01*
X52811D01*
X53201Y74381D01*
X53532Y74602D01*
X53753Y74933D01*
X53831Y75323D01*
Y75328D01*
X53831Y75328D01*
Y78872D01*
X53753Y79262D01*
X53532Y79593D01*
X53201Y79814D01*
X52811Y79891D01*
X47453D01*
Y80262D01*
X47693Y80214D01*
X52811D01*
X53201Y80292D01*
X53532Y80513D01*
X53665Y80711D01*
X59665D01*
Y80302D01*
X59742Y79911D01*
X59963Y79581D01*
X60294Y79360D01*
X60684Y79282D01*
X66590D01*
X66980Y79360D01*
X67311Y79581D01*
X67532Y79911D01*
X67609Y80302D01*
Y80763D01*
X71925D01*
Y77488D01*
X72003Y77098D01*
X72224Y76767D01*
X72555Y76546D01*
X72945Y76469D01*
X78850D01*
X79241Y76546D01*
X79571Y76767D01*
X79792Y77098D01*
X79870Y77488D01*
Y88512D01*
X79792Y88902D01*
X79571Y89233D01*
X79241Y89454D01*
X78850Y89531D01*
X72945D01*
X72555Y89454D01*
X72224Y89233D01*
X72003Y88902D01*
X71925Y88512D01*
Y85352D01*
X67609D01*
Y85813D01*
X67532Y86204D01*
X67311Y86534D01*
X66980Y86755D01*
X66590Y86833D01*
X60684D01*
X60294Y86755D01*
X59963Y86534D01*
X59742Y86204D01*
X59665Y85813D01*
Y85300D01*
X53665D01*
X53532Y85498D01*
X53201Y85719D01*
X52811Y85797D01*
X52546D01*
Y94502D01*
X54196Y96152D01*
X54694Y96896D01*
X54868Y97774D01*
Y103728D01*
X55330D01*
X55720Y103805D01*
X56051Y104026D01*
X56272Y104357D01*
X56349Y104747D01*
Y105406D01*
X62309D01*
X62351Y105305D01*
X63112Y104312D01*
X64104Y103551D01*
X65260Y103072D01*
X66500Y102909D01*
X67740Y103072D01*
X68896Y103551D01*
X69888Y104312D01*
X70649Y105305D01*
X70691Y105406D01*
X76525D01*
Y104747D01*
X76602Y104357D01*
X76823Y104026D01*
X77154Y103805D01*
X77544Y103728D01*
X83056D01*
X83446Y103805D01*
X83777Y104026D01*
X83998Y104357D01*
X84075Y104747D01*
Y110653D01*
X83998Y111043D01*
X83777Y111374D01*
X83446Y111595D01*
X83056Y111672D01*
X77544D01*
X77154Y111595D01*
X76823Y111374D01*
X76602Y111043D01*
X76525Y110653D01*
Y109994D01*
X70691D01*
X70649Y110096D01*
X69888Y111088D01*
X68896Y111849D01*
X67740Y112328D01*
X66500Y112491D01*
D02*
G37*
G36*
X5000Y148530D02*
X4086Y148410D01*
X3235Y148057D01*
X2504Y147496D01*
X1943Y146765D01*
X1590Y145914D01*
X1470Y145000D01*
X1590Y144086D01*
X1943Y143235D01*
X2504Y142504D01*
X3235Y141943D01*
X4086Y141590D01*
X5000Y141470D01*
X5914Y141590D01*
X6765Y141943D01*
X7496Y142504D01*
X8057Y143235D01*
X8410Y144086D01*
X8530Y145000D01*
X8410Y145914D01*
X8057Y146765D01*
X7496Y147496D01*
X6765Y148057D01*
X5914Y148410D01*
X5000Y148530D01*
D02*
G37*
G36*
X137000Y100519D02*
X135890Y100373D01*
X134857Y99944D01*
X133969Y99263D01*
X133288Y98375D01*
X132859Y97342D01*
X132713Y96232D01*
X132859Y95122D01*
X133288Y94089D01*
X133969Y93201D01*
X134706Y92635D01*
Y78972D01*
X134047D01*
X133657Y78895D01*
X133326Y78674D01*
X133105Y78343D01*
X133028Y77953D01*
Y77294D01*
X117675D01*
Y77965D01*
X117598Y78355D01*
X117377Y78685D01*
X117046Y78907D01*
X116656Y78984D01*
X111144D01*
X110754Y78907D01*
X110423Y78685D01*
X110202Y78355D01*
X110125Y77965D01*
Y72059D01*
X110202Y71669D01*
X110423Y71338D01*
X110754Y71117D01*
X111144Y71039D01*
X116656D01*
X117046Y71117D01*
X117377Y71338D01*
X117598Y71669D01*
X117675Y72059D01*
Y72706D01*
X133028D01*
Y72047D01*
X133105Y71657D01*
X133326Y71326D01*
X133657Y71105D01*
X134047Y71028D01*
X139953D01*
X140343Y71105D01*
X140674Y71326D01*
X140895Y71657D01*
X140972Y72047D01*
Y77953D01*
X140895Y78343D01*
X140674Y78674D01*
X140343Y78895D01*
X139953Y78972D01*
X139294D01*
Y92635D01*
X140031Y93201D01*
X140712Y94089D01*
X141141Y95122D01*
X141287Y96232D01*
X141141Y97342D01*
X140712Y98375D01*
X140031Y99263D01*
X139143Y99944D01*
X138110Y100373D01*
X137000Y100519D01*
D02*
G37*
%LPD*%
G36*
X46433Y78872D02*
X52811D01*
Y75328D01*
X46433D01*
Y73691D01*
X34701D01*
Y80510D01*
X46433D01*
Y78872D01*
D02*
G37*
D10*
X29600Y98137D02*
D03*
Y90263D02*
D03*
X65937Y42900D02*
D03*
Y35026D02*
D03*
X63637Y83057D02*
D03*
Y90931D02*
D03*
D11*
X44700Y107700D02*
D03*
X52574D02*
D03*
X80300D02*
D03*
X88174D02*
D03*
X113900Y65012D02*
D03*
X106026D02*
D03*
X36787Y42900D02*
D03*
X44661D02*
D03*
X31295Y57800D02*
D03*
X39169D02*
D03*
X113900Y75012D02*
D03*
X106026D02*
D03*
D12*
X5000Y145000D02*
D03*
Y5000D02*
D03*
X145000D02*
D03*
X22507Y57800D02*
D03*
X27800Y42900D02*
D03*
D13*
X12200Y98100D02*
D03*
X104000Y107700D02*
D03*
X66100Y64000D02*
D03*
X66500Y107700D02*
D03*
X17500Y77100D02*
D03*
D14*
X92139Y42900D02*
D03*
X79935D02*
D03*
X88102Y83000D02*
D03*
X75898D02*
D03*
D15*
X50252Y77095D02*
D03*
Y83005D02*
D03*
Y71194D02*
D03*
D16*
X104000Y107700D02*
Y133000D01*
X44700Y107700D02*
Y129200D01*
X92139Y42900D02*
Y65139D01*
X96700Y69700D01*
Y81032D01*
X104000Y88332D01*
Y107700D01*
X33300D02*
X44700D01*
X29600Y104000D02*
X33300Y107700D01*
X29600Y98137D02*
Y104000D01*
X39169Y77100D02*
Y86231D01*
X35137Y90263D02*
X39169Y86231D01*
X29600Y90263D02*
X35137D01*
X17500Y77100D02*
X39169D01*
Y57800D02*
Y77100D01*
X12200Y98100D02*
X12237Y98137D01*
X29600D01*
X66500Y107700D02*
X80300D01*
X52574D02*
X66500D01*
X88174D02*
X104000D01*
X80300D02*
X80363Y107637D01*
X44661Y42900D02*
X65937D01*
X137000Y75000D02*
Y96232D01*
X106026Y65012D02*
Y75012D01*
X22507Y57800D02*
X31295D01*
X100000Y137000D02*
X104000Y133000D01*
X44700Y129200D02*
X52500Y137000D01*
X59755Y144255D01*
X82745D01*
X90000Y137000D01*
X50247Y77100D02*
X50252Y77095D01*
X63637Y83057D02*
X75840D01*
X75898Y83000D01*
X28380Y42900D02*
X36787D01*
X28100Y43180D02*
X28380Y42900D01*
X65937D02*
X79935D01*
X79935Y42900D01*
X113912Y75000D02*
X137000D01*
X52574Y97774D02*
Y107700D01*
X50252Y95452D02*
X52574Y97774D01*
X50252Y83005D02*
Y95452D01*
Y83005D02*
X63585D01*
X63637Y83057D01*
X50252Y54952D02*
Y71194D01*
X44661Y49361D02*
X50252Y54952D01*
X44661Y42900D02*
Y49361D01*
X39169Y77100D02*
X50247D01*
X50252Y71194D02*
X58906D01*
X66100Y64000D01*
D17*
X74000Y22500D02*
D03*
X137000Y96232D02*
D03*
D18*
X22500Y127500D02*
D03*
X127500D02*
D03*
X22500Y22500D02*
D03*
X127500D02*
D03*
D19*
X90000Y137000D02*
D03*
X52500D02*
D03*
D20*
X100000D02*
D03*
X137000Y65000D02*
D03*
X62500Y137000D02*
D03*
D21*
X137000Y75000D02*
D03*
M02*
