G04 Layer_Color=32896*
%FSLAX25Y25*%
%MOIN*%
G70*
G01*
G75*
%ADD21C,0.01000*%
%ADD23C,0.00787*%
%ADD24C,0.00500*%
D21*
X43747Y130640D02*
G03*
X43747Y130640I-5315J0D01*
G01*
X45140Y68940D02*
G03*
X45140Y68940I-5315J0D01*
G01*
X182403Y96740D02*
G03*
X182403Y96740I-5315J0D01*
G01*
X234818Y129400D02*
G03*
X234818Y129400I-5315J0D01*
G01*
X235603Y67240D02*
G03*
X235603Y67240I-5315J0D01*
G01*
X374015Y96454D02*
G03*
X374015Y96454I-5315J0D01*
G01*
X579726Y95600D02*
G03*
X579726Y95600I-5315J0D01*
G01*
X90203Y97340D02*
G03*
X90203Y97340I-5315J0D01*
G01*
X138147Y130240D02*
G03*
X138147Y130240I-5315J0D01*
G01*
X139040Y67940D02*
G03*
X139040Y67940I-5315J0D01*
G01*
X281975Y95800D02*
G03*
X281975Y95800I-5315J0D01*
G01*
X332358Y129660D02*
G03*
X332358Y129660I-5315J0D01*
G01*
X333124Y67400D02*
G03*
X333124Y67400I-5315J0D01*
G01*
X434915Y128700D02*
G03*
X434915Y128700I-5315J0D01*
G01*
X435709Y66600D02*
G03*
X435709Y66600I-5315J0D01*
G01*
X476372Y95900D02*
G03*
X476372Y95900I-5315J0D01*
G01*
X538769Y128800D02*
G03*
X538769Y128800I-5315J0D01*
G01*
X539563Y66040D02*
G03*
X539563Y66040I-5315J0D01*
G01*
X39705Y175000D02*
G03*
X39705Y175000I-14705J0D01*
G01*
Y25000D02*
G03*
X39705Y25000I-14705J0D01*
G01*
X589705Y175000D02*
G03*
X589705Y175000I-14705J0D01*
G01*
Y25000D02*
G03*
X589705Y25000I-14705J0D01*
G01*
X206160Y141200D02*
X284860D01*
X206160Y55740D02*
X284860D01*
X306000Y141200D02*
X377200D01*
X15088Y143500D02*
X93288D01*
X15088Y57240D02*
X93288D01*
X512211Y141200D02*
X583011D01*
X306000Y55400D02*
X377200D01*
X512211Y54440D02*
X583011D01*
X408157Y55000D02*
X479357D01*
X110700Y142100D02*
X185588D01*
X110700Y55840D02*
X185588D01*
X408157Y141200D02*
X479357D01*
X206160Y55740D02*
Y141200D01*
X15088Y57240D02*
Y143500D01*
X93288Y57240D02*
Y143500D01*
X110700Y55840D02*
Y142100D01*
X185588Y55840D02*
Y142100D01*
X284860Y55740D02*
Y141200D01*
X306000Y55400D02*
Y141200D01*
X377200Y55400D02*
Y141200D01*
X408157Y55000D02*
Y141200D01*
X479357Y55000D02*
Y141200D01*
X512211Y54440D02*
Y141200D01*
X583011Y54440D02*
Y141200D01*
D23*
X558583Y86000D02*
Y91200D01*
X547283Y86000D02*
X558583D01*
X547283D02*
Y87000D01*
Y104200D02*
Y105200D01*
X558583D01*
Y100000D02*
Y105200D01*
X35888Y76881D02*
Y81999D01*
X78800Y106138D02*
Y110862D01*
X150483Y81058D02*
X153632D01*
X150483Y70822D02*
X153632D01*
X150413Y120658D02*
X153563D01*
X150413Y110422D02*
X153563D01*
X173600Y106038D02*
Y110762D01*
X226360Y74981D02*
Y80099D01*
X344397Y119978D02*
X347546D01*
X344397Y109742D02*
X347546D01*
X344425Y80618D02*
X347575D01*
X344425Y70382D02*
X347575D01*
X426457Y102941D02*
Y108059D01*
X447282Y80218D02*
X450431D01*
X447282Y69982D02*
X450431D01*
X426457Y74941D02*
Y80059D01*
X530311Y102381D02*
Y107499D01*
Y74181D02*
Y79299D01*
X571900Y104238D02*
Y108962D01*
X550436Y79458D02*
X553586D01*
X550436Y69222D02*
X553586D01*
X35488Y113778D02*
Y118502D01*
X35888Y94691D02*
Y99809D01*
Y85881D02*
Y90999D01*
Y104381D02*
Y109499D01*
X129288Y113278D02*
Y118002D01*
X129600Y76441D02*
Y81559D01*
X129588Y94281D02*
Y99399D01*
X129688Y103481D02*
Y108599D01*
X225960Y112338D02*
Y117062D01*
X226360Y93241D02*
Y98359D01*
Y102881D02*
Y107999D01*
X271000Y105238D02*
Y109962D01*
X323500Y112498D02*
Y117222D01*
X323872Y84801D02*
Y89919D01*
Y102901D02*
Y108019D01*
Y93895D02*
Y99013D01*
X343800Y127101D02*
Y132219D01*
X352572Y86860D02*
Y92060D01*
X341272Y86860D02*
X352572D01*
X341272D02*
Y87860D01*
Y105060D02*
Y106060D01*
X352572D01*
Y100860D02*
Y106060D01*
X447282Y119618D02*
X450431D01*
X447282Y109382D02*
X450431D01*
X446657Y126141D02*
Y131259D01*
X426457Y84441D02*
Y89559D01*
Y93395D02*
Y98513D01*
X529911Y112138D02*
Y116862D01*
X530311Y83781D02*
Y88899D01*
Y93035D02*
Y98154D01*
X550408Y119618D02*
X553557D01*
X550408Y109382D02*
X553557D01*
X549713Y126241D02*
Y131359D01*
X129600Y85441D02*
Y90559D01*
X226360Y84281D02*
Y89399D01*
X323900Y75541D02*
Y80659D01*
X426057Y112176D02*
Y116900D01*
X455428Y86360D02*
Y91560D01*
X444128Y86360D02*
X455428D01*
X444128D02*
Y87360D01*
Y104560D02*
Y105560D01*
X455428D01*
Y100360D02*
Y105560D01*
X55913Y81758D02*
X59063D01*
X55913Y71522D02*
X59063D01*
X55913Y121258D02*
X59063D01*
X55913Y111022D02*
X59063D01*
X246957Y79118D02*
X250106D01*
X246957Y68882D02*
X250106D01*
X246857Y119818D02*
X250006D01*
X246857Y109582D02*
X250006D01*
X467028Y103998D02*
Y108722D01*
X55288Y127900D02*
Y133018D01*
X149788Y127681D02*
Y132799D01*
X246232Y126841D02*
Y131959D01*
X366200Y105138D02*
Y109862D01*
X64088Y87740D02*
Y92940D01*
X52788Y87740D02*
X64088D01*
X52788D02*
Y88740D01*
Y105940D02*
Y106940D01*
X64088D01*
Y101740D02*
Y106940D01*
X158588Y87140D02*
Y92340D01*
X147288Y87140D02*
X158588D01*
X147288D02*
Y88140D01*
Y105340D02*
Y106340D01*
X158588D01*
Y101140D02*
Y106340D01*
X255031Y86200D02*
Y91400D01*
X243731Y86200D02*
X255031D01*
X243731D02*
Y87200D01*
Y104400D02*
Y105400D01*
X255031D01*
Y100200D02*
Y105400D01*
D24*
X45131Y124539D02*
X43132D01*
X44132D01*
Y121540D01*
X42132D02*
Y124539D01*
X40633D01*
X40133Y124039D01*
Y123040D01*
X40633Y122540D01*
X42132D01*
X39133Y121040D02*
X37134D01*
X34135Y124539D02*
X36134D01*
Y121540D01*
X34135D01*
X36134Y123040D02*
X35135D01*
X33135Y121540D02*
X32136D01*
X32636D01*
Y124539D01*
X33135Y124039D01*
X28637Y121540D02*
X30636D01*
X28637Y123539D01*
Y124039D01*
X29137Y124539D01*
X30136D01*
X30636Y124039D01*
X139532Y123739D02*
X137532D01*
X138532D01*
Y120740D01*
X136532D02*
Y123739D01*
X135033D01*
X134533Y123239D01*
Y122240D01*
X135033Y121740D01*
X136532D01*
X133533Y120240D02*
X131534D01*
X128535Y123739D02*
X130534D01*
Y120740D01*
X128535D01*
X130534Y122240D02*
X129535D01*
X127535Y120740D02*
X126536D01*
X127035D01*
Y123739D01*
X127535Y123239D01*
X125036Y120740D02*
X124037D01*
X124536D01*
Y123739D01*
X125036Y123239D01*
X236260Y123039D02*
X234261D01*
X235260D01*
Y120040D01*
X233261D02*
Y123039D01*
X231761D01*
X231261Y122539D01*
Y121540D01*
X231761Y121040D01*
X233261D01*
X230262Y119540D02*
X228262D01*
X225263Y123039D02*
X227263D01*
Y120040D01*
X225263D01*
X227263Y121540D02*
X226263D01*
X224264Y120040D02*
X223264D01*
X223764D01*
Y123039D01*
X224264Y122539D01*
X221764D02*
X221265Y123039D01*
X220265D01*
X219765Y122539D01*
Y120540D01*
X220265Y120040D01*
X221265D01*
X221764Y120540D01*
Y122539D01*
X333843Y123359D02*
X331844D01*
X332844D01*
Y120360D01*
X330844D02*
Y123359D01*
X329345D01*
X328845Y122859D01*
Y121859D01*
X329345Y121360D01*
X330844D01*
X327845Y119860D02*
X325846D01*
X322847Y123359D02*
X324846D01*
Y120360D01*
X322847D01*
X324846Y121859D02*
X323847D01*
X321847Y120860D02*
X321347Y120360D01*
X320348D01*
X319848Y120860D01*
Y122859D01*
X320348Y123359D01*
X321347D01*
X321847Y122859D01*
Y122359D01*
X321347Y121859D01*
X319848D01*
X436100Y122399D02*
X434101D01*
X435100D01*
Y119400D01*
X433101D02*
Y122399D01*
X431601D01*
X431102Y121899D01*
Y120899D01*
X431601Y120400D01*
X433101D01*
X430102Y118900D02*
X428103D01*
X425104Y122399D02*
X427103D01*
Y119400D01*
X425104D01*
X427103Y120899D02*
X426103D01*
X424104Y121899D02*
X423604Y122399D01*
X422604D01*
X422105Y121899D01*
Y121399D01*
X422604Y120899D01*
X422105Y120400D01*
Y119900D01*
X422604Y119400D01*
X423604D01*
X424104Y119900D01*
Y120400D01*
X423604Y120899D01*
X424104Y121399D01*
Y121899D01*
X423604Y120899D02*
X422604D01*
X540054Y122199D02*
X538055D01*
X539055D01*
Y119200D01*
X537055D02*
Y122199D01*
X535556D01*
X535056Y121699D01*
Y120700D01*
X535556Y120200D01*
X537055D01*
X534056Y118700D02*
X532057D01*
X529058Y122199D02*
X531057D01*
Y119200D01*
X529058D01*
X531057Y120700D02*
X530058D01*
X528058Y122199D02*
X526059D01*
Y121699D01*
X528058Y119700D01*
Y119200D01*
X91688Y91139D02*
X89689D01*
X90689D01*
Y88140D01*
X88689D02*
Y91139D01*
X87190D01*
X86690Y90639D01*
Y89640D01*
X87190Y89140D01*
X88689D01*
X85690Y87640D02*
X83691D01*
X80692Y90639D02*
X81192Y91139D01*
X82191D01*
X82691Y90639D01*
Y88640D01*
X82191Y88140D01*
X81192D01*
X80692Y88640D01*
X79692Y88140D02*
X78692D01*
X79192D01*
Y91139D01*
X79692Y90639D01*
X75194Y88140D02*
X77193D01*
X75194Y90140D01*
Y90639D01*
X75693Y91139D01*
X76693D01*
X77193Y90639D01*
X183988Y90139D02*
X181989D01*
X182989D01*
Y87140D01*
X180989D02*
Y90139D01*
X179490D01*
X178990Y89639D01*
Y88640D01*
X179490Y88140D01*
X180989D01*
X177990Y86640D02*
X175991D01*
X172992Y89639D02*
X173492Y90139D01*
X174491D01*
X174991Y89639D01*
Y87640D01*
X174491Y87140D01*
X173492D01*
X172992Y87640D01*
X171992Y87140D02*
X170992D01*
X171492D01*
Y90139D01*
X171992Y89639D01*
X169493Y87140D02*
X168493D01*
X168993D01*
Y90139D01*
X169493Y89639D01*
X283360Y89299D02*
X281361D01*
X282360D01*
Y86300D01*
X280361D02*
Y89299D01*
X278861D01*
X278361Y88799D01*
Y87800D01*
X278861Y87300D01*
X280361D01*
X277362Y85800D02*
X275362D01*
X272363Y88799D02*
X272863Y89299D01*
X273863D01*
X274363Y88799D01*
Y86800D01*
X273863Y86300D01*
X272863D01*
X272363Y86800D01*
X271364Y86300D02*
X270364D01*
X270864D01*
Y89299D01*
X271364Y88799D01*
X268864D02*
X268365Y89299D01*
X267365D01*
X266865Y88799D01*
Y86800D01*
X267365Y86300D01*
X268365D01*
X268864Y86800D01*
Y88799D01*
X375600Y90253D02*
X373601D01*
X374600D01*
Y87254D01*
X372601D02*
Y90253D01*
X371101D01*
X370602Y89754D01*
Y88754D01*
X371101Y88254D01*
X372601D01*
X369602Y86755D02*
X367603D01*
X364604Y89754D02*
X365103Y90253D01*
X366103D01*
X366603Y89754D01*
Y87754D01*
X366103Y87254D01*
X365103D01*
X364604Y87754D01*
X363604D02*
X363104Y87254D01*
X362104D01*
X361604Y87754D01*
Y89754D01*
X362104Y90253D01*
X363104D01*
X363604Y89754D01*
Y89254D01*
X363104Y88754D01*
X361604D01*
X477957Y89699D02*
X475957D01*
X476957D01*
Y86700D01*
X474958D02*
Y89699D01*
X473458D01*
X472958Y89199D01*
Y88200D01*
X473458Y87700D01*
X474958D01*
X471959Y86200D02*
X469959D01*
X466960Y89199D02*
X467460Y89699D01*
X468460D01*
X468960Y89199D01*
Y87200D01*
X468460Y86700D01*
X467460D01*
X466960Y87200D01*
X465961Y89199D02*
X465461Y89699D01*
X464461D01*
X463961Y89199D01*
Y88699D01*
X464461Y88200D01*
X463961Y87700D01*
Y87200D01*
X464461Y86700D01*
X465461D01*
X465961Y87200D01*
Y87700D01*
X465461Y88200D01*
X465961Y88699D01*
Y89199D01*
X465461Y88200D02*
X464461D01*
X581211Y89299D02*
X579212D01*
X580211D01*
Y86300D01*
X578212D02*
Y89299D01*
X576713D01*
X576213Y88799D01*
Y87800D01*
X576713Y87300D01*
X578212D01*
X575213Y85800D02*
X573214D01*
X570215Y88799D02*
X570715Y89299D01*
X571714D01*
X572214Y88799D01*
Y86800D01*
X571714Y86300D01*
X570715D01*
X570215Y86800D01*
X569215Y89299D02*
X567216D01*
Y88799D01*
X569215Y86800D01*
Y86300D01*
X46625Y62739D02*
X44626D01*
X45625D01*
Y59740D01*
X43626D02*
Y62739D01*
X42127D01*
X41627Y62239D01*
Y61240D01*
X42127Y60740D01*
X43626D01*
X40627Y59240D02*
X38628D01*
X37628Y62739D02*
Y59740D01*
X36129D01*
X35629Y60240D01*
Y60740D01*
X36129Y61240D01*
X37628D01*
X36129D01*
X35629Y61739D01*
Y62239D01*
X36129Y62739D01*
X37628D01*
X34629Y59740D02*
X33629D01*
X34129D01*
Y62739D01*
X34629Y62239D01*
X30130Y59740D02*
X32130D01*
X30130Y61739D01*
Y62239D01*
X30630Y62739D01*
X31630D01*
X32130Y62239D01*
X140354Y61179D02*
X138354D01*
X139354D01*
Y58180D01*
X137355D02*
Y61179D01*
X135855D01*
X135355Y60680D01*
Y59680D01*
X135855Y59180D01*
X137355D01*
X134355Y57680D02*
X132356D01*
X131357Y61179D02*
Y58180D01*
X129857D01*
X129357Y58680D01*
Y59180D01*
X129857Y59680D01*
X131357D01*
X129857D01*
X129357Y60180D01*
Y60680D01*
X129857Y61179D01*
X131357D01*
X128357Y58180D02*
X127358D01*
X127858D01*
Y61179D01*
X128357Y60680D01*
X125858Y58180D02*
X124859D01*
X125358D01*
Y61179D01*
X125858Y60680D01*
X236888Y61139D02*
X234889D01*
X235888D01*
Y58140D01*
X233889D02*
Y61139D01*
X232389D01*
X231890Y60639D01*
Y59640D01*
X232389Y59140D01*
X233889D01*
X230890Y57640D02*
X228891D01*
X227891Y61139D02*
Y58140D01*
X226391D01*
X225892Y58640D01*
Y59140D01*
X226391Y59640D01*
X227891D01*
X226391D01*
X225892Y60140D01*
Y60639D01*
X226391Y61139D01*
X227891D01*
X224892Y58140D02*
X223892D01*
X224392D01*
Y61139D01*
X224892Y60639D01*
X222393D02*
X221893Y61139D01*
X220893D01*
X220393Y60639D01*
Y58640D01*
X220893Y58140D01*
X221893D01*
X222393Y58640D01*
Y60639D01*
X334509Y60799D02*
X332509D01*
X333509D01*
Y57800D01*
X331510D02*
Y60799D01*
X330010D01*
X329510Y60299D01*
Y59299D01*
X330010Y58800D01*
X331510D01*
X328511Y57300D02*
X326511D01*
X325512Y60799D02*
Y57800D01*
X324012D01*
X323512Y58300D01*
Y58800D01*
X324012Y59299D01*
X325512D01*
X324012D01*
X323512Y59799D01*
Y60299D01*
X324012Y60799D01*
X325512D01*
X322513Y58300D02*
X322013Y57800D01*
X321013D01*
X320513Y58300D01*
Y60299D01*
X321013Y60799D01*
X322013D01*
X322513Y60299D01*
Y59799D01*
X322013Y59299D01*
X320513D01*
X437094Y60399D02*
X435094D01*
X436094D01*
Y57400D01*
X434095D02*
Y60399D01*
X432595D01*
X432095Y59899D01*
Y58899D01*
X432595Y58400D01*
X434095D01*
X431096Y56900D02*
X429096D01*
X428097Y60399D02*
Y57400D01*
X426597D01*
X426097Y57900D01*
Y58400D01*
X426597Y58899D01*
X428097D01*
X426597D01*
X426097Y59399D01*
Y59899D01*
X426597Y60399D01*
X428097D01*
X425098Y59899D02*
X424598Y60399D01*
X423598D01*
X423098Y59899D01*
Y59399D01*
X423598Y58899D01*
X423098Y58400D01*
Y57900D01*
X423598Y57400D01*
X424598D01*
X425098Y57900D01*
Y58400D01*
X424598Y58899D01*
X425098Y59399D01*
Y59899D01*
X424598Y58899D02*
X423598D01*
X540948Y59539D02*
X538949D01*
X539948D01*
Y56540D01*
X537949D02*
Y59539D01*
X536449D01*
X535950Y59039D01*
Y58040D01*
X536449Y57540D01*
X537949D01*
X534950Y56040D02*
X532951D01*
X531951Y59539D02*
Y56540D01*
X530451D01*
X529952Y57040D01*
Y57540D01*
X530451Y58040D01*
X531951D01*
X530451D01*
X529952Y58539D01*
Y59039D01*
X530451Y59539D01*
X531951D01*
X528952D02*
X526953D01*
Y59039D01*
X528952Y57040D01*
Y56540D01*
X27446Y105282D02*
Y108281D01*
X25947D01*
X25447Y107781D01*
Y106781D01*
X25947Y106282D01*
X27446D01*
X26447D02*
X25447Y105282D01*
X24447Y107781D02*
X22448Y105782D01*
X24447D02*
X22448Y107781D01*
X24447Y106781D02*
X22448D01*
X23448Y105782D02*
Y107781D01*
X21448Y105282D02*
X20449D01*
X20949D01*
Y108281D01*
X21448Y107781D01*
X16950Y105282D02*
X18949D01*
X16950Y107281D01*
Y107781D01*
X17450Y108281D01*
X18449D01*
X18949Y107781D01*
X121488Y104140D02*
Y107139D01*
X119989D01*
X119489Y106639D01*
Y105640D01*
X119989Y105140D01*
X121488D01*
X120489D02*
X119489Y104140D01*
X118489Y106639D02*
X116490Y104640D01*
X118489D02*
X116490Y106639D01*
X118489Y105640D02*
X116490D01*
X117490Y104640D02*
Y106639D01*
X115490Y104140D02*
X114490D01*
X114990D01*
Y107139D01*
X115490Y106639D01*
X112991Y104140D02*
X111991D01*
X112491D01*
Y107139D01*
X112991Y106639D01*
X218360Y103940D02*
Y106939D01*
X216860D01*
X216360Y106439D01*
Y105440D01*
X216860Y104940D01*
X218360D01*
X217360D02*
X216360Y103940D01*
X215361Y106439D02*
X213361Y104440D01*
X215361D02*
X213361Y106439D01*
X215361Y105440D02*
X213361D01*
X214361Y104440D02*
Y106439D01*
X212362Y103940D02*
X211362D01*
X211862D01*
Y106939D01*
X212362Y106439D01*
X209863D02*
X209363Y106939D01*
X208363D01*
X207863Y106439D01*
Y104440D01*
X208363Y103940D01*
X209363D01*
X209863Y104440D01*
Y106439D01*
X315700Y103900D02*
Y106899D01*
X314200D01*
X313701Y106399D01*
Y105400D01*
X314200Y104900D01*
X315700D01*
X314700D02*
X313701Y103900D01*
X312701Y106399D02*
X310702Y104400D01*
X312701D02*
X310702Y106399D01*
X312701Y105400D02*
X310702D01*
X311701Y104400D02*
Y106399D01*
X309702Y104400D02*
X309202Y103900D01*
X308202D01*
X307703Y104400D01*
Y106399D01*
X308202Y106899D01*
X309202D01*
X309702Y106399D01*
Y105899D01*
X309202Y105400D01*
X307703D01*
X418357Y103800D02*
Y106799D01*
X416857D01*
X416357Y106299D01*
Y105299D01*
X416857Y104800D01*
X418357D01*
X417357D02*
X416357Y103800D01*
X415358Y106299D02*
X413358Y104300D01*
X415358D02*
X413358Y106299D01*
X415358Y105299D02*
X413358D01*
X414358Y104300D02*
Y106299D01*
X412359D02*
X411859Y106799D01*
X410859D01*
X410359Y106299D01*
Y105799D01*
X410859Y105299D01*
X410359Y104800D01*
Y104300D01*
X410859Y103800D01*
X411859D01*
X412359Y104300D01*
Y104800D01*
X411859Y105299D01*
X412359Y105799D01*
Y106299D01*
X411859Y105299D02*
X410859D01*
X522311Y103340D02*
Y106339D01*
X520812D01*
X520312Y105839D01*
Y104840D01*
X520812Y104340D01*
X522311D01*
X521311D02*
X520312Y103340D01*
X519312Y105839D02*
X517313Y103840D01*
X519312D02*
X517313Y105839D01*
X519312Y104840D02*
X517313D01*
X518312Y103840D02*
Y105839D01*
X516313Y106339D02*
X514314D01*
Y105839D01*
X516313Y103840D01*
Y103340D01*
X59225Y134459D02*
Y137458D01*
X57726D01*
X57226Y136958D01*
Y135959D01*
X57726Y135459D01*
X59225D01*
X58226D02*
X57226Y134459D01*
X54727D02*
Y137458D01*
X56226Y135959D01*
X54227D01*
X53227Y134959D02*
X52727Y134459D01*
X51728D01*
X51228Y134959D01*
Y136958D01*
X51728Y137458D01*
X52727D01*
X53227Y136958D01*
Y136458D01*
X52727Y135959D01*
X51228D01*
X27388Y78040D02*
Y81039D01*
X25889D01*
X25389Y80539D01*
Y79540D01*
X25889Y79040D01*
X27388D01*
X26388D02*
X25389Y78040D01*
X22890D02*
Y81039D01*
X24389Y79540D01*
X22390D01*
X21390Y80539D02*
X20890Y81039D01*
X19891D01*
X19391Y80539D01*
Y80040D01*
X19891Y79540D01*
X19391Y79040D01*
Y78540D01*
X19891Y78040D01*
X20890D01*
X21390Y78540D01*
Y79040D01*
X20890Y79540D01*
X21390Y80040D01*
Y80539D01*
X20890Y79540D02*
X19891D01*
X153588Y134340D02*
Y137339D01*
X152089D01*
X151589Y136839D01*
Y135840D01*
X152089Y135340D01*
X153588D01*
X152588D02*
X151589Y134340D01*
X149090D02*
Y137339D01*
X150589Y135840D01*
X148590D01*
X147590Y137339D02*
X145591D01*
Y136839D01*
X147590Y134840D01*
Y134340D01*
X121300Y77500D02*
Y80499D01*
X119800D01*
X119301Y79999D01*
Y79000D01*
X119800Y78500D01*
X121300D01*
X120300D02*
X119301Y77500D01*
X116801D02*
Y80499D01*
X118301Y79000D01*
X116302D01*
X113303Y80499D02*
X114302Y79999D01*
X115302Y79000D01*
Y78000D01*
X114802Y77500D01*
X113802D01*
X113303Y78000D01*
Y78500D01*
X113802Y79000D01*
X115302D01*
X253300Y133800D02*
Y136799D01*
X251800D01*
X251301Y136299D01*
Y135300D01*
X251800Y134800D01*
X253300D01*
X252300D02*
X251301Y133800D01*
X248801D02*
Y136799D01*
X250301Y135300D01*
X248302D01*
X245303Y136799D02*
X247302D01*
Y135300D01*
X246302Y135799D01*
X245802D01*
X245303Y135300D01*
Y134300D01*
X245802Y133800D01*
X246802D01*
X247302Y134300D01*
X218160Y75740D02*
Y78739D01*
X216660D01*
X216160Y78239D01*
Y77240D01*
X216660Y76740D01*
X218160D01*
X217160D02*
X216160Y75740D01*
X213661D02*
Y78739D01*
X215161Y77240D01*
X213161D01*
X210662Y75740D02*
Y78739D01*
X212162Y77240D01*
X210162D01*
X27388Y95640D02*
Y98639D01*
X25889D01*
X25389Y98139D01*
Y97140D01*
X25889Y96640D01*
X27388D01*
X26388D02*
X25389Y95640D01*
X22890D02*
Y98639D01*
X24389Y97140D01*
X22390D01*
X21390Y98139D02*
X20890Y98639D01*
X19891D01*
X19391Y98139D01*
Y97640D01*
X19891Y97140D01*
X20390D01*
X19891D01*
X19391Y96640D01*
Y96140D01*
X19891Y95640D01*
X20890D01*
X21390Y96140D01*
X27446Y86840D02*
Y89839D01*
X25947D01*
X25447Y89339D01*
Y88340D01*
X25947Y87840D01*
X27446D01*
X26447D02*
X25447Y86840D01*
X22948D02*
Y89839D01*
X24447Y88340D01*
X22448D01*
X19449Y86840D02*
X21448D01*
X19449Y88840D01*
Y89339D01*
X19949Y89839D01*
X20949D01*
X21448Y89339D01*
X121388Y95140D02*
Y98139D01*
X119889D01*
X119389Y97639D01*
Y96640D01*
X119889Y96140D01*
X121388D01*
X120388D02*
X119389Y95140D01*
X116890D02*
Y98139D01*
X118389Y96640D01*
X116390D01*
X115390Y95140D02*
X114390D01*
X114890D01*
Y98139D01*
X115390Y97639D01*
X121400Y86500D02*
Y89499D01*
X119901D01*
X119401Y88999D01*
Y87999D01*
X119901Y87500D01*
X121400D01*
X120400D02*
X119401Y86500D01*
X116901D02*
Y89499D01*
X118401Y87999D01*
X116402D01*
X115402Y88999D02*
X114902Y89499D01*
X113902D01*
X113403Y88999D01*
Y87000D01*
X113902Y86500D01*
X114902D01*
X115402Y87000D01*
Y88999D01*
X218160Y94040D02*
Y97039D01*
X216660D01*
X216160Y96539D01*
Y95540D01*
X216660Y95040D01*
X218160D01*
X217160D02*
X216160Y94040D01*
X215161Y96539D02*
X214661Y97039D01*
X213661D01*
X213161Y96539D01*
Y96039D01*
X213661Y95540D01*
X214161D01*
X213661D01*
X213161Y95040D01*
Y94540D01*
X213661Y94040D01*
X214661D01*
X215161Y94540D01*
X212162D02*
X211662Y94040D01*
X210662D01*
X210162Y94540D01*
Y96539D01*
X210662Y97039D01*
X211662D01*
X212162Y96539D01*
Y96039D01*
X211662Y95540D01*
X210162D01*
X218160Y85200D02*
Y88199D01*
X216660D01*
X216160Y87699D01*
Y86699D01*
X216660Y86200D01*
X218160D01*
X217160D02*
X216160Y85200D01*
X215161Y87699D02*
X214661Y88199D01*
X213661D01*
X213161Y87699D01*
Y87199D01*
X213661Y86699D01*
X214161D01*
X213661D01*
X213161Y86200D01*
Y85700D01*
X213661Y85200D01*
X214661D01*
X215161Y85700D01*
X212162Y87699D02*
X211662Y88199D01*
X210662D01*
X210162Y87699D01*
Y87199D01*
X210662Y86699D01*
X210162Y86200D01*
Y85700D01*
X210662Y85200D01*
X211662D01*
X212162Y85700D01*
Y86200D01*
X211662Y86699D01*
X212162Y87199D01*
Y87699D01*
X211662Y86699D02*
X210662D01*
X348000Y133960D02*
Y136959D01*
X346500D01*
X346001Y136459D01*
Y135459D01*
X346500Y134959D01*
X348000D01*
X347000D02*
X346001Y133960D01*
X345001Y136459D02*
X344501Y136959D01*
X343501D01*
X343002Y136459D01*
Y135959D01*
X343501Y135459D01*
X344001D01*
X343501D01*
X343002Y134959D01*
Y134460D01*
X343501Y133960D01*
X344501D01*
X345001Y134460D01*
X342002Y136959D02*
X340003D01*
Y136459D01*
X342002Y134460D01*
Y133960D01*
X315600Y76600D02*
Y79599D01*
X314101D01*
X313601Y79099D01*
Y78100D01*
X314101Y77600D01*
X315600D01*
X314600D02*
X313601Y76600D01*
X312601Y79099D02*
X312101Y79599D01*
X311102D01*
X310602Y79099D01*
Y78599D01*
X311102Y78100D01*
X311601D01*
X311102D01*
X310602Y77600D01*
Y77100D01*
X311102Y76600D01*
X312101D01*
X312601Y77100D01*
X307603Y79599D02*
X308602Y79099D01*
X309602Y78100D01*
Y77100D01*
X309102Y76600D01*
X308102D01*
X307603Y77100D01*
Y77600D01*
X308102Y78100D01*
X309602D01*
X450594Y132800D02*
Y135799D01*
X449094D01*
X448594Y135299D01*
Y134300D01*
X449094Y133800D01*
X450594D01*
X449594D02*
X448594Y132800D01*
X447595Y135299D02*
X447095Y135799D01*
X446095D01*
X445595Y135299D01*
Y134799D01*
X446095Y134300D01*
X446595D01*
X446095D01*
X445595Y133800D01*
Y133300D01*
X446095Y132800D01*
X447095D01*
X447595Y133300D01*
X442596Y135799D02*
X444596D01*
Y134300D01*
X443596Y134799D01*
X443096D01*
X442596Y134300D01*
Y133300D01*
X443096Y132800D01*
X444096D01*
X444596Y133300D01*
X418357Y76200D02*
Y79199D01*
X416857D01*
X416357Y78699D01*
Y77700D01*
X416857Y77200D01*
X418357D01*
X417357D02*
X416357Y76200D01*
X415358Y78699D02*
X414858Y79199D01*
X413858D01*
X413358Y78699D01*
Y78199D01*
X413858Y77700D01*
X414358D01*
X413858D01*
X413358Y77200D01*
Y76700D01*
X413858Y76200D01*
X414858D01*
X415358Y76700D01*
X410859Y76200D02*
Y79199D01*
X412359Y77700D01*
X410359D01*
X553650Y133000D02*
Y135999D01*
X552151D01*
X551651Y135499D01*
Y134500D01*
X552151Y134000D01*
X553650D01*
X552651D02*
X551651Y133000D01*
X550651Y135499D02*
X550151Y135999D01*
X549152D01*
X548652Y135499D01*
Y134999D01*
X549152Y134500D01*
X549652D01*
X549152D01*
X548652Y134000D01*
Y133500D01*
X549152Y133000D01*
X550151D01*
X550651Y133500D01*
X547652Y135499D02*
X547153Y135999D01*
X546153D01*
X545653Y135499D01*
Y134999D01*
X546153Y134500D01*
X546653D01*
X546153D01*
X545653Y134000D01*
Y133500D01*
X546153Y133000D01*
X547153D01*
X547652Y133500D01*
X522233Y75140D02*
Y78139D01*
X520733D01*
X520234Y77639D01*
Y76640D01*
X520733Y76140D01*
X522233D01*
X521233D02*
X520234Y75140D01*
X519234Y77639D02*
X518734Y78139D01*
X517734D01*
X517235Y77639D01*
Y77140D01*
X517734Y76640D01*
X518234D01*
X517734D01*
X517235Y76140D01*
Y75640D01*
X517734Y75140D01*
X518734D01*
X519234Y75640D01*
X514236Y75140D02*
X516235D01*
X514236Y77140D01*
Y77639D01*
X514735Y78139D01*
X515735D01*
X516235Y77639D01*
X315600Y94900D02*
Y97899D01*
X314101D01*
X313601Y97399D01*
Y96399D01*
X314101Y95900D01*
X315600D01*
X314600D02*
X313601Y94900D01*
X310602D02*
X312601D01*
X310602Y96899D01*
Y97399D01*
X311102Y97899D01*
X312101D01*
X312601Y97399D01*
X309602Y95400D02*
X309102Y94900D01*
X308102D01*
X307603Y95400D01*
Y97399D01*
X308102Y97899D01*
X309102D01*
X309602Y97399D01*
Y96899D01*
X309102Y96399D01*
X307603D01*
X315700Y85900D02*
Y88899D01*
X314200D01*
X313701Y88399D01*
Y87400D01*
X314200Y86900D01*
X315700D01*
X314700D02*
X313701Y85900D01*
X310702D02*
X312701D01*
X310702Y87899D01*
Y88399D01*
X311202Y88899D01*
X312201D01*
X312701Y88399D01*
X309702D02*
X309202Y88899D01*
X308202D01*
X307703Y88399D01*
Y87899D01*
X308202Y87400D01*
X307703Y86900D01*
Y86400D01*
X308202Y85900D01*
X309202D01*
X309702Y86400D01*
Y86900D01*
X309202Y87400D01*
X309702Y87899D01*
Y88399D01*
X309202Y87400D02*
X308202D01*
X418357Y94600D02*
Y97599D01*
X416857D01*
X416357Y97099D01*
Y96100D01*
X416857Y95600D01*
X418357D01*
X417357D02*
X416357Y94600D01*
X413358D02*
X415358D01*
X413358Y96599D01*
Y97099D01*
X413858Y97599D01*
X414858D01*
X415358Y97099D01*
X412359Y97599D02*
X410359D01*
Y97099D01*
X412359Y95100D01*
Y94600D01*
X418257Y85400D02*
Y88399D01*
X416757D01*
X416257Y87899D01*
Y86900D01*
X416757Y86400D01*
X418257D01*
X417257D02*
X416257Y85400D01*
X413258D02*
X415258D01*
X413258Y87399D01*
Y87899D01*
X413758Y88399D01*
X414758D01*
X415258Y87899D01*
X410259Y88399D02*
X411259Y87899D01*
X412259Y86900D01*
Y85900D01*
X411759Y85400D01*
X410759D01*
X410259Y85900D01*
Y86400D01*
X410759Y86900D01*
X412259D01*
X522311Y94045D02*
Y97044D01*
X520812D01*
X520312Y96544D01*
Y95544D01*
X520812Y95044D01*
X522311D01*
X521311D02*
X520312Y94045D01*
X517313D02*
X519312D01*
X517313Y96044D01*
Y96544D01*
X517812Y97044D01*
X518812D01*
X519312Y96544D01*
X514314Y97044D02*
X516313D01*
Y95544D01*
X515313Y96044D01*
X514814D01*
X514314Y95544D01*
Y94545D01*
X514814Y94045D01*
X515813D01*
X516313Y94545D01*
X522311Y84740D02*
Y87739D01*
X520812D01*
X520312Y87239D01*
Y86240D01*
X520812Y85740D01*
X522311D01*
X521311D02*
X520312Y84740D01*
X517313D02*
X519312D01*
X517313Y86739D01*
Y87239D01*
X517812Y87739D01*
X518812D01*
X519312Y87239D01*
X514814Y84740D02*
Y87739D01*
X516313Y86240D01*
X514314D01*
X70889Y88040D02*
Y90039D01*
X71389Y90539D01*
X72388D01*
X72888Y90039D01*
Y88040D01*
X72388Y87540D01*
X71389D01*
X71889Y88540D02*
X70889Y87540D01*
X71389D02*
X70889Y88040D01*
X69889Y87540D02*
X68889D01*
X69389D01*
Y90539D01*
X69889Y90039D01*
X65391Y87540D02*
X67390D01*
X65391Y89539D01*
Y90039D01*
X65890Y90539D01*
X66890D01*
X67390Y90039D01*
X164389Y87540D02*
Y89539D01*
X164889Y90039D01*
X165888D01*
X166388Y89539D01*
Y87540D01*
X165888Y87040D01*
X164889D01*
X165389Y88040D02*
X164389Y87040D01*
X164889D02*
X164389Y87540D01*
X163389Y87040D02*
X162390D01*
X162889D01*
Y90039D01*
X163389Y89539D01*
X160890Y87040D02*
X159890D01*
X160390D01*
Y90039D01*
X160890Y89539D01*
X261732Y86600D02*
Y88599D01*
X262232Y89099D01*
X263232D01*
X263732Y88599D01*
Y86600D01*
X263232Y86100D01*
X262232D01*
X262732Y87100D02*
X261732Y86100D01*
X262232D02*
X261732Y86600D01*
X260732Y86100D02*
X259733D01*
X260233D01*
Y89099D01*
X260732Y88599D01*
X258233D02*
X257733Y89099D01*
X256734D01*
X256234Y88599D01*
Y86600D01*
X256734Y86100D01*
X257733D01*
X258233Y86600D01*
Y88599D01*
X356872Y87260D02*
Y89259D01*
X357372Y89759D01*
X358372D01*
X358872Y89259D01*
Y87260D01*
X358372Y86760D01*
X357372D01*
X357872Y87760D02*
X356872Y86760D01*
X357372D02*
X356872Y87260D01*
X355873D02*
X355373Y86760D01*
X354373D01*
X353873Y87260D01*
Y89259D01*
X354373Y89759D01*
X355373D01*
X355873Y89259D01*
Y88759D01*
X355373Y88259D01*
X353873D01*
X459629Y86760D02*
Y88759D01*
X460129Y89259D01*
X461129D01*
X461628Y88759D01*
Y86760D01*
X461129Y86260D01*
X460129D01*
X460629Y87260D02*
X459629Y86260D01*
X460129D02*
X459629Y86760D01*
X458629Y88759D02*
X458130Y89259D01*
X457130D01*
X456630Y88759D01*
Y88259D01*
X457130Y87759D01*
X456630Y87260D01*
Y86760D01*
X457130Y86260D01*
X458130D01*
X458629Y86760D01*
Y87260D01*
X458130Y87759D01*
X458629Y88259D01*
Y88759D01*
X458130Y87759D02*
X457130D01*
X562683Y86500D02*
Y88499D01*
X563183Y88999D01*
X564183D01*
X564683Y88499D01*
Y86500D01*
X564183Y86000D01*
X563183D01*
X563683Y87000D02*
X562683Y86000D01*
X563183D02*
X562683Y86500D01*
X561684Y88999D02*
X559684D01*
Y88499D01*
X561684Y86500D01*
Y86000D01*
X80801Y114899D02*
X81300Y115399D01*
X82300D01*
X82800Y114899D01*
Y112900D01*
X82300Y112400D01*
X81300D01*
X80801Y112900D01*
X78301Y112400D02*
Y115399D01*
X79801Y113900D01*
X77802D01*
X76802Y114899D02*
X76302Y115399D01*
X75302D01*
X74803Y114899D01*
Y114399D01*
X75302Y113900D01*
X74803Y113400D01*
Y112900D01*
X75302Y112400D01*
X76302D01*
X76802Y112900D01*
Y113400D01*
X76302Y113900D01*
X76802Y114399D01*
Y114899D01*
X76302Y113900D02*
X75302D01*
X175501Y114899D02*
X176000Y115399D01*
X177000D01*
X177500Y114899D01*
Y112900D01*
X177000Y112400D01*
X176000D01*
X175501Y112900D01*
X173001Y112400D02*
Y115399D01*
X174501Y113900D01*
X172502D01*
X171502Y115399D02*
X169503D01*
Y114899D01*
X171502Y112900D01*
Y112400D01*
X273101Y114099D02*
X273601Y114599D01*
X274600D01*
X275100Y114099D01*
Y112100D01*
X274600Y111600D01*
X273601D01*
X273101Y112100D01*
X270602Y111600D02*
Y114599D01*
X272101Y113100D01*
X270102D01*
X267103Y114599D02*
X268102Y114099D01*
X269102Y113100D01*
Y112100D01*
X268602Y111600D01*
X267602D01*
X267103Y112100D01*
Y112600D01*
X267602Y113100D01*
X269102D01*
X59389Y125239D02*
X59889Y125739D01*
X60888D01*
X61388Y125239D01*
Y123240D01*
X60888Y122740D01*
X59889D01*
X59389Y123240D01*
X56890Y122740D02*
Y125739D01*
X58389Y124240D01*
X56390D01*
X53391Y125739D02*
X55390D01*
Y124240D01*
X54390Y124740D01*
X53891D01*
X53391Y124240D01*
Y123240D01*
X53891Y122740D01*
X54890D01*
X55390Y123240D01*
X153989Y124739D02*
X154489Y125239D01*
X155488D01*
X155988Y124739D01*
Y122740D01*
X155488Y122240D01*
X154489D01*
X153989Y122740D01*
X151490Y122240D02*
Y125239D01*
X152989Y123740D01*
X150990D01*
X148491Y122240D02*
Y125239D01*
X149990Y123740D01*
X147991D01*
X250532Y124099D02*
X251032Y124599D01*
X252032D01*
X252532Y124099D01*
Y122100D01*
X252032Y121600D01*
X251032D01*
X250532Y122100D01*
X248033Y121600D02*
Y124599D01*
X249532Y123100D01*
X247533D01*
X246533Y124099D02*
X246034Y124599D01*
X245034D01*
X244534Y124099D01*
Y123599D01*
X245034Y123100D01*
X245534D01*
X245034D01*
X244534Y122600D01*
Y122100D01*
X245034Y121600D01*
X246034D01*
X246533Y122100D01*
X26089Y117039D02*
X26589Y117539D01*
X27588D01*
X28088Y117039D01*
Y115040D01*
X27588Y114540D01*
X26589D01*
X26089Y115040D01*
X23590Y114540D02*
Y117539D01*
X25089Y116040D01*
X23090D01*
X20091Y114540D02*
X22090D01*
X20091Y116540D01*
Y117039D01*
X20591Y117539D01*
X21590D01*
X22090Y117039D01*
X119889Y116539D02*
X120389Y117039D01*
X121388D01*
X121888Y116539D01*
Y114540D01*
X121388Y114040D01*
X120389D01*
X119889Y114540D01*
X117390Y114040D02*
Y117039D01*
X118889Y115540D01*
X116890D01*
X115890Y114040D02*
X114890D01*
X115390D01*
Y117039D01*
X115890Y116539D01*
X216660Y115639D02*
X217160Y116139D01*
X218160D01*
X218660Y115639D01*
Y113640D01*
X218160Y113140D01*
X217160D01*
X216660Y113640D01*
X214161Y113140D02*
Y116139D01*
X215661Y114640D01*
X213661D01*
X212662Y115639D02*
X212162Y116139D01*
X211162D01*
X210662Y115639D01*
Y113640D01*
X211162Y113140D01*
X212162D01*
X212662Y113640D01*
Y115639D01*
X59589Y85939D02*
X60089Y86439D01*
X61088D01*
X61588Y85939D01*
Y83940D01*
X61088Y83440D01*
X60089D01*
X59589Y83940D01*
X58589Y85939D02*
X58089Y86439D01*
X57090D01*
X56590Y85939D01*
Y85439D01*
X57090Y84940D01*
X57590D01*
X57090D01*
X56590Y84440D01*
Y83940D01*
X57090Y83440D01*
X58089D01*
X58589Y83940D01*
X55590D02*
X55090Y83440D01*
X54091D01*
X53591Y83940D01*
Y85939D01*
X54091Y86439D01*
X55090D01*
X55590Y85939D01*
Y85439D01*
X55090Y84940D01*
X53591D01*
X153958Y85139D02*
X154458Y85639D01*
X155458D01*
X155957Y85139D01*
Y83140D01*
X155458Y82640D01*
X154458D01*
X153958Y83140D01*
X152958Y85139D02*
X152459Y85639D01*
X151459D01*
X150959Y85139D01*
Y84640D01*
X151459Y84140D01*
X151959D01*
X151459D01*
X150959Y83640D01*
Y83140D01*
X151459Y82640D01*
X152459D01*
X152958Y83140D01*
X149959Y85139D02*
X149460Y85639D01*
X148460D01*
X147960Y85139D01*
Y84640D01*
X148460Y84140D01*
X147960Y83640D01*
Y83140D01*
X148460Y82640D01*
X149460D01*
X149959Y83140D01*
Y83640D01*
X149460Y84140D01*
X149959Y84640D01*
Y85139D01*
X149460Y84140D02*
X148460D01*
X250832Y83599D02*
X251332Y84099D01*
X252332D01*
X252832Y83599D01*
Y81600D01*
X252332Y81100D01*
X251332D01*
X250832Y81600D01*
X249832Y83599D02*
X249333Y84099D01*
X248333D01*
X247833Y83599D01*
Y83099D01*
X248333Y82600D01*
X248833D01*
X248333D01*
X247833Y82100D01*
Y81600D01*
X248333Y81100D01*
X249333D01*
X249832Y81600D01*
X246833Y84099D02*
X244834D01*
Y83599D01*
X246833Y81600D01*
Y81100D01*
X368301Y113999D02*
X368800Y114499D01*
X369800D01*
X370300Y113999D01*
Y112000D01*
X369800Y111500D01*
X368800D01*
X368301Y112000D01*
X367301Y113999D02*
X366801Y114499D01*
X365802D01*
X365302Y113999D01*
Y113499D01*
X365802Y112999D01*
X366301D01*
X365802D01*
X365302Y112500D01*
Y112000D01*
X365802Y111500D01*
X366801D01*
X367301Y112000D01*
X362303Y114499D02*
X363302Y113999D01*
X364302Y112999D01*
Y112000D01*
X363802Y111500D01*
X362802D01*
X362303Y112000D01*
Y112500D01*
X362802Y112999D01*
X364302D01*
X469229Y112859D02*
X469729Y113359D01*
X470728D01*
X471228Y112859D01*
Y110860D01*
X470728Y110360D01*
X469729D01*
X469229Y110860D01*
X468229Y112859D02*
X467730Y113359D01*
X466730D01*
X466230Y112859D01*
Y112359D01*
X466730Y111859D01*
X467230D01*
X466730D01*
X466230Y111360D01*
Y110860D01*
X466730Y110360D01*
X467730D01*
X468229Y110860D01*
X463231Y113359D02*
X465230D01*
Y111859D01*
X464231Y112359D01*
X463731D01*
X463231Y111859D01*
Y110860D01*
X463731Y110360D01*
X464730D01*
X465230Y110860D01*
X573901Y112999D02*
X574401Y113499D01*
X575400D01*
X575900Y112999D01*
Y111000D01*
X575400Y110500D01*
X574401D01*
X573901Y111000D01*
X572901Y112999D02*
X572401Y113499D01*
X571402D01*
X570902Y112999D01*
Y112499D01*
X571402Y111999D01*
X571901D01*
X571402D01*
X570902Y111500D01*
Y111000D01*
X571402Y110500D01*
X572401D01*
X572901Y111000D01*
X568402Y110500D02*
Y113499D01*
X569902Y111999D01*
X567903D01*
X348172Y124059D02*
X348672Y124559D01*
X349672D01*
X350172Y124059D01*
Y122060D01*
X349672Y121560D01*
X348672D01*
X348172Y122060D01*
X347173Y124059D02*
X346673Y124559D01*
X345673D01*
X345173Y124059D01*
Y123559D01*
X345673Y123059D01*
X346173D01*
X345673D01*
X345173Y122559D01*
Y122060D01*
X345673Y121560D01*
X346673D01*
X347173Y122060D01*
X344174Y124059D02*
X343674Y124559D01*
X342674D01*
X342174Y124059D01*
Y123559D01*
X342674Y123059D01*
X343174D01*
X342674D01*
X342174Y122559D01*
Y122060D01*
X342674Y121560D01*
X343674D01*
X344174Y122060D01*
X450457Y123599D02*
X450957Y124099D01*
X451957D01*
X452457Y123599D01*
Y121600D01*
X451957Y121100D01*
X450957D01*
X450457Y121600D01*
X449458Y123599D02*
X448958Y124099D01*
X447958D01*
X447458Y123599D01*
Y123099D01*
X447958Y122599D01*
X448458D01*
X447958D01*
X447458Y122100D01*
Y121600D01*
X447958Y121100D01*
X448958D01*
X449458Y121600D01*
X446459Y121100D02*
X445459D01*
X445959D01*
Y124099D01*
X446459Y123599D01*
X554183Y123799D02*
X554683Y124299D01*
X555683D01*
X556183Y123799D01*
Y121800D01*
X555683Y121300D01*
X554683D01*
X554183Y121800D01*
X553184Y123799D02*
X552684Y124299D01*
X551684D01*
X551184Y123799D01*
Y123299D01*
X551684Y122800D01*
X552184D01*
X551684D01*
X551184Y122300D01*
Y121800D01*
X551684Y121300D01*
X552684D01*
X553184Y121800D01*
X550185Y123799D02*
X549685Y124299D01*
X548685D01*
X548185Y123799D01*
Y121800D01*
X548685Y121300D01*
X549685D01*
X550185Y121800D01*
Y123799D01*
X314101Y115799D02*
X314600Y116299D01*
X315600D01*
X316100Y115799D01*
Y113800D01*
X315600Y113300D01*
X314600D01*
X314101Y113800D01*
X311102Y113300D02*
X313101D01*
X311102Y115299D01*
Y115799D01*
X311601Y116299D01*
X312601D01*
X313101Y115799D01*
X310102D02*
X309602Y116299D01*
X308602D01*
X308103Y115799D01*
Y115299D01*
X308602Y114799D01*
X308103Y114300D01*
Y113800D01*
X308602Y113300D01*
X309602D01*
X310102Y113800D01*
Y114300D01*
X309602Y114799D01*
X310102Y115299D01*
Y115799D01*
X309602Y114799D02*
X308602D01*
X416857Y115337D02*
X417357Y115837D01*
X418357D01*
X418857Y115337D01*
Y113338D01*
X418357Y112838D01*
X417357D01*
X416857Y113338D01*
X413858Y112838D02*
X415858D01*
X413858Y114837D01*
Y115337D01*
X414358Y115837D01*
X415358D01*
X415858Y115337D01*
X412859Y115837D02*
X410859D01*
Y115337D01*
X412859Y113338D01*
Y112838D01*
X520512Y115699D02*
X521011Y116199D01*
X522011D01*
X522511Y115699D01*
Y113700D01*
X522011Y113200D01*
X521011D01*
X520512Y113700D01*
X517513Y113200D02*
X519512D01*
X517513Y115199D01*
Y115699D01*
X518013Y116199D01*
X519012D01*
X519512Y115699D01*
X514514Y116199D02*
X515513Y115699D01*
X516513Y114699D01*
Y113700D01*
X516013Y113200D01*
X515014D01*
X514514Y113700D01*
Y114200D01*
X515014Y114699D01*
X516513D01*
X348101Y84799D02*
X348601Y85299D01*
X349600D01*
X350100Y84799D01*
Y82800D01*
X349600Y82300D01*
X348601D01*
X348101Y82800D01*
X345102Y82300D02*
X347101D01*
X345102Y84299D01*
Y84799D01*
X345602Y85299D01*
X346601D01*
X347101Y84799D01*
X342602Y82300D02*
Y85299D01*
X344102Y83799D01*
X342103D01*
X451157Y84399D02*
X451657Y84899D01*
X452657D01*
X453157Y84399D01*
Y82400D01*
X452657Y81900D01*
X451657D01*
X451157Y82400D01*
X448158Y81900D02*
X450158D01*
X448158Y83899D01*
Y84399D01*
X448658Y84899D01*
X449658D01*
X450158Y84399D01*
X447159D02*
X446659Y84899D01*
X445659D01*
X445159Y84399D01*
Y83899D01*
X445659Y83399D01*
X446159D01*
X445659D01*
X445159Y82900D01*
Y82400D01*
X445659Y81900D01*
X446659D01*
X447159Y82400D01*
X554212Y83798D02*
X554711Y84298D01*
X555711D01*
X556211Y83798D01*
Y81799D01*
X555711Y81299D01*
X554711D01*
X554212Y81799D01*
X551213Y81299D02*
X553212D01*
X551213Y83299D01*
Y83798D01*
X551713Y84298D01*
X552712D01*
X553212Y83798D01*
X548214Y81299D02*
X550213D01*
X548214Y83299D01*
Y83798D01*
X548713Y84298D01*
X549713D01*
X550213Y83798D01*
X589101Y197199D02*
X591100D01*
Y195700D01*
X590100D01*
X591100D01*
Y194200D01*
X588101Y197199D02*
X587101D01*
X587601D01*
Y194200D01*
X588101D01*
X587101D01*
X585602Y197199D02*
Y194200D01*
X584102D01*
X583602Y194700D01*
Y196699D01*
X584102Y197199D01*
X585602D01*
X581103Y194200D02*
Y197199D01*
X582603Y195700D01*
X580603D01*
X589101Y5699D02*
X591100D01*
Y4200D01*
X590100D01*
X591100D01*
Y2700D01*
X588101Y5699D02*
X587101D01*
X587601D01*
Y2700D01*
X588101D01*
X587101D01*
X585602Y5699D02*
Y2700D01*
X584102D01*
X583602Y3200D01*
Y5199D01*
X584102Y5699D01*
X585602D01*
X580603D02*
X582603D01*
Y4200D01*
X581603Y4699D01*
X581103D01*
X580603Y4200D01*
Y3200D01*
X581103Y2700D01*
X582103D01*
X582603Y3200D01*
X17601Y5799D02*
X19600D01*
Y4299D01*
X18600D01*
X19600D01*
Y2800D01*
X16601Y5799D02*
X15601D01*
X16101D01*
Y2800D01*
X16601D01*
X15601D01*
X14102Y5799D02*
Y2800D01*
X12602D01*
X12102Y3300D01*
Y5299D01*
X12602Y5799D01*
X14102D01*
X9103D02*
X10103Y5299D01*
X11103Y4299D01*
Y3300D01*
X10603Y2800D01*
X9603D01*
X9103Y3300D01*
Y3800D01*
X9603Y4299D01*
X11103D01*
X91000Y139000D02*
Y141999D01*
X90000D02*
Y139000D01*
X91500Y140999D02*
X90000D01*
X89501D01*
X91500Y140000D02*
X89501D01*
X88501Y139000D02*
X87501D01*
X88001D01*
Y141999D01*
X88501Y141499D01*
X84002Y139000D02*
X86002D01*
X84002Y140999D01*
Y141499D01*
X84502Y141999D01*
X85502D01*
X86002Y141499D01*
X183488Y137400D02*
Y140399D01*
X182489D02*
Y137400D01*
X183988Y139399D02*
X182489D01*
X181989D01*
X183988Y138400D02*
X181989D01*
X180989Y137400D02*
X179990D01*
X180489D01*
Y140399D01*
X180989Y139899D01*
X178490Y137400D02*
X177490D01*
X177990D01*
Y140399D01*
X178490Y139899D01*
X282800Y136500D02*
Y139499D01*
X281801D02*
Y136500D01*
X283300Y138499D02*
X281801D01*
X281301D01*
X283300Y137500D02*
X281301D01*
X280301Y136500D02*
X279301D01*
X279801D01*
Y139499D01*
X280301Y138999D01*
X277802D02*
X277302Y139499D01*
X276302D01*
X275802Y138999D01*
Y137000D01*
X276302Y136500D01*
X277302D01*
X277802Y137000D01*
Y138999D01*
X375000Y136500D02*
Y139499D01*
X374001D02*
Y136500D01*
X375500Y138499D02*
X374001D01*
X373501D01*
X375500Y137500D02*
X373501D01*
X372501Y137000D02*
X372001Y136500D01*
X371002D01*
X370502Y137000D01*
Y138999D01*
X371002Y139499D01*
X372001D01*
X372501Y138999D01*
Y138499D01*
X372001Y137999D01*
X370502D01*
X477281Y136500D02*
Y139499D01*
X476281D02*
Y136500D01*
X477780Y138499D02*
X476281D01*
X475781D01*
X477780Y137500D02*
X475781D01*
X474781Y138999D02*
X474281Y139499D01*
X473282D01*
X472782Y138999D01*
Y138499D01*
X473282Y137999D01*
X472782Y137500D01*
Y137000D01*
X473282Y136500D01*
X474281D01*
X474781Y137000D01*
Y137500D01*
X474281Y137999D01*
X474781Y138499D01*
Y138999D01*
X474281Y137999D02*
X473282D01*
X581000Y136500D02*
Y139499D01*
X580000D02*
Y136500D01*
X581500Y138499D02*
X580000D01*
X579501D01*
X581500Y137500D02*
X579501D01*
X578501Y139499D02*
X576502D01*
Y138999D01*
X578501Y137000D01*
Y136500D01*
X546182Y85000D02*
X543183D01*
Y86500D01*
X543682Y86999D01*
X544182D01*
X544682Y86500D01*
Y85000D01*
Y86500D01*
X545182Y86999D01*
X545682D01*
X546182Y86500D01*
Y85000D01*
Y106299D02*
Y104300D01*
X543183D01*
Y106299D01*
X544682Y104300D02*
Y105300D01*
X561982Y101899D02*
X562482Y101400D01*
Y100400D01*
X561982Y99900D01*
X559982D01*
X559483Y100400D01*
Y101400D01*
X559982Y101899D01*
X340171Y85860D02*
X337172D01*
Y87359D01*
X337671Y87859D01*
X338171D01*
X338671Y87359D01*
Y85860D01*
Y87359D01*
X339171Y87859D01*
X339671D01*
X340171Y87359D01*
Y85860D01*
Y107159D02*
Y105160D01*
X337172D01*
Y107159D01*
X338671Y105160D02*
Y106159D01*
X355971Y102759D02*
X356471Y102259D01*
Y101260D01*
X355971Y100760D01*
X353972D01*
X353472Y101260D01*
Y102259D01*
X353972Y102759D01*
X443027Y85360D02*
X440028D01*
Y86859D01*
X440528Y87359D01*
X441028D01*
X441528Y86859D01*
Y85360D01*
Y86859D01*
X442028Y87359D01*
X442527D01*
X443027Y86859D01*
Y85360D01*
Y106659D02*
Y104660D01*
X440028D01*
Y106659D01*
X441528Y104660D02*
Y105659D01*
X458827Y102259D02*
X459327Y101759D01*
Y100760D01*
X458827Y100260D01*
X456828D01*
X456328Y100760D01*
Y101759D01*
X456828Y102259D01*
X51687Y86740D02*
X48688D01*
Y88240D01*
X49188Y88740D01*
X49688D01*
X50188Y88240D01*
Y86740D01*
Y88240D01*
X50687Y88740D01*
X51187D01*
X51687Y88240D01*
Y86740D01*
Y108039D02*
Y106040D01*
X48688D01*
Y108039D01*
X50188Y106040D02*
Y107040D01*
X67487Y103639D02*
X67987Y103140D01*
Y102140D01*
X67487Y101640D01*
X65488D01*
X64988Y102140D01*
Y103140D01*
X65488Y103639D01*
X146187Y86140D02*
X143188D01*
Y87640D01*
X143688Y88139D01*
X144188D01*
X144688Y87640D01*
Y86140D01*
Y87640D01*
X145187Y88139D01*
X145687D01*
X146187Y87640D01*
Y86140D01*
Y107439D02*
Y105440D01*
X143188D01*
Y107439D01*
X144688Y105440D02*
Y106440D01*
X161987Y103040D02*
X162487Y102540D01*
Y101540D01*
X161987Y101040D01*
X159988D01*
X159488Y101540D01*
Y102540D01*
X159988Y103040D01*
X242631Y85200D02*
X239632D01*
Y86699D01*
X240131Y87199D01*
X240631D01*
X241131Y86699D01*
Y85200D01*
Y86699D01*
X241631Y87199D01*
X242131D01*
X242631Y86699D01*
Y85200D01*
Y106499D02*
Y104500D01*
X239632D01*
Y106499D01*
X241131Y104500D02*
Y105500D01*
X258431Y102099D02*
X258930Y101600D01*
Y100600D01*
X258431Y100100D01*
X256431D01*
X255931Y100600D01*
Y101600D01*
X256431Y102099D01*
M02*
