G04 Layer_Physical_Order=1*
G04 Layer_Color=255*
%FSLAX25Y25*%
%MOIN*%
G70*
G01*
G75*
%ADD10R,0.05512X0.05906*%
%ADD11C,0.07500*%
%ADD12R,0.04724X0.05512*%
%ADD13R,0.05906X0.11024*%
%ADD14R,0.05118X0.03543*%
%ADD15R,0.05000X0.05000*%
%ADD16C,0.02500*%
%ADD17C,0.07874*%
%ADD18R,0.07874X0.07874*%
%ADD19C,0.25000*%
%ADD20C,0.05000*%
G36*
X365191Y185465D02*
X361013Y181287D01*
X359670Y181844D01*
X355891Y180279D01*
X354326Y176500D01*
X355891Y172721D01*
X359670Y171156D01*
X363449Y172721D01*
X365014Y176500D01*
X364458Y177843D01*
X368179Y181565D01*
X376118D01*
X376313Y180584D01*
X375576Y180279D01*
X374011Y176500D01*
X375576Y172721D01*
X379355Y171156D01*
X383134Y172721D01*
X384699Y176500D01*
X383134Y180279D01*
X382397Y180584D01*
X382592Y181565D01*
X395803D01*
X395998Y180584D01*
X395262Y180279D01*
X393696Y176500D01*
X395262Y172721D01*
X396605Y172165D01*
Y145613D01*
X396521Y145579D01*
X395412Y142900D01*
X396521Y140221D01*
X399200Y139112D01*
X401879Y140221D01*
X402988Y142900D01*
X401879Y145579D01*
X401475Y145746D01*
Y172165D01*
X402819Y172721D01*
X404384Y176500D01*
X402819Y180279D01*
X402082Y180584D01*
X402277Y181565D01*
X415488D01*
X415683Y180584D01*
X414947Y180279D01*
X413381Y176500D01*
X414947Y172721D01*
X416290Y172165D01*
Y150031D01*
X415921Y149879D01*
X414812Y147200D01*
X415921Y144521D01*
X418600Y143412D01*
X421279Y144521D01*
X422388Y147200D01*
X421279Y149879D01*
X421161Y149928D01*
Y172165D01*
X422504Y172721D01*
X422684Y173156D01*
X423665Y172961D01*
Y137909D01*
X422757Y137001D01*
X422513Y137102D01*
X419835Y135992D01*
X418725Y133313D01*
X419835Y130635D01*
X422513Y129525D01*
X425192Y130635D01*
X426302Y133313D01*
X426201Y133557D01*
X427822Y135178D01*
X428535Y136900D01*
Y166006D01*
X429535Y166420D01*
X443078Y152878D01*
X444800Y152165D01*
X482191D01*
X516921Y117435D01*
Y110056D01*
X515995D01*
Y108835D01*
X515165D01*
X513443Y108122D01*
X510728Y105407D01*
X510015Y103685D01*
Y93743D01*
X509965Y93623D01*
Y77300D01*
X510678Y75578D01*
X514350Y71906D01*
X516072Y71193D01*
X532210D01*
Y67116D01*
X540116D01*
Y80140D01*
X532210D01*
Y76064D01*
X517080D01*
X514835Y78309D01*
Y91748D01*
X515835Y91947D01*
X515902Y91787D01*
X519537Y90281D01*
X523173Y91787D01*
X523670Y92988D01*
X531720D01*
Y92019D01*
X532037Y91254D01*
X532802Y90936D01*
X544535D01*
X544795Y90763D01*
Y86751D01*
X545918D01*
Y80140D01*
X544415D01*
Y67116D01*
X552320D01*
Y80140D01*
X550789D01*
Y85420D01*
X551713Y85803D01*
X553069Y84447D01*
X554791Y83733D01*
X557244D01*
Y82216D01*
X558565D01*
Y80321D01*
X557244D01*
Y72416D01*
X558565D01*
Y69401D01*
X557365Y68904D01*
X555859Y65268D01*
X557365Y61633D01*
X561000Y60127D01*
X564636Y61633D01*
X566103Y65177D01*
X566207Y65319D01*
X566960Y65904D01*
X568874Y65112D01*
X571553Y66221D01*
X572662Y68900D01*
X571620Y71416D01*
X572022Y72416D01*
X572630D01*
Y80321D01*
X565756D01*
X565118Y80321D01*
X564143Y80321D01*
X563435Y81028D01*
Y82216D01*
X564756D01*
Y90121D01*
X557244D01*
Y88604D01*
X555800D01*
X553159Y91245D01*
X552449Y91539D01*
X552349Y92111D01*
X553103Y92988D01*
X557244D01*
Y91470D01*
X564756D01*
Y99376D01*
X563435D01*
Y100916D01*
X564756D01*
Y100916D01*
X565118D01*
Y100916D01*
X572630D01*
Y108821D01*
X571309D01*
Y110713D01*
X572242D01*
Y112033D01*
X578023D01*
X582365Y107691D01*
Y64409D01*
X554978Y37022D01*
X554265Y35300D01*
Y13009D01*
X547691Y6435D01*
X425386D01*
X425003Y7359D01*
X488422Y70778D01*
X489135Y72500D01*
Y106300D01*
X488422Y108022D01*
X480322Y116122D01*
X478600Y116835D01*
X468686D01*
Y118156D01*
X462599D01*
X461962Y118156D01*
X460961Y118156D01*
X454875D01*
Y116835D01*
X448692D01*
Y120912D01*
X447220D01*
Y124947D01*
X448530D01*
Y126454D01*
X453743D01*
X454235Y125265D01*
X457871Y123759D01*
X461506Y125265D01*
X463012Y128900D01*
X461506Y132536D01*
X457871Y134041D01*
X454235Y132536D01*
X453734Y131325D01*
X448530D01*
Y132853D01*
X441018D01*
Y132853D01*
X440656D01*
Y132853D01*
X439335D01*
Y134620D01*
X439579Y134721D01*
X440688Y137400D01*
X439579Y140079D01*
X436900Y141188D01*
X434221Y140079D01*
X433112Y137400D01*
X434221Y134721D01*
X434465Y134620D01*
Y132853D01*
X433144D01*
Y124947D01*
X433144D01*
X433425Y124269D01*
X430813Y121657D01*
X430504Y120912D01*
X428582D01*
Y109722D01*
X427582Y109053D01*
X426660Y109435D01*
X425406D01*
Y110756D01*
X419319D01*
X418681Y110756D01*
X418099D01*
X417392Y111463D01*
Y115443D01*
X416679Y117165D01*
X372022Y161822D01*
X370300Y162535D01*
X328186D01*
X327803Y163459D01*
X333222Y168878D01*
X333935Y170600D01*
Y175591D01*
X334935Y175790D01*
X336206Y172721D01*
X339985Y171156D01*
X343764Y172721D01*
X345329Y176500D01*
X343764Y180279D01*
X339985Y181844D01*
X336206Y180279D01*
X334935Y177210D01*
X333935Y177409D01*
Y182091D01*
X338309Y186465D01*
X364826D01*
X365191Y185465D01*
D02*
G37*
G36*
X598981Y9301D02*
X598500Y8500D01*
X597980Y8500D01*
X591500D01*
Y2019D01*
X591500Y1500D01*
X590699Y1020D01*
X549997D01*
X549798Y2019D01*
X550422Y2278D01*
X558422Y10278D01*
X559135Y12000D01*
Y34291D01*
X586522Y61678D01*
X587235Y63400D01*
Y108700D01*
X586522Y110422D01*
X580754Y116191D01*
X579032Y116904D01*
X572242D01*
Y118224D01*
X565518D01*
Y118225D01*
X565156D01*
Y118224D01*
X558431D01*
Y116850D01*
X552320D01*
Y120940D01*
X550803D01*
Y124876D01*
X552158D01*
Y126393D01*
X557661D01*
X558158Y125193D01*
X561794Y123687D01*
X565429Y125193D01*
X566935Y128828D01*
X565429Y132464D01*
X561794Y133970D01*
X558158Y132464D01*
X557661Y131264D01*
X552158D01*
Y132781D01*
X545284D01*
X544647Y132781D01*
X543671Y132781D01*
X543494Y132958D01*
X543207Y133921D01*
X544317Y136600D01*
X544216Y136843D01*
X554937Y147565D01*
X582635D01*
X582676Y147467D01*
X585354Y146357D01*
X588033Y147467D01*
X589143Y150146D01*
X588033Y152824D01*
X585354Y153934D01*
X582676Y152824D01*
X582514Y152435D01*
X553928D01*
X552206Y151722D01*
X540772Y140288D01*
X540528Y140388D01*
X537850Y139279D01*
X536740Y136600D01*
X537850Y133921D01*
X538093Y133820D01*
Y132781D01*
X536772D01*
Y124876D01*
X536772D01*
X536995Y124339D01*
X534441Y121785D01*
X534091Y120940D01*
X532210D01*
Y108985D01*
X531210Y108317D01*
X530200Y108735D01*
X529806D01*
Y110056D01*
X523081D01*
Y110056D01*
X522792D01*
X521792Y110233D01*
Y118443D01*
X521079Y120165D01*
X484922Y156322D01*
X483200Y157035D01*
X445809D01*
X432935Y169909D01*
Y174203D01*
X433935Y174402D01*
X434632Y172721D01*
X438410Y171156D01*
X442189Y172721D01*
X443754Y176500D01*
X442189Y180279D01*
X438410Y181844D01*
X434632Y180279D01*
X433935Y178598D01*
X432935Y178797D01*
Y182700D01*
X432222Y184422D01*
X426022Y190622D01*
X424300Y191335D01*
X337300D01*
X335578Y190622D01*
X329778Y184822D01*
X329065Y183100D01*
Y171609D01*
X323791Y166335D01*
X299384D01*
X298716Y167335D01*
X299488Y169200D01*
X298379Y171879D01*
X295700Y172988D01*
X295457Y172888D01*
X285172Y183172D01*
X285142Y183184D01*
X283405Y184922D01*
X281682Y185635D01*
X261350D01*
X259628Y184922D01*
X255994Y181287D01*
X254650Y181844D01*
X250872Y180279D01*
X249307Y176500D01*
X250872Y172721D01*
X254650Y171156D01*
X258429Y172721D01*
X259994Y176500D01*
X259438Y177843D01*
X262359Y180765D01*
X269736D01*
X270344Y179765D01*
X268992Y176500D01*
X270557Y172721D01*
X274335Y171156D01*
X275679Y171713D01*
X283932Y163459D01*
X283549Y162535D01*
X252374D01*
X239753Y175157D01*
X240309Y176500D01*
X238744Y180279D01*
X234965Y181844D01*
X231187Y180279D01*
X229622Y176500D01*
X231187Y172721D01*
X234965Y171156D01*
X236309Y171713D01*
X248362Y159659D01*
X247979Y158735D01*
X230309D01*
X217889Y171155D01*
X217909Y172245D01*
X219059Y172721D01*
X220624Y176500D01*
X219059Y180279D01*
X215280Y181844D01*
X211502Y180279D01*
X209936Y176500D01*
X211062Y173783D01*
X210442Y172666D01*
X210044Y172600D01*
X208635Y174009D01*
Y178900D01*
X207922Y180622D01*
X200722Y187822D01*
X199000Y188535D01*
X185510D01*
X183788Y187822D01*
X177253Y181287D01*
X175910Y181844D01*
X172132Y180279D01*
X170566Y176500D01*
X172132Y172721D01*
X175910Y171156D01*
X179689Y172721D01*
X181254Y176500D01*
X180698Y177843D01*
X186519Y183665D01*
X197991D01*
X203765Y177891D01*
Y173189D01*
X203234Y172827D01*
X202841Y172699D01*
X200383Y175157D01*
X200939Y176500D01*
X199374Y180279D01*
X195595Y181844D01*
X191817Y180279D01*
X190252Y176500D01*
X191817Y172721D01*
X195595Y171156D01*
X196939Y171713D01*
X205273Y163378D01*
X206995Y162665D01*
X211691D01*
X223478Y150878D01*
X225200Y150165D01*
X237495D01*
X238163Y149165D01*
X237368Y147246D01*
X238201Y145235D01*
X237533Y144235D01*
X226309D01*
X209822Y160722D01*
X208100Y161435D01*
X181809D01*
X168435Y174809D01*
Y180700D01*
X167722Y182422D01*
X162322Y187822D01*
X160600Y188535D01*
X146140D01*
X144418Y187822D01*
X137883Y181287D01*
X136540Y181844D01*
X132762Y180279D01*
X131196Y176500D01*
X132762Y172721D01*
X136540Y171156D01*
X140319Y172721D01*
X141884Y176500D01*
X141328Y177843D01*
X147149Y183665D01*
X159591D01*
X163565Y179691D01*
Y174019D01*
X162934Y173615D01*
X162641Y173529D01*
X161013Y175157D01*
X161569Y176500D01*
X160004Y180279D01*
X156225Y181844D01*
X152447Y180279D01*
X150881Y176500D01*
X152447Y172721D01*
X156225Y171156D01*
X157569Y171713D01*
X178203Y151078D01*
X179925Y150365D01*
X202491D01*
X216921Y135934D01*
Y110456D01*
X215995D01*
Y109135D01*
X212600D01*
X210878Y108422D01*
X205978Y103522D01*
X205265Y101800D01*
Y80869D01*
X205978Y79146D01*
X211246Y73878D01*
X212968Y73165D01*
X232984D01*
Y69088D01*
X240890D01*
Y82112D01*
X232984D01*
Y78035D01*
X213977D01*
X210135Y81877D01*
Y100791D01*
X213609Y104265D01*
X215995D01*
Y102944D01*
X222081D01*
X222719Y102944D01*
X223719Y102944D01*
X229805D01*
Y103136D01*
X230805Y103550D01*
X232910Y101446D01*
X232839Y100335D01*
X232522Y99569D01*
Y98595D01*
X223700D01*
X223203Y99795D01*
X219568Y101301D01*
X215932Y99795D01*
X214426Y96160D01*
X215932Y92524D01*
X219568Y91018D01*
X223203Y92524D01*
X223700Y93724D01*
X232522D01*
Y92750D01*
X232839Y91985D01*
X233605Y91668D01*
X245337D01*
X245597Y91494D01*
Y87483D01*
X246721D01*
Y82112D01*
X245189D01*
Y69088D01*
X253095D01*
Y82112D01*
X251591D01*
Y85727D01*
X252515Y86110D01*
X253047Y85578D01*
X254769Y84865D01*
X256347D01*
Y83347D01*
X257667D01*
Y81853D01*
X256347D01*
Y73947D01*
X257667D01*
Y71333D01*
X256467Y70836D01*
X254961Y67200D01*
X256467Y63564D01*
X260102Y62059D01*
X263738Y63564D01*
X264541Y65504D01*
X265541Y65305D01*
Y62985D01*
X262491Y59935D01*
X225168D01*
X224956Y60447D01*
X222277Y61557D01*
X219598Y60447D01*
X218489Y57768D01*
X218842Y56917D01*
X217994Y56350D01*
X204235Y70109D01*
Y95640D01*
X203522Y97362D01*
X201800Y98075D01*
X200078Y97362D01*
X199365Y95640D01*
Y69100D01*
X200078Y67378D01*
X222578Y44878D01*
X224300Y44165D01*
X295400D01*
X297122Y44878D01*
X305122Y52878D01*
X305835Y54600D01*
Y60300D01*
X305122Y62022D01*
X304976Y62168D01*
X304976Y62168D01*
X278122Y89022D01*
X276400Y89735D01*
X270412D01*
Y96160D01*
X269699Y97882D01*
X267976Y98595D01*
X266254Y97882D01*
X265541Y96160D01*
Y87300D01*
X266254Y85578D01*
X267976Y84865D01*
X275391D01*
X300965Y59291D01*
Y55609D01*
X294391Y49035D01*
X225309D01*
X220859Y53485D01*
X221426Y54333D01*
X222277Y53980D01*
X224895Y55065D01*
X263500D01*
X265222Y55778D01*
X269699Y60254D01*
X270412Y61976D01*
Y73947D01*
X271732D01*
Y75465D01*
X275891D01*
X291665Y59691D01*
Y58681D01*
X291276Y58520D01*
X290166Y55841D01*
X291276Y53163D01*
X293954Y52053D01*
X296633Y53163D01*
X297743Y55841D01*
X296633Y58520D01*
X296535Y58561D01*
Y60700D01*
X295822Y62422D01*
X278622Y79622D01*
X276900Y80335D01*
X271732D01*
Y81853D01*
X264858D01*
X264220Y81853D01*
X263245Y81853D01*
X262750Y82347D01*
X263051Y83347D01*
X263858D01*
Y91253D01*
X263858D01*
Y92207D01*
X263858D01*
Y100113D01*
X263419D01*
X263005Y101113D01*
X263239Y101347D01*
X263858D01*
X264858Y101347D01*
X271732D01*
Y109253D01*
X270412D01*
Y111044D01*
X271345D01*
Y112365D01*
X273591D01*
X277665Y108291D01*
Y92000D01*
X278378Y90278D01*
X311778Y56878D01*
X313500Y56165D01*
X343691D01*
X360995Y38861D01*
Y28435D01*
X359651Y27879D01*
X358086Y24100D01*
X359237Y21321D01*
X358389Y20755D01*
X356735Y22409D01*
Y30700D01*
X356022Y32422D01*
X346276Y42168D01*
X344554Y42881D01*
X222163D01*
X197835Y67209D01*
Y108841D01*
X197122Y110563D01*
X191163Y116522D01*
X189441Y117235D01*
X173043D01*
Y118556D01*
X172802D01*
X172400Y119556D01*
X176522Y123678D01*
X177235Y125400D01*
Y144700D01*
X176522Y146422D01*
X161522Y161422D01*
X159800Y162135D01*
X140309D01*
X129435Y173009D01*
Y180900D01*
X128722Y182622D01*
X123122Y188222D01*
X121400Y188935D01*
X107170D01*
X105448Y188222D01*
X98513Y181287D01*
X97170Y181844D01*
X93392Y180279D01*
X91826Y176500D01*
X93392Y172721D01*
X97170Y171156D01*
X100949Y172721D01*
X102514Y176500D01*
X101957Y177843D01*
X108179Y184065D01*
X120391D01*
X124565Y179891D01*
Y172000D01*
X125278Y170278D01*
X137578Y157978D01*
X139300Y157265D01*
X158791D01*
X172365Y143691D01*
Y126409D01*
X167958Y122002D01*
X167245Y120280D01*
Y119263D01*
X166538Y118556D01*
X165318Y118556D01*
X159231D01*
Y117235D01*
X154292D01*
Y121312D01*
X152775D01*
Y125547D01*
X154095D01*
Y127065D01*
X158461D01*
X158958Y125865D01*
X162594Y124359D01*
X166229Y125865D01*
X167735Y129500D01*
X166229Y133135D01*
X162594Y134641D01*
X158958Y133135D01*
X158461Y131935D01*
X154095D01*
Y133453D01*
X147221D01*
X146583Y133453D01*
X145608Y133453D01*
X144901Y134160D01*
Y135420D01*
X145144Y135521D01*
X146254Y138200D01*
X145144Y140879D01*
X142465Y141988D01*
X139787Y140879D01*
X138677Y138200D01*
X139787Y135521D01*
X140030Y135420D01*
Y133453D01*
X138709D01*
Y125547D01*
X138709Y125547D01*
X138709D01*
X138096Y124840D01*
X136413Y123157D01*
X135699Y121435D01*
Y121312D01*
X134182D01*
Y108288D01*
X142087D01*
Y121312D01*
X142087D01*
X141902Y121758D01*
X144187Y124043D01*
X144810Y125547D01*
X146221Y125547D01*
X147197Y125547D01*
X147904Y124840D01*
Y121312D01*
X146387D01*
Y108288D01*
X147918D01*
Y104637D01*
X146794D01*
Y104301D01*
X136643D01*
X132422Y108522D01*
X130700Y109235D01*
X129706D01*
Y110556D01*
X123619D01*
X122981Y110556D01*
X122399D01*
X121692Y111263D01*
Y140543D01*
X120979Y142265D01*
X119290Y143954D01*
Y172165D01*
X120634Y172721D01*
X122199Y176500D01*
X120634Y180279D01*
X116855Y181844D01*
X113076Y180279D01*
X111511Y176500D01*
X113076Y172721D01*
X114420Y172165D01*
Y142945D01*
X115133Y141223D01*
X116821Y139534D01*
Y110556D01*
X115894D01*
Y109235D01*
X106900D01*
X105178Y108522D01*
X98978Y102322D01*
X98265Y100600D01*
Y81169D01*
X98978Y79447D01*
X105246Y73178D01*
X106968Y72465D01*
X134182D01*
Y68388D01*
X142087D01*
Y81412D01*
X134182D01*
Y77335D01*
X107977D01*
X103135Y82177D01*
Y99591D01*
X107909Y104365D01*
X115894D01*
Y103044D01*
X121981D01*
X122619Y103044D01*
X123619Y103044D01*
X129706D01*
Y103044D01*
X130629Y103427D01*
X133913Y100143D01*
X134022Y100098D01*
X133720Y99369D01*
Y98390D01*
X125970D01*
X125472Y99590D01*
X121837Y101096D01*
X118201Y99590D01*
X116696Y95954D01*
X118201Y92319D01*
X121837Y90813D01*
X125472Y92319D01*
X125970Y93519D01*
X133720D01*
Y92550D01*
X134037Y91785D01*
X134802Y91468D01*
X146535D01*
X146794Y91294D01*
Y87283D01*
X147918D01*
Y81412D01*
X146387D01*
Y68388D01*
X154292D01*
Y81412D01*
X152789D01*
Y85905D01*
X153713Y86288D01*
X154923Y85078D01*
X156645Y84365D01*
X158072D01*
Y82847D01*
X159393D01*
Y81553D01*
X158072D01*
Y73647D01*
X159393D01*
Y71016D01*
X158232Y70535D01*
X156726Y66900D01*
X158232Y63265D01*
X158047Y62335D01*
X122509D01*
X118122Y66722D01*
X116400Y67435D01*
X114678Y66722D01*
X113965Y65000D01*
X114678Y63278D01*
X119778Y58178D01*
X120363Y57935D01*
X120165Y56935D01*
X107137D01*
X95835Y68237D01*
Y106200D01*
X95122Y107922D01*
X86222Y116822D01*
X84500Y117535D01*
X73439D01*
Y118856D01*
X73439D01*
X73281Y119237D01*
X75522Y121478D01*
X76235Y123200D01*
Y143400D01*
X75522Y145122D01*
X60235Y160409D01*
Y171563D01*
X62737D01*
Y181437D01*
X52863D01*
Y171563D01*
X55365D01*
Y159400D01*
X56078Y157678D01*
X71365Y142391D01*
Y124209D01*
X68355Y121199D01*
X67642Y119477D01*
X67020Y118856D01*
X65715Y118856D01*
X59628D01*
Y117735D01*
X55555D01*
Y121812D01*
X53972D01*
Y126047D01*
X55293D01*
Y127565D01*
X59167D01*
X59664Y126365D01*
X63300Y124859D01*
X66935Y126365D01*
X68441Y130000D01*
X66935Y133635D01*
X63300Y135141D01*
X59664Y133635D01*
X59167Y132435D01*
X55293D01*
Y133953D01*
X48419D01*
X47781Y133953D01*
X46806Y133953D01*
X46507Y134251D01*
X46479Y135321D01*
X47588Y138000D01*
X46479Y140679D01*
X43800Y141788D01*
X41121Y140679D01*
X40012Y138000D01*
X41121Y135321D01*
X41228Y135277D01*
Y133953D01*
X39907D01*
Y126047D01*
X39907D01*
X40266Y125047D01*
X37676Y122457D01*
X37408Y121812D01*
X35445D01*
Y110148D01*
X35306Y109996D01*
X34445Y109562D01*
X33060Y110135D01*
X32234D01*
Y111415D01*
X26147D01*
X25510Y111415D01*
X24927D01*
X24220Y112122D01*
Y135476D01*
X49122Y160378D01*
X49835Y162100D01*
Y181491D01*
X52409Y184065D01*
X66476D01*
X72698Y177843D01*
X72141Y176500D01*
X73706Y172721D01*
X77485Y171156D01*
X81264Y172721D01*
X82829Y176500D01*
X81264Y180279D01*
X77485Y181844D01*
X76142Y181287D01*
X69207Y188222D01*
X67485Y188935D01*
X51400D01*
X49678Y188222D01*
X45678Y184222D01*
X44965Y182500D01*
Y163109D01*
X20063Y138207D01*
X19350Y136485D01*
Y111415D01*
X18423D01*
Y110094D01*
X18259D01*
X16537Y109381D01*
X11378Y104222D01*
X10665Y102500D01*
Y95200D01*
X11378Y93478D01*
X31078Y73778D01*
X32800Y73065D01*
X35345D01*
Y68988D01*
X43250D01*
Y82012D01*
X35345D01*
Y77935D01*
X33809D01*
X15535Y96209D01*
Y101491D01*
X18087Y104042D01*
X18423Y103903D01*
Y103903D01*
X24509D01*
X25147Y103903D01*
X26147Y103903D01*
X32234D01*
Y103903D01*
X33067Y104248D01*
X35363Y101953D01*
X35200Y101135D01*
X34883Y100369D01*
Y99395D01*
X29461D01*
X28964Y100595D01*
X25328Y102101D01*
X21693Y100595D01*
X20187Y96960D01*
X21693Y93324D01*
X25328Y91818D01*
X28964Y93324D01*
X29461Y94525D01*
X34883D01*
Y93550D01*
X35200Y92785D01*
X35965Y92468D01*
X47698D01*
X47958Y92294D01*
Y88283D01*
X49081D01*
Y82012D01*
X47550D01*
Y68988D01*
X55455D01*
Y82012D01*
X53952D01*
Y86597D01*
X54876Y86980D01*
X55478Y86378D01*
X57200Y85665D01*
X58507D01*
Y84147D01*
X59828D01*
Y82853D01*
X58507D01*
Y74947D01*
X59865D01*
Y72233D01*
X58665Y71736D01*
X57159Y68100D01*
X58665Y64464D01*
X62300Y62959D01*
X65935Y64464D01*
X67441Y68100D01*
X65935Y71736D01*
X64735Y72233D01*
Y74240D01*
X65443Y74947D01*
X66019D01*
X66995Y74947D01*
X67702Y74240D01*
Y71263D01*
X68415Y69541D01*
X95613Y42343D01*
X95512Y42100D01*
X96621Y39421D01*
X99300Y38312D01*
X101979Y39421D01*
X103088Y42100D01*
X101979Y44779D01*
X99300Y45888D01*
X99057Y45788D01*
X72572Y72272D01*
Y74947D01*
X73893D01*
Y82853D01*
X67019D01*
X66381Y82853D01*
X65405Y82853D01*
X65111Y83147D01*
X65525Y84147D01*
X66019D01*
Y92053D01*
X66019D01*
X66047Y93002D01*
X66047D01*
X66047Y93041D01*
Y100907D01*
X65608D01*
X65194Y101907D01*
X65434Y102147D01*
X66019D01*
X67019Y102147D01*
X73893D01*
Y110053D01*
X72572D01*
Y111344D01*
X73439D01*
Y112665D01*
X83491D01*
X90965Y105191D01*
Y67228D01*
X91678Y65506D01*
X104406Y52778D01*
X106128Y52065D01*
X148991D01*
X160158Y40898D01*
Y21406D01*
X160872Y19684D01*
X170678Y9878D01*
X172400Y9165D01*
X282300D01*
X284022Y9878D01*
X298107Y23963D01*
X299215Y23656D01*
X300596Y20321D01*
X304375Y18756D01*
X305718Y19313D01*
X322753Y2278D01*
X323376Y2019D01*
X323178Y1020D01*
X9301D01*
X8500Y1500D01*
X8500Y2019D01*
Y8500D01*
X2019D01*
X1500Y8500D01*
X1020Y9301D01*
Y190699D01*
X1500Y191500D01*
X2019Y191500D01*
X8500D01*
Y197980D01*
X8500Y198500D01*
X9301Y198980D01*
X598981D01*
Y9301D01*
D02*
G37*
G36*
X192965Y107832D02*
Y66200D01*
X193200Y65632D01*
X192352Y65066D01*
X187379Y70039D01*
X187479Y70283D01*
X186370Y72961D01*
X183691Y74071D01*
X181135Y73012D01*
X180135Y73391D01*
Y84300D01*
X179422Y86022D01*
X176922Y88522D01*
X175200Y89235D01*
X172138D01*
Y95954D01*
X171424Y97676D01*
X169702Y98390D01*
X167980Y97676D01*
X167267Y95954D01*
Y86800D01*
X167980Y85078D01*
X169702Y84365D01*
X174191D01*
X175265Y83291D01*
Y68109D01*
X169491Y62335D01*
X165688D01*
X165503Y63265D01*
X166813Y66426D01*
X167933Y67045D01*
X169702Y66312D01*
X172381Y67421D01*
X173491Y70100D01*
X172436Y72647D01*
X172819Y73647D01*
X173458D01*
Y81553D01*
X166584D01*
X165946Y81553D01*
X164971Y81553D01*
X164676Y81847D01*
X165091Y82847D01*
X165584D01*
Y90753D01*
X158072D01*
Y90231D01*
X157072Y89817D01*
X155113Y91776D01*
X154431Y92059D01*
X154332Y92647D01*
X155089Y93519D01*
X158072D01*
Y92002D01*
X165584D01*
Y99907D01*
X164908D01*
X164531Y100907D01*
X164971Y101347D01*
X165584D01*
X166584Y101347D01*
X173458D01*
Y109253D01*
X172138D01*
Y111044D01*
X173043D01*
Y112365D01*
X188432D01*
X192965Y107832D01*
D02*
G37*
G36*
X388565Y94391D02*
Y26458D01*
X387565Y26259D01*
X386894Y27879D01*
X383115Y29444D01*
X379336Y27879D01*
X377771Y24100D01*
X378328Y22757D01*
X374606Y19035D01*
X366667D01*
X366472Y20016D01*
X367209Y20321D01*
X368774Y24100D01*
X367209Y27879D01*
X365865Y28435D01*
Y39870D01*
X365152Y41592D01*
X356980Y49764D01*
X357547Y50612D01*
X358070Y50395D01*
X373075D01*
X373176Y50151D01*
X375854Y49042D01*
X378533Y50151D01*
X379643Y52830D01*
X378533Y55509D01*
X375854Y56619D01*
X375611Y56518D01*
X365446Y66682D01*
Y73547D01*
X366767D01*
Y81453D01*
X359255D01*
Y81453D01*
X358893D01*
Y81453D01*
X357572D01*
Y82847D01*
X358893D01*
Y90753D01*
X351381D01*
Y89424D01*
X350381Y89314D01*
X347918Y91776D01*
X346891Y92202D01*
X346586Y92968D01*
X346917Y93519D01*
X351381D01*
Y92007D01*
X358893D01*
Y99913D01*
X357572D01*
Y101147D01*
X358893D01*
Y101147D01*
X359255D01*
Y101147D01*
X366767D01*
Y109053D01*
X365446D01*
Y111044D01*
X365880D01*
Y112365D01*
X370591D01*
X388565Y94391D01*
D02*
G37*
G36*
X47698Y98731D02*
X54076D01*
Y95188D01*
X47698D01*
Y93550D01*
X35965D01*
Y100369D01*
X47698D01*
Y98731D01*
D02*
G37*
G36*
X245337Y97931D02*
X251715D01*
Y94388D01*
X245337D01*
Y92750D01*
X233605D01*
Y99569D01*
X245337D01*
Y97931D01*
D02*
G37*
G36*
X338072Y97732D02*
X344450D01*
Y94188D01*
X338072D01*
Y92550D01*
X326339D01*
Y99369D01*
X338072D01*
Y97732D01*
D02*
G37*
G36*
X146535D02*
X152913D01*
Y94188D01*
X146535D01*
Y92550D01*
X134802D01*
Y99369D01*
X146535D01*
Y97732D01*
D02*
G37*
G36*
X440965Y97441D02*
X447343D01*
Y93898D01*
X440965D01*
Y92260D01*
X429233D01*
Y99079D01*
X440965D01*
Y97441D01*
D02*
G37*
G36*
X544535Y97200D02*
X550913D01*
Y93657D01*
X544535D01*
Y92019D01*
X532802D01*
Y98838D01*
X544535D01*
Y97200D01*
D02*
G37*
G36*
X412521Y114435D02*
Y110756D01*
X411594D01*
Y109435D01*
X403017D01*
X401295Y108722D01*
X395778Y103206D01*
X395065Y101484D01*
Y86300D01*
X395778Y84578D01*
X406978Y73378D01*
X408700Y72665D01*
X428582D01*
Y68588D01*
X436487D01*
Y81612D01*
X428582D01*
Y77535D01*
X409709D01*
X399935Y87309D01*
Y100475D01*
X404025Y104565D01*
X411594D01*
Y103244D01*
X417681D01*
X418319Y103244D01*
X419319Y103244D01*
X425406D01*
Y103396D01*
X426405Y103810D01*
X429131Y101085D01*
X428814Y99988D01*
X428468Y99844D01*
X428151Y99079D01*
Y98099D01*
X420770D01*
X420272Y99299D01*
X416637Y100805D01*
X413001Y99299D01*
X411496Y95664D01*
X413001Y92028D01*
X416637Y90522D01*
X420272Y92028D01*
X420770Y93228D01*
X428151D01*
Y92260D01*
X428468Y91494D01*
X429233Y91177D01*
X440965D01*
X441225Y91004D01*
Y86992D01*
X442349D01*
Y81612D01*
X440787D01*
Y68588D01*
X448692D01*
Y81612D01*
X447220D01*
Y86992D01*
X448343D01*
X449174Y86582D01*
X451178Y84578D01*
X452900Y83865D01*
X453744D01*
Y82347D01*
X455065D01*
Y80853D01*
X453744D01*
Y72947D01*
X455065D01*
Y69959D01*
X453801Y69436D01*
X452296Y65800D01*
X453801Y62164D01*
X457437Y60659D01*
X461072Y62164D01*
X462302Y65134D01*
X463502Y65698D01*
X465155Y65013D01*
X465544Y63988D01*
X460991Y59435D01*
X414609D01*
X405122Y68922D01*
X403400Y69635D01*
X401678Y68922D01*
X400965Y67200D01*
X401678Y65478D01*
X411878Y55278D01*
X413600Y54565D01*
X462000D01*
X463722Y55278D01*
X477822Y69378D01*
X478535Y71100D01*
Y81300D01*
X477822Y83022D01*
X472822Y88022D01*
X471100Y88735D01*
X467809D01*
Y95664D01*
X467096Y97386D01*
X465374Y98099D01*
X463652Y97386D01*
X462939Y95664D01*
Y86300D01*
X463652Y84578D01*
X465374Y83865D01*
X470091D01*
X473665Y80291D01*
Y72109D01*
X470112Y68556D01*
X469087Y68945D01*
X468079Y71379D01*
X467809Y71490D01*
Y72947D01*
X469130D01*
Y80853D01*
X462256D01*
X461618Y80853D01*
X460642Y80853D01*
X460148Y81347D01*
X460449Y82347D01*
X461256D01*
Y90253D01*
X453744D01*
Y90207D01*
X452820Y89824D01*
X451158Y91486D01*
X449833Y92035D01*
X449614Y92568D01*
X450005Y93228D01*
X453744D01*
Y91711D01*
X461256D01*
Y99616D01*
X459953D01*
X459942Y100617D01*
X460642Y101316D01*
X461256D01*
X462256Y101316D01*
X469130D01*
Y109222D01*
X467809D01*
Y110644D01*
X468686D01*
Y111965D01*
X477591D01*
X484265Y105291D01*
Y73509D01*
X420691Y9935D01*
X382594D01*
X382179Y10935D01*
X392722Y21478D01*
X393435Y23200D01*
Y95400D01*
X392722Y97122D01*
X373322Y116522D01*
X371600Y117235D01*
X365880D01*
Y118556D01*
X365446D01*
Y120420D01*
X366822Y121796D01*
X367535Y123518D01*
Y137200D01*
X366822Y138922D01*
X349003Y156741D01*
X349386Y157665D01*
X369291D01*
X412521Y114435D01*
D02*
G37*
%LPC*%
G36*
X568874Y97858D02*
X567152Y97145D01*
X566439Y95423D01*
Y86168D01*
X567152Y84447D01*
X568874Y83733D01*
X570596Y84447D01*
X571309Y86168D01*
Y95423D01*
X570596Y97145D01*
X568874Y97858D01*
D02*
G37*
G36*
X486800Y59727D02*
X485078Y59013D01*
X480941Y54876D01*
X480228Y53154D01*
Y23200D01*
X480941Y21478D01*
X482663Y20765D01*
X484385Y21478D01*
X485098Y23200D01*
Y52146D01*
X488522Y55569D01*
X489235Y57291D01*
X488522Y59013D01*
X486800Y59727D01*
D02*
G37*
G36*
X494293Y27153D02*
Y27153D01*
X486781D01*
Y19247D01*
X494293D01*
Y19247D01*
X495207D01*
Y19247D01*
X502081D01*
X502719Y19247D01*
X503719Y19247D01*
X510593D01*
Y20765D01*
X515320D01*
X515421Y20521D01*
X518100Y19412D01*
X520779Y20521D01*
X520880Y20765D01*
X538291D01*
X544412Y14643D01*
X544312Y14400D01*
X545421Y11721D01*
X548100Y10612D01*
X550779Y11721D01*
X551888Y14400D01*
X550779Y17079D01*
X548100Y18188D01*
X547857Y18088D01*
X541022Y24922D01*
X539300Y25635D01*
X520880D01*
X520779Y25879D01*
X518100Y26988D01*
X515421Y25879D01*
X515320Y25635D01*
X510593D01*
Y27153D01*
X503719D01*
X503081Y27153D01*
X502081Y27153D01*
X495207D01*
Y27153D01*
X494293D01*
D02*
G37*
G36*
X325237Y181437D02*
X315363D01*
Y171563D01*
X325237D01*
Y181437D01*
D02*
G37*
G36*
X536835Y181844D02*
X533057Y180279D01*
X531492Y176500D01*
X533057Y172721D01*
X536835Y171156D01*
X540614Y172721D01*
X542179Y176500D01*
X540614Y180279D01*
X536835Y181844D01*
D02*
G37*
G36*
X517150D02*
X513372Y180279D01*
X511807Y176500D01*
X513372Y172721D01*
X517150Y171156D01*
X520929Y172721D01*
X522494Y176500D01*
X520929Y180279D01*
X517150Y181844D01*
D02*
G37*
G36*
X497465D02*
X493687Y180279D01*
X492122Y176500D01*
X493687Y172721D01*
X497465Y171156D01*
X501244Y172721D01*
X502809Y176500D01*
X501244Y180279D01*
X497465Y181844D01*
D02*
G37*
G36*
X477780D02*
X474002Y180279D01*
X472437Y176500D01*
X474002Y172721D01*
X477780Y171156D01*
X481559Y172721D01*
X483124Y176500D01*
X481559Y180279D01*
X477780Y181844D01*
D02*
G37*
G36*
X458095D02*
X454317Y180279D01*
X452751Y176500D01*
X454317Y172721D01*
X458095Y171156D01*
X461874Y172721D01*
X463439Y176500D01*
X461874Y180279D01*
X458095Y181844D01*
D02*
G37*
G36*
X290300Y190688D02*
X287621Y189579D01*
X286512Y186900D01*
X287621Y184221D01*
X290300Y183112D01*
X290543Y183212D01*
X298542Y175214D01*
X298412Y174900D01*
X299521Y172221D01*
X302200Y171112D01*
X304879Y172221D01*
X305988Y174900D01*
X304879Y177579D01*
X302200Y178688D01*
X302027Y178617D01*
X293988Y186657D01*
X294088Y186900D01*
X292979Y189579D01*
X290300Y190688D01*
D02*
G37*
G36*
X575000Y188765D02*
X569733Y187717D01*
X565267Y184733D01*
X562283Y180267D01*
X561236Y175000D01*
X562283Y169733D01*
X565267Y165267D01*
X569733Y162283D01*
X575000Y161235D01*
X580267Y162283D01*
X584733Y165267D01*
X587717Y169733D01*
X588764Y175000D01*
X587717Y180267D01*
X584733Y184733D01*
X580267Y187717D01*
X575000Y188765D01*
D02*
G37*
G36*
X25000D02*
X19733Y187717D01*
X15267Y184733D01*
X12283Y180267D01*
X11236Y175000D01*
X12283Y169733D01*
X15267Y165267D01*
X19733Y162283D01*
X25000Y161235D01*
X30267Y162283D01*
X34733Y165267D01*
X37717Y169733D01*
X38765Y175000D01*
X37717Y180267D01*
X34733Y184733D01*
X30267Y187717D01*
X25000Y188765D01*
D02*
G37*
G36*
X99300Y124388D02*
X96621Y123279D01*
X95512Y120600D01*
X96621Y117921D01*
X99300Y116812D01*
X101979Y117921D01*
X103088Y120600D01*
X101979Y123279D01*
X99300Y124388D01*
D02*
G37*
G36*
X70165Y99390D02*
X68443Y98676D01*
X67730Y96954D01*
Y88128D01*
X68443Y86406D01*
X70165Y85693D01*
X71887Y86406D01*
X72601Y88128D01*
Y89768D01*
X73525Y90151D01*
X83165Y80511D01*
Y68800D01*
X83878Y67078D01*
X85600Y66365D01*
X87322Y67078D01*
X88035Y68800D01*
Y81520D01*
X87322Y83242D01*
X71887Y98676D01*
X70165Y99390D01*
D02*
G37*
G36*
X148437Y29937D02*
X138563D01*
Y20063D01*
X148437D01*
Y29937D01*
D02*
G37*
G36*
X123815Y30344D02*
X120036Y28779D01*
X118471Y25000D01*
X120036Y21221D01*
X123815Y19656D01*
X127594Y21221D01*
X129159Y25000D01*
X127594Y28779D01*
X123815Y30344D01*
D02*
G37*
G36*
X61085Y55088D02*
X58406Y53979D01*
X57297Y51300D01*
X58406Y48621D01*
X58650Y48520D01*
Y29240D01*
X57536Y28779D01*
X55971Y25000D01*
X57536Y21221D01*
X61315Y19656D01*
X65094Y21221D01*
X66659Y25000D01*
X65094Y28779D01*
X63520Y29430D01*
Y48520D01*
X63764Y48621D01*
X64873Y51300D01*
X63764Y53979D01*
X61085Y55088D01*
D02*
G37*
G36*
X575000Y38765D02*
X569733Y37717D01*
X565267Y34733D01*
X562283Y30267D01*
X561236Y25000D01*
X562283Y19733D01*
X565267Y15267D01*
X569733Y12283D01*
X575000Y11236D01*
X580267Y12283D01*
X584733Y15267D01*
X587717Y19733D01*
X588764Y25000D01*
X587717Y30267D01*
X584733Y34733D01*
X580267Y37717D01*
X575000Y38765D01*
D02*
G37*
G36*
X25000D02*
X19733Y37717D01*
X15267Y34733D01*
X12283Y30267D01*
X11236Y25000D01*
X12283Y19733D01*
X15267Y15267D01*
X19733Y12283D01*
X25000Y11236D01*
X30267Y12283D01*
X34733Y15267D01*
X37717Y19733D01*
X38765Y25000D01*
X37717Y30267D01*
X34733Y34733D01*
X30267Y37717D01*
X25000Y38765D01*
D02*
G37*
G36*
X368409Y98395D02*
X363011D01*
X361289Y97682D01*
X360576Y95960D01*
X361289Y94238D01*
X363011Y93524D01*
X367400D01*
X375065Y85860D01*
Y67228D01*
X375778Y65506D01*
X377500Y64793D01*
X379222Y65506D01*
X379935Y67228D01*
Y86869D01*
X379222Y88591D01*
X370131Y97682D01*
X368409Y98395D01*
D02*
G37*
G36*
X406539Y56619D02*
X403860Y55509D01*
X402751Y52830D01*
X403860Y50151D01*
X404104Y50051D01*
Y43460D01*
X403776Y43325D01*
X402666Y40646D01*
X403776Y37967D01*
X406454Y36857D01*
X409133Y37967D01*
X410243Y40646D01*
X409133Y43325D01*
X408974Y43390D01*
Y50051D01*
X409218Y50151D01*
X410327Y52830D01*
X409218Y55509D01*
X406539Y56619D01*
D02*
G37*
G36*
X407737Y29037D02*
X397863D01*
Y19163D01*
X407737D01*
Y29037D01*
D02*
G37*
%LPD*%
D10*
X482663Y23200D02*
D03*
X490537D02*
D03*
X506837D02*
D03*
X498963D02*
D03*
X568874Y86168D02*
D03*
X561000D02*
D03*
Y76368D02*
D03*
X568874D02*
D03*
Y95423D02*
D03*
X561000D02*
D03*
X568874Y104868D02*
D03*
X561000D02*
D03*
X548402Y128828D02*
D03*
X540528D02*
D03*
X465374Y105269D02*
D03*
X457500D02*
D03*
X465374Y95664D02*
D03*
X457500D02*
D03*
X465374Y86300D02*
D03*
X457500D02*
D03*
Y76900D02*
D03*
X465374D02*
D03*
X444774Y128900D02*
D03*
X436900D02*
D03*
X342009Y129800D02*
D03*
X334135D02*
D03*
X355137Y77500D02*
D03*
X363011D02*
D03*
Y86800D02*
D03*
X355137D02*
D03*
X363011Y95960D02*
D03*
X355137D02*
D03*
X363011Y105100D02*
D03*
X355137D02*
D03*
X260102Y77900D02*
D03*
X267976D02*
D03*
Y87300D02*
D03*
X260102D02*
D03*
X267976Y96160D02*
D03*
X260102D02*
D03*
X267976Y105300D02*
D03*
X260102D02*
D03*
X249176Y129600D02*
D03*
X241302D02*
D03*
X161828Y77600D02*
D03*
X169702D02*
D03*
Y86800D02*
D03*
X161828D02*
D03*
X150339Y129500D02*
D03*
X142465D02*
D03*
X169702Y105300D02*
D03*
X161828D02*
D03*
X169702Y95954D02*
D03*
X161828D02*
D03*
X51537Y130000D02*
D03*
X43663D02*
D03*
X70137Y88100D02*
D03*
X62263D02*
D03*
X70137Y106100D02*
D03*
X62263D02*
D03*
Y78900D02*
D03*
X70137D02*
D03*
X70165Y96954D02*
D03*
X62291D02*
D03*
D11*
X162594Y129500D02*
D03*
X561000Y65268D02*
D03*
X561794Y128828D02*
D03*
X519537Y95423D02*
D03*
X457437Y65800D02*
D03*
X457871Y128900D02*
D03*
X416637Y95664D02*
D03*
X313674Y95960D02*
D03*
X355431Y129800D02*
D03*
X355137Y66500D02*
D03*
X260102Y67200D02*
D03*
X261139Y129560D02*
D03*
X219568Y96160D02*
D03*
X121837Y95954D02*
D03*
X161868Y66900D02*
D03*
X63300Y130000D02*
D03*
X25328Y96960D02*
D03*
X62300Y68100D02*
D03*
D12*
X526443Y106300D02*
D03*
X519357D02*
D03*
X568880Y114469D02*
D03*
X561794D02*
D03*
X422043Y107000D02*
D03*
X414957D02*
D03*
X465324Y114400D02*
D03*
X458237D02*
D03*
X362517Y114800D02*
D03*
X355431D02*
D03*
X318643Y107000D02*
D03*
X311557D02*
D03*
X226443Y106700D02*
D03*
X219357D02*
D03*
X267983Y114800D02*
D03*
X260896D02*
D03*
X169680Y114800D02*
D03*
X162594D02*
D03*
X126343Y106800D02*
D03*
X119257D02*
D03*
X28872Y107659D02*
D03*
X21785D02*
D03*
X70077Y115100D02*
D03*
X62991D02*
D03*
D13*
X536163Y114428D02*
D03*
X548368D02*
D03*
X536163Y73628D02*
D03*
X548368D02*
D03*
X432535Y114400D02*
D03*
X444739D02*
D03*
X432535Y75100D02*
D03*
X444739D02*
D03*
X329772Y114800D02*
D03*
X341976D02*
D03*
X329672Y74600D02*
D03*
X341876D02*
D03*
X236937Y114800D02*
D03*
X249142D02*
D03*
X236937Y75600D02*
D03*
X249142D02*
D03*
X138135Y74900D02*
D03*
X150339D02*
D03*
X138135Y114800D02*
D03*
X150339D02*
D03*
X39398Y115300D02*
D03*
X51602D02*
D03*
X39298Y75500D02*
D03*
X51502D02*
D03*
D14*
X548354Y95423D02*
D03*
Y101334D02*
D03*
Y89523D02*
D03*
X444784Y95664D02*
D03*
Y101575D02*
D03*
Y89764D02*
D03*
X341891Y95954D02*
D03*
Y101865D02*
D03*
Y90054D02*
D03*
X249156Y96154D02*
D03*
Y102065D02*
D03*
Y90254D02*
D03*
X150354Y95954D02*
D03*
Y101865D02*
D03*
Y90054D02*
D03*
X51516Y96954D02*
D03*
Y102865D02*
D03*
Y91054D02*
D03*
D15*
X595000Y5000D02*
D03*
X5000D02*
D03*
Y195000D02*
D03*
D16*
X294100Y55900D02*
Y60700D01*
X276900Y77900D02*
X294100Y60700D01*
X354300Y21400D02*
Y30700D01*
X344554Y40446D02*
X354300Y30700D01*
X267976Y77900D02*
X276900D01*
X311500Y129768D02*
X319532Y137800D01*
X331000D01*
X334135Y134665D01*
Y129800D02*
Y134665D01*
X293200Y86000D02*
Y111800D01*
Y86000D02*
X313191Y66009D01*
X319789D01*
X267976Y87300D02*
X276400D01*
X267976D02*
Y96160D01*
X313500Y58600D02*
X344700D01*
X280100Y92000D02*
X313500Y58600D01*
X280100Y92000D02*
Y109300D01*
X363011Y65674D02*
X375854Y52830D01*
X319935Y65863D02*
X345037D01*
X358070Y52830D01*
X375854D01*
X175200Y86800D02*
X177700Y84300D01*
Y67100D02*
Y84300D01*
X170500Y59900D02*
X177700Y67100D01*
X121500Y59900D02*
X170500D01*
X116400Y65000D02*
X121500Y59900D01*
X169702Y86800D02*
X175200D01*
X169702D02*
Y95954D01*
X85600Y68800D02*
Y81520D01*
X70165Y96954D02*
X85600Y81520D01*
X70165Y88128D02*
Y96954D01*
X568874Y86168D02*
Y95423D01*
X486700Y72500D02*
Y106300D01*
X462000Y57000D02*
X476100Y71100D01*
X413600Y57000D02*
X462000D01*
X403400Y67200D02*
X413600Y57000D01*
X476100Y71100D02*
Y81300D01*
X471100Y86300D02*
X476100Y81300D01*
X465374Y86300D02*
X471100D01*
X465374D02*
Y95664D01*
X556700Y35300D02*
X584800Y63400D01*
X515165Y106400D02*
X519357D01*
X512450Y103685D02*
X515165Y106400D01*
X512450Y93673D02*
Y103685D01*
X512400Y93623D02*
X512450Y93673D01*
X512400Y77300D02*
Y93623D01*
Y77300D02*
X516072Y73628D01*
X406539Y40730D02*
Y52830D01*
X368409Y95960D02*
X377500Y86869D01*
X363011Y95960D02*
X368409D01*
X150000Y54500D02*
X162594Y41906D01*
X106128Y54500D02*
X150000D01*
X93400Y67228D02*
X106128Y54500D01*
X106968Y74900D02*
X138135D01*
X100700Y81169D02*
X106968Y74900D01*
X100700Y81169D02*
Y100600D01*
X93400Y67228D02*
Y106200D01*
X222423Y57500D02*
X263500D01*
X267976Y61976D01*
X553928Y150000D02*
X585500D01*
X540528Y136600D02*
X553928Y150000D01*
X371600Y114800D02*
X391000Y95400D01*
Y23200D02*
Y95400D01*
X379600Y11800D02*
X391000Y23200D01*
X162594Y21406D02*
Y41906D01*
Y21406D02*
X172400Y11600D01*
X51537Y130000D02*
X63300D01*
X51537Y115365D02*
Y130000D01*
X51602Y115300D02*
X62791D01*
X51516Y96954D02*
X62291D01*
Y106072D01*
X51516Y102865D02*
Y115345D01*
Y91054D02*
X54246D01*
X57200Y88100D01*
X62263D01*
Y78900D02*
Y88100D01*
X51516Y75514D02*
Y91054D01*
X25328Y96960D02*
X39410D01*
X62300Y68100D02*
Y78863D01*
X31643Y107700D02*
X33060D01*
X37894Y102865D01*
X51516D01*
X150339Y114800D02*
Y129500D01*
X162594D01*
X150354Y101865D02*
Y114786D01*
X150339Y114800D02*
X162594D01*
X150354Y95954D02*
X161828D01*
Y105300D01*
Y66939D02*
Y77600D01*
Y86800D01*
X150354Y90054D02*
X153391D01*
X156645Y86800D01*
X161828D01*
X150354Y74914D02*
Y90054D01*
X135635Y101865D02*
X150354D01*
X130700Y106800D02*
X135635Y101865D01*
X126343Y106800D02*
X130700D01*
X121837Y95954D02*
X138242D01*
X249142Y114800D02*
Y129565D01*
X261134D01*
X249142Y114800D02*
X260896D01*
X249156Y96154D02*
X260097D01*
Y105295D01*
X249156Y90254D02*
X251815D01*
X254769Y87300D01*
X260102D01*
Y67200D02*
Y77900D01*
Y87300D01*
X249156Y75614D02*
Y90254D01*
X219568Y96160D02*
X237050D01*
X231100Y106700D02*
X235735Y102065D01*
X226443Y106700D02*
X231100D01*
X341976Y129768D02*
X342009Y129800D01*
X341976Y114800D02*
X355431D01*
X341891Y101865D02*
Y114714D01*
Y95954D02*
X355132D01*
X355137Y95960D01*
Y105100D01*
X341891Y74614D02*
Y90054D01*
X346196D01*
X349450Y86800D01*
X355137D01*
Y77500D02*
Y86800D01*
X328135Y101865D02*
X341891D01*
X323000Y107000D02*
X328135Y101865D01*
X318643Y107000D02*
X323000D01*
X444784Y128890D02*
X457861D01*
X444739Y114400D02*
X444784D01*
X458237D01*
X444784D02*
Y128890D01*
X457500Y95664D02*
Y105269D01*
X465374D02*
Y114350D01*
X444784Y95664D02*
X457500D01*
X444784Y75145D02*
Y89764D01*
X416637Y95664D02*
X432673D01*
X432085Y101575D02*
X444784D01*
X426660Y107000D02*
X432085Y101575D01*
X422043Y107000D02*
X426660D01*
X444784Y101575D02*
Y114400D01*
Y89764D02*
X449436D01*
X452900Y86300D01*
X457500D01*
Y65863D02*
Y76900D01*
Y86300D01*
X548354Y101334D02*
Y114414D01*
Y95423D02*
X561000D01*
Y104868D01*
X568874D02*
Y114462D01*
X548354Y73642D02*
Y89523D01*
X551437D01*
X554791Y86168D01*
X561000D01*
Y65268D02*
Y76368D01*
Y86168D01*
X548368Y114428D02*
Y128794D01*
X548402Y128828D01*
X548354Y114414D02*
X561739D01*
X548402Y128828D02*
X561794D01*
X535166Y101334D02*
X548354D01*
X530200Y106300D02*
X535166Y101334D01*
X526443Y106300D02*
X530200D01*
X519537Y95423D02*
X536242D01*
X568880Y114469D02*
X579032D01*
X584800Y108700D01*
Y63400D02*
Y108700D01*
X465324Y114400D02*
X478600D01*
X486700Y106300D01*
X70137Y106100D02*
Y115040D01*
X169702Y105300D02*
Y114778D01*
X267976Y105300D02*
Y114794D01*
X344700Y58600D02*
X363430Y39870D01*
Y24100D02*
Y39870D01*
X169680Y114800D02*
X189441D01*
X354300Y21400D02*
X359100Y16600D01*
X375615D01*
X383115Y24100D01*
X356045Y11800D02*
X379600D01*
X343745Y24100D02*
X356045Y11800D01*
X490537Y23200D02*
X498963D01*
X483200Y154600D02*
X519357Y118443D01*
Y106300D02*
Y118443D01*
X106900Y106800D02*
X119257D01*
X212968Y75600D02*
X236937D01*
X311641Y74600D02*
X329672D01*
X402800Y24100D02*
X404100Y25400D01*
X342009Y129800D02*
X355431D01*
X341976Y114800D02*
Y129768D01*
X516072Y73628D02*
X536163D01*
X21785Y107659D02*
Y136485D01*
X70077Y115100D02*
X84500D01*
X311557Y107000D02*
Y119043D01*
X97170Y176500D02*
X107170Y186500D01*
X121400D01*
X127000Y180900D01*
Y172000D02*
Y180900D01*
Y172000D02*
X139300Y159700D01*
X159800D01*
X174800Y144700D01*
Y125400D02*
Y144700D01*
X169680Y120280D02*
X174800Y125400D01*
X169680Y114800D02*
Y120280D01*
X116855Y142945D02*
Y176500D01*
Y142945D02*
X119257Y140543D01*
Y106800D02*
Y140543D01*
X70077Y115100D02*
Y119477D01*
X73800Y123200D01*
Y143400D01*
X57800Y159400D02*
X73800Y143400D01*
X57800Y159400D02*
Y176500D01*
X21785Y136485D02*
X47400Y162100D01*
Y182500D01*
X51400Y186500D01*
X67485D01*
X77485Y176500D01*
X136540D02*
X146140Y186100D01*
X160600D01*
X225300Y141800D02*
X264800D01*
X272000Y134600D01*
Y126300D02*
Y134600D01*
X267800Y122100D02*
X272000Y126300D01*
X267800Y114983D02*
Y122100D01*
X208100Y159000D02*
X225300Y141800D01*
X195595Y176500D02*
X206995Y165100D01*
X212700D01*
X175910Y176500D02*
X185510Y186100D01*
X199000D01*
X206200Y178900D01*
Y173000D02*
Y178900D01*
Y173000D02*
X209600Y169600D01*
X216000D01*
X365100Y123518D02*
Y137200D01*
X363011Y121429D02*
X365100Y123518D01*
X363011Y105100D02*
Y114800D01*
Y121429D01*
Y114800D02*
X371600D01*
X274335Y176500D02*
X286935Y163900D01*
X355137Y66005D02*
Y66500D01*
Y77500D01*
X329772Y114800D02*
Y120772D01*
X334135Y125135D01*
Y129800D01*
X432535Y114400D02*
Y119935D01*
X436900Y124300D01*
Y128900D01*
X536163Y114428D02*
Y120063D01*
X540528Y124428D01*
Y128828D01*
X236937Y114800D02*
Y121037D01*
X241302Y125402D01*
Y129600D01*
X138135Y114800D02*
Y121435D01*
X142465Y125765D01*
Y129500D01*
X39398Y115300D02*
Y120735D01*
X43663Y125000D01*
Y130000D01*
X568874Y68900D02*
Y76368D01*
X540528Y128828D02*
Y136600D01*
X465374Y68726D02*
Y76900D01*
X436900Y128900D02*
Y137400D01*
X363011Y65674D02*
Y77500D01*
X267976Y61976D02*
Y77900D01*
X241302Y129600D02*
Y136500D01*
X169702Y70100D02*
Y77600D01*
X142465Y129500D02*
Y138200D01*
X506837Y23200D02*
X518100D01*
X408700Y75100D02*
X432535D01*
X397500Y86300D02*
X408700Y75100D01*
X397500Y86300D02*
Y101484D01*
X403017Y107000D01*
X414957D01*
X301000D02*
X311557D01*
X189441Y114800D02*
X195400Y108841D01*
X207700Y80869D02*
X212968Y75600D01*
X212600Y106700D02*
X219357D01*
X207700Y101800D02*
X212600Y106700D01*
X207700Y80869D02*
Y101800D01*
X84500Y115100D02*
X93400Y106200D01*
X100700Y100600D02*
X106900Y106800D01*
X32800Y75500D02*
X39298D01*
X13100Y95200D02*
X32800Y75500D01*
X13100Y95200D02*
Y102500D01*
X18259Y107659D01*
X21785D01*
X254650Y176500D02*
X261350Y183200D01*
X281682D01*
X283433Y181450D01*
X283450D01*
X295700Y169200D01*
X302200Y174900D02*
Y175000D01*
X290300Y186900D02*
X302200Y175000D01*
X267983Y114800D02*
X274600D01*
X280100Y109300D01*
X297850Y88391D02*
Y103850D01*
Y88391D02*
X311641Y74600D01*
X297850Y103850D02*
X301000Y107000D01*
X286935Y163900D02*
X324800D01*
X331500Y170600D01*
Y183100D01*
X337300Y188900D01*
X424300D01*
X359670Y176500D02*
X367170Y184000D01*
X421200D01*
X426100Y179100D01*
X249142Y102079D02*
Y114800D01*
X235735Y102065D02*
X249156D01*
X313674Y95960D02*
X329784D01*
X414957Y107000D02*
Y115443D01*
X399040Y143060D02*
Y176500D01*
X418725Y147325D02*
Y176500D01*
X424300Y188900D02*
X430500Y182700D01*
Y168900D02*
Y182700D01*
Y168900D02*
X444800Y154600D01*
X483200D01*
X426100Y136900D02*
Y179100D01*
X422513Y133313D02*
X426100Y136900D01*
X172400Y11600D02*
X282300D01*
X305600Y34900D01*
X325100D01*
X160600Y186100D02*
X166000Y180700D01*
Y173800D02*
Y180700D01*
Y173800D02*
X180800Y159000D01*
X208100D01*
X156225Y176500D02*
X179925Y152800D01*
X203500D01*
X219357Y136943D01*
Y106700D02*
Y136943D01*
X234965Y176500D02*
X251365Y160100D01*
X370300D01*
X414957Y115443D01*
X216000Y169600D02*
X229300Y156300D01*
X346000D01*
X365100Y137200D01*
X212700Y165100D02*
X225200Y152600D01*
X278000D01*
X311557Y119043D01*
X271900Y147100D02*
X300054Y118946D01*
X241302Y147100D02*
X271900D01*
X293200Y111800D02*
X300200Y118800D01*
X70137Y71263D02*
Y78900D01*
Y71263D02*
X99300Y42100D01*
X43663Y130000D02*
Y137863D01*
X61085Y25230D02*
Y51300D01*
Y25230D02*
X61315Y25000D01*
X518100Y23200D02*
X539300D01*
X556700Y12000D02*
Y35300D01*
X304375Y24100D02*
X324475Y4000D01*
X548700D01*
X556700Y12000D01*
X324060Y24100D02*
X340660Y7500D01*
X421700D01*
X486700Y72500D01*
X539300Y23200D02*
X548100Y14400D01*
X482663Y23200D02*
Y53154D01*
X486800Y57291D01*
X377500Y67228D02*
Y86869D01*
X183837Y70137D02*
X219974Y34000D01*
X225600D01*
X245219Y34200D02*
X274590D01*
X284690Y24100D01*
X195400Y66200D02*
Y108841D01*
Y66200D02*
X221154Y40446D01*
X344554D01*
X201800Y69100D02*
Y95640D01*
Y69100D02*
X224300Y46600D01*
X295400D01*
X303400Y54600D01*
Y60300D01*
X276400Y87300D02*
X303254Y60446D01*
X303400Y60300D01*
D17*
X123815Y25000D02*
D03*
X61315D02*
D03*
X186265Y24100D02*
D03*
X205950D02*
D03*
X225635D02*
D03*
X245320D02*
D03*
X265005D02*
D03*
X284690D02*
D03*
X304375D02*
D03*
X324060D02*
D03*
X343745D02*
D03*
X363430D02*
D03*
X383115D02*
D03*
X274335Y176500D02*
D03*
X254650D02*
D03*
X234965D02*
D03*
X215280D02*
D03*
X195595D02*
D03*
X175910D02*
D03*
X156225D02*
D03*
X136540D02*
D03*
X116855D02*
D03*
X97170D02*
D03*
X77485D02*
D03*
X536835D02*
D03*
X517150D02*
D03*
X497465D02*
D03*
X477780D02*
D03*
X458095D02*
D03*
X438410D02*
D03*
X418725D02*
D03*
X399040D02*
D03*
X379355D02*
D03*
X359670D02*
D03*
X339985D02*
D03*
D18*
X143500Y25000D02*
D03*
X81000D02*
D03*
X402800Y24100D02*
D03*
X57800Y176500D02*
D03*
X320300D02*
D03*
D19*
X25000Y175000D02*
D03*
Y25000D02*
D03*
X575000Y175000D02*
D03*
Y25000D02*
D03*
D20*
X293954Y55841D02*
D03*
X300054Y118946D02*
D03*
X311354Y129913D02*
D03*
X303254Y60446D02*
D03*
X319789Y66009D02*
D03*
X333989Y148511D02*
D03*
X183691Y70283D02*
D03*
X222277Y57768D02*
D03*
X116254Y65146D02*
D03*
X85454Y68946D02*
D03*
X486800Y57291D02*
D03*
X461854Y57146D02*
D03*
X403254Y67346D02*
D03*
X406454Y40646D02*
D03*
X406539Y52830D02*
D03*
X585354Y150146D02*
D03*
X375854Y52830D02*
D03*
X377354Y67374D02*
D03*
X142465Y138200D02*
D03*
X169702Y70100D02*
D03*
X241302Y136500D02*
D03*
X436900Y137400D02*
D03*
X465400Y68700D02*
D03*
X540528Y136600D02*
D03*
X568874Y68900D02*
D03*
X518100Y23200D02*
D03*
X201800Y95640D02*
D03*
X295700Y169200D02*
D03*
X290300Y186900D02*
D03*
X302200Y174900D02*
D03*
X399200Y142900D02*
D03*
X418600Y147200D02*
D03*
X422513Y133313D02*
D03*
X325100Y34900D02*
D03*
X225600Y34000D02*
D03*
X241157Y147246D02*
D03*
X99300Y42100D02*
D03*
Y120600D02*
D03*
X43800Y138000D02*
D03*
X61085Y51300D02*
D03*
X548100Y14400D02*
D03*
X303400Y45500D02*
D03*
X245219Y34200D02*
D03*
M02*
