G04 Layer_Color=128*
%FSLAX25Y25*%
%MOIN*%
G70*
G01*
G75*
%ADD34C,0.00200*%
D34*
X121059Y25000D02*
X126571D01*
X123815Y22244D02*
Y27756D01*
X140744Y25000D02*
X146256D01*
X143500Y22244D02*
Y27756D01*
X58559Y25000D02*
X64071D01*
X61315Y22244D02*
Y27756D01*
X78244Y25000D02*
X83756D01*
X81000Y22244D02*
Y27756D01*
X183509Y24100D02*
X189021D01*
X186265Y21344D02*
Y26856D01*
X203194Y24100D02*
X208705D01*
X205950Y21344D02*
Y26856D01*
X222879Y24100D02*
X228391D01*
X225635Y21344D02*
Y26856D01*
X242564Y24100D02*
X248076D01*
X245320Y21344D02*
Y26856D01*
X262249Y24100D02*
X267761D01*
X265005Y21344D02*
Y26856D01*
X281934Y24100D02*
X287446D01*
X284690Y21344D02*
Y26856D01*
X301619Y24100D02*
X307131D01*
X304375Y21344D02*
Y26856D01*
X321304Y24100D02*
X326816D01*
X324060Y21344D02*
Y26856D01*
X340989Y24100D02*
X346501D01*
X343745Y21344D02*
Y26856D01*
X360674Y24100D02*
X366186D01*
X363430Y21344D02*
Y26856D01*
X380359Y24100D02*
X385871D01*
X383115Y21344D02*
Y26856D01*
X400044Y24100D02*
X405556D01*
X402800Y21344D02*
Y26856D01*
X271580Y176500D02*
X277091D01*
X274335Y173744D02*
Y179256D01*
X251894Y176500D02*
X257406D01*
X254650Y173744D02*
Y179256D01*
X232209Y176500D02*
X237721D01*
X234965Y173744D02*
Y179256D01*
X212524Y176500D02*
X218036D01*
X215280Y173744D02*
Y179256D01*
X192839Y176500D02*
X198351D01*
X195595Y173744D02*
Y179256D01*
X173154Y176500D02*
X178666D01*
X175910Y173744D02*
Y179256D01*
X153469Y176500D02*
X158981D01*
X156225Y173744D02*
Y179256D01*
X133784Y176500D02*
X139296D01*
X136540Y173744D02*
Y179256D01*
X114099Y176500D02*
X119611D01*
X116855Y173744D02*
Y179256D01*
X94414Y176500D02*
X99926D01*
X97170Y173744D02*
Y179256D01*
X74729Y176500D02*
X80241D01*
X77485Y173744D02*
Y179256D01*
X55044Y176500D02*
X60556D01*
X57800Y173744D02*
Y179256D01*
X17500Y175000D02*
X32500D01*
X25000Y167500D02*
Y182500D01*
X17500Y25000D02*
X32500D01*
X25000Y17500D02*
Y32500D01*
X567500Y175000D02*
X582500D01*
X575000Y167500D02*
Y182500D01*
X534080Y176500D02*
X539591D01*
X536835Y173744D02*
Y179256D01*
X514395Y176500D02*
X519906D01*
X517150Y173744D02*
Y179256D01*
X494709Y176500D02*
X500221D01*
X497465Y173744D02*
Y179256D01*
X475024Y176500D02*
X480536D01*
X477780Y173744D02*
Y179256D01*
X455339Y176500D02*
X460851D01*
X458095Y173744D02*
Y179256D01*
X435654Y176500D02*
X441166D01*
X438410Y173744D02*
Y179256D01*
X415969Y176500D02*
X421481D01*
X418725Y173744D02*
Y179256D01*
X396284Y176500D02*
X401796D01*
X399040Y173744D02*
Y179256D01*
X376599Y176500D02*
X382111D01*
X379355Y173744D02*
Y179256D01*
X356914Y176500D02*
X362426D01*
X359670Y173744D02*
Y179256D01*
X337229Y176500D02*
X342741D01*
X339985Y173744D02*
Y179256D01*
X317544Y176500D02*
X323056D01*
X320300Y173744D02*
Y179256D01*
X567500Y25000D02*
X582500D01*
X575000Y17500D02*
Y32500D01*
X292554Y55841D02*
X295354D01*
X293954Y54441D02*
Y57241D01*
X298654Y118946D02*
X301454D01*
X300054Y117546D02*
Y120346D01*
X309954Y129913D02*
X312754D01*
X311354Y128513D02*
Y131313D01*
X301854Y60446D02*
X304654D01*
X303254Y59046D02*
Y61846D01*
X318389Y66009D02*
X321189D01*
X319789Y64609D02*
Y67409D01*
X332589Y148511D02*
X335389D01*
X333989Y147111D02*
Y149911D01*
X182291Y70283D02*
X185091D01*
X183691Y68883D02*
Y71683D01*
X220877Y57768D02*
X223677D01*
X222277Y56368D02*
Y59168D01*
X114854Y65146D02*
X117654D01*
X116254Y63746D02*
Y66546D01*
X84054Y68946D02*
X86854D01*
X85454Y67546D02*
Y70346D01*
X485400Y57291D02*
X488200D01*
X486800Y55891D02*
Y58691D01*
X460454Y57146D02*
X463254D01*
X461854Y55746D02*
Y58546D01*
X401854Y67346D02*
X404654D01*
X403254Y65946D02*
Y68746D01*
X405054Y40646D02*
X407854D01*
X406454Y39246D02*
Y42046D01*
X405139Y52830D02*
X407939D01*
X406539Y51430D02*
Y54230D01*
X583954Y150146D02*
X586754D01*
X585354Y148746D02*
Y151546D01*
X374454Y52830D02*
X377254D01*
X375854Y51430D02*
Y54230D01*
X375954Y67374D02*
X378754D01*
X377354Y65974D02*
Y68774D01*
X141065Y138200D02*
X143865D01*
X142465Y136800D02*
Y139600D01*
X168302Y70100D02*
X171102D01*
X169702Y68700D02*
Y71500D01*
X239902Y136500D02*
X242702D01*
X241302Y135100D02*
Y137900D01*
X435500Y137400D02*
X438300D01*
X436900Y136000D02*
Y138800D01*
X464000Y68700D02*
X466800D01*
X465400Y67300D02*
Y70100D01*
X539128Y136600D02*
X541928D01*
X540528Y135200D02*
Y138000D01*
X567474Y68900D02*
X570274D01*
X568874Y67500D02*
Y70300D01*
X516700Y23200D02*
X519500D01*
X518100Y21800D02*
Y24600D01*
X200400Y95640D02*
X203200D01*
X201800Y94240D02*
Y97040D01*
X294300Y169200D02*
X297100D01*
X295700Y167800D02*
Y170600D01*
X288900Y186900D02*
X291700D01*
X290300Y185500D02*
Y188300D01*
X300800Y174900D02*
X303600D01*
X302200Y173500D02*
Y176300D01*
X397800Y142900D02*
X400600D01*
X399200Y141500D02*
Y144300D01*
X417200Y147200D02*
X420000D01*
X418600Y145800D02*
Y148600D01*
X421113Y133313D02*
X423913D01*
X422513Y131913D02*
Y134713D01*
X323700Y34900D02*
X326500D01*
X325100Y33500D02*
Y36300D01*
X224200Y34000D02*
X227000D01*
X225600Y32600D02*
Y35400D01*
X239757Y147246D02*
X242557D01*
X241157Y145846D02*
Y148646D01*
X97900Y42100D02*
X100700D01*
X99300Y40700D02*
Y43500D01*
X97900Y120600D02*
X100700D01*
X99300Y119200D02*
Y122000D01*
X42400Y138000D02*
X45200D01*
X43800Y136600D02*
Y139400D01*
X59685Y51300D02*
X62485D01*
X61085Y49900D02*
Y52700D01*
X546700Y14400D02*
X549500D01*
X548100Y13000D02*
Y15800D01*
X302000Y45500D02*
X304800D01*
X303400Y44100D02*
Y46900D01*
X243819Y34200D02*
X246619D01*
X245219Y32800D02*
Y35600D01*
M02*
