G04 Layer_Color=16711935*
%FSLAX25Y25*%
%MOIN*%
G70*
G01*
G75*
%ADD15R,0.05000X0.05000*%
%ADD25R,0.06312X0.06706*%
%ADD26C,0.09500*%
%ADD27R,0.05524X0.06312*%
%ADD28R,0.06706X0.11824*%
%ADD29R,0.05918X0.04343*%
%ADD30C,0.08674*%
%ADD31R,0.08674X0.08674*%
%ADD32C,0.25800*%
%ADD33C,0.05800*%
G36*
X67004Y101147D02*
X67055Y101137D01*
X67105Y101120D01*
X67152Y101097D01*
X67195Y101068D01*
X67235Y101033D01*
X67269Y100994D01*
X67298Y100950D01*
X67321Y100903D01*
X67338Y100853D01*
X67349Y100802D01*
X67352Y100750D01*
Y93931D01*
X67349Y93878D01*
X67338Y93827D01*
X67321Y93777D01*
X67298Y93730D01*
X67269Y93687D01*
X67235Y93647D01*
X67195Y93613D01*
X67152Y93584D01*
X67105Y93560D01*
X67055Y93543D01*
X67004Y93533D01*
X66951Y93530D01*
X55219D01*
X55167Y93533D01*
X55115Y93543D01*
X55066Y93560D01*
X55018Y93584D01*
X54975Y93613D01*
X54935Y93647D01*
X54901Y93687D01*
X54872Y93730D01*
X54848Y93777D01*
X54832Y93827D01*
X54821Y93878D01*
X54818Y93931D01*
Y95168D01*
X48841D01*
X48789Y95171D01*
X48737Y95181D01*
X48687Y95198D01*
X48640Y95221D01*
X48597Y95250D01*
X48557Y95285D01*
X48523Y95324D01*
X48494Y95368D01*
X48471Y95415D01*
X48454Y95465D01*
X48443Y95516D01*
X48440Y95569D01*
Y99112D01*
X48443Y99164D01*
X48454Y99216D01*
X48471Y99265D01*
X48494Y99312D01*
X48523Y99356D01*
X48557Y99395D01*
X48597Y99430D01*
X48640Y99459D01*
X48687Y99482D01*
X48737Y99499D01*
X48789Y99509D01*
X48841Y99513D01*
X54818D01*
Y100750D01*
X54821Y100802D01*
X54832Y100853D01*
X54848Y100903D01*
X54872Y100950D01*
X54901Y100994D01*
X54935Y101033D01*
X54975Y101068D01*
X55018Y101097D01*
X55066Y101120D01*
X55115Y101137D01*
X55167Y101147D01*
X55219Y101151D01*
X66951D01*
X67004Y101147D01*
D02*
G37*
G36*
X161504Y100547D02*
X161555Y100537D01*
X161605Y100520D01*
X161652Y100497D01*
X161695Y100468D01*
X161735Y100433D01*
X161769Y100394D01*
X161798Y100350D01*
X161821Y100303D01*
X161838Y100253D01*
X161849Y100202D01*
X161852Y100150D01*
Y93331D01*
X161849Y93278D01*
X161838Y93227D01*
X161821Y93177D01*
X161798Y93130D01*
X161769Y93087D01*
X161735Y93047D01*
X161695Y93013D01*
X161652Y92984D01*
X161605Y92960D01*
X161555Y92944D01*
X161504Y92933D01*
X161451Y92930D01*
X149719D01*
X149667Y92933D01*
X149615Y92944D01*
X149565Y92960D01*
X149519Y92984D01*
X149475Y93013D01*
X149435Y93047D01*
X149401Y93087D01*
X149372Y93130D01*
X149348Y93177D01*
X149332Y93227D01*
X149321Y93278D01*
X149318Y93331D01*
Y94568D01*
X143341D01*
X143289Y94571D01*
X143237Y94581D01*
X143187Y94598D01*
X143140Y94621D01*
X143097Y94651D01*
X143058Y94685D01*
X143023Y94725D01*
X142994Y94768D01*
X142971Y94815D01*
X142954Y94865D01*
X142944Y94916D01*
X142940Y94968D01*
Y98512D01*
X142944Y98564D01*
X142954Y98616D01*
X142971Y98665D01*
X142994Y98712D01*
X143023Y98756D01*
X143058Y98795D01*
X143097Y98830D01*
X143140Y98859D01*
X143187Y98882D01*
X143237Y98899D01*
X143289Y98909D01*
X143341Y98913D01*
X149318D01*
Y100150D01*
X149321Y100202D01*
X149332Y100253D01*
X149348Y100303D01*
X149372Y100350D01*
X149401Y100394D01*
X149435Y100433D01*
X149475Y100468D01*
X149519Y100497D01*
X149565Y100520D01*
X149615Y100537D01*
X149667Y100547D01*
X149719Y100550D01*
X161451D01*
X161504Y100547D01*
D02*
G37*
G36*
X355487Y100267D02*
X355538Y100257D01*
X355588Y100240D01*
X355635Y100216D01*
X355679Y100187D01*
X355718Y100153D01*
X355753Y100113D01*
X355782Y100070D01*
X355805Y100023D01*
X355822Y99973D01*
X355832Y99922D01*
X355836Y99869D01*
Y93050D01*
X355832Y92998D01*
X355822Y92947D01*
X355805Y92897D01*
X355782Y92850D01*
X355753Y92806D01*
X355718Y92767D01*
X355679Y92732D01*
X355635Y92703D01*
X355588Y92680D01*
X355538Y92663D01*
X355487Y92653D01*
X355435Y92650D01*
X343702D01*
X343650Y92653D01*
X343599Y92663D01*
X343549Y92680D01*
X343502Y92703D01*
X343458Y92732D01*
X343419Y92767D01*
X343384Y92806D01*
X343355Y92850D01*
X343332Y92897D01*
X343315Y92947D01*
X343305Y92998D01*
X343302Y93050D01*
Y94287D01*
X337324D01*
X337272Y94291D01*
X337221Y94301D01*
X337171Y94318D01*
X337124Y94341D01*
X337080Y94370D01*
X337041Y94405D01*
X337006Y94444D01*
X336977Y94488D01*
X336954Y94535D01*
X336937Y94584D01*
X336927Y94636D01*
X336924Y94688D01*
Y98232D01*
X336927Y98284D01*
X336937Y98335D01*
X336954Y98385D01*
X336977Y98432D01*
X337006Y98475D01*
X337041Y98515D01*
X337080Y98549D01*
X337124Y98579D01*
X337171Y98602D01*
X337221Y98619D01*
X337272Y98629D01*
X337324Y98632D01*
X343302D01*
Y99869D01*
X343305Y99922D01*
X343315Y99973D01*
X343332Y100023D01*
X343355Y100070D01*
X343384Y100113D01*
X343419Y100153D01*
X343458Y100187D01*
X343502Y100216D01*
X343549Y100240D01*
X343599Y100257D01*
X343650Y100267D01*
X343702Y100270D01*
X355435D01*
X355487Y100267D01*
D02*
G37*
G36*
X458344Y99767D02*
X458395Y99756D01*
X458445Y99740D01*
X458492Y99716D01*
X458535Y99687D01*
X458575Y99653D01*
X458609Y99613D01*
X458638Y99570D01*
X458662Y99523D01*
X458678Y99473D01*
X458689Y99422D01*
X458692Y99369D01*
Y92550D01*
X458689Y92498D01*
X458678Y92447D01*
X458662Y92397D01*
X458638Y92350D01*
X458609Y92306D01*
X458575Y92267D01*
X458535Y92232D01*
X458492Y92203D01*
X458445Y92180D01*
X458395Y92163D01*
X458344Y92153D01*
X458291Y92150D01*
X446559D01*
X446507Y92153D01*
X446455Y92163D01*
X446406Y92180D01*
X446359Y92203D01*
X446315Y92232D01*
X446276Y92267D01*
X446241Y92306D01*
X446212Y92350D01*
X446189Y92397D01*
X446172Y92447D01*
X446162Y92498D01*
X446158Y92550D01*
Y93787D01*
X440181D01*
X440129Y93791D01*
X440077Y93801D01*
X440028Y93818D01*
X439981Y93841D01*
X439937Y93870D01*
X439898Y93905D01*
X439863Y93944D01*
X439834Y93988D01*
X439811Y94035D01*
X439794Y94084D01*
X439784Y94136D01*
X439780Y94188D01*
Y97732D01*
X439784Y97784D01*
X439794Y97835D01*
X439811Y97885D01*
X439834Y97932D01*
X439863Y97975D01*
X439898Y98015D01*
X439937Y98049D01*
X439981Y98079D01*
X440028Y98102D01*
X440077Y98119D01*
X440129Y98129D01*
X440181Y98132D01*
X446158D01*
Y99369D01*
X446162Y99422D01*
X446172Y99473D01*
X446189Y99523D01*
X446212Y99570D01*
X446241Y99613D01*
X446276Y99653D01*
X446315Y99687D01*
X446359Y99716D01*
X446406Y99740D01*
X446455Y99756D01*
X446507Y99767D01*
X446559Y99770D01*
X458291D01*
X458344Y99767D01*
D02*
G37*
G36*
X257947Y99607D02*
X257998Y99597D01*
X258048Y99580D01*
X258095Y99557D01*
X258138Y99528D01*
X258178Y99493D01*
X258212Y99454D01*
X258242Y99410D01*
X258265Y99363D01*
X258282Y99313D01*
X258292Y99262D01*
X258295Y99209D01*
Y92391D01*
X258292Y92338D01*
X258282Y92287D01*
X258265Y92237D01*
X258242Y92190D01*
X258212Y92146D01*
X258178Y92107D01*
X258138Y92072D01*
X258095Y92043D01*
X258048Y92020D01*
X257998Y92003D01*
X257947Y91993D01*
X257894Y91990D01*
X246162D01*
X246110Y91993D01*
X246058Y92003D01*
X246009Y92020D01*
X245962Y92043D01*
X245918Y92072D01*
X245879Y92107D01*
X245844Y92146D01*
X245815Y92190D01*
X245792Y92237D01*
X245775Y92287D01*
X245765Y92338D01*
X245761Y92391D01*
Y93628D01*
X239784D01*
X239732Y93631D01*
X239681Y93641D01*
X239631Y93658D01*
X239584Y93681D01*
X239540Y93710D01*
X239501Y93745D01*
X239466Y93784D01*
X239437Y93828D01*
X239414Y93875D01*
X239397Y93925D01*
X239387Y93976D01*
X239383Y94028D01*
Y97572D01*
X239387Y97624D01*
X239397Y97675D01*
X239414Y97725D01*
X239437Y97772D01*
X239466Y97816D01*
X239501Y97855D01*
X239540Y97890D01*
X239584Y97919D01*
X239631Y97942D01*
X239681Y97959D01*
X239732Y97969D01*
X239784Y97973D01*
X245761D01*
Y99209D01*
X245765Y99262D01*
X245775Y99313D01*
X245792Y99363D01*
X245815Y99410D01*
X245844Y99454D01*
X245879Y99493D01*
X245918Y99528D01*
X245962Y99557D01*
X246009Y99580D01*
X246058Y99597D01*
X246110Y99607D01*
X246162Y99610D01*
X257894D01*
X257947Y99607D01*
D02*
G37*
G36*
X561498Y99407D02*
X561549Y99397D01*
X561599Y99380D01*
X561646Y99357D01*
X561690Y99327D01*
X561729Y99293D01*
X561764Y99253D01*
X561793Y99210D01*
X561816Y99163D01*
X561833Y99113D01*
X561843Y99062D01*
X561847Y99010D01*
Y92190D01*
X561843Y92138D01*
X561833Y92087D01*
X561816Y92037D01*
X561793Y91990D01*
X561764Y91947D01*
X561729Y91907D01*
X561690Y91873D01*
X561646Y91843D01*
X561599Y91820D01*
X561549Y91803D01*
X561498Y91793D01*
X561446Y91790D01*
X549713D01*
X549661Y91793D01*
X549610Y91803D01*
X549560Y91820D01*
X549513Y91843D01*
X549469Y91873D01*
X549430Y91907D01*
X549395Y91947D01*
X549366Y91990D01*
X549343Y92037D01*
X549326Y92087D01*
X549316Y92138D01*
X549312Y92190D01*
Y93427D01*
X543335D01*
X543283Y93431D01*
X543232Y93441D01*
X543182Y93458D01*
X543135Y93481D01*
X543091Y93510D01*
X543052Y93545D01*
X543017Y93584D01*
X542988Y93628D01*
X542965Y93675D01*
X542948Y93725D01*
X542938Y93776D01*
X542935Y93828D01*
Y97372D01*
X542938Y97424D01*
X542948Y97475D01*
X542965Y97525D01*
X542988Y97572D01*
X543017Y97616D01*
X543052Y97655D01*
X543091Y97690D01*
X543135Y97719D01*
X543182Y97742D01*
X543232Y97759D01*
X543283Y97769D01*
X543335Y97773D01*
X549312D01*
Y99010D01*
X549316Y99062D01*
X549326Y99113D01*
X549343Y99163D01*
X549366Y99210D01*
X549395Y99253D01*
X549430Y99293D01*
X549469Y99327D01*
X549513Y99357D01*
X549560Y99380D01*
X549610Y99397D01*
X549661Y99407D01*
X549713Y99410D01*
X561446D01*
X561498Y99407D01*
D02*
G37*
D15*
X595000Y5000D02*
D03*
X5000D02*
D03*
X595000Y195000D02*
D03*
D25*
X39825Y79440D02*
D03*
X31951D02*
D03*
X230297Y77540D02*
D03*
X222423D02*
D03*
X422520Y105500D02*
D03*
X430394D02*
D03*
Y77500D02*
D03*
X422520D02*
D03*
X526374Y104940D02*
D03*
X534248D02*
D03*
Y76740D02*
D03*
X526374D02*
D03*
X31951Y97250D02*
D03*
X39825D02*
D03*
X31951Y88440D02*
D03*
X39825D02*
D03*
X31951Y106940D02*
D03*
X39825D02*
D03*
X133537Y79000D02*
D03*
X125663D02*
D03*
X125651Y96840D02*
D03*
X133525D02*
D03*
X125751Y106040D02*
D03*
X133625D02*
D03*
X222423Y95800D02*
D03*
X230297D02*
D03*
X222423Y105440D02*
D03*
X230297D02*
D03*
X319935Y87360D02*
D03*
X327809D02*
D03*
X319935Y105460D02*
D03*
X327809D02*
D03*
X319935Y96454D02*
D03*
X327809D02*
D03*
X339863Y129660D02*
D03*
X347737D02*
D03*
X442720Y128700D02*
D03*
X450594D02*
D03*
X422520Y87000D02*
D03*
X430394D02*
D03*
X422520Y95954D02*
D03*
X430394D02*
D03*
X526374Y86340D02*
D03*
X534248D02*
D03*
X526374Y95595D02*
D03*
X534248D02*
D03*
X545776Y128800D02*
D03*
X553650D02*
D03*
X125663Y88000D02*
D03*
X133537D02*
D03*
X222423Y86840D02*
D03*
X230297D02*
D03*
X327837Y78100D02*
D03*
X319963D02*
D03*
X51351Y130459D02*
D03*
X59225D02*
D03*
X145851Y130240D02*
D03*
X153725D02*
D03*
X242295Y129400D02*
D03*
X250168D02*
D03*
D26*
X38432Y130640D02*
D03*
X39825Y68940D02*
D03*
X177088Y96740D02*
D03*
X229503Y129400D02*
D03*
X230288Y67240D02*
D03*
X368700Y96454D02*
D03*
X574411Y95600D02*
D03*
X84888Y97340D02*
D03*
X132832Y130240D02*
D03*
X133725Y67940D02*
D03*
X276660Y95800D02*
D03*
X327043Y129660D02*
D03*
X327809Y67400D02*
D03*
X429600Y128700D02*
D03*
X430394Y66600D02*
D03*
X471057Y95900D02*
D03*
X533454Y128800D02*
D03*
X534248Y66040D02*
D03*
D27*
X75257Y108500D02*
D03*
X82343D02*
D03*
X170057Y108400D02*
D03*
X177143D02*
D03*
X568357Y106600D02*
D03*
X575443D02*
D03*
X31945Y116140D02*
D03*
X39031D02*
D03*
X125745Y115640D02*
D03*
X132832D02*
D03*
X222416Y114700D02*
D03*
X229503D02*
D03*
X267457Y107600D02*
D03*
X274543D02*
D03*
X319957Y114860D02*
D03*
X327043D02*
D03*
X526368Y114500D02*
D03*
X533454D02*
D03*
X422513Y114538D02*
D03*
X429600D02*
D03*
X463485Y106360D02*
D03*
X470572D02*
D03*
X362657Y107500D02*
D03*
X369743D02*
D03*
D28*
X158160Y75940D02*
D03*
X145955D02*
D03*
X158090Y115540D02*
D03*
X145886D02*
D03*
X352074Y114860D02*
D03*
X339869D02*
D03*
X352102Y75500D02*
D03*
X339898D02*
D03*
X454959Y75100D02*
D03*
X442754D02*
D03*
X558113Y74340D02*
D03*
X545909D02*
D03*
X454959Y114500D02*
D03*
X442754D02*
D03*
X558085Y114500D02*
D03*
X545880D02*
D03*
X63591Y76640D02*
D03*
X51386D02*
D03*
X63591Y116140D02*
D03*
X51386D02*
D03*
X254634Y74000D02*
D03*
X242429D02*
D03*
X254534Y114700D02*
D03*
X242329D02*
D03*
D29*
X545894Y95595D02*
D03*
Y101505D02*
D03*
Y89694D02*
D03*
X339883Y96454D02*
D03*
Y102365D02*
D03*
Y90554D02*
D03*
X442740Y95954D02*
D03*
Y101865D02*
D03*
Y90054D02*
D03*
X51400Y97335D02*
D03*
Y103246D02*
D03*
Y91435D02*
D03*
X145900Y96735D02*
D03*
Y102646D02*
D03*
Y90835D02*
D03*
X242343Y95794D02*
D03*
Y101706D02*
D03*
Y89894D02*
D03*
D30*
X123815Y25000D02*
D03*
X61315D02*
D03*
X186265Y24100D02*
D03*
X205950D02*
D03*
X225635D02*
D03*
X245320D02*
D03*
X265005D02*
D03*
X284690D02*
D03*
X304375D02*
D03*
X324060D02*
D03*
X343745D02*
D03*
X363430D02*
D03*
X383115D02*
D03*
X274335Y176500D02*
D03*
X254650D02*
D03*
X234965D02*
D03*
X215280D02*
D03*
X195595D02*
D03*
X175910D02*
D03*
X156225D02*
D03*
X136540D02*
D03*
X116855D02*
D03*
X97170D02*
D03*
X77485D02*
D03*
X536835D02*
D03*
X517150D02*
D03*
X497465D02*
D03*
X477780D02*
D03*
X458095D02*
D03*
X438410D02*
D03*
X418725D02*
D03*
X399040D02*
D03*
X379355D02*
D03*
X359670D02*
D03*
X339985D02*
D03*
D31*
X143500Y25000D02*
D03*
X81000D02*
D03*
X402800Y24100D02*
D03*
X57800Y176500D02*
D03*
X320300D02*
D03*
D32*
X25000Y175000D02*
D03*
Y25000D02*
D03*
X575000Y175000D02*
D03*
Y25000D02*
D03*
D33*
X293954Y55841D02*
D03*
X300054Y118946D02*
D03*
X311354Y129913D02*
D03*
X303254Y60446D02*
D03*
X319789Y66009D02*
D03*
X333989Y148511D02*
D03*
X183691Y70283D02*
D03*
X222277Y57768D02*
D03*
X116254Y65146D02*
D03*
X85454Y68946D02*
D03*
X486800Y57291D02*
D03*
X461854Y57146D02*
D03*
X403254Y67346D02*
D03*
X406454Y40646D02*
D03*
X406539Y52830D02*
D03*
X585354Y150146D02*
D03*
X375854Y52830D02*
D03*
X377354Y67374D02*
D03*
X142465Y138200D02*
D03*
X169702Y70100D02*
D03*
X241302Y136500D02*
D03*
X436900Y137400D02*
D03*
X465400Y68700D02*
D03*
X540528Y136600D02*
D03*
X568874Y68900D02*
D03*
X518100Y23200D02*
D03*
X201800Y95640D02*
D03*
X295700Y169200D02*
D03*
X290300Y186900D02*
D03*
X302200Y174900D02*
D03*
X399200Y142900D02*
D03*
X418600Y147200D02*
D03*
X422513Y133313D02*
D03*
X325100Y34900D02*
D03*
X225600Y34000D02*
D03*
X241157Y147246D02*
D03*
X99300Y42100D02*
D03*
Y120600D02*
D03*
X43800Y138000D02*
D03*
X61085Y51300D02*
D03*
X548100Y14400D02*
D03*
X303400Y45500D02*
D03*
X245219Y34200D02*
D03*
M02*
