G04 Layer_Color=2752767*
%FSLAX25Y25*%
%MOIN*%
G70*
G01*
G75*
%ADD16C,0.02500*%
%ADD21C,0.01000*%
%ADD34C,0.00200*%
%ADD35C,0.01500*%
%ADD36C,0.01600*%
%ADD37C,0.00600*%
D16*
X1322069Y1200D02*
Y226200D01*
X613700Y1200D02*
X1322069D01*
X613700Y226200D02*
X1322069D01*
X1084642Y53927D02*
Y113179D01*
X875542Y54879D02*
Y114131D01*
X977542Y114821D02*
Y170142D01*
X875542Y170879D02*
Y226200D01*
X614550Y53468D02*
X1321509D01*
X614585Y114131D02*
X1321274D01*
X613865Y170307D02*
X1321979D01*
X613700Y1200D02*
Y226200D01*
D21*
X625896Y-27917D02*
G03*
X625896Y-27917I-3333J0D01*
G01*
X619229Y-44583D02*
X620896D01*
X619229D02*
Y-41250D01*
X620896D01*
Y-39583D01*
X624229D01*
Y-41250D02*
Y-39583D01*
Y-41250D02*
X625896D01*
Y-44583D02*
Y-41250D01*
X624229Y-44583D02*
X625896D01*
X624229Y-46250D02*
Y-44583D01*
X620896Y-46250D02*
X624229D01*
X620896D02*
Y-44583D01*
X619229Y-61250D02*
X625896D01*
Y-54583D01*
X619229D02*
X625896D01*
X619229Y-61250D02*
Y-54583D01*
X-25600Y25000D02*
X11100D01*
X-25600Y175000D02*
X11100D01*
X-24600Y25000D02*
Y77806D01*
Y118994D02*
Y175000D01*
Y25000D02*
X-22600Y31000D01*
X-26600D02*
X-24600Y25000D01*
X-26600Y169000D02*
X-24600Y175000D01*
X-22600Y169000D01*
X575000Y-23400D02*
Y11100D01*
X25000Y-23400D02*
Y11100D01*
X319494Y-22400D02*
X575000D01*
X25000D02*
X277306D01*
X569000Y-20400D02*
X575000Y-22400D01*
X569000Y-24400D02*
X575000Y-22400D01*
X25000D02*
X31000Y-24400D01*
X25000Y-22400D02*
X31000Y-20400D01*
X-48900Y0D02*
X-1500D01*
X-48900Y200000D02*
X-2250D01*
X-47900Y0D02*
Y77306D01*
Y119494D02*
Y200000D01*
Y0D02*
X-45900Y6000D01*
X-49900D02*
X-47900Y0D01*
X-49900Y194000D02*
X-47900Y200000D01*
X-45900Y194000D01*
X600000Y-45500D02*
Y-2250D01*
X0Y-45500D02*
Y-1500D01*
X319494Y-44500D02*
X600000D01*
X0D02*
X277306D01*
X594000Y-42500D02*
X600000Y-44500D01*
X594000Y-46500D02*
X600000Y-44500D01*
X0D02*
X6000Y-46500D01*
X0Y-44500D02*
X6000Y-42500D01*
X1142708Y-31250D02*
Y-25252D01*
X1145708D01*
X1146707Y-26252D01*
Y-28251D01*
X1145708Y-29251D01*
X1142708D01*
X1144708D02*
X1146707Y-31250D01*
X1149706D02*
X1151705D01*
X1152705Y-30250D01*
Y-28251D01*
X1151705Y-27251D01*
X1149706D01*
X1148707Y-28251D01*
Y-30250D01*
X1149706Y-31250D01*
X1154704Y-27251D02*
Y-30250D01*
X1155704Y-31250D01*
X1158703D01*
Y-27251D01*
X1160703Y-31250D02*
Y-27251D01*
X1163702D01*
X1164701Y-28251D01*
Y-31250D01*
X1170699Y-25252D02*
Y-31250D01*
X1167700D01*
X1166701Y-30250D01*
Y-28251D01*
X1167700Y-27251D01*
X1170699D01*
X1175698Y-31250D02*
X1173698D01*
X1172699Y-30250D01*
Y-28251D01*
X1173698Y-27251D01*
X1175698D01*
X1176697Y-28251D01*
Y-29251D01*
X1172699D01*
X1182695Y-25252D02*
Y-31250D01*
X1179696D01*
X1178697Y-30250D01*
Y-28251D01*
X1179696Y-27251D01*
X1182695D01*
X1144708Y-46250D02*
X1142708Y-44251D01*
Y-42251D01*
X1144708Y-40252D01*
X1147707Y-46250D02*
Y-40252D01*
X1149706Y-42251D01*
X1151705Y-40252D01*
Y-46250D01*
X1153705D02*
X1155704D01*
X1154704D01*
Y-42251D01*
X1153705D01*
X1158703D02*
X1162702Y-46250D01*
X1160703Y-44251D01*
X1162702Y-42251D01*
X1158703Y-46250D01*
X1167700D02*
X1165701D01*
X1164701Y-45250D01*
Y-43251D01*
X1165701Y-42251D01*
X1167700D01*
X1168700Y-43251D01*
Y-44251D01*
X1164701D01*
X1174698Y-40252D02*
Y-46250D01*
X1171699D01*
X1170699Y-45250D01*
Y-43251D01*
X1171699Y-42251D01*
X1174698D01*
X1176697Y-46250D02*
X1178697Y-44251D01*
Y-42251D01*
X1176697Y-40252D01*
X1142708Y-61250D02*
Y-55252D01*
X1145708D01*
X1146707Y-56252D01*
Y-58251D01*
X1145708Y-59251D01*
X1142708D01*
X1144708D02*
X1146707Y-61250D01*
X1149706D02*
X1151705D01*
X1152705Y-60250D01*
Y-58251D01*
X1151705Y-57251D01*
X1149706D01*
X1148707Y-58251D01*
Y-60250D01*
X1149706Y-61250D01*
X1154704Y-57251D02*
Y-60250D01*
X1155704Y-61250D01*
X1158703D01*
Y-57251D01*
X1160703Y-61250D02*
Y-57251D01*
X1163702D01*
X1164701Y-58251D01*
Y-61250D01*
X1170699Y-55252D02*
Y-61250D01*
X1167700D01*
X1166701Y-60250D01*
Y-58251D01*
X1167700Y-57251D01*
X1170699D01*
X1175698Y-61250D02*
X1173698D01*
X1172699Y-60250D01*
Y-58251D01*
X1173698Y-57251D01*
X1175698D01*
X1176697Y-58251D01*
Y-59251D01*
X1172699D01*
X1182695Y-55252D02*
Y-61250D01*
X1179696D01*
X1178697Y-60250D01*
Y-58251D01*
X1179696Y-57251D01*
X1182695D01*
X1083724Y-31250D02*
Y-25252D01*
X1086723D01*
X1087722Y-26252D01*
Y-28251D01*
X1086723Y-29251D01*
X1083724D01*
X1090721Y-27251D02*
X1092721D01*
X1093720Y-28251D01*
Y-31250D01*
X1090721D01*
X1089722Y-30250D01*
X1090721Y-29251D01*
X1093720D01*
X1099718Y-25252D02*
Y-31250D01*
X1096719D01*
X1095720Y-30250D01*
Y-28251D01*
X1096719Y-27251D01*
X1099718D01*
X1083724Y-46250D02*
Y-40252D01*
X1086723D01*
X1087722Y-41252D01*
Y-43251D01*
X1086723Y-44251D01*
X1083724D01*
X1090721Y-42251D02*
X1092721D01*
X1093720Y-43251D01*
Y-46250D01*
X1090721D01*
X1089722Y-45250D01*
X1090721Y-44251D01*
X1093720D01*
X1099718Y-40252D02*
Y-46250D01*
X1096719D01*
X1095720Y-45250D01*
Y-43251D01*
X1096719Y-42251D01*
X1099718D01*
X1083724Y-55252D02*
Y-59251D01*
X1085723Y-61250D01*
X1087722Y-59251D01*
Y-55252D01*
X1089722Y-61250D02*
X1091721D01*
X1090721D01*
Y-57251D01*
X1089722D01*
X1095720D02*
X1097719D01*
X1098719Y-58251D01*
Y-61250D01*
X1095720D01*
X1094720Y-60250D01*
X1095720Y-59251D01*
X1098719D01*
X964758Y-25252D02*
X968757D01*
X966757D01*
Y-31250D01*
X973755Y-25252D02*
X971756D01*
X970756Y-26252D01*
Y-30250D01*
X971756Y-31250D01*
X973755D01*
X974755Y-30250D01*
Y-26252D01*
X973755Y-25252D01*
X976754Y-31250D02*
Y-25252D01*
X979753D01*
X980753Y-26252D01*
Y-28251D01*
X979753Y-29251D01*
X976754D01*
X988750Y-28251D02*
X992749D01*
X1000747Y-25252D02*
Y-31250D01*
X1003745D01*
X1004745Y-30250D01*
Y-29251D01*
X1003745Y-28251D01*
X1000747D01*
X1003745D01*
X1004745Y-27251D01*
Y-26252D01*
X1003745Y-25252D01*
X1000747D01*
X1009744D02*
X1007744D01*
X1006744Y-26252D01*
Y-30250D01*
X1007744Y-31250D01*
X1009744D01*
X1010743Y-30250D01*
Y-26252D01*
X1009744Y-25252D01*
X1012743D02*
X1016741D01*
X1014742D01*
Y-31250D01*
X1018741Y-25252D02*
X1022739D01*
X1020740D01*
Y-31250D01*
X1027738Y-25252D02*
X1025738D01*
X1024739Y-26252D01*
Y-30250D01*
X1025738Y-31250D01*
X1027738D01*
X1028737Y-30250D01*
Y-26252D01*
X1027738Y-25252D01*
X1030737Y-31250D02*
Y-25252D01*
X1032736Y-27251D01*
X1034735Y-25252D01*
Y-31250D01*
X964758Y-40252D02*
X968757D01*
X966757D01*
Y-46250D01*
X973755Y-40252D02*
X971756D01*
X970756Y-41252D01*
Y-45250D01*
X971756Y-46250D01*
X973755D01*
X974755Y-45250D01*
Y-41252D01*
X973755Y-40252D01*
X976754Y-46250D02*
Y-40252D01*
X979753D01*
X980753Y-41252D01*
Y-43251D01*
X979753Y-44251D01*
X976754D01*
X988750Y-43251D02*
X992749D01*
X1000747Y-40252D02*
Y-46250D01*
X1003745D01*
X1004745Y-45250D01*
Y-44251D01*
X1003745Y-43251D01*
X1000747D01*
X1003745D01*
X1004745Y-42251D01*
Y-41252D01*
X1003745Y-40252D01*
X1000747D01*
X1009744D02*
X1007744D01*
X1006744Y-41252D01*
Y-45250D01*
X1007744Y-46250D01*
X1009744D01*
X1010743Y-45250D01*
Y-41252D01*
X1009744Y-40252D01*
X1012743D02*
X1016741D01*
X1014742D01*
Y-46250D01*
X1018741Y-40252D02*
X1022739D01*
X1020740D01*
Y-46250D01*
X1027738Y-40252D02*
X1025738D01*
X1024739Y-41252D01*
Y-45250D01*
X1025738Y-46250D01*
X1027738D01*
X1028737Y-45250D01*
Y-41252D01*
X1027738Y-40252D01*
X1030737Y-46250D02*
Y-40252D01*
X1032736Y-42251D01*
X1034735Y-40252D01*
Y-46250D01*
X964758Y-55252D02*
X968757D01*
X966757D01*
Y-61250D01*
X973755Y-55252D02*
X971756D01*
X970756Y-56252D01*
Y-60250D01*
X971756Y-61250D01*
X973755D01*
X974755Y-60250D01*
Y-56252D01*
X973755Y-55252D01*
X976754Y-61250D02*
Y-55252D01*
X979753D01*
X980753Y-56252D01*
Y-58251D01*
X979753Y-59251D01*
X976754D01*
X988750Y-58251D02*
X992749D01*
X1000747Y-55252D02*
Y-61250D01*
X1003745D01*
X1004745Y-60250D01*
Y-59251D01*
X1003745Y-58251D01*
X1000747D01*
X1003745D01*
X1004745Y-57251D01*
Y-56252D01*
X1003745Y-55252D01*
X1000747D01*
X1009744D02*
X1007744D01*
X1006744Y-56252D01*
Y-60250D01*
X1007744Y-61250D01*
X1009744D01*
X1010743Y-60250D01*
Y-56252D01*
X1009744Y-55252D01*
X1012743D02*
X1016741D01*
X1014742D01*
Y-61250D01*
X1018741Y-55252D02*
X1022739D01*
X1020740D01*
Y-61250D01*
X1027738Y-55252D02*
X1025738D01*
X1024739Y-56252D01*
Y-60250D01*
X1025738Y-61250D01*
X1027738D01*
X1028737Y-60250D01*
Y-56252D01*
X1027738Y-55252D01*
X1030737Y-61250D02*
Y-55252D01*
X1032736Y-57251D01*
X1034735Y-55252D01*
Y-61250D01*
X891378Y-31250D02*
Y-25252D01*
X894377D01*
X895377Y-26252D01*
Y-28251D01*
X894377Y-29251D01*
X891378D01*
X893377D02*
X895377Y-31250D01*
X898376D02*
X900375D01*
X901375Y-30250D01*
Y-28251D01*
X900375Y-27251D01*
X898376D01*
X897376Y-28251D01*
Y-30250D01*
X898376Y-31250D01*
X903374Y-27251D02*
Y-30250D01*
X904374Y-31250D01*
X907373D01*
Y-27251D01*
X909372Y-31250D02*
Y-27251D01*
X912371D01*
X913371Y-28251D01*
Y-31250D01*
X919369Y-25252D02*
Y-31250D01*
X916370D01*
X915370Y-30250D01*
Y-28251D01*
X916370Y-27251D01*
X919369D01*
X891378Y-46250D02*
Y-40252D01*
X894377D01*
X895377Y-41252D01*
Y-43251D01*
X894377Y-44251D01*
X891378D01*
X893377D02*
X895377Y-46250D01*
X898376D02*
X900375D01*
X901375Y-45250D01*
Y-43251D01*
X900375Y-42251D01*
X898376D01*
X897376Y-43251D01*
Y-45250D01*
X898376Y-46250D01*
X903374Y-42251D02*
Y-45250D01*
X904374Y-46250D01*
X907373D01*
Y-42251D01*
X909372Y-46250D02*
Y-42251D01*
X912371D01*
X913371Y-43251D01*
Y-46250D01*
X919369Y-40252D02*
Y-46250D01*
X916370D01*
X915370Y-45250D01*
Y-43251D01*
X916370Y-42251D01*
X919369D01*
X891378Y-61250D02*
Y-55252D01*
X894377D01*
X895377Y-56252D01*
Y-58251D01*
X894377Y-59251D01*
X891378D01*
X893377D02*
X895377Y-61250D01*
X898376D02*
X900375D01*
X901375Y-60250D01*
Y-58251D01*
X900375Y-57251D01*
X898376D01*
X897376Y-58251D01*
Y-60250D01*
X898376Y-61250D01*
X903374Y-57251D02*
Y-60250D01*
X904374Y-61250D01*
X907373D01*
Y-57251D01*
X909372Y-61250D02*
Y-57251D01*
X912371D01*
X913371Y-58251D01*
Y-61250D01*
X919369Y-55252D02*
Y-61250D01*
X916370D01*
X915370Y-60250D01*
Y-58251D01*
X916370Y-57251D01*
X919369D01*
X840790Y-31250D02*
Y-25252D01*
X843789D01*
X844789Y-26252D01*
Y-28251D01*
X843789Y-29251D01*
X840790D01*
X846788Y-25252D02*
X850787D01*
X848788D01*
Y-31250D01*
X852786Y-25252D02*
Y-31250D01*
Y-28251D01*
X856785D01*
Y-25252D01*
Y-31250D01*
X840790Y-46250D02*
Y-40252D01*
X843789D01*
X844789Y-41252D01*
Y-43251D01*
X843789Y-44251D01*
X840790D01*
X846788Y-40252D02*
X850787D01*
X848788D01*
Y-46250D01*
X852786Y-40252D02*
Y-46250D01*
Y-43251D01*
X856785D01*
Y-40252D01*
Y-46250D01*
X840790Y-61250D02*
Y-55252D01*
X843789D01*
X844789Y-56252D01*
Y-58251D01*
X843789Y-59251D01*
X840790D01*
X846788Y-55252D02*
X850787D01*
X848788D01*
Y-61250D01*
X852786Y-55252D02*
Y-61250D01*
Y-58251D01*
X856785D01*
Y-55252D01*
Y-61250D01*
X726824Y-31250D02*
X728823D01*
X727823D01*
Y-25252D01*
X726824Y-26252D01*
X735821Y-25252D02*
X731822D01*
Y-28251D01*
X733821Y-27251D01*
X734821D01*
X735821Y-28251D01*
Y-30250D01*
X734821Y-31250D01*
X732822D01*
X731822Y-30250D01*
X737820Y-26252D02*
X738820Y-25252D01*
X740819D01*
X741819Y-26252D01*
Y-30250D01*
X740819Y-31250D01*
X738820D01*
X737820Y-30250D01*
Y-26252D01*
X743818Y-31250D02*
Y-30250D01*
X744818D01*
Y-31250D01*
X743818D01*
X748816Y-26252D02*
X749816Y-25252D01*
X751816D01*
X752815Y-26252D01*
Y-30250D01*
X751816Y-31250D01*
X749816D01*
X748816Y-30250D01*
Y-26252D01*
X754815D02*
X755814Y-25252D01*
X757814D01*
X758813Y-26252D01*
Y-30250D01*
X757814Y-31250D01*
X755814D01*
X754815Y-30250D01*
Y-26252D01*
X760813Y-31250D02*
Y-27251D01*
X761812D01*
X762812Y-28251D01*
Y-31250D01*
Y-28251D01*
X763812Y-27251D01*
X764811Y-28251D01*
Y-31250D01*
X766811D02*
X768810D01*
X767810D01*
Y-27251D01*
X766811D01*
X771809Y-31250D02*
X773808D01*
X772809D01*
Y-25252D01*
X771809D01*
X784805Y-31250D02*
X782805Y-29251D01*
Y-27251D01*
X784805Y-25252D01*
X787804Y-26252D02*
X788804Y-25252D01*
X790803D01*
X791803Y-26252D01*
Y-27251D01*
X790803Y-28251D01*
X789803D01*
X790803D01*
X791803Y-29251D01*
Y-30250D01*
X790803Y-31250D01*
X788804D01*
X787804Y-30250D01*
X793802Y-31250D02*
Y-30250D01*
X794802D01*
Y-31250D01*
X793802D01*
X798800Y-26252D02*
X799800Y-25252D01*
X801799D01*
X802799Y-26252D01*
Y-27251D01*
X801799Y-28251D01*
X802799Y-29251D01*
Y-30250D01*
X801799Y-31250D01*
X799800D01*
X798800Y-30250D01*
Y-29251D01*
X799800Y-28251D01*
X798800Y-27251D01*
Y-26252D01*
X799800Y-28251D02*
X801799D01*
X804798Y-31250D02*
X806798D01*
X805798D01*
Y-25252D01*
X804798Y-26252D01*
X809797D02*
X810797Y-25252D01*
X812796D01*
X813795Y-26252D01*
Y-30250D01*
X812796Y-31250D01*
X810797D01*
X809797Y-30250D01*
Y-26252D01*
X815795Y-31250D02*
Y-27251D01*
X816794D01*
X817794Y-28251D01*
Y-31250D01*
Y-28251D01*
X818794Y-27251D01*
X819794Y-28251D01*
Y-31250D01*
X821793D02*
Y-27251D01*
X822793D01*
X823792Y-28251D01*
Y-31250D01*
Y-28251D01*
X824792Y-27251D01*
X825792Y-28251D01*
Y-31250D01*
X827791D02*
X829790Y-29251D01*
Y-27251D01*
X827791Y-25252D01*
X730822Y-40252D02*
X726824D01*
Y-43251D01*
X728823Y-42251D01*
X729823D01*
X730822Y-43251D01*
Y-45250D01*
X729823Y-46250D01*
X727823D01*
X726824Y-45250D01*
X736820Y-40252D02*
X732822D01*
Y-43251D01*
X734821Y-42251D01*
X735821D01*
X736820Y-43251D01*
Y-45250D01*
X735821Y-46250D01*
X733821D01*
X732822Y-45250D01*
X738820Y-46250D02*
Y-45250D01*
X739819D01*
Y-46250D01*
X738820D01*
X743818D02*
X745818D01*
X744818D01*
Y-40252D01*
X743818Y-41252D01*
X752815Y-46250D02*
X748816D01*
X752815Y-42251D01*
Y-41252D01*
X751816Y-40252D01*
X749816D01*
X748816Y-41252D01*
X754815Y-46250D02*
Y-42251D01*
X755814D01*
X756814Y-43251D01*
Y-46250D01*
Y-43251D01*
X757814Y-42251D01*
X758813Y-43251D01*
Y-46250D01*
X760813D02*
X762812D01*
X761812D01*
Y-42251D01*
X760813D01*
X765811Y-46250D02*
X767810D01*
X766811D01*
Y-40252D01*
X765811D01*
X778807Y-46250D02*
X776807Y-44251D01*
Y-42251D01*
X778807Y-40252D01*
X781806Y-46250D02*
X783805D01*
X782805D01*
Y-40252D01*
X781806Y-41252D01*
X786804Y-46250D02*
Y-45250D01*
X787804D01*
Y-46250D01*
X786804D01*
X794802D02*
Y-40252D01*
X791803Y-43251D01*
X795801D01*
X797801Y-41252D02*
X798800Y-40252D01*
X800800D01*
X801799Y-41252D01*
Y-45250D01*
X800800Y-46250D01*
X798800D01*
X797801Y-45250D01*
Y-41252D01*
X803799D02*
X804798Y-40252D01*
X806798D01*
X807798Y-41252D01*
Y-45250D01*
X806798Y-46250D01*
X804798D01*
X803799Y-45250D01*
Y-41252D01*
X809797Y-46250D02*
Y-42251D01*
X810797D01*
X811796Y-43251D01*
Y-46250D01*
Y-43251D01*
X812796Y-42251D01*
X813795Y-43251D01*
Y-46250D01*
X815795D02*
Y-42251D01*
X816794D01*
X817794Y-43251D01*
Y-46250D01*
Y-43251D01*
X818794Y-42251D01*
X819794Y-43251D01*
Y-46250D01*
X821793D02*
X823792Y-44251D01*
Y-42251D01*
X821793Y-40252D01*
X730822Y-61250D02*
X726824D01*
X730822Y-57251D01*
Y-56252D01*
X729823Y-55252D01*
X727823D01*
X726824Y-56252D01*
X732822D02*
X733821Y-55252D01*
X735821D01*
X736820Y-56252D01*
Y-57251D01*
X735821Y-58251D01*
X736820Y-59251D01*
Y-60250D01*
X735821Y-61250D01*
X733821D01*
X732822Y-60250D01*
Y-59251D01*
X733821Y-58251D01*
X732822Y-57251D01*
Y-56252D01*
X733821Y-58251D02*
X735821D01*
X738820Y-61250D02*
Y-60250D01*
X739819D01*
Y-61250D01*
X738820D01*
X743818Y-56252D02*
X744818Y-55252D01*
X746817D01*
X747817Y-56252D01*
Y-60250D01*
X746817Y-61250D01*
X744818D01*
X743818Y-60250D01*
Y-56252D01*
X749816D02*
X750816Y-55252D01*
X752815D01*
X753815Y-56252D01*
Y-60250D01*
X752815Y-61250D01*
X750816D01*
X749816Y-60250D01*
Y-56252D01*
X755814Y-61250D02*
Y-57251D01*
X756814D01*
X757814Y-58251D01*
Y-61250D01*
Y-58251D01*
X758813Y-57251D01*
X759813Y-58251D01*
Y-61250D01*
X761812D02*
X763812D01*
X762812D01*
Y-57251D01*
X761812D01*
X766811Y-61250D02*
X768810D01*
X767810D01*
Y-55252D01*
X766811D01*
X779807Y-61250D02*
X777807Y-59251D01*
Y-57251D01*
X779807Y-55252D01*
X782805Y-56252D02*
X783805Y-55252D01*
X785805D01*
X786804Y-56252D01*
Y-60250D01*
X785805Y-61250D01*
X783805D01*
X782805Y-60250D01*
Y-56252D01*
X788804Y-61250D02*
Y-60250D01*
X789803D01*
Y-61250D01*
X788804D01*
X793802Y-55252D02*
X797801D01*
Y-56252D01*
X793802Y-60250D01*
Y-61250D01*
X799800D02*
X801799D01*
X800800D01*
Y-55252D01*
X799800Y-56252D01*
X804798Y-61250D02*
X806798D01*
X805798D01*
Y-55252D01*
X804798Y-56252D01*
X809797Y-61250D02*
Y-57251D01*
X810797D01*
X811796Y-58251D01*
Y-61250D01*
Y-58251D01*
X812796Y-57251D01*
X813795Y-58251D01*
Y-61250D01*
X815795D02*
Y-57251D01*
X816794D01*
X817794Y-58251D01*
Y-61250D01*
Y-58251D01*
X818794Y-57251D01*
X819794Y-58251D01*
Y-61250D01*
X821793D02*
X823792Y-59251D01*
Y-57251D01*
X821793Y-55252D01*
X672838Y-71252D02*
X673837Y-70252D01*
X675837D01*
X676836Y-71252D01*
Y-72251D01*
X675837Y-73251D01*
X676836Y-74251D01*
Y-75250D01*
X675837Y-76250D01*
X673837D01*
X672838Y-75250D01*
Y-74251D01*
X673837Y-73251D01*
X672838Y-72251D01*
Y-71252D01*
X673837Y-73251D02*
X675837D01*
X678836Y-70252D02*
X682834D01*
Y-71252D01*
X678836Y-75250D01*
Y-76250D01*
X690832Y-70252D02*
X694831D01*
X692831D01*
Y-76250D01*
X697829D02*
X699829D01*
X700829Y-75250D01*
Y-73251D01*
X699829Y-72251D01*
X697829D01*
X696830Y-73251D01*
Y-75250D01*
X697829Y-76250D01*
X703827Y-71252D02*
Y-72251D01*
X702828D01*
X704827D01*
X703827D01*
Y-75250D01*
X704827Y-76250D01*
X708826Y-72251D02*
X710825D01*
X711825Y-73251D01*
Y-76250D01*
X708826D01*
X707826Y-75250D01*
X708826Y-74251D01*
X711825D01*
X713824Y-76250D02*
X715824D01*
X714824D01*
Y-70252D01*
X713824D01*
X675837Y-31250D02*
Y-25252D01*
X672838Y-28251D01*
X676836D01*
X675837Y-46250D02*
Y-40252D01*
X672838Y-43251D01*
X676836D01*
X678836Y-41252D02*
X679835Y-40252D01*
X681835D01*
X682834Y-41252D01*
Y-45250D01*
X681835Y-46250D01*
X679835D01*
X678836Y-45250D01*
Y-41252D01*
X675837Y-61250D02*
Y-55252D01*
X672838Y-58251D01*
X676836D01*
X678836Y-56252D02*
X679835Y-55252D01*
X681835D01*
X682834Y-56252D01*
Y-57251D01*
X681835Y-58251D01*
X680835D01*
X681835D01*
X682834Y-59251D01*
Y-60250D01*
X681835Y-61250D01*
X679835D01*
X678836Y-60250D01*
D34*
X576000Y25000D02*
G03*
X576000Y25000I-1000J0D01*
G01*
Y175000D02*
G03*
X576000Y175000I-1000J0D01*
G01*
X26000Y25000D02*
G03*
X26000Y25000I-1000J0D01*
G01*
Y175000D02*
G03*
X26000Y175000I-1000J0D01*
G01*
X244219Y33200D02*
X246219D01*
Y35200D01*
X244219D02*
X246219D01*
X244219Y33200D02*
Y35200D01*
X302400Y44500D02*
X304400D01*
Y46500D01*
X302400D02*
X304400D01*
X302400Y44500D02*
Y46500D01*
X547100Y13400D02*
X549100D01*
Y15400D01*
X547100D02*
X549100D01*
X547100Y13400D02*
Y15400D01*
X60085Y50300D02*
X62085D01*
Y52300D01*
X60085D02*
X62085D01*
X60085Y50300D02*
Y52300D01*
X42800Y137000D02*
X44800D01*
Y139000D01*
X42800D02*
X44800D01*
X42800Y137000D02*
Y139000D01*
X98300Y119600D02*
X100300D01*
Y121600D01*
X98300D02*
X100300D01*
X98300Y119600D02*
Y121600D01*
Y41100D02*
X100300D01*
Y43100D01*
X98300D02*
X100300D01*
X98300Y41100D02*
Y43100D01*
X240157Y146246D02*
X242157D01*
Y148246D01*
X240157D02*
X242157D01*
X240157Y146246D02*
Y148246D01*
X224600Y33000D02*
X226600D01*
Y35000D01*
X224600D02*
X226600D01*
X224600Y33000D02*
Y35000D01*
X324100Y33900D02*
X326100D01*
Y35900D01*
X324100D02*
X326100D01*
X324100Y33900D02*
Y35900D01*
X421513Y132313D02*
X423513D01*
Y134313D01*
X421513D02*
X423513D01*
X421513Y132313D02*
Y134313D01*
X417600Y146200D02*
X419600D01*
Y148200D01*
X417600D02*
X419600D01*
X417600Y146200D02*
Y148200D01*
X398200Y141900D02*
X400200D01*
Y143900D01*
X398200D02*
X400200D01*
X398200Y141900D02*
Y143900D01*
X301200Y173900D02*
X303200D01*
Y175900D01*
X301200D02*
X303200D01*
X301200Y173900D02*
Y175900D01*
X289300Y185900D02*
X291300D01*
Y187900D01*
X289300D02*
X291300D01*
X289300Y185900D02*
Y187900D01*
X294700Y168200D02*
X296700D01*
Y170200D01*
X294700D02*
X296700D01*
X294700Y168200D02*
Y170200D01*
X200800Y94640D02*
X202800D01*
Y96640D01*
X200800D02*
X202800D01*
X200800Y94640D02*
Y96640D01*
X517100Y22200D02*
X519100D01*
Y24200D01*
X517100D02*
X519100D01*
X517100Y22200D02*
Y24200D01*
X567874Y67900D02*
X569874D01*
Y69900D01*
X567874D02*
X569874D01*
X567874Y67900D02*
Y69900D01*
X539528Y135600D02*
X541528D01*
Y137600D01*
X539528D02*
X541528D01*
X539528Y135600D02*
Y137600D01*
X464400Y67700D02*
X466400D01*
Y69700D01*
X464400D02*
X466400D01*
X464400Y67700D02*
Y69700D01*
X435900Y136400D02*
X437900D01*
Y138400D01*
X435900D02*
X437900D01*
X435900Y136400D02*
Y138400D01*
X240302Y135500D02*
X242302D01*
Y137500D01*
X240302D02*
X242302D01*
X240302Y135500D02*
Y137500D01*
X168702Y69100D02*
X170702D01*
Y71100D01*
X168702D02*
X170702D01*
X168702Y69100D02*
Y71100D01*
X141465Y137200D02*
X143465D01*
Y139200D01*
X141465D02*
X143465D01*
X141465Y137200D02*
Y139200D01*
X376354Y66374D02*
X378354D01*
Y68374D01*
X376354D02*
X378354D01*
X376354Y66374D02*
Y68374D01*
X374854Y51830D02*
X376854D01*
Y53830D01*
X374854D02*
X376854D01*
X374854Y51830D02*
Y53830D01*
X584354Y149146D02*
X586354D01*
Y151146D01*
X584354D02*
X586354D01*
X584354Y149146D02*
Y151146D01*
X405539Y51830D02*
X407539D01*
Y53830D01*
X405539D02*
X407539D01*
X405539Y51830D02*
Y53830D01*
X405454Y39646D02*
X407454D01*
Y41646D01*
X405454D02*
X407454D01*
X405454Y39646D02*
Y41646D01*
X402254Y66346D02*
X404254D01*
Y68346D01*
X402254D02*
X404254D01*
X402254Y66346D02*
Y68346D01*
X460854Y56146D02*
X462854D01*
Y58146D01*
X460854D02*
X462854D01*
X460854Y56146D02*
Y58146D01*
X485800Y56291D02*
X487800D01*
Y58291D01*
X485800D02*
X487800D01*
X485800Y56291D02*
Y58291D01*
X84454Y67946D02*
X86454D01*
Y69946D01*
X84454D02*
X86454D01*
X84454Y67946D02*
Y69946D01*
X115254Y64146D02*
X117254D01*
Y66146D01*
X115254D02*
X117254D01*
X115254Y64146D02*
Y66146D01*
X221277Y56769D02*
X223277D01*
Y58768D01*
X221277D02*
X223277D01*
X221277Y56769D02*
Y58768D01*
X182691Y69283D02*
X184691D01*
Y71283D01*
X182691D02*
X184691D01*
X182691Y69283D02*
Y71283D01*
X332989Y147511D02*
X334989D01*
Y149511D01*
X332989D02*
X334989D01*
X332989Y147511D02*
Y149511D01*
X318789Y65009D02*
X320789D01*
Y67009D01*
X318789D02*
X320789D01*
X318789Y65009D02*
Y67009D01*
X302254Y59446D02*
X304254D01*
Y61446D01*
X302254D02*
X304254D01*
X302254Y59446D02*
Y61446D01*
X310354Y128913D02*
X312354D01*
Y130913D01*
X310354D02*
X312354D01*
X310354Y128913D02*
Y130913D01*
X299054Y117946D02*
X301054D01*
Y119946D01*
X299054D02*
X301054D01*
X299054Y117946D02*
Y119946D01*
X292954Y54841D02*
X294954D01*
Y56841D01*
X292954D02*
X294954D01*
X292954Y54841D02*
Y56841D01*
X319300Y176000D02*
X319800D01*
X319300D02*
Y177000D01*
X319800D01*
Y177500D01*
X320800D01*
Y177000D02*
Y177500D01*
Y177000D02*
X321300D01*
Y176000D02*
Y177000D01*
X320800Y176000D02*
X321300D01*
X320800Y175500D02*
Y176000D01*
X319800Y175500D02*
X320800D01*
X319800D02*
Y176000D01*
X338985D02*
X339485D01*
X338985D02*
Y177000D01*
X339485D01*
Y177500D01*
X340485D01*
Y177000D02*
Y177500D01*
Y177000D02*
X340985D01*
Y176000D02*
Y177000D01*
X340485Y176000D02*
X340985D01*
X340485Y175500D02*
Y176000D01*
X339485Y175500D02*
X340485D01*
X339485D02*
Y176000D01*
X358670D02*
X359170D01*
X358670D02*
Y177000D01*
X359170D01*
Y177500D01*
X360170D01*
Y177000D02*
Y177500D01*
Y177000D02*
X360670D01*
Y176000D02*
Y177000D01*
X360170Y176000D02*
X360670D01*
X360170Y175500D02*
Y176000D01*
X359170Y175500D02*
X360170D01*
X359170D02*
Y176000D01*
X378355D02*
X378855D01*
X378355D02*
Y177000D01*
X378855D01*
Y177500D01*
X379855D01*
Y177000D02*
Y177500D01*
Y177000D02*
X380355D01*
Y176000D02*
Y177000D01*
X379855Y176000D02*
X380355D01*
X379855Y175500D02*
Y176000D01*
X378855Y175500D02*
X379855D01*
X378855D02*
Y176000D01*
X398040D02*
X398540D01*
X398040D02*
Y177000D01*
X398540D01*
Y177500D01*
X399540D01*
Y177000D02*
Y177500D01*
Y177000D02*
X400040D01*
Y176000D02*
Y177000D01*
X399540Y176000D02*
X400040D01*
X399540Y175500D02*
Y176000D01*
X398540Y175500D02*
X399540D01*
X398540D02*
Y176000D01*
X417725D02*
X418225D01*
X417725D02*
Y177000D01*
X418225D01*
Y177500D01*
X419225D01*
Y177000D02*
Y177500D01*
Y177000D02*
X419725D01*
Y176000D02*
Y177000D01*
X419225Y176000D02*
X419725D01*
X419225Y175500D02*
Y176000D01*
X418225Y175500D02*
X419225D01*
X418225D02*
Y176000D01*
X437410D02*
X437910D01*
X437410D02*
Y177000D01*
X437910D01*
Y177500D01*
X438910D01*
Y177000D02*
Y177500D01*
Y177000D02*
X439410D01*
Y176000D02*
Y177000D01*
X438910Y176000D02*
X439410D01*
X438910Y175500D02*
Y176000D01*
X437910Y175500D02*
X438910D01*
X437910D02*
Y176000D01*
X457095D02*
X457595D01*
X457095D02*
Y177000D01*
X457595D01*
Y177500D01*
X458595D01*
Y177000D02*
Y177500D01*
Y177000D02*
X459095D01*
Y176000D02*
Y177000D01*
X458595Y176000D02*
X459095D01*
X458595Y175500D02*
Y176000D01*
X457595Y175500D02*
X458595D01*
X457595D02*
Y176000D01*
X476780D02*
X477280D01*
X476780D02*
Y177000D01*
X477280D01*
Y177500D01*
X478280D01*
Y177000D02*
Y177500D01*
Y177000D02*
X478780D01*
Y176000D02*
Y177000D01*
X478280Y176000D02*
X478780D01*
X478280Y175500D02*
Y176000D01*
X477280Y175500D02*
X478280D01*
X477280D02*
Y176000D01*
X496465D02*
X496965D01*
X496465D02*
Y177000D01*
X496965D01*
Y177500D01*
X497965D01*
Y177000D02*
Y177500D01*
Y177000D02*
X498465D01*
Y176000D02*
Y177000D01*
X497965Y176000D02*
X498465D01*
X497965Y175500D02*
Y176000D01*
X496965Y175500D02*
X497965D01*
X496965D02*
Y176000D01*
X516150D02*
X516650D01*
X516150D02*
Y177000D01*
X516650D01*
Y177500D01*
X517650D01*
Y177000D02*
Y177500D01*
Y177000D02*
X518150D01*
Y176000D02*
Y177000D01*
X517650Y176000D02*
X518150D01*
X517650Y175500D02*
Y176000D01*
X516650Y175500D02*
X517650D01*
X516650D02*
Y176000D01*
X535835D02*
X536335D01*
X535835D02*
Y177000D01*
X536335D01*
Y177500D01*
X537335D01*
Y177000D02*
Y177500D01*
Y177000D02*
X537835D01*
Y176000D02*
Y177000D01*
X537335Y176000D02*
X537835D01*
X537335Y175500D02*
Y176000D01*
X536335Y175500D02*
X537335D01*
X536335D02*
Y176000D01*
X56800D02*
X57300D01*
X56800D02*
Y177000D01*
X57300D01*
Y177500D01*
X58300D01*
Y177000D02*
Y177500D01*
Y177000D02*
X58800D01*
Y176000D02*
Y177000D01*
X58300Y176000D02*
X58800D01*
X58300Y175500D02*
Y176000D01*
X57300Y175500D02*
X58300D01*
X57300D02*
Y176000D01*
X76485D02*
X76985D01*
X76485D02*
Y177000D01*
X76985D01*
Y177500D01*
X77985D01*
Y177000D02*
Y177500D01*
Y177000D02*
X78485D01*
Y176000D02*
Y177000D01*
X77985Y176000D02*
X78485D01*
X77985Y175500D02*
Y176000D01*
X76985Y175500D02*
X77985D01*
X76985D02*
Y176000D01*
X96170D02*
X96670D01*
X96170D02*
Y177000D01*
X96670D01*
Y177500D01*
X97670D01*
Y177000D02*
Y177500D01*
Y177000D02*
X98170D01*
Y176000D02*
Y177000D01*
X97670Y176000D02*
X98170D01*
X97670Y175500D02*
Y176000D01*
X96670Y175500D02*
X97670D01*
X96670D02*
Y176000D01*
X115855D02*
X116355D01*
X115855D02*
Y177000D01*
X116355D01*
Y177500D01*
X117355D01*
Y177000D02*
Y177500D01*
Y177000D02*
X117855D01*
Y176000D02*
Y177000D01*
X117355Y176000D02*
X117855D01*
X117355Y175500D02*
Y176000D01*
X116355Y175500D02*
X117355D01*
X116355D02*
Y176000D01*
X135540D02*
X136040D01*
X135540D02*
Y177000D01*
X136040D01*
Y177500D01*
X137040D01*
Y177000D02*
Y177500D01*
Y177000D02*
X137540D01*
Y176000D02*
Y177000D01*
X137040Y176000D02*
X137540D01*
X137040Y175500D02*
Y176000D01*
X136040Y175500D02*
X137040D01*
X136040D02*
Y176000D01*
X155225D02*
X155725D01*
X155225D02*
Y177000D01*
X155725D01*
Y177500D01*
X156725D01*
Y177000D02*
Y177500D01*
Y177000D02*
X157225D01*
Y176000D02*
Y177000D01*
X156725Y176000D02*
X157225D01*
X156725Y175500D02*
Y176000D01*
X155725Y175500D02*
X156725D01*
X155725D02*
Y176000D01*
X174910D02*
X175410D01*
X174910D02*
Y177000D01*
X175410D01*
Y177500D01*
X176410D01*
Y177000D02*
Y177500D01*
Y177000D02*
X176910D01*
Y176000D02*
Y177000D01*
X176410Y176000D02*
X176910D01*
X176410Y175500D02*
Y176000D01*
X175410Y175500D02*
X176410D01*
X175410D02*
Y176000D01*
X194595D02*
X195095D01*
X194595D02*
Y177000D01*
X195095D01*
Y177500D01*
X196095D01*
Y177000D02*
Y177500D01*
Y177000D02*
X196595D01*
Y176000D02*
Y177000D01*
X196095Y176000D02*
X196595D01*
X196095Y175500D02*
Y176000D01*
X195095Y175500D02*
X196095D01*
X195095D02*
Y176000D01*
X214280D02*
X214780D01*
X214280D02*
Y177000D01*
X214780D01*
Y177500D01*
X215780D01*
Y177000D02*
Y177500D01*
Y177000D02*
X216280D01*
Y176000D02*
Y177000D01*
X215780Y176000D02*
X216280D01*
X215780Y175500D02*
Y176000D01*
X214780Y175500D02*
X215780D01*
X214780D02*
Y176000D01*
X233965D02*
X234465D01*
X233965D02*
Y177000D01*
X234465D01*
Y177500D01*
X235465D01*
Y177000D02*
Y177500D01*
Y177000D02*
X235965D01*
Y176000D02*
Y177000D01*
X235465Y176000D02*
X235965D01*
X235465Y175500D02*
Y176000D01*
X234465Y175500D02*
X235465D01*
X234465D02*
Y176000D01*
X253650D02*
X254150D01*
X253650D02*
Y177000D01*
X254150D01*
Y177500D01*
X255150D01*
Y177000D02*
Y177500D01*
Y177000D02*
X255650D01*
Y176000D02*
Y177000D01*
X255150Y176000D02*
X255650D01*
X255150Y175500D02*
Y176000D01*
X254150Y175500D02*
X255150D01*
X254150D02*
Y176000D01*
X273335D02*
X273835D01*
X273335D02*
Y177000D01*
X273835D01*
Y177500D01*
X274835D01*
Y177000D02*
Y177500D01*
Y177000D02*
X275335D01*
Y176000D02*
Y177000D01*
X274835Y176000D02*
X275335D01*
X274835Y175500D02*
Y176000D01*
X273835Y175500D02*
X274835D01*
X273835D02*
Y176000D01*
X401800Y23600D02*
X402300D01*
X401800D02*
Y24600D01*
X402300D01*
Y25100D01*
X403300D01*
Y24600D02*
Y25100D01*
Y24600D02*
X403800D01*
Y23600D02*
Y24600D01*
X403300Y23600D02*
X403800D01*
X403300Y23100D02*
Y23600D01*
X402300Y23100D02*
X403300D01*
X402300D02*
Y23600D01*
X382115D02*
X382615D01*
X382115D02*
Y24600D01*
X382615D01*
Y25100D01*
X383615D01*
Y24600D02*
Y25100D01*
Y24600D02*
X384115D01*
Y23600D02*
Y24600D01*
X383615Y23600D02*
X384115D01*
X383615Y23100D02*
Y23600D01*
X382615Y23100D02*
X383615D01*
X382615D02*
Y23600D01*
X362430D02*
X362930D01*
X362430D02*
Y24600D01*
X362930D01*
Y25100D01*
X363930D01*
Y24600D02*
Y25100D01*
Y24600D02*
X364430D01*
Y23600D02*
Y24600D01*
X363930Y23600D02*
X364430D01*
X363930Y23100D02*
Y23600D01*
X362930Y23100D02*
X363930D01*
X362930D02*
Y23600D01*
X342745D02*
X343245D01*
X342745D02*
Y24600D01*
X343245D01*
Y25100D01*
X344245D01*
Y24600D02*
Y25100D01*
Y24600D02*
X344745D01*
Y23600D02*
Y24600D01*
X344245Y23600D02*
X344745D01*
X344245Y23100D02*
Y23600D01*
X343245Y23100D02*
X344245D01*
X343245D02*
Y23600D01*
X323060D02*
X323560D01*
X323060D02*
Y24600D01*
X323560D01*
Y25100D01*
X324560D01*
Y24600D02*
Y25100D01*
Y24600D02*
X325060D01*
Y23600D02*
Y24600D01*
X324560Y23600D02*
X325060D01*
X324560Y23100D02*
Y23600D01*
X323560Y23100D02*
X324560D01*
X323560D02*
Y23600D01*
X303375D02*
X303875D01*
X303375D02*
Y24600D01*
X303875D01*
Y25100D01*
X304875D01*
Y24600D02*
Y25100D01*
Y24600D02*
X305375D01*
Y23600D02*
Y24600D01*
X304875Y23600D02*
X305375D01*
X304875Y23100D02*
Y23600D01*
X303875Y23100D02*
X304875D01*
X303875D02*
Y23600D01*
X283690D02*
X284190D01*
X283690D02*
Y24600D01*
X284190D01*
Y25100D01*
X285190D01*
Y24600D02*
Y25100D01*
Y24600D02*
X285690D01*
Y23600D02*
Y24600D01*
X285190Y23600D02*
X285690D01*
X285190Y23100D02*
Y23600D01*
X284190Y23100D02*
X285190D01*
X284190D02*
Y23600D01*
X264005D02*
X264505D01*
X264005D02*
Y24600D01*
X264505D01*
Y25100D01*
X265505D01*
Y24600D02*
Y25100D01*
Y24600D02*
X266005D01*
Y23600D02*
Y24600D01*
X265505Y23600D02*
X266005D01*
X265505Y23100D02*
Y23600D01*
X264505Y23100D02*
X265505D01*
X264505D02*
Y23600D01*
X244320D02*
X244820D01*
X244320D02*
Y24600D01*
X244820D01*
Y25100D01*
X245820D01*
Y24600D02*
Y25100D01*
Y24600D02*
X246320D01*
Y23600D02*
Y24600D01*
X245820Y23600D02*
X246320D01*
X245820Y23100D02*
Y23600D01*
X244820Y23100D02*
X245820D01*
X244820D02*
Y23600D01*
X224635D02*
X225135D01*
X224635D02*
Y24600D01*
X225135D01*
Y25100D01*
X226135D01*
Y24600D02*
Y25100D01*
Y24600D02*
X226635D01*
Y23600D02*
Y24600D01*
X226135Y23600D02*
X226635D01*
X226135Y23100D02*
Y23600D01*
X225135Y23100D02*
X226135D01*
X225135D02*
Y23600D01*
X204950D02*
X205450D01*
X204950D02*
Y24600D01*
X205450D01*
Y25100D01*
X206450D01*
Y24600D02*
Y25100D01*
Y24600D02*
X206950D01*
Y23600D02*
Y24600D01*
X206450Y23600D02*
X206950D01*
X206450Y23100D02*
Y23600D01*
X205450Y23100D02*
X206450D01*
X205450D02*
Y23600D01*
X185265D02*
X185765D01*
X185265D02*
Y24600D01*
X185765D01*
Y25100D01*
X186765D01*
Y24600D02*
Y25100D01*
Y24600D02*
X187265D01*
Y23600D02*
Y24600D01*
X186765Y23600D02*
X187265D01*
X186765Y23100D02*
Y23600D01*
X185765Y23100D02*
X186765D01*
X185765D02*
Y23600D01*
X80000Y24500D02*
X80500D01*
X80000D02*
Y25500D01*
X80500D01*
Y26000D01*
X81500D01*
Y25500D02*
Y26000D01*
Y25500D02*
X82000D01*
Y24500D02*
Y25500D01*
X81500Y24500D02*
X82000D01*
X81500Y24000D02*
Y24500D01*
X80500Y24000D02*
X81500D01*
X80500D02*
Y24500D01*
X60315D02*
X60815D01*
X60315D02*
Y25500D01*
X60815D01*
Y26000D01*
X61815D01*
Y25500D02*
Y26000D01*
Y25500D02*
X62315D01*
Y24500D02*
Y25500D01*
X61815Y24500D02*
X62315D01*
X61815Y24000D02*
Y24500D01*
X60815Y24000D02*
X61815D01*
X60815D02*
Y24500D01*
X142500D02*
X143000D01*
X142500D02*
Y25500D01*
X143000D01*
Y26000D01*
X144000D01*
Y25500D02*
Y26000D01*
Y25500D02*
X144500D01*
Y24500D02*
Y25500D01*
X144000Y24500D02*
X144500D01*
X144000Y24000D02*
Y24500D01*
X143000Y24000D02*
X144000D01*
X143000D02*
Y24500D01*
X122815D02*
X123315D01*
X122815D02*
Y25500D01*
X123315D01*
Y26000D01*
X124315D01*
Y25500D02*
Y26000D01*
Y25500D02*
X124815D01*
Y24500D02*
Y25500D01*
X124315Y24500D02*
X124815D01*
X124315Y24000D02*
Y24500D01*
X123315Y24000D02*
X124315D01*
X123315D02*
Y24500D01*
D35*
X613250Y-20750D02*
X1217288D01*
X613250Y-65750D02*
X1217288D01*
X613250Y-80750D02*
X1217288D01*
Y-5750D01*
X613250D02*
X1217288D01*
X613250Y-80750D02*
Y-5750D01*
X1138208Y-80750D02*
Y-5750D01*
X1079224Y-80750D02*
Y-5750D01*
X960258Y-80750D02*
Y-5750D01*
X886878Y-80750D02*
Y-5750D01*
X836290Y-80750D02*
Y-5750D01*
X722324Y-80750D02*
Y-5750D01*
X668338Y-80750D02*
Y-5750D01*
X621364Y477498D02*
X614700D01*
Y472500D01*
X618032D01*
X614700D01*
Y467501D01*
X624697D02*
Y474166D01*
X628029Y477498D01*
X631361Y474166D01*
Y467501D01*
Y472500D01*
X624697D01*
X634693Y477498D02*
Y467501D01*
X639692D01*
X641358Y469168D01*
Y470834D01*
X639692Y472500D01*
X634693D01*
X639692D01*
X641358Y474166D01*
Y475832D01*
X639692Y477498D01*
X634693D01*
X644690Y467501D02*
Y477498D01*
X649689D01*
X651355Y475832D01*
Y472500D01*
X649689Y470834D01*
X644690D01*
X648023D02*
X651355Y467501D01*
X654687Y477498D02*
X658019D01*
X656353D01*
Y467501D01*
X654687D01*
X658019D01*
X669682Y475832D02*
X668016Y477498D01*
X664684D01*
X663018Y475832D01*
Y469168D01*
X664684Y467501D01*
X668016D01*
X669682Y469168D01*
X673014Y467501D02*
Y474166D01*
X676347Y477498D01*
X679679Y474166D01*
Y467501D01*
Y472500D01*
X673014D01*
X683011Y477498D02*
X689676D01*
X686343D01*
Y467501D01*
X693008Y477498D02*
X696340D01*
X694674D01*
Y467501D01*
X693008D01*
X696340D01*
X706337Y477498D02*
X703005D01*
X701339Y475832D01*
Y469168D01*
X703005Y467501D01*
X706337D01*
X708003Y469168D01*
Y475832D01*
X706337Y477498D01*
X711335Y467501D02*
Y477498D01*
X718000Y467501D01*
Y477498D01*
X731329Y467501D02*
Y477498D01*
X737993Y467501D01*
Y477498D01*
X746324D02*
X742992D01*
X741326Y475832D01*
Y469168D01*
X742992Y467501D01*
X746324D01*
X747990Y469168D01*
Y475832D01*
X746324Y477498D01*
X751323D02*
X757987D01*
X754655D01*
Y467501D01*
X767984Y477498D02*
X761319D01*
Y467501D01*
X767984D01*
X761319Y472500D02*
X764652D01*
X777981Y475832D02*
X776314Y477498D01*
X772982D01*
X771316Y475832D01*
Y474166D01*
X772982Y472500D01*
X776314D01*
X777981Y470834D01*
Y469168D01*
X776314Y467501D01*
X772982D01*
X771316Y469168D01*
X781313Y474166D02*
X782979D01*
Y472500D01*
X781313D01*
Y474166D01*
Y469168D02*
X782979D01*
Y467501D01*
X781313D01*
Y469168D01*
X614700Y442974D02*
X616366Y444640D01*
X619698D01*
X621364Y442974D01*
Y436309D01*
X619698Y434643D01*
X616366D01*
X614700Y436309D01*
Y442974D01*
X624697Y434643D02*
X628029D01*
X626363D01*
Y444640D01*
X624697Y442974D01*
X633027Y434643D02*
Y436309D01*
X634693D01*
Y434643D01*
X633027D01*
X651355Y444640D02*
Y434643D01*
X656353D01*
X658019Y436309D01*
Y437975D01*
X656353Y439641D01*
X651355D01*
X656353D01*
X658019Y441307D01*
Y442974D01*
X656353Y444640D01*
X651355D01*
X666350D02*
X663018D01*
X661352Y442974D01*
Y436309D01*
X663018Y434643D01*
X666350D01*
X668016Y436309D01*
Y442974D01*
X666350Y444640D01*
X671348Y434643D02*
Y441307D01*
X674681Y444640D01*
X678013Y441307D01*
Y434643D01*
Y439641D01*
X671348D01*
X681345Y434643D02*
Y444640D01*
X686343D01*
X688010Y442974D01*
Y439641D01*
X686343Y437975D01*
X681345D01*
X684677D02*
X688010Y434643D01*
X691342Y444640D02*
Y434643D01*
X696340D01*
X698006Y436309D01*
Y442974D01*
X696340Y444640D01*
X691342D01*
X711335D02*
X718000D01*
X714668D01*
Y434643D01*
X721332Y444640D02*
Y434643D01*
Y439641D01*
X727997D01*
Y444640D01*
Y434643D01*
X731329Y444640D02*
X734661D01*
X732995D01*
Y434643D01*
X731329D01*
X734661D01*
X746324Y442974D02*
X744658Y444640D01*
X741326D01*
X739660Y442974D01*
Y436309D01*
X741326Y434643D01*
X744658D01*
X746324Y436309D01*
X749656Y444640D02*
Y434643D01*
Y437975D01*
X756321Y444640D01*
X751323Y439641D01*
X756321Y434643D01*
X759653D02*
Y444640D01*
X766318Y434643D01*
Y444640D01*
X776314D02*
X769650D01*
Y434643D01*
X776314D01*
X769650Y439641D02*
X772982D01*
X786311Y442974D02*
X784645Y444640D01*
X781313D01*
X779647Y442974D01*
Y441307D01*
X781313Y439641D01*
X784645D01*
X786311Y437975D01*
Y436309D01*
X784645Y434643D01*
X781313D01*
X779647Y436309D01*
X796308Y442974D02*
X794642Y444640D01*
X791310D01*
X789643Y442974D01*
Y441307D01*
X791310Y439641D01*
X794642D01*
X796308Y437975D01*
Y436309D01*
X794642Y434643D01*
X791310D01*
X789643Y436309D01*
X809637Y444640D02*
X812969D01*
X811303D01*
Y434643D01*
X809637D01*
X812969D01*
X824632Y442974D02*
X822966Y444640D01*
X819634D01*
X817968Y442974D01*
Y441307D01*
X819634Y439641D01*
X822966D01*
X824632Y437975D01*
Y436309D01*
X822966Y434643D01*
X819634D01*
X817968Y436309D01*
X837961Y442974D02*
X839627Y444640D01*
X842960D01*
X844626Y442974D01*
Y436309D01*
X842960Y434643D01*
X839627D01*
X837961Y436309D01*
Y442974D01*
X847958Y434643D02*
Y436309D01*
X849624D01*
Y434643D01*
X847958D01*
X856289Y442974D02*
X857955Y444640D01*
X861287D01*
X862953Y442974D01*
Y436309D01*
X861287Y434643D01*
X857955D01*
X856289Y436309D01*
Y442974D01*
X872950Y444640D02*
X869618Y442974D01*
X866285Y439641D01*
Y436309D01*
X867951Y434643D01*
X871284D01*
X872950Y436309D01*
Y437975D01*
X871284Y439641D01*
X866285D01*
X882947Y434643D02*
X876282D01*
X882947Y441307D01*
Y442974D01*
X881281Y444640D01*
X877948D01*
X876282Y442974D01*
X896276Y444640D02*
X899608D01*
X897942D01*
Y434643D01*
X896276D01*
X899608D01*
X904606D02*
Y444640D01*
X911271Y434643D01*
Y444640D01*
X914603Y434643D02*
Y436309D01*
X916269D01*
Y434643D01*
X914603D01*
X932930Y439641D02*
X939595D01*
X936263Y442974D02*
Y436309D01*
X942927Y434643D02*
X949592Y441307D01*
X952924Y439641D02*
X959589D01*
X972918Y434643D02*
X976250D01*
X974584D01*
Y444640D01*
X972918Y442974D01*
X981248D02*
X982914Y444640D01*
X986247D01*
X987913Y442974D01*
Y436309D01*
X986247Y434643D01*
X982914D01*
X981248Y436309D01*
Y442974D01*
X991245Y436309D02*
X999576Y444640D01*
X991245D02*
Y446306D01*
X992911D01*
Y444640D01*
X991245D01*
X997910Y434643D02*
Y436309D01*
X999576D01*
Y434643D01*
X997910D01*
X614700Y425711D02*
X616366Y427378D01*
X619698D01*
X621364Y425711D01*
Y419047D01*
X619698Y417381D01*
X616366D01*
X614700Y419047D01*
Y425711D01*
X631361Y417381D02*
X624697D01*
X631361Y424045D01*
Y425711D01*
X629695Y427378D01*
X626363D01*
X624697Y425711D01*
X634693Y417381D02*
Y419047D01*
X636360D01*
Y417381D01*
X634693D01*
X653021Y427378D02*
Y417381D01*
X656353Y420713D01*
X659686Y417381D01*
Y427378D01*
X663018Y417381D02*
Y424045D01*
X666350Y427378D01*
X669682Y424045D01*
Y417381D01*
Y422379D01*
X663018D01*
X673014Y417381D02*
Y427378D01*
X678013D01*
X679679Y425711D01*
Y422379D01*
X678013Y420713D01*
X673014D01*
X676347D02*
X679679Y417381D01*
X683011D02*
Y427378D01*
X688010D01*
X689676Y425711D01*
Y422379D01*
X688010Y420713D01*
X683011D01*
X709669Y417381D02*
X708003Y419047D01*
X706337Y417381D01*
X704671D01*
X703005Y419047D01*
Y420713D01*
X704671Y422379D01*
X703005Y424045D01*
Y425711D01*
X704671Y427378D01*
X706337D01*
X708003Y425711D01*
Y424045D01*
X706337Y422379D01*
X708003Y420713D01*
Y419047D01*
X709669Y422379D02*
X708003Y420713D01*
X704671Y422379D02*
X706337D01*
X722998Y427378D02*
X729663D01*
X726331D01*
Y417381D01*
X732995Y427378D02*
Y417381D01*
X736327Y420713D01*
X739660Y417381D01*
Y427378D01*
X742992D02*
X746324D01*
X744658D01*
Y417381D01*
X742992D01*
X746324D01*
X757987Y425711D02*
X756321Y427378D01*
X752989D01*
X751323Y425711D01*
Y424045D01*
X752989Y422379D01*
X756321D01*
X757987Y420713D01*
Y419047D01*
X756321Y417381D01*
X752989D01*
X751323Y419047D01*
X761319Y427378D02*
X767984D01*
X764652D01*
Y417381D01*
X787977Y425711D02*
X786311Y427378D01*
X782979D01*
X781313Y425711D01*
Y424045D01*
X782979Y422379D01*
X786311D01*
X787977Y420713D01*
Y419047D01*
X786311Y417381D01*
X782979D01*
X781313Y419047D01*
X791310Y427378D02*
Y417381D01*
Y422379D01*
X797974D01*
Y427378D01*
Y417381D01*
X801306D02*
Y424045D01*
X804639Y427378D01*
X807971Y424045D01*
Y417381D01*
Y422379D01*
X801306D01*
X811303Y427378D02*
Y417381D01*
X817968D01*
X821300Y427378D02*
Y417381D01*
X827964D01*
X841293D02*
Y427378D01*
X847958Y417381D01*
Y427378D01*
X856289D02*
X852956D01*
X851290Y425711D01*
Y419047D01*
X852956Y417381D01*
X856289D01*
X857955Y419047D01*
Y425711D01*
X856289Y427378D01*
X861287D02*
X867951D01*
X864619D01*
Y417381D01*
X887945Y427378D02*
X881281D01*
Y417381D01*
X887945D01*
X881281Y422379D02*
X884613D01*
X891277Y427378D02*
X897942Y417381D01*
Y427378D02*
X891277Y417381D01*
X907939Y425711D02*
X906273Y427378D01*
X902940D01*
X901274Y425711D01*
Y419047D01*
X902940Y417381D01*
X906273D01*
X907939Y419047D01*
X917935Y427378D02*
X911271D01*
Y417381D01*
X917935D01*
X911271Y422379D02*
X914603D01*
X927932Y427378D02*
X921268D01*
Y417381D01*
X927932D01*
X921268Y422379D02*
X924600D01*
X931264Y427378D02*
Y417381D01*
X936263D01*
X937929Y419047D01*
Y425711D01*
X936263Y427378D01*
X931264D01*
X951258Y417381D02*
X954590D01*
X952924D01*
Y427378D01*
X951258Y425711D01*
X959589Y419047D02*
X967919Y427378D01*
X959589D02*
Y429044D01*
X961255D01*
Y427378D01*
X959589D01*
X966253Y417381D02*
Y419047D01*
X967919D01*
Y417381D01*
X966253D01*
X614700Y410115D02*
X616366Y411781D01*
X619698D01*
X621364Y410115D01*
Y403451D01*
X619698Y401785D01*
X616366D01*
X614700Y403451D01*
Y410115D01*
X624697D02*
X626363Y411781D01*
X629695D01*
X631361Y410115D01*
Y408449D01*
X629695Y406783D01*
X628029D01*
X629695D01*
X631361Y405117D01*
Y403451D01*
X629695Y401785D01*
X626363D01*
X624697Y403451D01*
X634693Y401785D02*
Y403451D01*
X636360D01*
Y401785D01*
X634693D01*
X659686Y411781D02*
X653021D01*
Y401785D01*
X659686D01*
X653021Y406783D02*
X656353D01*
X663018Y401785D02*
Y411781D01*
X669682Y401785D01*
Y411781D01*
X673014D02*
X676347D01*
X674681D01*
Y401785D01*
X673014D01*
X676347D01*
X688010Y410115D02*
X686343Y411781D01*
X683011D01*
X681345Y410115D01*
Y403451D01*
X683011Y401785D01*
X686343D01*
X688010Y403451D01*
Y406783D01*
X684677D01*
X708003Y411781D02*
X701339D01*
Y406783D01*
X704671D01*
X701339D01*
Y401785D01*
X711335Y411781D02*
X714668D01*
X713002D01*
Y401785D01*
X711335D01*
X714668D01*
X719666D02*
Y411781D01*
X726331Y401785D01*
Y411781D01*
X729663D02*
X732995D01*
X731329D01*
Y401785D01*
X729663D01*
X732995D01*
X744658Y410115D02*
X742992Y411781D01*
X739660D01*
X737993Y410115D01*
Y408449D01*
X739660Y406783D01*
X742992D01*
X744658Y405117D01*
Y403451D01*
X742992Y401785D01*
X739660D01*
X737993Y403451D01*
X747990Y411781D02*
Y401785D01*
Y406783D01*
X754655D01*
Y411781D01*
Y401785D01*
X614700Y394519D02*
X616366Y396185D01*
X619698D01*
X621364Y394519D01*
Y387855D01*
X619698Y386189D01*
X616366D01*
X614700Y387855D01*
Y394519D01*
X629695Y386189D02*
Y396185D01*
X624697Y391187D01*
X631361D01*
X634693Y386189D02*
Y387855D01*
X636360D01*
Y386189D01*
X634693D01*
X659686Y394519D02*
X658019Y396185D01*
X654687D01*
X653021Y394519D01*
Y392853D01*
X654687Y391187D01*
X658019D01*
X659686Y389521D01*
Y387855D01*
X658019Y386189D01*
X654687D01*
X653021Y387855D01*
X668016Y396185D02*
X664684D01*
X663018Y394519D01*
Y387855D01*
X664684Y386189D01*
X668016D01*
X669682Y387855D01*
Y394519D01*
X668016Y396185D01*
X673014D02*
Y386189D01*
X679679D01*
X683011Y396185D02*
Y386189D01*
X688010D01*
X689676Y387855D01*
Y394519D01*
X688010Y396185D01*
X683011D01*
X699673D02*
X693008D01*
Y386189D01*
X699673D01*
X693008Y391187D02*
X696340D01*
X703005Y386189D02*
Y396185D01*
X708003D01*
X709669Y394519D01*
Y391187D01*
X708003Y389521D01*
X703005D01*
X706337D02*
X709669Y386189D01*
X713002D02*
Y396185D01*
X716334Y392853D01*
X719666Y396185D01*
Y386189D01*
X722998D02*
Y392853D01*
X726331Y396185D01*
X729663Y392853D01*
Y386189D01*
Y391187D01*
X722998D01*
X739660Y394519D02*
X737993Y396185D01*
X734661D01*
X732995Y394519D01*
Y392853D01*
X734661Y391187D01*
X737993D01*
X739660Y389521D01*
Y387855D01*
X737993Y386189D01*
X734661D01*
X732995Y387855D01*
X742992Y396185D02*
Y386189D01*
Y389521D01*
X749656Y396185D01*
X744658Y391187D01*
X749656Y386189D01*
X769650Y394519D02*
X767984Y396185D01*
X764652D01*
X762985Y394519D01*
Y392853D01*
X764652Y391187D01*
X767984D01*
X769650Y389521D01*
Y387855D01*
X767984Y386189D01*
X764652D01*
X762985Y387855D01*
X772982Y396185D02*
Y386189D01*
Y391187D01*
X779647D01*
Y396185D01*
Y386189D01*
X782979D02*
Y392853D01*
X786311Y396185D01*
X789643Y392853D01*
Y386189D01*
Y391187D01*
X782979D01*
X792976Y396185D02*
Y386189D01*
X799640D01*
X802973Y396185D02*
Y386189D01*
X809637D01*
X822966Y396185D02*
Y386189D01*
X827964D01*
X829631Y387855D01*
Y389521D01*
X827964Y391187D01*
X822966D01*
X827964D01*
X829631Y392853D01*
Y394519D01*
X827964Y396185D01*
X822966D01*
X839627D02*
X832963D01*
Y386189D01*
X839627D01*
X832963Y391187D02*
X836295D01*
X852956Y396185D02*
Y386189D01*
X857955D01*
X859621Y387855D01*
Y389521D01*
X857955Y391187D01*
X852956D01*
X857955D01*
X859621Y392853D01*
Y394519D01*
X857955Y396185D01*
X852956D01*
X862953D02*
Y386189D01*
X869618D01*
X872950Y396185D02*
Y387855D01*
X874616Y386189D01*
X877948D01*
X879614Y387855D01*
Y396185D01*
X889611D02*
X882947D01*
Y386189D01*
X889611D01*
X882947Y391187D02*
X886279D01*
X902940Y396185D02*
Y386189D01*
X909605D01*
X917935Y396185D02*
X914603D01*
X912937Y394519D01*
Y387855D01*
X914603Y386189D01*
X917935D01*
X919602Y387855D01*
Y394519D01*
X917935Y396185D01*
X922934D02*
Y386189D01*
X926266Y389521D01*
X929598Y386189D01*
Y396185D01*
X949592Y394519D02*
X947926Y396185D01*
X944593D01*
X942927Y394519D01*
Y387855D01*
X944593Y386189D01*
X947926D01*
X949592Y387855D01*
Y391187D01*
X946259D01*
X952924Y396185D02*
Y386189D01*
X959589D01*
X967919Y396185D02*
X964587D01*
X962921Y394519D01*
Y387855D01*
X964587Y386189D01*
X967919D01*
X969585Y387855D01*
Y394519D01*
X967919Y396185D01*
X979582Y394519D02*
X977916Y396185D01*
X974584D01*
X972918Y394519D01*
Y392853D01*
X974584Y391187D01*
X977916D01*
X979582Y389521D01*
Y387855D01*
X977916Y386189D01*
X974584D01*
X972918Y387855D01*
X989579Y394519D02*
X987913Y396185D01*
X984581D01*
X982914Y394519D01*
Y392853D01*
X984581Y391187D01*
X987913D01*
X989579Y389521D01*
Y387855D01*
X987913Y386189D01*
X984581D01*
X982914Y387855D01*
X1002908Y396185D02*
Y386189D01*
X1006240Y389521D01*
X1009572Y386189D01*
Y396185D01*
X1012905D02*
X1016237D01*
X1014571D01*
Y386189D01*
X1012905D01*
X1016237D01*
X1021235Y396185D02*
X1027900D01*
X1024568D01*
Y386189D01*
X1031232Y396185D02*
Y386189D01*
Y391187D01*
X1037897D01*
Y396185D01*
Y386189D01*
X1051226Y396185D02*
Y386189D01*
X1054558Y389521D01*
X1057890Y386189D01*
Y396185D01*
X1061222D02*
Y386189D01*
Y391187D01*
X1067887D01*
Y396185D01*
Y386189D01*
X1071219Y396185D02*
X1074551D01*
X1072885D01*
Y386189D01*
X1071219D01*
X1074551D01*
X1079550Y396185D02*
X1086214D01*
X1082882D01*
Y386189D01*
X1096211Y396185D02*
X1089547D01*
Y386189D01*
X1096211D01*
X1089547Y391187D02*
X1092879D01*
X1116205Y396185D02*
X1109540D01*
Y386189D01*
X1116205D01*
X1109540Y391187D02*
X1112872D01*
X1119537Y386189D02*
Y396185D01*
X1124535D01*
X1126201Y394519D01*
Y391187D01*
X1124535Y389521D01*
X1119537D01*
X1134532Y396185D02*
X1131200D01*
X1129534Y394519D01*
Y387855D01*
X1131200Y386189D01*
X1134532D01*
X1136198Y387855D01*
Y394519D01*
X1134532Y396185D01*
X1139530D02*
X1146195Y386189D01*
Y396185D02*
X1139530Y386189D01*
X1149527Y396185D02*
Y394519D01*
X1152859Y391187D01*
X1156192Y394519D01*
Y396185D01*
X1152859Y391187D02*
Y386189D01*
X1176185Y394519D02*
X1174519Y396185D01*
X1171187D01*
X1169521Y394519D01*
Y392853D01*
X1171187Y391187D01*
X1174519D01*
X1176185Y389521D01*
Y387855D01*
X1174519Y386189D01*
X1171187D01*
X1169521Y387855D01*
X1179517Y396185D02*
X1182850D01*
X1181184D01*
Y386189D01*
X1179517D01*
X1182850D01*
X1187848Y396185D02*
Y386189D01*
X1194513D01*
X1197845Y396185D02*
Y386189D01*
Y389521D01*
X1204509Y396185D01*
X1199511Y391187D01*
X1204509Y386189D01*
X1214506Y394519D02*
X1212840Y396185D01*
X1209508D01*
X1207842Y394519D01*
Y392853D01*
X1209508Y391187D01*
X1212840D01*
X1214506Y389521D01*
Y387855D01*
X1212840Y386189D01*
X1209508D01*
X1207842Y387855D01*
X1224503Y394519D02*
X1222837Y396185D01*
X1219505D01*
X1217838Y394519D01*
Y387855D01*
X1219505Y386189D01*
X1222837D01*
X1224503Y387855D01*
X1227835Y386189D02*
Y396185D01*
X1232834D01*
X1234500Y394519D01*
Y391187D01*
X1232834Y389521D01*
X1227835D01*
X1231168D02*
X1234500Y386189D01*
X1244497Y396185D02*
X1237832D01*
Y386189D01*
X1244497D01*
X1237832Y391187D02*
X1241164D01*
X1254493Y396185D02*
X1247829D01*
Y386189D01*
X1254493D01*
X1247829Y391187D02*
X1251161D01*
X1257825Y386189D02*
Y396185D01*
X1264490Y386189D01*
Y396185D01*
X614700Y378923D02*
X616366Y380589D01*
X619698D01*
X621364Y378923D01*
Y372258D01*
X619698Y370592D01*
X616366D01*
X614700Y372258D01*
Y378923D01*
X631361Y380589D02*
X624697D01*
Y375591D01*
X628029Y377257D01*
X629695D01*
X631361Y375591D01*
Y372258D01*
X629695Y370592D01*
X626363D01*
X624697Y372258D01*
X634693Y370592D02*
Y372258D01*
X636360D01*
Y370592D01*
X634693D01*
X653021D02*
Y380589D01*
X658019D01*
X659686Y378923D01*
Y375591D01*
X658019Y373925D01*
X653021D01*
X656353D02*
X659686Y370592D01*
X668016Y380589D02*
X664684D01*
X663018Y378923D01*
Y372258D01*
X664684Y370592D01*
X668016D01*
X669682Y372258D01*
Y378923D01*
X668016Y380589D01*
X673014D02*
Y370592D01*
Y375591D01*
X679679D01*
Y380589D01*
Y370592D01*
X689676Y378923D02*
X688010Y380589D01*
X684677D01*
X683011Y378923D01*
Y377257D01*
X684677Y375591D01*
X688010D01*
X689676Y373925D01*
Y372258D01*
X688010Y370592D01*
X684677D01*
X683011Y372258D01*
X703005Y380589D02*
Y370592D01*
X709669D01*
X718000Y380589D02*
X714668D01*
X713002Y378923D01*
Y372258D01*
X714668Y370592D01*
X718000D01*
X719666Y372258D01*
Y378923D01*
X718000Y380589D01*
X729663Y378923D02*
X727997Y380589D01*
X724664D01*
X722998Y378923D01*
Y372258D01*
X724664Y370592D01*
X727997D01*
X729663Y372258D01*
Y375591D01*
X726331D01*
X737993Y380589D02*
X734661D01*
X732995Y378923D01*
Y372258D01*
X734661Y370592D01*
X737993D01*
X739660Y372258D01*
Y378923D01*
X737993Y380589D01*
X759653Y378923D02*
X757987Y380589D01*
X754655D01*
X752989Y378923D01*
Y377257D01*
X754655Y375591D01*
X757987D01*
X759653Y373925D01*
Y372258D01*
X757987Y370592D01*
X754655D01*
X752989Y372258D01*
X762985Y380589D02*
Y370592D01*
Y375591D01*
X769650D01*
Y380589D01*
Y370592D01*
X772982D02*
Y377257D01*
X776314Y380589D01*
X779647Y377257D01*
Y370592D01*
Y375591D01*
X772982D01*
X782979Y380589D02*
Y370592D01*
X789643D01*
X792976Y380589D02*
Y370592D01*
X799640D01*
X812969Y380589D02*
Y370592D01*
X817968D01*
X819634Y372258D01*
Y373925D01*
X817968Y375591D01*
X812969D01*
X817968D01*
X819634Y377257D01*
Y378923D01*
X817968Y380589D01*
X812969D01*
X829631D02*
X822966D01*
Y370592D01*
X829631D01*
X822966Y375591D02*
X826298D01*
X842960Y370592D02*
Y380589D01*
X847958D01*
X849624Y378923D01*
Y375591D01*
X847958Y373925D01*
X842960D01*
X852956Y380589D02*
Y370592D01*
X859621D01*
X862953D02*
Y377257D01*
X866285Y380589D01*
X869618Y377257D01*
Y370592D01*
Y375591D01*
X862953D01*
X879614Y378923D02*
X877948Y380589D01*
X874616D01*
X872950Y378923D01*
Y372258D01*
X874616Y370592D01*
X877948D01*
X879614Y372258D01*
X889611Y380589D02*
X882947D01*
Y370592D01*
X889611D01*
X882947Y375591D02*
X886279D01*
X892943Y380589D02*
Y370592D01*
X897942D01*
X899608Y372258D01*
Y378923D01*
X897942Y380589D01*
X892943D01*
X912937D02*
X916269D01*
X914603D01*
Y370592D01*
X912937D01*
X916269D01*
X921268D02*
Y380589D01*
X927932Y370592D01*
Y380589D01*
X947926Y378923D02*
X946259Y380589D01*
X942927D01*
X941261Y378923D01*
Y377257D01*
X942927Y375591D01*
X946259D01*
X947926Y373925D01*
Y372258D01*
X946259Y370592D01*
X942927D01*
X941261Y372258D01*
X951258Y380589D02*
X954590D01*
X952924D01*
Y370592D01*
X951258D01*
X954590D01*
X959589Y380589D02*
Y370592D01*
X966253D01*
X969585Y380589D02*
Y370592D01*
Y373925D01*
X976250Y380589D01*
X971251Y375591D01*
X976250Y370592D01*
X994577Y380589D02*
X991245D01*
X989579Y378923D01*
Y372258D01*
X991245Y370592D01*
X994577D01*
X996243Y372258D01*
Y378923D01*
X994577Y380589D01*
X999576Y370592D02*
Y380589D01*
X1006240Y370592D01*
Y380589D01*
X1019569D02*
Y370592D01*
X1024568D01*
X1026234Y372258D01*
Y373925D01*
X1024568Y375591D01*
X1019569D01*
X1024568D01*
X1026234Y377257D01*
Y378923D01*
X1024568Y380589D01*
X1019569D01*
X1034564D02*
X1031232D01*
X1029566Y378923D01*
Y372258D01*
X1031232Y370592D01*
X1034564D01*
X1036230Y372258D01*
Y378923D01*
X1034564Y380589D01*
X1039563D02*
X1046227D01*
X1042895D01*
Y370592D01*
X1049559Y380589D02*
X1056224D01*
X1052892D01*
Y370592D01*
X1064555Y380589D02*
X1061222D01*
X1059556Y378923D01*
Y372258D01*
X1061222Y370592D01*
X1064555D01*
X1066221Y372258D01*
Y378923D01*
X1064555Y380589D01*
X1069553Y370592D02*
Y380589D01*
X1072885Y377257D01*
X1076217Y380589D01*
Y370592D01*
X614700Y363327D02*
X616366Y364993D01*
X619698D01*
X621364Y363327D01*
Y356662D01*
X619698Y354996D01*
X616366D01*
X614700Y356662D01*
Y363327D01*
X631361Y364993D02*
X628029Y363327D01*
X624697Y359995D01*
Y356662D01*
X626363Y354996D01*
X629695D01*
X631361Y356662D01*
Y358329D01*
X629695Y359995D01*
X624697D01*
X634693Y354996D02*
Y356662D01*
X636360D01*
Y354996D01*
X634693D01*
X653021Y364993D02*
Y354996D01*
X659686D01*
X669682Y364993D02*
X663018D01*
Y354996D01*
X669682D01*
X663018Y359995D02*
X666350D01*
X673014Y354996D02*
Y361661D01*
X676347Y364993D01*
X679679Y361661D01*
Y354996D01*
Y359995D01*
X673014D01*
X683011Y364993D02*
Y354996D01*
X688010D01*
X689676Y356662D01*
Y363327D01*
X688010Y364993D01*
X683011D01*
X709669D02*
X703005D01*
Y359995D01*
X706337D01*
X703005D01*
Y354996D01*
X713002D02*
Y364993D01*
X718000D01*
X719666Y363327D01*
Y359995D01*
X718000Y358329D01*
X713002D01*
X716334D02*
X719666Y354996D01*
X729663Y364993D02*
X722998D01*
Y354996D01*
X729663D01*
X722998Y359995D02*
X726331D01*
X739660Y364993D02*
X732995D01*
Y354996D01*
X739660D01*
X732995Y359995D02*
X736327D01*
X752989Y364993D02*
Y354996D01*
X759653D01*
X767984Y364993D02*
X764652D01*
X762985Y363327D01*
Y356662D01*
X764652Y354996D01*
X767984D01*
X769650Y356662D01*
Y363327D01*
X767984Y364993D01*
X779647Y363327D02*
X777981Y364993D01*
X774648D01*
X772982Y363327D01*
Y356662D01*
X774648Y354996D01*
X777981D01*
X779647Y356662D01*
Y359995D01*
X776314D01*
X787977Y364993D02*
X784645D01*
X782979Y363327D01*
Y356662D01*
X784645Y354996D01*
X787977D01*
X789643Y356662D01*
Y363327D01*
X787977Y364993D01*
X802973D02*
X809637D01*
X806305D01*
Y354996D01*
X817968Y364993D02*
X814635D01*
X812969Y363327D01*
Y356662D01*
X814635Y354996D01*
X817968D01*
X819634Y356662D01*
Y363327D01*
X817968Y364993D01*
X832963D02*
Y354996D01*
X837961D01*
X839627Y356662D01*
Y358329D01*
X837961Y359995D01*
X832963D01*
X837961D01*
X839627Y361661D01*
Y363327D01*
X837961Y364993D01*
X832963D01*
X849624D02*
X842960D01*
Y354996D01*
X849624D01*
X842960Y359995D02*
X846292D01*
X862953Y354996D02*
Y364993D01*
X867951D01*
X869618Y363327D01*
Y359995D01*
X867951Y358329D01*
X862953D01*
X872950Y364993D02*
Y354996D01*
X879614D01*
X882947D02*
Y361661D01*
X886279Y364993D01*
X889611Y361661D01*
Y354996D01*
Y359995D01*
X882947D01*
X899608Y363327D02*
X897942Y364993D01*
X894610D01*
X892943Y363327D01*
Y356662D01*
X894610Y354996D01*
X897942D01*
X899608Y356662D01*
X909605Y364993D02*
X902940D01*
Y354996D01*
X909605D01*
X902940Y359995D02*
X906273D01*
X912937Y364993D02*
Y354996D01*
X917935D01*
X919602Y356662D01*
Y363327D01*
X917935Y364993D01*
X912937D01*
X932930D02*
X936263D01*
X934597D01*
Y354996D01*
X932930D01*
X936263D01*
X941261D02*
Y364993D01*
X947926Y354996D01*
Y364993D01*
X967919Y363327D02*
X966253Y364993D01*
X962921D01*
X961255Y363327D01*
Y361661D01*
X962921Y359995D01*
X966253D01*
X967919Y358329D01*
Y356662D01*
X966253Y354996D01*
X962921D01*
X961255Y356662D01*
X971251Y364993D02*
X974584D01*
X972918D01*
Y354996D01*
X971251D01*
X974584D01*
X979582Y364993D02*
Y354996D01*
X986247D01*
X989579Y364993D02*
Y354996D01*
Y358329D01*
X996243Y364993D01*
X991245Y359995D01*
X996243Y354996D01*
X1014571Y364993D02*
X1011238D01*
X1009572Y363327D01*
Y356662D01*
X1011238Y354996D01*
X1014571D01*
X1016237Y356662D01*
Y363327D01*
X1014571Y364993D01*
X1019569Y354996D02*
Y364993D01*
X1026234Y354996D01*
Y364993D01*
X1039563D02*
Y354996D01*
X1044561D01*
X1046227Y356662D01*
Y358329D01*
X1044561Y359995D01*
X1039563D01*
X1044561D01*
X1046227Y361661D01*
Y363327D01*
X1044561Y364993D01*
X1039563D01*
X1054558D02*
X1051226D01*
X1049559Y363327D01*
Y356662D01*
X1051226Y354996D01*
X1054558D01*
X1056224Y356662D01*
Y363327D01*
X1054558Y364993D01*
X1059556D02*
X1066221D01*
X1062889D01*
Y354996D01*
X1069553Y364993D02*
X1076217D01*
X1072885D01*
Y354996D01*
X1084548Y364993D02*
X1081216D01*
X1079550Y363327D01*
Y356662D01*
X1081216Y354996D01*
X1084548D01*
X1086214Y356662D01*
Y363327D01*
X1084548Y364993D01*
X1089547Y354996D02*
Y364993D01*
X1092879Y361661D01*
X1096211Y364993D01*
Y354996D01*
X614700Y347731D02*
X616366Y349397D01*
X619698D01*
X621364Y347731D01*
Y341066D01*
X619698Y339400D01*
X616366D01*
X614700Y341066D01*
Y347731D01*
X624697Y349397D02*
X631361D01*
Y347731D01*
X624697Y341066D01*
Y339400D01*
X634693D02*
Y341066D01*
X636360D01*
Y339400D01*
X634693D01*
X659686Y349397D02*
X653021D01*
Y344398D01*
X656353D01*
X653021D01*
Y339400D01*
X663018D02*
Y346065D01*
X666350Y349397D01*
X669682Y346065D01*
Y339400D01*
Y344398D01*
X663018D01*
X673014Y349397D02*
Y339400D01*
X678013D01*
X679679Y341066D01*
Y342732D01*
X678013Y344398D01*
X673014D01*
X678013D01*
X679679Y346065D01*
Y347731D01*
X678013Y349397D01*
X673014D01*
X693008D02*
Y339400D01*
Y344398D01*
X699673D01*
Y349397D01*
Y339400D01*
X708003Y349397D02*
X704671D01*
X703005Y347731D01*
Y341066D01*
X704671Y339400D01*
X708003D01*
X709669Y341066D01*
Y347731D01*
X708003Y349397D01*
X713002D02*
Y341066D01*
X714668Y339400D01*
X718000D01*
X719666Y341066D01*
Y349397D01*
X729663Y347731D02*
X727997Y349397D01*
X724664D01*
X722998Y347731D01*
Y346065D01*
X724664Y344398D01*
X727997D01*
X729663Y342732D01*
Y341066D01*
X727997Y339400D01*
X724664D01*
X722998Y341066D01*
X739660Y349397D02*
X732995D01*
Y339400D01*
X739660D01*
X732995Y344398D02*
X736327D01*
X752989Y349397D02*
X759653D01*
X756321D01*
Y339400D01*
X767984Y349397D02*
X764652D01*
X762985Y347731D01*
Y341066D01*
X764652Y339400D01*
X767984D01*
X769650Y341066D01*
Y347731D01*
X767984Y349397D01*
X782979D02*
Y341066D01*
X784645Y339400D01*
X787977D01*
X789643Y341066D01*
Y349397D01*
X792976Y339400D02*
Y349397D01*
X797974D01*
X799640Y347731D01*
Y344398D01*
X797974Y342732D01*
X792976D01*
X802973Y349397D02*
Y339400D01*
X807971D01*
X809637Y341066D01*
Y347731D01*
X807971Y349397D01*
X802973D01*
X812969Y339400D02*
Y346065D01*
X816302Y349397D01*
X819634Y346065D01*
Y339400D01*
Y344398D01*
X812969D01*
X822966Y349397D02*
X829631D01*
X826298D01*
Y339400D01*
X839627Y349397D02*
X832963D01*
Y339400D01*
X839627D01*
X832963Y344398D02*
X836295D01*
X859621Y347731D02*
X857955Y349397D01*
X854622D01*
X852956Y347731D01*
Y346065D01*
X854622Y344398D01*
X857955D01*
X859621Y342732D01*
Y341066D01*
X857955Y339400D01*
X854622D01*
X852956Y341066D01*
X862953Y349397D02*
X866285D01*
X864619D01*
Y339400D01*
X862953D01*
X866285D01*
X871284Y349397D02*
Y339400D01*
X877948D01*
X881281Y349397D02*
Y339400D01*
Y342732D01*
X887945Y349397D01*
X882947Y344398D01*
X887945Y339400D01*
X897942Y347731D02*
X896276Y349397D01*
X892943D01*
X891277Y347731D01*
Y346065D01*
X892943Y344398D01*
X896276D01*
X897942Y342732D01*
Y341066D01*
X896276Y339400D01*
X892943D01*
X891277Y341066D01*
X907939Y347731D02*
X906273Y349397D01*
X902940D01*
X901274Y347731D01*
Y341066D01*
X902940Y339400D01*
X906273D01*
X907939Y341066D01*
X911271Y339400D02*
Y349397D01*
X916269D01*
X917935Y347731D01*
Y344398D01*
X916269Y342732D01*
X911271D01*
X914603D02*
X917935Y339400D01*
X927932Y349397D02*
X921268D01*
Y339400D01*
X927932D01*
X921268Y344398D02*
X924600D01*
X937929Y349397D02*
X931264D01*
Y339400D01*
X937929D01*
X931264Y344398D02*
X934597D01*
X941261Y339400D02*
Y349397D01*
X947926Y339400D01*
Y349397D01*
X967919D02*
X961255D01*
Y344398D01*
X964587D01*
X961255D01*
Y339400D01*
X976250Y349397D02*
X972918D01*
X971251Y347731D01*
Y341066D01*
X972918Y339400D01*
X976250D01*
X977916Y341066D01*
Y347731D01*
X976250Y349397D01*
X981248Y339400D02*
Y349397D01*
X986247D01*
X987913Y347731D01*
Y344398D01*
X986247Y342732D01*
X981248D01*
X984581D02*
X987913Y339400D01*
X1001242D02*
Y349397D01*
X1004574Y346065D01*
X1007906Y349397D01*
Y339400D01*
X1011238D02*
Y346065D01*
X1014571Y349397D01*
X1017903Y346065D01*
Y339400D01*
Y344398D01*
X1011238D01*
X1021235Y339400D02*
Y349397D01*
X1027900Y339400D01*
Y349397D01*
X1031232D02*
Y341066D01*
X1032898Y339400D01*
X1036230D01*
X1037897Y341066D01*
Y349397D01*
X1047893D02*
X1041229D01*
Y344398D01*
X1044561D01*
X1041229D01*
Y339400D01*
X1051226D02*
Y346065D01*
X1054558Y349397D01*
X1057890Y346065D01*
Y339400D01*
Y344398D01*
X1051226D01*
X1067887Y347731D02*
X1066221Y349397D01*
X1062889D01*
X1061222Y347731D01*
Y341066D01*
X1062889Y339400D01*
X1066221D01*
X1067887Y341066D01*
X1071219Y349397D02*
X1077884D01*
X1074551D01*
Y339400D01*
X1081216Y349397D02*
Y341066D01*
X1082882Y339400D01*
X1086214D01*
X1087880Y341066D01*
Y349397D01*
X1091213Y339400D02*
Y349397D01*
X1096211D01*
X1097877Y347731D01*
Y344398D01*
X1096211Y342732D01*
X1091213D01*
X1094545D02*
X1097877Y339400D01*
X1107874Y349397D02*
X1101210D01*
Y339400D01*
X1107874D01*
X1101210Y344398D02*
X1104542D01*
X1121203Y349397D02*
Y339400D01*
X1126201D01*
X1127868Y341066D01*
Y347731D01*
X1126201Y349397D01*
X1121203D01*
X1131200Y339400D02*
Y346065D01*
X1134532Y349397D01*
X1137864Y346065D01*
Y339400D01*
Y344398D01*
X1131200D01*
X1141197Y349397D02*
X1147861D01*
X1144529D01*
Y339400D01*
X1157858Y349397D02*
X1151193D01*
Y339400D01*
X1157858D01*
X1151193Y344398D02*
X1154526D01*
X614700Y332135D02*
X616366Y333801D01*
X619698D01*
X621364Y332135D01*
Y325470D01*
X619698Y323804D01*
X616366D01*
X614700Y325470D01*
Y332135D01*
X624697D02*
X626363Y333801D01*
X629695D01*
X631361Y332135D01*
Y330469D01*
X629695Y328802D01*
X631361Y327136D01*
Y325470D01*
X629695Y323804D01*
X626363D01*
X624697Y325470D01*
Y327136D01*
X626363Y328802D01*
X624697Y330469D01*
Y332135D01*
X626363Y328802D02*
X629695D01*
X634693Y323804D02*
Y325470D01*
X636360D01*
Y323804D01*
X634693D01*
X659686Y333801D02*
X653021D01*
Y328802D01*
X656353D01*
X653021D01*
Y323804D01*
X663018D02*
Y330469D01*
X666350Y333801D01*
X669682Y330469D01*
Y323804D01*
Y328802D01*
X663018D01*
X673014Y333801D02*
Y323804D01*
X678013D01*
X679679Y325470D01*
Y327136D01*
X678013Y328802D01*
X673014D01*
X678013D01*
X679679Y330469D01*
Y332135D01*
X678013Y333801D01*
X673014D01*
X693008D02*
Y323804D01*
Y328802D01*
X699673D01*
Y333801D01*
Y323804D01*
X708003Y333801D02*
X704671D01*
X703005Y332135D01*
Y325470D01*
X704671Y323804D01*
X708003D01*
X709669Y325470D01*
Y332135D01*
X708003Y333801D01*
X713002D02*
Y325470D01*
X714668Y323804D01*
X718000D01*
X719666Y325470D01*
Y333801D01*
X729663Y332135D02*
X727997Y333801D01*
X724664D01*
X722998Y332135D01*
Y330469D01*
X724664Y328802D01*
X727997D01*
X729663Y327136D01*
Y325470D01*
X727997Y323804D01*
X724664D01*
X722998Y325470D01*
X739660Y333801D02*
X732995D01*
Y323804D01*
X739660D01*
X732995Y328802D02*
X736327D01*
X752989Y333801D02*
X759653D01*
X756321D01*
Y323804D01*
X767984Y333801D02*
X764652D01*
X762985Y332135D01*
Y325470D01*
X764652Y323804D01*
X767984D01*
X769650Y325470D01*
Y332135D01*
X767984Y333801D01*
X782979D02*
X786311D01*
X784645D01*
Y323804D01*
X782979D01*
X786311D01*
X791310D02*
Y333801D01*
X797974Y323804D01*
Y333801D01*
X807971Y332135D02*
X806305Y333801D01*
X802973D01*
X801306Y332135D01*
Y325470D01*
X802973Y323804D01*
X806305D01*
X807971Y325470D01*
X811303Y323804D02*
Y333801D01*
X816302D01*
X817968Y332135D01*
Y328802D01*
X816302Y327136D01*
X811303D01*
X814635D02*
X817968Y323804D01*
X827964Y333801D02*
X821300D01*
Y323804D01*
X827964D01*
X821300Y328802D02*
X824632D01*
X831297Y323804D02*
Y333801D01*
X834629Y330469D01*
X837961Y333801D01*
Y323804D01*
X847958Y333801D02*
X841293D01*
Y323804D01*
X847958D01*
X841293Y328802D02*
X844626D01*
X851290Y323804D02*
Y333801D01*
X857955Y323804D01*
Y333801D01*
X861287D02*
X867951D01*
X864619D01*
Y323804D01*
X887945Y332135D02*
X886279Y333801D01*
X882947D01*
X881281Y332135D01*
Y330469D01*
X882947Y328802D01*
X886279D01*
X887945Y327136D01*
Y325470D01*
X886279Y323804D01*
X882947D01*
X881281Y325470D01*
X897942Y333801D02*
X891277D01*
Y323804D01*
X897942D01*
X891277Y328802D02*
X894610D01*
X901274Y323804D02*
Y333801D01*
X906273D01*
X907939Y332135D01*
Y328802D01*
X906273Y327136D01*
X901274D01*
X904606D02*
X907939Y323804D01*
X911271Y333801D02*
X914603D01*
X912937D01*
Y323804D01*
X911271D01*
X914603D01*
X919602D02*
Y330469D01*
X922934Y333801D01*
X926266Y330469D01*
Y323804D01*
Y328802D01*
X919602D01*
X929598Y333801D02*
Y323804D01*
X936263D01*
X949592D02*
Y333801D01*
X956256Y323804D01*
Y333801D01*
X959589D02*
Y325470D01*
X961255Y323804D01*
X964587D01*
X966253Y325470D01*
Y333801D01*
X969585Y323804D02*
Y333801D01*
X972918Y330469D01*
X976250Y333801D01*
Y323804D01*
X979582Y333801D02*
Y323804D01*
X984581D01*
X986247Y325470D01*
Y327136D01*
X984581Y328802D01*
X979582D01*
X984581D01*
X986247Y330469D01*
Y332135D01*
X984581Y333801D01*
X979582D01*
X996243D02*
X989579D01*
Y323804D01*
X996243D01*
X989579Y328802D02*
X992911D01*
X999576Y323804D02*
Y333801D01*
X1004574D01*
X1006240Y332135D01*
Y328802D01*
X1004574Y327136D01*
X999576D01*
X1002908D02*
X1006240Y323804D01*
X1019569Y333801D02*
X1022901D01*
X1021235D01*
Y323804D01*
X1019569D01*
X1022901D01*
X1027900D02*
Y333801D01*
X1034564Y323804D01*
Y333801D01*
X1054558Y332135D02*
X1052892Y333801D01*
X1049559D01*
X1047893Y332135D01*
Y330469D01*
X1049559Y328802D01*
X1052892D01*
X1054558Y327136D01*
Y325470D01*
X1052892Y323804D01*
X1049559D01*
X1047893Y325470D01*
X1057890Y333801D02*
X1061222D01*
X1059556D01*
Y323804D01*
X1057890D01*
X1061222D01*
X1066221Y333801D02*
Y323804D01*
X1072885D01*
X1076217Y333801D02*
Y323804D01*
Y327136D01*
X1082882Y333801D01*
X1077884Y328802D01*
X1082882Y323804D01*
X1087880Y322138D02*
X1089547Y323804D01*
Y325470D01*
X1087880D01*
Y323804D01*
X1089547D01*
X1087880Y322138D01*
X1086214Y320472D01*
X1112872Y332135D02*
X1111206Y333801D01*
X1107874D01*
X1106208Y332135D01*
Y330469D01*
X1107874Y328802D01*
X1111206D01*
X1112872Y327136D01*
Y325470D01*
X1111206Y323804D01*
X1107874D01*
X1106208Y325470D01*
X1116205Y333801D02*
X1122869D01*
X1119537D01*
Y323804D01*
X1126201D02*
Y330469D01*
X1129534Y333801D01*
X1132866Y330469D01*
Y323804D01*
Y328802D01*
X1126201D01*
X1136198Y323804D02*
Y333801D01*
X1141197D01*
X1142863Y332135D01*
Y328802D01*
X1141197Y327136D01*
X1136198D01*
X1139530D02*
X1142863Y323804D01*
X1146195Y333801D02*
X1152859D01*
X1149527D01*
Y323804D01*
X1156192Y333801D02*
X1159524D01*
X1157858D01*
Y323804D01*
X1156192D01*
X1159524D01*
X1164522D02*
Y333801D01*
X1171187Y323804D01*
Y333801D01*
X1181184Y332135D02*
X1179517Y333801D01*
X1176185D01*
X1174519Y332135D01*
Y325470D01*
X1176185Y323804D01*
X1179517D01*
X1181184Y325470D01*
Y328802D01*
X1177851D01*
X1194513Y323804D02*
Y330469D01*
X1197845Y333801D01*
X1201177Y330469D01*
Y323804D01*
Y328802D01*
X1194513D01*
X1204509Y333801D02*
X1211174D01*
X1207842D01*
Y323804D01*
X1224503Y332135D02*
X1226169Y333801D01*
X1229501D01*
X1231168Y332135D01*
Y325470D01*
X1229501Y323804D01*
X1226169D01*
X1224503Y325470D01*
Y332135D01*
X1234500D02*
X1236166Y333801D01*
X1239498D01*
X1241164Y332135D01*
Y325470D01*
X1239498Y323804D01*
X1236166D01*
X1234500Y325470D01*
Y332135D01*
X1246163Y322138D02*
X1247829Y323804D01*
Y325470D01*
X1246163D01*
Y323804D01*
X1247829D01*
X1246163Y322138D01*
X1244497Y320472D01*
X1271155Y333801D02*
X1264490D01*
Y328802D01*
X1267822D01*
X1264490D01*
Y323804D01*
X1279485Y333801D02*
X1276153D01*
X1274487Y332135D01*
Y325470D01*
X1276153Y323804D01*
X1279485D01*
X1281151Y325470D01*
Y332135D01*
X1279485Y333801D01*
X1284484Y323804D02*
Y333801D01*
X1289482D01*
X1291148Y332135D01*
Y328802D01*
X1289482Y327136D01*
X1284484D01*
X1287816D02*
X1291148Y323804D01*
X1311142Y333801D02*
X1304477D01*
Y323804D01*
X1311142D01*
X1304477Y328802D02*
X1307809D01*
X1314474Y323804D02*
Y330469D01*
X1317806Y333801D01*
X1321138Y330469D01*
Y323804D01*
Y328802D01*
X1314474D01*
X1331135Y332135D02*
X1329469Y333801D01*
X1326137D01*
X1324471Y332135D01*
Y325470D01*
X1326137Y323804D01*
X1329469D01*
X1331135Y325470D01*
X1334467Y333801D02*
Y323804D01*
Y328802D01*
X1341132D01*
Y333801D01*
Y323804D01*
X1354461Y333801D02*
Y323804D01*
X1359459D01*
X1361125Y325470D01*
Y327136D01*
X1359459Y328802D01*
X1354461D01*
X1359459D01*
X1361125Y330469D01*
Y332135D01*
X1359459Y333801D01*
X1354461D01*
X1369456D02*
X1366124D01*
X1364458Y332135D01*
Y325470D01*
X1366124Y323804D01*
X1369456D01*
X1371122Y325470D01*
Y332135D01*
X1369456Y333801D01*
X1374454Y323804D02*
Y330469D01*
X1377787Y333801D01*
X1381119Y330469D01*
Y323804D01*
Y328802D01*
X1374454D01*
X1384451Y323804D02*
Y333801D01*
X1389450D01*
X1391116Y332135D01*
Y328802D01*
X1389450Y327136D01*
X1384451D01*
X1387784D02*
X1391116Y323804D01*
X1394448Y333801D02*
Y323804D01*
X1399446D01*
X1401113Y325470D01*
Y332135D01*
X1399446Y333801D01*
X1394448D01*
X614700Y316539D02*
X616366Y318205D01*
X619698D01*
X621364Y316539D01*
Y309874D01*
X619698Y308208D01*
X616366D01*
X614700Y309874D01*
Y316539D01*
X624697Y309874D02*
X626363Y308208D01*
X629695D01*
X631361Y309874D01*
Y316539D01*
X629695Y318205D01*
X626363D01*
X624697Y316539D01*
Y314872D01*
X626363Y313206D01*
X631361D01*
X634693Y308208D02*
Y309874D01*
X636360D01*
Y308208D01*
X634693D01*
X659686Y316539D02*
X658019Y318205D01*
X654687D01*
X653021Y316539D01*
Y314872D01*
X654687Y313206D01*
X658019D01*
X659686Y311540D01*
Y309874D01*
X658019Y308208D01*
X654687D01*
X653021Y309874D01*
X663018Y308208D02*
Y318205D01*
X666350Y314872D01*
X669682Y318205D01*
Y308208D01*
X673014D02*
Y314872D01*
X676347Y318205D01*
X679679Y314872D01*
Y308208D01*
Y313206D01*
X673014D01*
X683011Y318205D02*
Y308208D01*
X689676D01*
X693008Y318205D02*
Y308208D01*
X699673D01*
X709669Y318205D02*
X703005D01*
Y308208D01*
X709669D01*
X703005Y313206D02*
X706337D01*
X719666Y316539D02*
X718000Y318205D01*
X714668D01*
X713002Y316539D01*
Y314872D01*
X714668Y313206D01*
X718000D01*
X719666Y311540D01*
Y309874D01*
X718000Y308208D01*
X714668D01*
X713002Y309874D01*
X722998Y318205D02*
X729663D01*
X726331D01*
Y308208D01*
X742992Y318205D02*
X749656D01*
X746324D01*
Y308208D01*
X752989D02*
Y318205D01*
X757987D01*
X759653Y316539D01*
Y313206D01*
X757987Y311540D01*
X752989D01*
X756321D02*
X759653Y308208D01*
X762985D02*
Y314872D01*
X766318Y318205D01*
X769650Y314872D01*
Y308208D01*
Y313206D01*
X762985D01*
X779647Y316539D02*
X777981Y318205D01*
X774648D01*
X772982Y316539D01*
Y309874D01*
X774648Y308208D01*
X777981D01*
X779647Y309874D01*
X789643Y318205D02*
X782979D01*
Y308208D01*
X789643D01*
X782979Y313206D02*
X786311D01*
X802973Y318205D02*
X806305D01*
X804639D01*
Y308208D01*
X802973D01*
X806305D01*
X817968Y316539D02*
X816302Y318205D01*
X812969D01*
X811303Y316539D01*
Y314872D01*
X812969Y313206D01*
X816302D01*
X817968Y311540D01*
Y309874D01*
X816302Y308208D01*
X812969D01*
X811303Y309874D01*
X837961Y308208D02*
X831297D01*
X837961Y314872D01*
Y316539D01*
X836295Y318205D01*
X832963D01*
X831297Y316539D01*
X847958Y318205D02*
X841293D01*
Y313206D01*
X844626Y314872D01*
X846292D01*
X847958Y313206D01*
Y309874D01*
X846292Y308208D01*
X842960D01*
X841293Y309874D01*
X861287Y308208D02*
Y318205D01*
X864619Y314872D01*
X867951Y318205D01*
Y308208D01*
X871284Y318205D02*
X874616D01*
X872950D01*
Y308208D01*
X871284D01*
X874616D01*
X879614Y318205D02*
Y308208D01*
X886279D01*
X614700Y292612D02*
X618032D01*
X616366D01*
Y302609D01*
X614700Y300942D01*
X623031D02*
X624697Y302609D01*
X628029D01*
X629695Y300942D01*
Y294278D01*
X628029Y292612D01*
X624697D01*
X623031Y294278D01*
Y300942D01*
X633027Y292612D02*
Y294278D01*
X634693D01*
Y292612D01*
X633027D01*
X658019Y300942D02*
X656353Y302609D01*
X653021D01*
X651355Y300942D01*
Y299276D01*
X653021Y297610D01*
X656353D01*
X658019Y295944D01*
Y294278D01*
X656353Y292612D01*
X653021D01*
X651355Y294278D01*
X661352Y292612D02*
Y302609D01*
X664684Y299276D01*
X668016Y302609D01*
Y292612D01*
X671348D02*
Y299276D01*
X674681Y302609D01*
X678013Y299276D01*
Y292612D01*
Y297610D01*
X671348D01*
X681345Y302609D02*
Y292612D01*
X688010D01*
X691342Y302609D02*
Y292612D01*
X698006D01*
X708003Y302609D02*
X701339D01*
Y292612D01*
X708003D01*
X701339Y297610D02*
X704671D01*
X718000Y300942D02*
X716334Y302609D01*
X713002D01*
X711335Y300942D01*
Y299276D01*
X713002Y297610D01*
X716334D01*
X718000Y295944D01*
Y294278D01*
X716334Y292612D01*
X713002D01*
X711335Y294278D01*
X721332Y302609D02*
X727997D01*
X724664D01*
Y292612D01*
X741326Y302609D02*
Y292612D01*
X746324D01*
X747990Y294278D01*
Y300942D01*
X746324Y302609D01*
X741326D01*
X751323Y292612D02*
Y302609D01*
X756321D01*
X757987Y300942D01*
Y297610D01*
X756321Y295944D01*
X751323D01*
X754655D02*
X757987Y292612D01*
X761319Y302609D02*
X764652D01*
X762985D01*
Y292612D01*
X761319D01*
X764652D01*
X769650Y302609D02*
Y292612D01*
X776314D01*
X779647Y302609D02*
Y292612D01*
X786311D01*
X799640Y302609D02*
X802973D01*
X801306D01*
Y292612D01*
X799640D01*
X802973D01*
X814635Y300942D02*
X812969Y302609D01*
X809637D01*
X807971Y300942D01*
Y299276D01*
X809637Y297610D01*
X812969D01*
X814635Y295944D01*
Y294278D01*
X812969Y292612D01*
X809637D01*
X807971Y294278D01*
X834629Y292612D02*
X827964D01*
X834629Y299276D01*
Y300942D01*
X832963Y302609D01*
X829631D01*
X827964Y300942D01*
X837961D02*
X839627Y302609D01*
X842960D01*
X844626Y300942D01*
Y299276D01*
X842960Y297610D01*
X844626Y295944D01*
Y294278D01*
X842960Y292612D01*
X839627D01*
X837961Y294278D01*
Y295944D01*
X839627Y297610D01*
X837961Y299276D01*
Y300942D01*
X839627Y297610D02*
X842960D01*
X857955Y292612D02*
Y302609D01*
X861287Y299276D01*
X864619Y302609D01*
Y292612D01*
X867951Y302609D02*
X871284D01*
X869618D01*
Y292612D01*
X867951D01*
X871284D01*
X876282Y302609D02*
Y292612D01*
X882947D01*
X614700Y277016D02*
X618032D01*
X616366D01*
Y287013D01*
X614700Y285346D01*
X623031Y277016D02*
X626363D01*
X624697D01*
Y287013D01*
X623031Y285346D01*
X631361Y277016D02*
Y278682D01*
X633027D01*
Y277016D01*
X631361D01*
X656353Y285346D02*
X654687Y287013D01*
X651355D01*
X649689Y285346D01*
Y278682D01*
X651355Y277016D01*
X654687D01*
X656353Y278682D01*
X664684Y287013D02*
X661352D01*
X659686Y285346D01*
Y278682D01*
X661352Y277016D01*
X664684D01*
X666350Y278682D01*
Y285346D01*
X664684Y287013D01*
X669682Y277016D02*
Y287013D01*
X674681D01*
X676347Y285346D01*
Y282014D01*
X674681Y280348D01*
X669682D01*
X679679Y277016D02*
Y287013D01*
X684677D01*
X686343Y285346D01*
Y282014D01*
X684677Y280348D01*
X679679D01*
X696340Y287013D02*
X689676D01*
Y277016D01*
X696340D01*
X689676Y282014D02*
X693008D01*
X699673Y277016D02*
Y287013D01*
X704671D01*
X706337Y285346D01*
Y282014D01*
X704671Y280348D01*
X699673D01*
X703005D02*
X706337Y277016D01*
X719666Y287013D02*
Y277016D01*
X722998Y280348D01*
X726331Y277016D01*
Y287013D01*
X736327D02*
X729663D01*
Y277016D01*
X736327D01*
X729663Y282014D02*
X732995D01*
X739660Y287013D02*
X742992D01*
X741326D01*
Y277016D01*
X739660D01*
X742992D01*
X754655Y285346D02*
X752989Y287013D01*
X749656D01*
X747990Y285346D01*
Y278682D01*
X749656Y277016D01*
X752989D01*
X754655Y278682D01*
Y282014D01*
X751323D01*
X757987Y287013D02*
Y277016D01*
Y282014D01*
X764651D01*
Y287013D01*
Y277016D01*
X767984Y287013D02*
X774648D01*
X771316D01*
Y277016D01*
X787977Y287013D02*
X791310D01*
X789643D01*
Y277016D01*
X787977D01*
X791310D01*
X802973Y285346D02*
X801306Y287013D01*
X797974D01*
X796308Y285346D01*
Y283680D01*
X797974Y282014D01*
X801306D01*
X802973Y280348D01*
Y278682D01*
X801306Y277016D01*
X797974D01*
X796308Y278682D01*
X822966Y277016D02*
X816302D01*
X822966Y283680D01*
Y285346D01*
X821300Y287013D01*
X817968D01*
X816302Y285346D01*
X841293Y287013D02*
X837961D01*
X836295Y285346D01*
Y278682D01*
X837961Y277016D01*
X841293D01*
X842960Y278682D01*
Y285346D01*
X841293Y287013D01*
X846292D02*
X852956D01*
Y285346D01*
X846292Y278682D01*
Y277016D01*
X852956D01*
X856289D02*
Y278682D01*
X857955D01*
Y277016D01*
X856289D01*
X874616Y287013D02*
X877948D01*
X876282D01*
Y277016D01*
X874616D01*
X877948D01*
X882947D02*
Y287013D01*
X889611Y277016D01*
Y287013D01*
X892943Y277016D02*
Y287013D01*
X899608Y277016D01*
Y287013D01*
X909605D02*
X902940D01*
Y277016D01*
X909605D01*
X902940Y282014D02*
X906273D01*
X912937Y277016D02*
Y287013D01*
X917935D01*
X919602Y285346D01*
Y282014D01*
X917935Y280348D01*
X912937D01*
X916269D02*
X919602Y277016D01*
X939595D02*
X937929Y278682D01*
X936263Y277016D01*
X934597D01*
X932930Y278682D01*
Y280348D01*
X934597Y282014D01*
X932930Y283680D01*
Y285346D01*
X934597Y287013D01*
X936263D01*
X937929Y285346D01*
Y283680D01*
X936263Y282014D01*
X937929Y280348D01*
Y278682D01*
X939595Y282014D02*
X937929Y280348D01*
X934597Y282014D02*
X936263D01*
X957922Y287013D02*
X954590D01*
X952924Y285346D01*
Y278682D01*
X954590Y277016D01*
X957922D01*
X959589Y278682D01*
Y285346D01*
X957922Y287013D01*
X962921D02*
Y278682D01*
X964587Y277016D01*
X967919D01*
X969585Y278682D01*
Y287013D01*
X972918D02*
X979582D01*
X976250D01*
Y277016D01*
X989579Y287013D02*
X982914D01*
Y277016D01*
X989579D01*
X982914Y282014D02*
X986247D01*
X992911Y277016D02*
Y287013D01*
X997910D01*
X999576Y285346D01*
Y282014D01*
X997910Y280348D01*
X992911D01*
X996243D02*
X999576Y277016D01*
X614700Y259753D02*
X618032D01*
X616366D01*
Y269750D01*
X614700Y268084D01*
X629695Y259753D02*
X623031D01*
X629695Y266418D01*
Y268084D01*
X628029Y269750D01*
X624697D01*
X623031Y268084D01*
X633027Y259753D02*
Y261420D01*
X634693D01*
Y259753D01*
X633027D01*
X651355D02*
X654687D01*
X653021D01*
Y269750D01*
X651355Y268084D01*
X659686D02*
X661352Y269750D01*
X664684D01*
X666350Y268084D01*
Y261420D01*
X664684Y259753D01*
X661352D01*
X659686Y261420D01*
Y268084D01*
X669682D02*
X671348Y269750D01*
X674681D01*
X676347Y268084D01*
Y261420D01*
X674681Y259753D01*
X671348D01*
X669682Y261420D01*
Y268084D01*
X679679Y261420D02*
X688010Y269750D01*
X679679D02*
Y271416D01*
X681345D01*
Y269750D01*
X679679D01*
X686343Y259753D02*
Y261420D01*
X688010D01*
Y259753D01*
X686343D01*
X708003Y269750D02*
X701339D01*
Y259753D01*
X708003D01*
X701339Y264752D02*
X704671D01*
X711335Y269750D02*
Y259753D01*
X718000D01*
X727997Y269750D02*
X721332D01*
Y259753D01*
X727997D01*
X721332Y264752D02*
X724664D01*
X737993Y268084D02*
X736327Y269750D01*
X732995D01*
X731329Y268084D01*
Y261420D01*
X732995Y259753D01*
X736327D01*
X737993Y261420D01*
X741326Y269750D02*
X747990D01*
X744658D01*
Y259753D01*
X751323D02*
Y269750D01*
X756321D01*
X757987Y268084D01*
Y264752D01*
X756321Y263086D01*
X751323D01*
X754655D02*
X757987Y259753D01*
X761319Y269750D02*
X764652D01*
X762985D01*
Y259753D01*
X761319D01*
X764652D01*
X776314Y268084D02*
X774648Y269750D01*
X771316D01*
X769650Y268084D01*
Y261420D01*
X771316Y259753D01*
X774648D01*
X776314Y261420D01*
X779647Y259753D02*
Y266418D01*
X782979Y269750D01*
X786311Y266418D01*
Y259753D01*
Y264752D01*
X779647D01*
X789643Y269750D02*
Y259753D01*
X796308D01*
X809637Y269750D02*
X816302D01*
X812969D01*
Y259753D01*
X826298Y269750D02*
X819634D01*
Y259753D01*
X826298D01*
X819634Y264752D02*
X822966D01*
X836295Y268084D02*
X834629Y269750D01*
X831297D01*
X829631Y268084D01*
Y266418D01*
X831297Y264752D01*
X834629D01*
X836295Y263086D01*
Y261420D01*
X834629Y259753D01*
X831297D01*
X829631Y261420D01*
X839627Y269750D02*
X846292D01*
X842960D01*
Y259753D01*
X866285Y269750D02*
X859621D01*
Y264752D01*
X862953D01*
X859621D01*
Y259753D01*
X874616Y269750D02*
X871284D01*
X869618Y268084D01*
Y261420D01*
X871284Y259753D01*
X874616D01*
X876282Y261420D01*
Y268084D01*
X874616Y269750D01*
X879614Y259753D02*
Y269750D01*
X884613D01*
X886279Y268084D01*
Y264752D01*
X884613Y263086D01*
X879614D01*
X882947D02*
X886279Y259753D01*
X904606Y269750D02*
X901274D01*
X899608Y268084D01*
Y261420D01*
X901274Y259753D01*
X904606D01*
X906273Y261420D01*
Y268084D01*
X904606Y269750D01*
X909605Y259753D02*
Y269750D01*
X914603D01*
X916269Y268084D01*
Y264752D01*
X914603Y263086D01*
X909605D01*
X926266Y269750D02*
X919602D01*
Y259753D01*
X926266D01*
X919602Y264752D02*
X922934D01*
X929598Y259753D02*
Y269750D01*
X936263Y259753D01*
Y269750D01*
X946259Y268084D02*
X944593Y269750D01*
X941261D01*
X939595Y268084D01*
Y266418D01*
X941261Y264752D01*
X944593D01*
X946259Y263086D01*
Y261420D01*
X944593Y259753D01*
X941261D01*
X939595Y261420D01*
X966253Y259753D02*
X964587Y261420D01*
X962921Y259753D01*
X961255D01*
X959589Y261420D01*
Y263086D01*
X961255Y264752D01*
X959589Y266418D01*
Y268084D01*
X961255Y269750D01*
X962921D01*
X964587Y268084D01*
Y266418D01*
X962921Y264752D01*
X964587Y263086D01*
Y261420D01*
X966253Y264752D02*
X964587Y263086D01*
X961255Y264752D02*
X962921D01*
X986247Y268084D02*
X984581Y269750D01*
X981248D01*
X979582Y268084D01*
Y266418D01*
X981248Y264752D01*
X984581D01*
X986247Y263086D01*
Y261420D01*
X984581Y259753D01*
X981248D01*
X979582Y261420D01*
X989579Y269750D02*
Y259753D01*
Y264752D01*
X996243D01*
Y269750D01*
Y259753D01*
X1004574Y269750D02*
X1001242D01*
X999576Y268084D01*
Y261420D01*
X1001242Y259753D01*
X1004574D01*
X1006240Y261420D01*
Y268084D01*
X1004574Y269750D01*
X1009572Y259753D02*
Y269750D01*
X1014571D01*
X1016237Y268084D01*
Y264752D01*
X1014571Y263086D01*
X1009572D01*
X1012905D02*
X1016237Y259753D01*
X1019569Y269750D02*
X1026234D01*
X1022901D01*
Y259753D01*
X1036230Y268084D02*
X1034564Y269750D01*
X1031232D01*
X1029566Y268084D01*
Y266418D01*
X1031232Y264752D01*
X1034564D01*
X1036230Y263086D01*
Y261420D01*
X1034564Y259753D01*
X1031232D01*
X1029566Y261420D01*
X614700Y244157D02*
X618032D01*
X616366D01*
Y254154D01*
X614700Y252488D01*
X623031D02*
X624697Y254154D01*
X628029D01*
X629695Y252488D01*
Y250822D01*
X628029Y249156D01*
X626363D01*
X628029D01*
X629695Y247490D01*
Y245824D01*
X628029Y244157D01*
X624697D01*
X623031Y245824D01*
X633027Y244157D02*
Y245824D01*
X634693D01*
Y244157D01*
X633027D01*
X658019Y254154D02*
X651355D01*
Y249156D01*
X654687D01*
X651355D01*
Y244157D01*
X661352Y254154D02*
X664684D01*
X663018D01*
Y244157D01*
X661352D01*
X664684D01*
X669682D02*
Y254154D01*
X676347Y244157D01*
Y254154D01*
X679679Y244157D02*
Y250822D01*
X683011Y254154D01*
X686343Y250822D01*
Y244157D01*
Y249156D01*
X679679D01*
X689676Y254154D02*
Y244157D01*
X696340D01*
X716334Y254154D02*
X709669D01*
Y249156D01*
X713002D01*
X709669D01*
Y244157D01*
X719666Y254154D02*
X722998D01*
X721332D01*
Y244157D01*
X719666D01*
X722998D01*
X727997D02*
Y254154D01*
X734661Y244157D01*
Y254154D01*
X737993D02*
X741326D01*
X739660D01*
Y244157D01*
X737993D01*
X741326D01*
X752989Y252488D02*
X751323Y254154D01*
X747990D01*
X746324Y252488D01*
Y250822D01*
X747990Y249156D01*
X751323D01*
X752989Y247490D01*
Y245824D01*
X751323Y244157D01*
X747990D01*
X746324Y245824D01*
X756321Y254154D02*
Y244157D01*
Y249156D01*
X762985D01*
Y254154D01*
Y244157D01*
X776314Y254154D02*
Y244157D01*
X779647Y247490D01*
X782979Y244157D01*
Y254154D01*
X786311D02*
X789643D01*
X787977D01*
Y244157D01*
X786311D01*
X789643D01*
X794642Y254154D02*
Y244157D01*
X801306D01*
X804639Y254154D02*
Y244157D01*
X811303D01*
X824632Y254154D02*
Y244157D01*
Y249156D01*
X831297D01*
Y254154D01*
Y244157D01*
X834629D02*
Y250822D01*
X837961Y254154D01*
X841293Y250822D01*
Y244157D01*
Y249156D01*
X834629D01*
X844626Y254154D02*
Y247490D01*
X847958Y244157D01*
X851290Y247490D01*
Y254154D01*
X861287D02*
X854622D01*
Y244157D01*
X861287D01*
X854622Y249156D02*
X857955D01*
X874616Y244157D02*
Y254154D01*
X881281Y244157D01*
Y254154D01*
X889611D02*
X886279D01*
X884613Y252488D01*
Y245824D01*
X886279Y244157D01*
X889611D01*
X891277Y245824D01*
Y252488D01*
X889611Y254154D01*
X904606Y244157D02*
Y254154D01*
X911271Y244157D01*
Y254154D01*
X914603D02*
X917935D01*
X916269D01*
Y244157D01*
X914603D01*
X917935D01*
X929598Y252488D02*
X927932Y254154D01*
X924600D01*
X922934Y252488D01*
Y245824D01*
X924600Y244157D01*
X927932D01*
X929598Y245824D01*
X932930Y254154D02*
Y244157D01*
Y247490D01*
X939595Y254154D01*
X934597Y249156D01*
X939595Y244157D01*
X949592Y252488D02*
X947926Y254154D01*
X944593D01*
X942927Y252488D01*
Y250822D01*
X944593Y249156D01*
X947926D01*
X949592Y247490D01*
Y245824D01*
X947926Y244157D01*
X944593D01*
X942927Y245824D01*
X967919Y254154D02*
X964587D01*
X962921Y252488D01*
Y245824D01*
X964587Y244157D01*
X967919D01*
X969585Y245824D01*
Y252488D01*
X967919Y254154D01*
X972918Y244157D02*
Y254154D01*
X977916D01*
X979582Y252488D01*
Y249156D01*
X977916Y247490D01*
X972918D01*
X976250D02*
X979582Y244157D01*
X999576Y252488D02*
X997910Y254154D01*
X994577D01*
X992911Y252488D01*
Y245824D01*
X994577Y244157D01*
X997910D01*
X999576Y245824D01*
X1002908Y254154D02*
Y244157D01*
Y249156D01*
X1009572D01*
Y254154D01*
Y244157D01*
X1012905Y254154D02*
X1016237D01*
X1014571D01*
Y244157D01*
X1012905D01*
X1016237D01*
X1021235D02*
Y254154D01*
X1026234D01*
X1027900Y252488D01*
Y249156D01*
X1026234Y247490D01*
X1021235D01*
X1037897Y252488D02*
X1036230Y254154D01*
X1032898D01*
X1031232Y252488D01*
Y250822D01*
X1032898Y249156D01*
X1036230D01*
X1037897Y247490D01*
Y245824D01*
X1036230Y244157D01*
X1032898D01*
X1031232Y245824D01*
X1051226Y254154D02*
X1054558D01*
X1052892D01*
Y244157D01*
X1051226D01*
X1054558D01*
X1059556D02*
Y254154D01*
X1066221Y244157D01*
Y254154D01*
X1086214Y252488D02*
X1084548Y254154D01*
X1081216D01*
X1079550Y252488D01*
Y250822D01*
X1081216Y249156D01*
X1084548D01*
X1086214Y247490D01*
Y245824D01*
X1084548Y244157D01*
X1081216D01*
X1079550Y245824D01*
X1094545Y254154D02*
X1091213D01*
X1089547Y252488D01*
Y245824D01*
X1091213Y244157D01*
X1094545D01*
X1096211Y245824D01*
Y252488D01*
X1094545Y254154D01*
X1099543D02*
Y244157D01*
X1106208D01*
X1109540Y254154D02*
Y244157D01*
X1114538D01*
X1116205Y245824D01*
Y252488D01*
X1114538Y254154D01*
X1109540D01*
X1126201D02*
X1119537D01*
Y244157D01*
X1126201D01*
X1119537Y249156D02*
X1122869D01*
X1129534Y244157D02*
Y254154D01*
X1134532D01*
X1136198Y252488D01*
Y249156D01*
X1134532Y247490D01*
X1129534D01*
X1132866D02*
X1136198Y244157D01*
X1139530D02*
Y254154D01*
X1142863Y250822D01*
X1146195Y254154D01*
Y244157D01*
X1149527D02*
Y250822D01*
X1152859Y254154D01*
X1156192Y250822D01*
Y244157D01*
Y249156D01*
X1149527D01*
X1166189Y252488D02*
X1164522Y254154D01*
X1161190D01*
X1159524Y252488D01*
Y250822D01*
X1161190Y249156D01*
X1164522D01*
X1166189Y247490D01*
Y245824D01*
X1164522Y244157D01*
X1161190D01*
X1159524Y245824D01*
X1169521Y254154D02*
Y244157D01*
Y247490D01*
X1176185Y254154D01*
X1171187Y249156D01*
X1176185Y244157D01*
X750700Y190200D02*
Y200197D01*
X757365Y190200D01*
Y200197D01*
X760697Y190200D02*
X767361Y196864D01*
X770693Y190200D02*
Y196864D01*
X774026Y200197D01*
X777358Y196864D01*
Y190200D01*
Y195198D01*
X770693D01*
X1009007Y143910D02*
X1007340Y145576D01*
X1004008D01*
X1002342Y143910D01*
Y137245D01*
X1004008Y135579D01*
X1007340D01*
X1009007Y137245D01*
X1014005Y135579D02*
X1017337D01*
X1019003Y137245D01*
Y140577D01*
X1017337Y142244D01*
X1014005D01*
X1012339Y140577D01*
Y137245D01*
X1014005Y135579D01*
X1022336D02*
Y142244D01*
X1024002D01*
X1025668Y140577D01*
Y135579D01*
Y140577D01*
X1027334Y142244D01*
X1029000Y140577D01*
Y135579D01*
X1032332Y132247D02*
Y142244D01*
X1037331D01*
X1038997Y140577D01*
Y137245D01*
X1037331Y135579D01*
X1032332D01*
X1043995Y142244D02*
X1047328D01*
X1048994Y140577D01*
Y135579D01*
X1043995D01*
X1042329Y137245D01*
X1043995Y138911D01*
X1048994D01*
X1052326Y135579D02*
Y142244D01*
X1057324D01*
X1058990Y140577D01*
Y135579D01*
X1062323Y142244D02*
Y137245D01*
X1063989Y135579D01*
X1068987D01*
Y133913D01*
X1067321Y132247D01*
X1065655D01*
X1068987Y135579D02*
Y142244D01*
X1072319D02*
X1073985D01*
Y140577D01*
X1072319D01*
Y142244D01*
Y137245D02*
X1073985D01*
Y135579D01*
X1072319D01*
Y137245D01*
X1090647Y135579D02*
Y145576D01*
X1097311Y135579D01*
Y145576D01*
X1100644Y135579D02*
X1107308Y142244D01*
X1110640Y135579D02*
Y142244D01*
X1113973Y145576D01*
X1117305Y142244D01*
Y135579D01*
Y140577D01*
X1110640D01*
X1243442Y76583D02*
Y86580D01*
X1250107Y76583D01*
Y86580D01*
X1253439Y76583D02*
X1260103Y83248D01*
X1263435Y76583D02*
Y83248D01*
X1266768Y86580D01*
X1270100Y83248D01*
Y76583D01*
Y81581D01*
X1263435D01*
X1136957Y85864D02*
X1135291Y87530D01*
X1131959D01*
X1130293Y85864D01*
Y79199D01*
X1131959Y77533D01*
X1135291D01*
X1136957Y79199D01*
X1141956Y84198D02*
X1145288D01*
X1146954Y82532D01*
Y77533D01*
X1141956D01*
X1140290Y79199D01*
X1141956Y80866D01*
X1146954D01*
X1153619Y74201D02*
X1155285D01*
X1156951Y75867D01*
Y84198D01*
X1151953D01*
X1150286Y82532D01*
Y79199D01*
X1151953Y77533D01*
X1156951D01*
X1165282D02*
X1161949D01*
X1160283Y79199D01*
Y82532D01*
X1161949Y84198D01*
X1165282D01*
X1166948Y82532D01*
Y80866D01*
X1160283D01*
X1186941Y85864D02*
X1185275Y87530D01*
X1181943D01*
X1180277Y85864D01*
Y79199D01*
X1181943Y77533D01*
X1185275D01*
X1186941Y79199D01*
X1191940Y77533D02*
X1195272D01*
X1196938Y79199D01*
Y82532D01*
X1195272Y84198D01*
X1191940D01*
X1190274Y82532D01*
Y79199D01*
X1191940Y77533D01*
X1206935Y87530D02*
Y77533D01*
X1201937D01*
X1200270Y79199D01*
Y82532D01*
X1201937Y84198D01*
X1206935D01*
X1215265Y77533D02*
X1211933D01*
X1210267Y79199D01*
Y82532D01*
X1211933Y84198D01*
X1215265D01*
X1216932Y82532D01*
Y80866D01*
X1210267D01*
X1220264Y84198D02*
X1221930D01*
Y82532D01*
X1220264D01*
Y84198D01*
Y79199D02*
X1221930D01*
Y77533D01*
X1220264D01*
Y79199D01*
X703542Y83090D02*
X705208Y84757D01*
X708540D01*
X710207Y83090D01*
Y76426D01*
X708540Y74760D01*
X705208D01*
X703542Y76426D01*
Y83090D01*
X713539Y74760D02*
Y76426D01*
X715205D01*
Y74760D01*
X713539D01*
X728534D02*
X721869D01*
X728534Y81424D01*
Y83090D01*
X726868Y84757D01*
X723535D01*
X721869Y83090D01*
X960365Y74787D02*
X953700D01*
X960365Y81451D01*
Y83118D01*
X958698Y84784D01*
X955366D01*
X953700Y83118D01*
X963697D02*
X965363Y84784D01*
X968695D01*
X970361Y83118D01*
Y76453D01*
X968695Y74787D01*
X965363D01*
X963697Y76453D01*
Y83118D01*
X973693Y74787D02*
X977026D01*
X975360D01*
Y84784D01*
X973693Y83118D01*
X982024D02*
X983690Y84784D01*
X987023D01*
X988689Y83118D01*
Y81451D01*
X987023Y79785D01*
X988689Y78119D01*
Y76453D01*
X987023Y74787D01*
X983690D01*
X982024Y76453D01*
Y78119D01*
X983690Y79785D01*
X982024Y81451D01*
Y83118D01*
X983690Y79785D02*
X987023D01*
X992021D02*
X998685D01*
X1002018Y74787D02*
Y84784D01*
X1005350Y81451D01*
X1008682Y84784D01*
Y74787D01*
X1012014D02*
Y81451D01*
X1015347Y84784D01*
X1018679Y81451D01*
Y74787D01*
Y79785D01*
X1012014D01*
X1022011Y74787D02*
Y84784D01*
X1027010D01*
X1028676Y83118D01*
Y79785D01*
X1027010Y78119D01*
X1022011D01*
X1025344D02*
X1028676Y74787D01*
X1032008Y79785D02*
X1038673D01*
X1042005Y83118D02*
X1043671Y84784D01*
X1047003D01*
X1048669Y83118D01*
Y81451D01*
X1047003Y79785D01*
X1045337D01*
X1047003D01*
X1048669Y78119D01*
Y76453D01*
X1047003Y74787D01*
X1043671D01*
X1042005Y76453D01*
X1052002Y74787D02*
X1055334D01*
X1053668D01*
Y84784D01*
X1052002Y83118D01*
X752700Y135200D02*
Y145197D01*
X759365Y135200D01*
Y145197D01*
X764363Y141865D02*
X767695D01*
X769361Y140198D01*
Y135200D01*
X764363D01*
X762697Y136866D01*
X764363Y138532D01*
X769361D01*
X774360Y143531D02*
Y141865D01*
X772693D01*
X776026D01*
X774360D01*
Y136866D01*
X776026Y135200D01*
X781024Y145197D02*
Y135200D01*
Y140198D01*
X782690Y141865D01*
X786023D01*
X787689Y140198D01*
Y135200D01*
X792687Y141865D02*
X796019D01*
X797685Y140198D01*
Y135200D01*
X792687D01*
X791021Y136866D01*
X792687Y138532D01*
X797685D01*
X801018Y135200D02*
Y141865D01*
X806016D01*
X807682Y140198D01*
Y135200D01*
X821011D02*
Y141865D01*
X824343Y145197D01*
X827676Y141865D01*
Y135200D01*
Y140198D01*
X821011D01*
X831008Y135200D02*
Y136866D01*
X832674D01*
Y135200D01*
X831008D01*
X856000Y143531D02*
X854334Y145197D01*
X851002D01*
X849335Y143531D01*
Y141865D01*
X851002Y140198D01*
X854334D01*
X856000Y138532D01*
Y136866D01*
X854334Y135200D01*
X851002D01*
X849335Y136866D01*
X865997Y141865D02*
X860998D01*
X859332Y140198D01*
Y136866D01*
X860998Y135200D01*
X865997D01*
X869329Y145197D02*
Y135200D01*
Y140198D01*
X870995Y141865D01*
X874327D01*
X875994Y140198D01*
Y135200D01*
X879326Y141865D02*
Y135200D01*
Y138532D01*
X880992Y140198D01*
X882658Y141865D01*
X884324D01*
X890989D02*
X894321D01*
X895987Y140198D01*
Y135200D01*
X890989D01*
X889322Y136866D01*
X890989Y138532D01*
X895987D01*
X899319Y135200D02*
Y141865D01*
X900985D01*
X902652Y140198D01*
Y135200D01*
Y140198D01*
X904318Y141865D01*
X905984Y140198D01*
Y135200D01*
X1045700Y201197D02*
Y191200D01*
X1050698D01*
X1052365Y192866D01*
Y199531D01*
X1050698Y201197D01*
X1045700D01*
X1060695Y191200D02*
X1057363D01*
X1055697Y192866D01*
Y196198D01*
X1057363Y197864D01*
X1060695D01*
X1062361Y196198D01*
Y194532D01*
X1055697D01*
X1067360Y199531D02*
Y197864D01*
X1065693D01*
X1069026D01*
X1067360D01*
Y192866D01*
X1069026Y191200D01*
X1079023D02*
X1075690D01*
X1074024Y192866D01*
Y196198D01*
X1075690Y197864D01*
X1079023D01*
X1080689Y196198D01*
Y194532D01*
X1074024D01*
X1090685Y197864D02*
X1085687D01*
X1084021Y196198D01*
Y192866D01*
X1085687Y191200D01*
X1090685D01*
X1095684Y199531D02*
Y197864D01*
X1094018D01*
X1097350D01*
X1095684D01*
Y192866D01*
X1097350Y191200D01*
X1104014D02*
X1107347D01*
X1109013Y192866D01*
Y196198D01*
X1107347Y197864D01*
X1104014D01*
X1102348Y196198D01*
Y192866D01*
X1104014Y191200D01*
X1112345Y197864D02*
Y191200D01*
Y194532D01*
X1114011Y196198D01*
X1115677Y197864D01*
X1117344D01*
X1139003Y199531D02*
X1137337Y201197D01*
X1134005D01*
X1132339Y199531D01*
Y192866D01*
X1134005Y191200D01*
X1137337D01*
X1139003Y192866D01*
X1142335Y191200D02*
X1145668D01*
X1144002D01*
Y197864D01*
X1142335D01*
X1150666D02*
Y191200D01*
Y194532D01*
X1152332Y196198D01*
X1153998Y197864D01*
X1155665D01*
X1167327D02*
X1162329D01*
X1160663Y196198D01*
Y192866D01*
X1162329Y191200D01*
X1167327D01*
X1170660Y197864D02*
Y192866D01*
X1172326Y191200D01*
X1177324D01*
Y197864D01*
X1180656Y191200D02*
X1183989D01*
X1182323D01*
Y197864D01*
X1180656D01*
X1190653Y199531D02*
Y197864D01*
X1188987D01*
X1192319D01*
X1190653D01*
Y192866D01*
X1192319Y191200D01*
X632023Y26988D02*
Y36985D01*
X638688Y26988D01*
Y36985D01*
X643686Y26988D02*
X647018D01*
X648684Y28654D01*
Y31986D01*
X647018Y33652D01*
X643686D01*
X642020Y31986D01*
Y28654D01*
X643686Y26988D01*
X653683Y35319D02*
Y33652D01*
X652016D01*
X655349D01*
X653683D01*
Y28654D01*
X655349Y26988D01*
X665346D02*
X662013D01*
X660347Y28654D01*
Y31986D01*
X662013Y33652D01*
X665346D01*
X667012Y31986D01*
Y30320D01*
X660347D01*
X670344Y26988D02*
X675342D01*
X677008Y28654D01*
X675342Y30320D01*
X672010D01*
X670344Y31986D01*
X672010Y33652D01*
X677008D01*
X680341D02*
X682007D01*
Y31986D01*
X680341D01*
Y33652D01*
Y28654D02*
X682007D01*
Y26988D01*
X680341D01*
Y28654D01*
X632393Y74787D02*
Y84784D01*
X637391D01*
X639057Y83118D01*
Y79785D01*
X637391Y78119D01*
X632393D01*
X635725D02*
X639057Y74787D01*
X649054Y84784D02*
X642390D01*
Y74787D01*
X649054D01*
X642390Y79785D02*
X645722D01*
X652387Y84784D02*
Y78119D01*
X655719Y74787D01*
X659051Y78119D01*
Y84784D01*
X674046Y74787D02*
Y84784D01*
X677379D02*
Y74787D01*
X672380Y81451D02*
X677379D01*
X679045D01*
X672380Y78119D02*
X679045D01*
X682377Y81451D02*
X684043D01*
Y79785D01*
X682377D01*
Y81451D01*
Y76453D02*
X684043D01*
Y74787D01*
X682377D01*
Y76453D01*
X899543Y85825D02*
Y75828D01*
X904541D01*
X906207Y77495D01*
Y84159D01*
X904541Y85825D01*
X899543D01*
X911206Y82493D02*
X914538D01*
X916204Y80827D01*
Y75828D01*
X911206D01*
X909540Y77495D01*
X911206Y79161D01*
X916204D01*
X921203Y84159D02*
Y82493D01*
X919536D01*
X922869D01*
X921203D01*
Y77495D01*
X922869Y75828D01*
X932866D02*
X929533D01*
X927867Y77495D01*
Y80827D01*
X929533Y82493D01*
X932866D01*
X934532Y80827D01*
Y79161D01*
X927867D01*
X937864Y82493D02*
X939530D01*
Y80827D01*
X937864D01*
Y82493D01*
Y77495D02*
X939530D01*
Y75828D01*
X937864D01*
Y77495D01*
X886589Y190801D02*
Y200798D01*
X891587D01*
X893254Y199132D01*
Y195799D01*
X891587Y194133D01*
X886589D01*
X896586Y197466D02*
Y190801D01*
Y194133D01*
X898252Y195799D01*
X899918Y197466D01*
X901584D01*
X908249Y190801D02*
X911581D01*
X913247Y192467D01*
Y195799D01*
X911581Y197466D01*
X908249D01*
X906583Y195799D01*
Y192467D01*
X908249Y190801D01*
X916579Y187469D02*
X918245D01*
X919912Y189135D01*
Y197466D01*
X931575Y190801D02*
X928242D01*
X926576Y192467D01*
Y195799D01*
X928242Y197466D01*
X931575D01*
X933241Y195799D01*
Y194133D01*
X926576D01*
X943237Y197466D02*
X938239D01*
X936573Y195799D01*
Y192467D01*
X938239Y190801D01*
X943237D01*
X948236Y199132D02*
Y197466D01*
X946570D01*
X949902D01*
X948236D01*
Y192467D01*
X949902Y190801D01*
X964897D02*
Y200798D01*
X971562Y190801D01*
Y200798D01*
X976560Y197466D02*
X979892D01*
X981558Y195799D01*
Y190801D01*
X976560D01*
X974894Y192467D01*
X976560Y194133D01*
X981558D01*
X984891Y190801D02*
Y197466D01*
X986557D01*
X988223Y195799D01*
Y190801D01*
Y195799D01*
X989889Y197466D01*
X991555Y195799D01*
Y190801D01*
X999886D02*
X996554D01*
X994887Y192467D01*
Y195799D01*
X996554Y197466D01*
X999886D01*
X1001552Y195799D01*
Y194133D01*
X994887D01*
X1004884Y197466D02*
X1006550D01*
Y195799D01*
X1004884D01*
Y197466D01*
Y192467D02*
X1006550D01*
Y190801D01*
X1004884D01*
Y192467D01*
X631004Y144231D02*
Y134234D01*
X636002D01*
X637669Y135900D01*
Y142565D01*
X636002Y144231D01*
X631004D01*
X645999Y134234D02*
X642667D01*
X641001Y135900D01*
Y139232D01*
X642667Y140899D01*
X645999D01*
X647665Y139232D01*
Y137566D01*
X641001D01*
X650997Y134234D02*
X655996D01*
X657662Y135900D01*
X655996Y137566D01*
X652664D01*
X650997Y139232D01*
X652664Y140899D01*
X657662D01*
X660994Y134234D02*
X664327D01*
X662660D01*
Y140899D01*
X660994D01*
X672657Y130902D02*
X674323D01*
X675989Y132568D01*
Y140899D01*
X670991D01*
X669325Y139232D01*
Y135900D01*
X670991Y134234D01*
X675989D01*
X679322D02*
Y140899D01*
X684320D01*
X685986Y139232D01*
Y134234D01*
X694317D02*
X690985D01*
X689319Y135900D01*
Y139232D01*
X690985Y140899D01*
X694317D01*
X695983Y139232D01*
Y137566D01*
X689319D01*
X699315Y140899D02*
Y134234D01*
Y137566D01*
X700981Y139232D01*
X702647Y140899D01*
X704314D01*
X709312D02*
X710978D01*
Y139232D01*
X709312D01*
Y140899D01*
Y135900D02*
X710978D01*
Y134234D01*
X709312D01*
Y135900D01*
X630110Y190534D02*
Y200531D01*
X635108D01*
X636774Y198865D01*
Y195532D01*
X635108Y193866D01*
X630110D01*
X640107Y197198D02*
Y190534D01*
Y193866D01*
X641773Y195532D01*
X643439Y197198D01*
X645105D01*
X651770Y190534D02*
X655102D01*
X656768Y192200D01*
Y195532D01*
X655102Y197198D01*
X651770D01*
X650104Y195532D01*
Y192200D01*
X651770Y190534D01*
X660100Y187202D02*
X661766D01*
X663433Y188868D01*
Y197198D01*
X675096Y190534D02*
X671763D01*
X670097Y192200D01*
Y195532D01*
X671763Y197198D01*
X675096D01*
X676762Y195532D01*
Y193866D01*
X670097D01*
X686758Y197198D02*
X681760D01*
X680094Y195532D01*
Y192200D01*
X681760Y190534D01*
X686758D01*
X691757Y198865D02*
Y197198D01*
X690091D01*
X693423D01*
X691757D01*
Y192200D01*
X693423Y190534D01*
X710084D02*
Y200531D01*
X713416D02*
Y190534D01*
X708418Y197198D02*
X713416D01*
X715083D01*
X708418Y193866D02*
X715083D01*
X718415Y197198D02*
X720081D01*
Y195532D01*
X718415D01*
Y197198D01*
Y192200D02*
X720081D01*
Y190534D01*
X718415D01*
Y192200D01*
D36*
X1142708Y-16250D02*
Y-9052D01*
X1146307D01*
X1147507Y-10252D01*
Y-12651D01*
X1146307Y-13851D01*
X1142708D01*
X1151106Y-11452D02*
X1153505D01*
X1154704Y-12651D01*
Y-16250D01*
X1151106D01*
X1149906Y-15050D01*
X1151106Y-13851D01*
X1154704D01*
X1161902Y-9052D02*
Y-16250D01*
X1158303D01*
X1157104Y-15050D01*
Y-12651D01*
X1158303Y-11452D01*
X1161902D01*
X1176298Y-10252D02*
X1175098Y-9052D01*
X1172699D01*
X1171499Y-10252D01*
Y-11452D01*
X1172699Y-12651D01*
X1175098D01*
X1176298Y-13851D01*
Y-15050D01*
X1175098Y-16250D01*
X1172699D01*
X1171499Y-15050D01*
X1178697Y-9052D02*
Y-16250D01*
Y-12651D01*
X1179896Y-11452D01*
X1182296D01*
X1183495Y-12651D01*
Y-16250D01*
X1187094Y-11452D02*
X1189493D01*
X1190693Y-12651D01*
Y-16250D01*
X1187094D01*
X1185894Y-15050D01*
X1187094Y-13851D01*
X1190693D01*
X1193092Y-18649D02*
Y-11452D01*
X1196691D01*
X1197891Y-12651D01*
Y-15050D01*
X1196691Y-16250D01*
X1193092D01*
X1203889D02*
X1201489D01*
X1200290Y-15050D01*
Y-12651D01*
X1201489Y-11452D01*
X1203889D01*
X1205088Y-12651D01*
Y-13851D01*
X1200290D01*
X1083724Y-9052D02*
Y-13851D01*
X1086123Y-16250D01*
X1088522Y-13851D01*
Y-9052D01*
X1090921Y-16250D02*
X1093320D01*
X1092121D01*
Y-11452D01*
X1090921D01*
X1098119D02*
X1100518D01*
X1101718Y-12651D01*
Y-16250D01*
X1098119D01*
X1096919Y-15050D01*
X1098119Y-13851D01*
X1101718D01*
X1104117Y-16250D02*
X1108915Y-11452D01*
X1111315Y-16250D02*
Y-9052D01*
X1114913D01*
X1116113Y-10252D01*
Y-12651D01*
X1114913Y-13851D01*
X1111315D01*
X1119712Y-11452D02*
X1122111D01*
X1123311Y-12651D01*
Y-16250D01*
X1119712D01*
X1118512Y-15050D01*
X1119712Y-13851D01*
X1123311D01*
X1130508Y-9052D02*
Y-16250D01*
X1126910D01*
X1125710Y-15050D01*
Y-12651D01*
X1126910Y-11452D01*
X1130508D01*
X964758Y-9052D02*
Y-16250D01*
X968357D01*
X969557Y-15050D01*
Y-10252D01*
X968357Y-9052D01*
X964758D01*
X971956Y-11452D02*
Y-16250D01*
Y-13851D01*
X973155Y-12651D01*
X974355Y-11452D01*
X975555D01*
X979153Y-16250D02*
X981553D01*
X980353D01*
Y-11452D01*
X979153D01*
X985151Y-16250D02*
X987551D01*
X986351D01*
Y-9052D01*
X985151D01*
X991150Y-16250D02*
X993549D01*
X992349D01*
Y-9052D01*
X991150D01*
X1004345D02*
Y-16250D01*
X1009144D01*
X1012743Y-11452D02*
X1015142D01*
X1016341Y-12651D01*
Y-16250D01*
X1012743D01*
X1011543Y-15050D01*
X1012743Y-13851D01*
X1016341D01*
X1018741Y-11452D02*
Y-15050D01*
X1019940Y-16250D01*
X1023539D01*
Y-17450D01*
X1022340Y-18649D01*
X1021140D01*
X1023539Y-16250D02*
Y-11452D01*
X1029537Y-16250D02*
X1027138D01*
X1025938Y-15050D01*
Y-12651D01*
X1027138Y-11452D01*
X1029537D01*
X1030737Y-12651D01*
Y-13851D01*
X1025938D01*
X1033136Y-11452D02*
Y-16250D01*
Y-13851D01*
X1034336Y-12651D01*
X1035535Y-11452D01*
X1036735D01*
X1047531Y-16250D02*
Y-9052D01*
X1051130D01*
X1052330Y-10252D01*
Y-12651D01*
X1051130Y-13851D01*
X1047531D01*
X1055929Y-11452D02*
X1058328D01*
X1059527Y-12651D01*
Y-16250D01*
X1055929D01*
X1054729Y-15050D01*
X1055929Y-13851D01*
X1059527D01*
X1061927Y-16250D02*
X1064326D01*
X1063126D01*
Y-11452D01*
X1061927D01*
X1067925D02*
Y-16250D01*
Y-13851D01*
X1069124Y-12651D01*
X1070324Y-11452D01*
X1071524D01*
X891378Y-9052D02*
Y-16250D01*
Y-12651D01*
X896176D01*
Y-9052D01*
Y-16250D01*
X899775D02*
X902174D01*
X903374Y-15050D01*
Y-12651D01*
X902174Y-11452D01*
X899775D01*
X898576Y-12651D01*
Y-15050D01*
X899775Y-16250D01*
X905773D02*
X908173D01*
X906973D01*
Y-9052D01*
X905773D01*
X915370Y-16250D02*
X912971D01*
X911771Y-15050D01*
Y-12651D01*
X912971Y-11452D01*
X915370D01*
X916570Y-12651D01*
Y-13851D01*
X911771D01*
X926167Y-9052D02*
X930965D01*
X928566D01*
Y-16250D01*
X933364Y-11452D02*
Y-15050D01*
X934564Y-16250D01*
X938163D01*
Y-17450D01*
X936963Y-18649D01*
X935763D01*
X938163Y-16250D02*
Y-11452D01*
X940562Y-18649D02*
Y-11452D01*
X944161D01*
X945360Y-12651D01*
Y-15050D01*
X944161Y-16250D01*
X940562D01*
X951359D02*
X948959D01*
X947760Y-15050D01*
Y-12651D01*
X948959Y-11452D01*
X951359D01*
X952558Y-12651D01*
Y-13851D01*
X947760D01*
X840790Y-16250D02*
Y-9052D01*
X844389D01*
X845589Y-10252D01*
Y-12651D01*
X844389Y-13851D01*
X840790D01*
X847988Y-16250D02*
X850387D01*
X849188D01*
Y-9052D01*
X847988D01*
X855186Y-11452D02*
X857585D01*
X858784Y-12651D01*
Y-16250D01*
X855186D01*
X853986Y-15050D01*
X855186Y-13851D01*
X858784D01*
X862383Y-10252D02*
Y-11452D01*
X861184D01*
X863583D01*
X862383D01*
Y-15050D01*
X863583Y-16250D01*
X870781D02*
X868381D01*
X867182Y-15050D01*
Y-12651D01*
X868381Y-11452D01*
X870781D01*
X871980Y-12651D01*
Y-13851D01*
X867182D01*
X879178Y-9052D02*
Y-16250D01*
X875579D01*
X874380Y-15050D01*
Y-12651D01*
X875579Y-11452D01*
X879178D01*
X726824Y-9052D02*
Y-16250D01*
Y-12651D01*
X731622D01*
Y-9052D01*
Y-16250D01*
X735221D02*
X737620D01*
X738820Y-15050D01*
Y-12651D01*
X737620Y-11452D01*
X735221D01*
X734021Y-12651D01*
Y-15050D01*
X735221Y-16250D01*
X741219D02*
X743618D01*
X742419D01*
Y-9052D01*
X741219D01*
X750816Y-16250D02*
X748417D01*
X747217Y-15050D01*
Y-12651D01*
X748417Y-11452D01*
X750816D01*
X752015Y-12651D01*
Y-13851D01*
X747217D01*
X766411Y-10252D02*
X765211Y-9052D01*
X762812D01*
X761612Y-10252D01*
Y-11452D01*
X762812Y-12651D01*
X765211D01*
X766411Y-13851D01*
Y-15050D01*
X765211Y-16250D01*
X762812D01*
X761612Y-15050D01*
X768810Y-16250D02*
X771209D01*
X770010D01*
Y-11452D01*
X768810D01*
X774808D02*
X779607D01*
X774808Y-16250D01*
X779607D01*
X785605D02*
X783205D01*
X782006Y-15050D01*
Y-12651D01*
X783205Y-11452D01*
X785605D01*
X786804Y-12651D01*
Y-13851D01*
X782006D01*
X677636Y-10252D02*
X676436Y-9052D01*
X674037D01*
X672838Y-10252D01*
Y-15050D01*
X674037Y-16250D01*
X676436D01*
X677636Y-15050D01*
X681235Y-16250D02*
X683634D01*
X684834Y-15050D01*
Y-12651D01*
X683634Y-11452D01*
X681235D01*
X680035Y-12651D01*
Y-15050D01*
X681235Y-16250D01*
X687233Y-11452D02*
Y-15050D01*
X688433Y-16250D01*
X692031D01*
Y-11452D01*
X694431Y-16250D02*
Y-11452D01*
X698029D01*
X699229Y-12651D01*
Y-16250D01*
X702828Y-10252D02*
Y-11452D01*
X701628D01*
X704028D01*
X702828D01*
Y-15050D01*
X704028Y-16250D01*
X627048Y-10252D02*
X625849Y-9052D01*
X623450D01*
X622250Y-10252D01*
Y-11452D01*
X623450Y-12651D01*
X625849D01*
X627048Y-13851D01*
Y-15050D01*
X625849Y-16250D01*
X623450D01*
X622250Y-15050D01*
X629448Y-11452D02*
Y-15050D01*
X630647Y-16250D01*
X634246D01*
Y-17450D01*
X633046Y-18649D01*
X631847D01*
X634246Y-16250D02*
Y-11452D01*
X636645Y-16250D02*
Y-11452D01*
X637845D01*
X639045Y-12651D01*
Y-16250D01*
Y-12651D01*
X640244Y-11452D01*
X641444Y-12651D01*
Y-16250D01*
X643843Y-9052D02*
Y-16250D01*
X647442D01*
X648641Y-15050D01*
Y-13851D01*
Y-12651D01*
X647442Y-11452D01*
X643843D01*
X652240Y-16250D02*
X654639D01*
X655839Y-15050D01*
Y-12651D01*
X654639Y-11452D01*
X652240D01*
X651041Y-12651D01*
Y-15050D01*
X652240Y-16250D01*
X658238D02*
X660638D01*
X659438D01*
Y-9052D01*
X658238D01*
D37*
X-21001Y79406D02*
Y81406D01*
Y80406D01*
X-26999D01*
X-25999Y79406D01*
X-26999Y88403D02*
Y84404D01*
X-24000D01*
X-25000Y86404D01*
Y87404D01*
X-24000Y88403D01*
X-22001D01*
X-21001Y87404D01*
Y85404D01*
X-22001Y84404D01*
X-25999Y90403D02*
X-26999Y91402D01*
Y93402D01*
X-25999Y94401D01*
X-22001D01*
X-21001Y93402D01*
Y91402D01*
X-22001Y90403D01*
X-25999D01*
Y96401D02*
X-26999Y97400D01*
Y99400D01*
X-25999Y100399D01*
X-22001D01*
X-21001Y99400D01*
Y97400D01*
X-22001Y96401D01*
X-25999D01*
X-21001Y102399D02*
X-22001D01*
Y103398D01*
X-21001D01*
Y102399D01*
X-25999Y107397D02*
X-26999Y108397D01*
Y110396D01*
X-25999Y111396D01*
X-22001D01*
X-21001Y110396D01*
Y108397D01*
X-22001Y107397D01*
X-25999D01*
Y113395D02*
X-26999Y114395D01*
Y116394D01*
X-25999Y117394D01*
X-22001D01*
X-21001Y116394D01*
Y114395D01*
X-22001Y113395D01*
X-25999D01*
X282905Y-20001D02*
X278906D01*
Y-23000D01*
X280906Y-22000D01*
X281905D01*
X282905Y-23000D01*
Y-24999D01*
X281905Y-25999D01*
X279906D01*
X278906Y-24999D01*
X288903Y-20001D02*
X284904D01*
Y-23000D01*
X286904Y-22000D01*
X287903D01*
X288903Y-23000D01*
Y-24999D01*
X287903Y-25999D01*
X285904D01*
X284904Y-24999D01*
X290902Y-21001D02*
X291902Y-20001D01*
X293901D01*
X294901Y-21001D01*
Y-24999D01*
X293901Y-25999D01*
X291902D01*
X290902Y-24999D01*
Y-21001D01*
X296901D02*
X297900Y-20001D01*
X299900D01*
X300899Y-21001D01*
Y-24999D01*
X299900Y-25999D01*
X297900D01*
X296901Y-24999D01*
Y-21001D01*
X302899Y-25999D02*
Y-24999D01*
X303898D01*
Y-25999D01*
X302899D01*
X307897Y-21001D02*
X308897Y-20001D01*
X310896D01*
X311896Y-21001D01*
Y-24999D01*
X310896Y-25999D01*
X308897D01*
X307897Y-24999D01*
Y-21001D01*
X313895D02*
X314895Y-20001D01*
X316894D01*
X317894Y-21001D01*
Y-24999D01*
X316894Y-25999D01*
X314895D01*
X313895Y-24999D01*
Y-21001D01*
X-44301Y82905D02*
Y78906D01*
X-48300Y82905D01*
X-49299D01*
X-50299Y81905D01*
Y79906D01*
X-49299Y78906D01*
Y84904D02*
X-50299Y85904D01*
Y87903D01*
X-49299Y88903D01*
X-45301D01*
X-44301Y87903D01*
Y85904D01*
X-45301Y84904D01*
X-49299D01*
Y90902D02*
X-50299Y91902D01*
Y93901D01*
X-49299Y94901D01*
X-45301D01*
X-44301Y93901D01*
Y91902D01*
X-45301Y90902D01*
X-49299D01*
Y96900D02*
X-50299Y97900D01*
Y99900D01*
X-49299Y100899D01*
X-45301D01*
X-44301Y99900D01*
Y97900D01*
X-45301Y96900D01*
X-49299D01*
X-44301Y102899D02*
X-45301D01*
Y103898D01*
X-44301D01*
Y102899D01*
X-49299Y107897D02*
X-50299Y108897D01*
Y110896D01*
X-49299Y111896D01*
X-45301D01*
X-44301Y110896D01*
Y108897D01*
X-45301Y107897D01*
X-49299D01*
Y113895D02*
X-50299Y114895D01*
Y116894D01*
X-49299Y117894D01*
X-45301D01*
X-44301Y116894D01*
Y114895D01*
X-45301Y113895D01*
X-49299D01*
X282905Y-42101D02*
X280906Y-43101D01*
X278906Y-45100D01*
Y-47099D01*
X279906Y-48099D01*
X281905D01*
X282905Y-47099D01*
Y-46100D01*
X281905Y-45100D01*
X278906D01*
X284904Y-43101D02*
X285904Y-42101D01*
X287903D01*
X288903Y-43101D01*
Y-47099D01*
X287903Y-48099D01*
X285904D01*
X284904Y-47099D01*
Y-43101D01*
X290902D02*
X291902Y-42101D01*
X293901D01*
X294901Y-43101D01*
Y-47099D01*
X293901Y-48099D01*
X291902D01*
X290902Y-47099D01*
Y-43101D01*
X296901D02*
X297900Y-42101D01*
X299900D01*
X300899Y-43101D01*
Y-47099D01*
X299900Y-48099D01*
X297900D01*
X296901Y-47099D01*
Y-43101D01*
X302899Y-48099D02*
Y-47099D01*
X303898D01*
Y-48099D01*
X302899D01*
X307897Y-43101D02*
X308897Y-42101D01*
X310896D01*
X311896Y-43101D01*
Y-47099D01*
X310896Y-48099D01*
X308897D01*
X307897Y-47099D01*
Y-43101D01*
X313895D02*
X314895Y-42101D01*
X316894D01*
X317894Y-43101D01*
Y-47099D01*
X316894Y-48099D01*
X314895D01*
X313895Y-47099D01*
Y-43101D01*
M02*
