M48
;Layer_Color=9474304
;FILE_FORMAT=2:5
INCH,LZ
;TYPE=PLATED
T1F00S00C0.02800
T2F00S00C0.05512
T3F00S00C0.15000
%
T01
X0061085Y00513
X0085454Y0068946
X0116254Y0065146
X00993Y00421
X0169702Y00701
X0183691Y0070283
X02018Y009564
X0222277Y0057768
X02256Y0034
X0245219Y00342
X03034Y00455
X0303254Y0060446
X0293954Y0055841
X0319789Y0066009
X03251Y00349
X0375854Y005283
X0377354Y0067374
X0403254Y0067346
X0406539Y005283
X0406454Y0040646
X0461854Y0057146
X04654Y00687
X04868Y0057291
X05181Y00232
X05481Y00144
X0568874Y00689
X0585354Y0150146
X0540528Y01366
X04369Y01374
X0422513Y0133313
X04186Y01472
X03992Y01429
X0333989Y0148511
X0311354Y0129913
X0300054Y0118946
X02957Y01692
X03022Y01749
X02903Y01869
X0241157Y0147246
X0241302Y01365
X0142465Y01382
X00993Y01206
X00438Y0138
T02
X0061315Y0025
X0081
X0123815
X01435
X0186265Y00241
X020595
X0225635
X024532
X0265005
X028469
X0304375
X032406
X0343745
X036343
X0383115
X04028
X0418725Y01765
X043841
X0458095
X047778
X0497465
X051715
X0536835
X039904
X0379355
X035967
X0339985
X03203
X0274335
X025465
X0234965
X021528
X0195595
X017591
X0156225
X013654
X0116855
X009717
X0077485
X00578
T03
X0025Y0025
X0575
Y0175
X0025
M30
